<svg xmlns="http://www.w3.org/2000/svg" viewBox="0 0 268.01 97.62"><defs><style>.cls-1{fill:#231f20;}.cls-2{fill:#3c97d3;}.cls-3{fill:#965ba5;}.cls-4{fill:#5ebe7a;}.cls-5{fill:#f29d1f;}</style></defs><title>pdc-varition-3-over-white</title><g id="Layer_2" data-name="Layer 2"><g id="over_white" data-name="over white"><path class="cls-1" d="M5.78,38v15H.07V14.19H5.72v4.12a10.47,10.47,0,0,1,9-4.71c7.12,0,12.48,5.42,12.48,14.31V28c0,9-5.36,14.6-12.54,14.6A10.52,10.52,0,0,1,5.78,38Zm15.37-9.83v-.42c0-5.94-3.12-9.18-7.89-9.18S5.43,22.43,5.43,28v.47c0,5.48,2.94,9.18,7.83,9.18C18,37.62,21.15,34.15,21.15,28.15Z"/><path class="cls-1" d="M38,19.67a8.35,8.35,0,0,1,8.47-6c6,0,9.66,4,9.66,11.36V42H50.29V25.38c0-4.36-1.82-6.65-5.59-6.65-4.3,0-6.71,3.59-6.71,10V42H32.33V2.3H38Z"/><path class="cls-1" d="M69.19,27.62,60,14.19h6.53l6.3,9.54,6.24-9.54h6.3L76,27.56,85.91,42H79.38L72.49,31.44,65.48,42h-6.3Z"/><path class="cls-1" d="M163.63,28.35c0-8.83,5.3-14.6,12.54-14.6a10.59,10.59,0,0,1,9,4.77V2.45h5.65V42.13h-5.65V38.07a10.45,10.45,0,0,1-9,4.65C169,42.72,163.63,37.36,163.63,28.35Zm21.78,0v-.47c0-5.48-2.94-9.18-7.83-9.18-4.71,0-7.89,3.47-7.89,9.47v.42c0,5.94,3.12,9.18,7.89,9.18S185.41,33.88,185.41,28.35Z"/><path class="cls-1" d="M195.89,34.83c0-6.24,4.65-7.66,10.83-9,4.71-1,7.6-1.3,8.19-2.83v-.41c0-2.29-1.71-4.06-5.95-4.06s-6.36,1.88-6.59,5v.36h-5.83c.17-6.24,5.12-10,12.48-10,7.12,0,11.36,3.18,11.36,10.24V37.83l.06,4.3h-5.59V38c-1.89,3.29-5.36,4.88-9.36,4.88C199.54,42.83,195.89,39.6,195.89,34.83Zm19-3.89V27.53c-1.71,1.17-4.65,1.65-7.36,2.29-3.18.83-5.77,1.83-5.77,4.77,0,2.3,1.71,3.83,4.77,3.83C210.61,38.42,214.44,36.36,214.91,30.94Z"/><path class="cls-1" d="M234.93,42.13c-5.07-.24-6.36-2.53-6.42-7V19.28h-4.42V14.34h4.42V8.92l5.59-3.47v8.89h6v4.94h-6V34.47c0,1.77.71,2.59,2.47,2.59h3.3v5.07Z"/><path class="cls-1" d="M243.46,34.83c0-6.24,4.65-7.66,10.84-9,4.71-1,7.59-1.3,8.18-2.83v-.41c0-2.29-1.71-4.06-6-4.06s-6.36,1.88-6.59,5v.36h-5.83c.18-6.24,5.12-10,12.48-10,7.13,0,11.36,3.18,11.36,10.24V37.83l.06,4.3h-5.59V38c-1.88,3.29-5.36,4.88-9.36,4.88C247.11,42.83,243.46,39.6,243.46,34.83Zm19-3.89V27.53c-1.71,1.17-4.65,1.65-7.36,2.29-3.18.83-5.77,1.83-5.77,4.77,0,2.3,1.71,3.83,4.77,3.83C258.18,38.42,262,36.36,262.48,30.94Z"/><path class="cls-1" d="M0,83.41c0-8.18,5.57-14.1,13.57-14.1,6.44,0,10.5,3.48,12.18,8.82L20.3,79.81c-.93-3.48-2.9-5.68-6.84-5.68-4.76,0-7.72,3.77-7.72,9.22v.23c0,5.4,2.79,9.22,7.54,9.22,4.41,0,6.32-2.26,7.25-6L26,88.51c-1.79,5.57-5.91,9.11-12.58,9.11C5.22,97.62,0,91.76,0,83.41Z"/><path class="cls-1" d="M28.59,83.52c0-8.35,5.69-14.21,13.75-14.21S56,75.17,56,83.52s-5.74,14.1-13.81,14.1S28.59,91.87,28.59,83.52Zm21.7.18v-.23c0-5.75-3.08-9.34-7.95-9.34s-8,3.59-8,9.34v.23c0,5.62,3,9.1,7.88,9.1S50.29,89.27,50.29,83.7Z"/><path class="cls-1" d="M66.76,74.94a8.44,8.44,0,0,1,8.41-5.74c5.91,0,9.51,4,9.51,11.31V97.15H78.94V80.8c0-4.29-1.8-6.56-5.51-6.56-4.24,0-6.67,3.54-6.67,9.81v13.1H61.07V69.78h5.69Z"/><path class="cls-1" d="M92.74,74.65H88.16V69.78h4.58V67c0-6.32,1.8-8.64,7.43-9h4.4v5.22h-2.09c-3.65,0-4.11.29-4.11,4.18v2.38h5.57v4.87H98.37v22.5H92.74Z"/><path class="cls-1" d="M105.68,83.64c0-8.47,5.62-14.33,13.39-14.33,8.07,0,12.88,5.4,12.88,14v2.09H111.36c.35,4.7,3.31,7.54,8,7.54S126,90.72,127,88.05l5,2c-1.85,4.23-5.74,7.6-12.75,7.6C110.9,97.62,105.68,92.05,105.68,83.64Zm5.56-2.49h14.85c-.23-4.7-2.84-7.2-7.13-7.2C114.84,74,111.82,76.68,111.24,81.15Z"/><path class="cls-1" d="M142.79,74.82c.82-3.19,3-5.27,8-5.27h.87v5.56H149c-4.87,0-6.21,2.44-6.21,8v14h-5.68V69.78h5.68Z"/><path class="cls-1" d="M153.12,83.64c0-8.47,5.62-14.33,13.4-14.33,8.06,0,12.87,5.4,12.87,14v2.09H158.8c.35,4.7,3.31,7.54,7.95,7.54s6.67-2.26,7.71-4.93l5,2c-1.86,4.23-5.74,7.6-12.76,7.6C158.34,97.62,153.12,92.05,153.12,83.64Zm5.57-2.49h14.84c-.23-4.7-2.84-7.2-7.13-7.2C162.28,74,159.27,76.68,158.69,81.15Z"/><path class="cls-1" d="M190.24,74.94a8.44,8.44,0,0,1,8.41-5.74c5.91,0,9.51,4,9.51,11.31V97.15h-5.74V80.8c0-4.29-1.8-6.56-5.51-6.56-4.24,0-6.67,3.54-6.67,9.81v13.1h-5.69V69.78h5.69Z"/><path class="cls-1" d="M212.74,83.41c0-8.18,5.57-14.1,13.57-14.1,6.44,0,10.5,3.48,12.18,8.82L233,79.81c-.93-3.48-2.9-5.68-6.84-5.68-4.76,0-7.72,3.77-7.72,9.22v.23c0,5.4,2.79,9.22,7.54,9.22,4.41,0,6.33-2.26,7.25-6l5.46,1.68c-1.8,5.57-5.92,9.11-12.59,9.11C218,97.62,212.74,91.76,212.74,83.41Z"/><path class="cls-1" d="M241.57,83.64c0-8.47,5.62-14.33,13.39-14.33,8.07,0,12.88,5.4,12.88,14v2.09H247.25c.35,4.7,3.31,7.54,7.95,7.54s6.67-2.26,7.71-4.93l5,2c-1.86,4.23-5.75,7.6-12.76,7.6C246.79,97.62,241.57,92.05,241.57,83.64Zm5.57-2.49H262c-.23-4.7-2.84-7.2-7.13-7.2C250.73,74,247.71,76.68,247.14,81.15Z"/><g id="icon"><circle class="cls-2" cx="114.47" cy="9.7" r="9.7"/><circle class="cls-3" cx="114.47" cy="35.58" r="9.7"/><circle class="cls-4" cx="140.34" cy="9.7" r="9.7"/><circle class="cls-5" cx="140.34" cy="35.58" r="9.7"/></g></g></g></svg>