<?xml version="1.0" encoding="UTF-8"?>
<svg width="183px" height="207px" viewBox="0 0 183 207" version="1.1" xmlns="http://www.w3.org/2000/svg" xmlns:xlink="http://www.w3.org/1999/xlink">
    <!-- Generator: Sketch 47.1 (45422) - http://www.bohemiancoding.com/sketch -->
    <title>Fill 1</title>
    <desc>Created with Sketch.</desc>
    <defs></defs>
    <g id="Desktop" stroke="none" stroke-width="1" fill="none" fill-rule="evenodd">
        <g id="Bidtellect" transform="translate(-792.000000, -1139.000000)" fill="#F9AF94">
            <path d="M867.292596,1288.38259 L899.457955,1288.38259 C899.977936,1284.41519 901.052839,1280.85052 903.117955,1276.10968 C904.594984,1272.71287 906.34148,1269.45128 908.221227,1266.25672 C914.986305,1254.74005 923.313693,1244.61899 923.313693,1230.52935 C923.313693,1208.43729 905.434179,1190.53149 883.375276,1190.53149 C861.316373,1190.53149 843.454625,1208.43729 843.454625,1230.52935 C843.454625,1244.61899 851.763654,1254.74005 858.546499,1266.25672 C860.410256,1269.45128 862.155567,1272.71287 863.633188,1276.10968 C865.698305,1280.85052 866.772023,1284.41519 867.292596,1288.38259 L867.292596,1288.38259 Z M864.170936,1302.16914 L902.5808,1302.16914 C905.283159,1302.16914 907.499295,1304.38861 907.499295,1307.11223 C907.499295,1309.81925 905.283159,1312.03871 902.5808,1312.03871 L864.170936,1312.03871 C861.467392,1312.03871 859.251256,1309.81925 859.251256,1307.11223 C859.251256,1304.38861 861.467392,1302.16914 864.170936,1302.16914 L864.170936,1302.16914 Z M864.170936,1317.31751 L902.5808,1317.31751 C905.283159,1317.31751 907.499295,1319.53698 907.499295,1322.24399 C907.499295,1324.96761 905.283159,1327.18708 902.5808,1327.18708 L864.170936,1327.18708 C861.467392,1327.18708 859.251256,1324.96761 859.251256,1322.24399 C859.251256,1319.53698 861.467392,1317.31751 864.170936,1317.31751 L864.170936,1317.31751 Z M898.668509,1332.46588 L868.082043,1332.46588 C868.082043,1339.79688 874.930625,1345.73167 883.375276,1345.73167 C891.819334,1345.73167 898.668509,1339.79688 898.668509,1332.46588 L898.668509,1332.46588 Z M883.375276,1197.25632 C865.026713,1197.25632 850.169363,1212.15321 850.169363,1230.52935 L858.663761,1230.52935 C858.663761,1216.84363 869.710091,1205.76408 883.375276,1205.76408 L883.375276,1197.25632 Z M796.24714,1234.78323 L817.970247,1234.78323 C820.303645,1234.78323 822.218334,1232.86626 822.218334,1230.52935 C822.218334,1228.17584 820.303645,1226.27606 817.970247,1226.27606 L796.24714,1226.27606 C793.897159,1226.27606 791.999645,1228.17584 791.999645,1230.52935 C791.999645,1232.86626 793.897159,1234.78323 796.24714,1234.78323 L796.24714,1234.78323 Z M834.119849,1273.83921 L818.759693,1289.22364 C817.113878,1290.87074 817.113878,1293.57835 818.759693,1295.24206 C820.404917,1296.89035 823.107868,1296.89035 824.769674,1295.24206 L840.130421,1279.85881 C841.775052,1278.19392 841.775052,1275.4875 840.130421,1273.83921 C838.468023,1272.19151 835.765664,1272.19151 834.119849,1273.83921 L834.119849,1273.83921 Z M834.119849,1187.20229 C835.765664,1188.86719 838.468023,1188.86719 840.130421,1187.20229 C841.775052,1185.5546 841.775052,1182.84758 840.130421,1181.18328 L824.769674,1165.79944 C823.107868,1164.15175 820.404917,1164.15175 818.759693,1165.79944 C817.113878,1167.46375 817.113878,1170.17076 818.759693,1171.81846 L834.119849,1187.20229 Z M879.127781,1165.0094 C879.127781,1167.34631 881.04247,1169.26328 883.375276,1169.26328 C885.709266,1169.26328 887.622771,1167.34631 887.622771,1165.0094 L887.622771,1143.25305 C887.622771,1140.91674 885.709266,1138.99976 883.375276,1138.99976 C881.04247,1138.99976 879.127781,1140.91674 879.127781,1143.25305 L879.127781,1165.0094 Z M941.980878,1165.79944 L926.620722,1181.18328 C924.974907,1182.84758 924.974907,1185.5546 926.620722,1187.20229 C928.282528,1188.86719 930.98548,1188.86719 932.630703,1187.20229 L947.99145,1171.81846 C949.653256,1170.17076 949.653256,1167.46375 947.99145,1165.79944 C946.345635,1164.15175 943.643276,1164.15175 941.980878,1165.79944 L941.980878,1165.79944 Z M970.520586,1226.27606 L948.796887,1226.27606 C946.464082,1226.27606 944.549984,1228.17584 944.549984,1230.52935 C944.549984,1232.86626 946.464082,1234.78323 948.796887,1234.78323 L970.520586,1234.78323 C972.853984,1234.78323 974.768082,1232.86626 974.768082,1230.52935 C974.768082,1228.17584 972.853984,1226.27606 970.520586,1226.27606 L970.520586,1226.27606 Z M947.99145,1289.22364 L932.630703,1273.83921 C930.98548,1272.19151 928.282528,1272.19151 926.620722,1273.83921 C924.974907,1275.4875 924.974907,1278.19392 926.620722,1279.85881 L941.998645,1295.24206 C943.643276,1296.89035 946.345635,1296.89035 947.99145,1295.24206 C949.653256,1293.57835 949.653256,1290.87074 947.99145,1289.22364 L947.99145,1289.22364 Z M855.843548,1279.48871 C848.809596,1263.28102 834.959635,1251.15877 834.959635,1230.52935 C834.959635,1203.74628 856.632402,1182.02433 883.375276,1182.02433 C910.11815,1182.02433 931.808091,1203.74628 931.808091,1230.52935 C931.808091,1251.15877 917.940955,1263.28102 910.907596,1279.48871 C907.885431,1286.4324 907.499295,1289.66018 907.499295,1296.89035 L883.375276,1296.89035 L859.251256,1296.89035 C859.251256,1289.66018 858.865713,1286.4324 855.843548,1279.48871 L855.843548,1279.48871 Z" id="Fill-1"></path>
        </g>
    </g>
</svg>