<?xml version="1.0" encoding="UTF-8"?>
<svg width="1161px" height="719px" viewBox="0 0 1161 719" version="1.1" xmlns="http://www.w3.org/2000/svg" xmlns:xlink="http://www.w3.org/1999/xlink">
    <!-- Generator: Sketch 49.3 (51167) - http://www.bohemiancoding.com/sketch -->
    <title>Fill 4</title>
    <desc>Created with Sketch.</desc>
    <defs></defs>
    <g id="Service" stroke="none" stroke-width="1" fill="none" fill-rule="evenodd" opacity="0.25">
        <g id="Artboard" transform="translate(-562.000000, -413.000000)" fill="#FFFFFF">
            <path d="M1517.32241,1128.1519 C1517.28037,1127.97365 1517.23257,1127.79476 1517.1578,1127.6194 C1516.51833,1126.09753 1514.86974,1125.31624 1513.3142,1125.70352 L1497.26661,1072.77848 L1714.66181,1077.65761 L1716.41949,1077.93909 C1716.42976,1078.0279 1716.42976,1078.12183 1716.44741,1078.20967 L1517.32241,1128.1519 Z M1512.82906,1125.8526 C1511.94669,1126.22224 1511.31908,1126.93525 1511.01426,1127.76591 L1419.56411,1092.69286 L1361.66618,1070.48527 C1361.74287,1070.2429 1361.79228,1069.9938 1361.8141,1069.73892 L1496.88061,1072.77015 L1512.96157,1125.81252 C1512.91729,1125.82952 1512.87301,1125.83432 1512.82906,1125.8526 Z M1361.82757,1069.3696 C1361.81474,1068.97751 1361.74062,1068.5835 1361.57923,1068.20039 C1361.48586,1067.9811 1361.37259,1067.77913 1361.24168,1067.59286 L1388.13184,1045.12655 C1389.87476,1047.0187 1392.50839,1047.90579 1395.07593,1047.38418 L1395.43305,1047.29442 C1395.78664,1047.20593 1396.13991,1047.09565 1396.48452,1046.95234 C1396.70334,1046.85905 1396.91415,1046.75774 1397.11886,1046.64746 L1397.43555,1046.46023 C1399.7387,1045.07718 1401.07862,1042.5852 1401.03755,1039.98197 L1482.31541,1035.26314 C1482.34846,1035.56706 1482.41102,1035.87323 1482.53584,1036.16722 C1482.84515,1036.90458 1483.39767,1037.45537 1484.05416,1037.79904 L1484.38529,1037.96159 C1485.00295,1038.20428 1485.69119,1038.25301 1486.36597,1038.08662 L1496.76831,1072.39922 L1361.82757,1069.3696 Z M1357.2492,1066.43423 C1357.20716,1066.45219 1357.17219,1066.48104 1357.13176,1066.49996 L1342.2858,1039.00704 L1386.16335,1040.12432 C1386.16592,1041.07712 1386.35105,1042.04436 1386.74283,1042.97601 C1387.03738,1043.67683 1387.4269,1044.30391 1387.88542,1044.85597 L1361.0036,1067.30946 C1360.09139,1066.27233 1358.59489,1065.86999 1357.2492,1066.43423 Z M1324.65443,1081.52879 L1324.30694,1081.65478 L1277.69661,1098.50299 C1277.66356,1098.40457 1277.63019,1098.30679 1277.59233,1098.21125 C1277.17553,1097.22446 1276.48664,1096.43772 1275.64823,1095.89848 L1292.44888,1065.99951 L1318.98352,1067.5047 L1319.3846,1067.52714 L1355.23226,1069.56099 C1355.23835,1069.84985 1355.29515,1070.13742 1355.37921,1070.42307 L1324.65443,1081.52879 Z M1270.89402,1095.48043 C1270.35625,1095.7058 1269.87945,1096.0171 1269.46843,1096.38514 L1250.20291,1075.53079 L1267.1733,1064.56485 L1292.0385,1065.97482 L1275.3309,1095.71158 C1274.01183,1094.99024 1272.38891,1094.85334 1270.89402,1095.48043 Z M1189.82857,1115.6221 C1189.7875,1115.45507 1189.74546,1115.28772 1189.67552,1115.12294 C1189.62354,1114.99726 1189.55198,1114.88826 1189.48557,1114.77509 L1239.87276,1082.21037 L1268.21546,1098.10193 C1267.78807,1099.04993 1267.64689,1100.12456 1267.85866,1101.18445 L1189.82857,1115.6221 Z M1186.20443,1113.13846 L1176.02862,1058.76241 L1198.38403,1060.51413 C1198.37248,1060.96521 1198.44916,1061.42462 1198.6343,1061.86736 C1199.34148,1063.54824 1201.28045,1064.33947 1202.96305,1063.63384 C1203.61023,1063.3639 1204.11912,1062.9093 1204.4695,1062.36076 L1239.50923,1082.00616 L1189.29497,1114.46059 C1188.58298,1113.4863 1187.39547,1112.98489 1186.20443,1113.13846 Z M1185.46196,1113.32088 L1160.72703,1057.56434 L1175.64904,1058.73259 L1185.84218,1113.20642 C1185.71447,1113.23624 1185.58806,1113.27439 1185.46196,1113.32088 Z M1152.79949,1039.6928 L1173.77905,1048.74703 L1175.57812,1058.35781 L1160.55729,1057.17995 L1152.79949,1039.6928 Z M1119.86045,1053.99292 C1119.89382,1053.4976 1119.82644,1052.98689 1119.62141,1052.49831 C1119.46418,1052.12481 1119.2399,1051.8039 1118.97872,1051.52466 L1135.76205,1032.33836 L1152.29895,1039.47575 L1160.13889,1057.14789 L1119.86045,1053.99292 Z M1115.29169,1050.73247 C1115.03693,1050.83987 1114.80976,1050.98414 1114.59703,1051.14187 L1084.61441,1011.64878 C1084.9558,1011.35864 1085.22886,1011.00759 1085.42522,1010.61583 L1135.40653,1032.18543 L1118.7092,1051.27396 C1117.79057,1050.49138 1116.48241,1050.2317 1115.29169,1050.73247 Z M1036.38853,1094.12111 C1036.12992,1093.59116 1035.75259,1093.15676 1035.29247,1092.84097 L1081.02364,1012.09377 C1081.85307,1012.50285 1082.84068,1012.57755 1083.7622,1012.19027 C1083.96466,1012.10595 1084.15333,1012.00144 1084.32788,1011.88346 L1114.31307,1051.37911 C1113.33861,1052.29826 1112.97539,1053.75119 1113.52535,1055.05761 C1113.54332,1055.10154 1113.57187,1055.13616 1113.59113,1055.17848 L1036.38853,1094.12111 Z M1033.90635,1092.3059 L1040.60626,1007.34384 L1071.88549,1000.14681 L1079.88811,1007.11846 C1079.17708,1008.02959 1078.9528,1009.28247 1079.43248,1010.42475 C1079.70105,1011.06466 1080.15282,1011.5744 1080.69508,1011.92353 L1034.97482,1092.65823 C1034.64016,1092.48191 1034.28143,1092.36104 1033.90635,1092.3059 Z M1032.47049,1092.41779 L1005.02043,1015.53215 L1040.22701,1007.43008 L1033.53896,1092.26839 C1033.18537,1092.25589 1032.82665,1092.30878 1032.47049,1092.41779 Z M1004.8969,1015.18141 L1002.8867,1009.5553 L1041.67794,989.032436 L1040.25813,1007.04536 L1004.8969,1015.18141 Z M983.846749,1020.02432 C983.814342,1019.92365 983.794448,1019.82266 983.753378,1019.72232 C983.747923,1019.70885 983.738939,1019.70116 983.733485,1019.68769 L1002.5591,1009.72842 L1004.53464,1015.26541 L983.846749,1020.02432 Z M983.457543,1019.17378 L1001.22046,1005.98227 L1002.43236,1009.37801 L983.557331,1019.36293 C983.522678,1019.3017 983.494442,1019.23469 983.457543,1019.17378 Z M982.873254,1018.52201 L998.49891,998.357571 L1001.08923,1005.61744 L983.224918,1018.88685 C983.115825,1018.75508 982.999032,1018.63422 982.873254,1018.52201 Z M980.416414,1017.72501 L966.921923,932.794049 L969.996743,932.742434 C970.04776,933.238714 970.171613,933.739162 970.376323,934.225184 C971.409177,936.680939 974.137466,937.908175 976.633772,937.115024 L998.352596,997.944325 L982.584478,1018.29214 C981.954947,1017.85742 981.193541,1017.65737 980.416414,1017.72501 Z M979.662067,1017.88274 L950.80214,933.070402 L966.550365,932.7995 L980.048385,1017.76477 C979.919719,1017.79009 979.791054,1017.83946 979.662067,1017.88274 Z M978.826543,1018.28156 L912.128008,933.732109 L950.416464,933.076173 L979.316178,1018.01419 C979.146442,1018.09273 978.979915,1018.17769 978.826543,1018.28156 Z M911.840515,933.368876 L897.771361,915.534838 C898.939619,914.567284 899.764555,913.274967 900.173012,911.852489 L947.63074,924.890751 L950.291007,932.709733 L911.840515,933.368876 Z M791.441242,935.430299 C791.426482,935.219668 791.404663,935.009038 791.365197,934.797445 L885.847489,911.753104 C885.933159,912.068249 886.032947,912.383073 886.162576,912.693088 C887.753088,916.476104 892.116169,918.257969 895.904265,916.66782 C896.479571,916.426092 897.00033,916.113512 897.478414,915.757972 L911.375907,933.37657 L791.441242,935.430299 Z M791.276319,934.439341 C791.216317,934.218451 791.147011,933.997882 791.056528,933.782443 C790.951606,933.528532 790.820053,933.292895 790.680157,933.067517 L862.427776,885.774682 L887.079278,905.354036 C885.805135,907.050943 885.287906,909.252466 885.757648,911.395962 L791.276319,934.439341 Z M789.838215,932.035843 L843.486974,870.734306 L862.121353,885.533595 L790.474806,932.759105 C790.28293,932.496217 790.071482,932.253206 789.838215,932.035843 Z M788.502146,931.136255 L821.222685,853.049025 L843.197878,870.50444 L789.561312,931.79155 C789.235958,931.528983 788.877876,931.31162 788.502146,931.136255 Z M784.663033,930.93941 L753.796114,852.309734 L818.478674,850.871546 L820.920754,852.810823 L788.162354,930.990384 C787.070781,930.574894 785.836746,930.531613 784.663033,930.93941 Z M781.581475,933.900421 L568.462083,857.250738 C568.541978,856.98208 568.594278,856.705727 568.605829,856.423604 L753.402737,852.318711 L784.317786,931.071174 C783.013482,931.631894 782.060843,932.673185 781.581475,933.900421 Z M724.626234,778.000391 C725.053943,777.804828 725.416196,777.528796 725.713956,777.196981 L818.027542,850.514083 L753.651405,851.944256 L724.626234,778.000391 Z M726.063695,776.731157 L829.434825,832.49314 L821.922485,850.426561 L818.606056,850.50126 L725.944014,776.908446 C725.986047,776.849456 726.026154,776.791749 726.063695,776.731157 Z M876.408693,721.348117 C876.580034,721.407427 876.751053,721.459684 876.931378,721.492385 L862.129695,844.407718 C861.318235,844.330775 860.476294,844.447151 859.673176,844.783775 C858.56524,845.24992 857.712068,846.060062 857.174945,847.035952 L829.906172,832.32643 L876.408693,721.348117 Z M877.59107,721.538871 L885.602992,820.293874 L864.920552,845.566667 C864.222998,844.990559 863.384586,844.60841 862.495157,844.459013 L877.30101,721.52765 C877.396627,721.535024 877.491602,721.544 877.59107,721.538871 Z M878.390337,721.412557 L904.272345,797.475231 L885.94086,819.880627 L877.958136,721.504247 C878.101882,721.484049 878.247553,721.452952 878.390337,721.412557 Z M878.788847,721.29009 C878.926176,721.232703 879.044895,721.15576 879.168106,721.083627 L918.365885,780.255454 L904.549249,797.138928 L878.743606,721.305158 C878.759328,721.297143 878.774409,721.29586 878.788847,721.29009 Z M918.577975,780.576369 L948.104974,825.153447 C946.973936,826.050791 946.516066,827.612407 947.103885,829.008597 C947.159394,829.142605 947.236722,829.260264 947.308595,829.383051 L921.343804,846.497033 L904.690107,797.549609 L918.577975,780.576369 Z M1000.52964,680.428383 C1001.20474,680.924663 1001.9886,681.247823 1002.81643,681.372213 L990.546667,791.654195 L952.496612,825.402228 C951.573813,824.478274 950.150469,824.146459 948.871834,824.682493 C948.704986,824.753345 948.553218,824.843752 948.404659,824.936404 L918.823755,780.278216 L1000.52964,680.428383 Z M1004.05367,681.411005 L1015.67176,769.371587 L990.958975,791.289358 L1003.18381,681.413891 C1003.47163,681.436973 1003.7604,681.437935 1004.05367,681.411005 Z M1005.24439,681.141706 L1033.78763,753.302744 L1016.00417,769.075358 L1004.41913,681.357145 C1004.69604,681.307774 1004.97037,681.237563 1005.24439,681.141706 Z M1005.82226,680.899977 L1041.26692,746.667077 L1034.08057,753.04178 L1005.589,681.012185 C1005.67114,680.977882 1005.7459,680.938769 1005.82226,680.899977 Z M1006.60934,680.42165 L1052.00392,737.145417 L1041.54992,746.416051 L1006.14922,680.726215 C1006.30901,680.632922 1006.46206,680.530011 1006.60934,680.42165 Z M1007.07555,680.032448 L1059.69595,730.322522 L1052.28018,736.900162 L1006.90132,680.193707 C1006.96132,680.14113 1007.01876,680.085667 1007.07555,680.032448 Z M1059.96419,730.577715 L1111.24787,779.589579 L1105.51728,799.589232 C1104.86657,799.441438 1104.16869,799.481833 1103.50515,799.759468 C1103.2783,799.855005 1103.06814,799.977152 1102.87305,800.11661 L1052.51281,737.187735 L1059.96419,730.577715 Z M1143.90905,656.121861 C1144.52511,656.831016 1145.31699,657.346212 1146.18974,657.63122 L1111.3621,779.189477 L1060.24077,730.333102 L1143.90905,656.121861 Z M1147.92335,657.879361 L1158.62346,819.895374 C1158.13254,819.944425 1157.64194,820.066893 1157.16418,820.267585 C1156.52374,820.535281 1155.97025,820.919354 1155.51046,821.381651 L1111.66339,779.47705 L1146.54397,657.730925 C1146.99125,657.842492 1147.45458,657.892826 1147.92335,657.879361 Z M1149.7128,657.501059 L1196.53875,755.450407 L1161.41014,820.401593 C1160.66542,820.03323 1159.83632,819.850491 1158.99277,819.873574 L1148.2917,657.860125 C1148.77075,657.810753 1149.24723,657.692133 1149.7128,657.501059 Z M1151.64985,656.100381 L1220.35184,711.416417 L1196.75437,755.049664 L1150.04682,657.345571 C1150.67731,657.032991 1151.21476,656.6066 1151.64985,656.100381 Z M1226.49763,689.745503 C1225.97848,690.970175 1225.93292,692.395859 1226.48961,693.719594 C1226.93368,694.776595 1227.69573,695.600523 1228.61564,696.139442 L1220.53153,711.087807 L1151.8799,655.813128 C1152.04354,655.591597 1152.19146,655.359808 1152.31628,655.117438 L1226.49763,689.745503 Z M1324.57711,545.325966 C1325.21113,545.667399 1325.89264,545.914257 1326.59854,546.062051 L1299.01243,677.982246 L1257.81889,721.281754 L1234.74154,695.426119 C1236.2236,694.003 1236.76297,691.765249 1235.91974,689.760251 C1235.52605,688.82155 1234.8824,688.066549 1234.10046,687.531797 L1324.57711,545.325966 Z M1327.77321,546.203433 L1323.99057,651.726829 L1299.49597,677.474424 L1326.96336,546.122644 C1327.23064,546.162077 1327.50048,546.191251 1327.77321,546.203433 Z M1323.97036,652.284343 L1321.83502,711.894423 C1320.84548,711.882241 1319.84151,712.067544 1318.8709,712.475661 C1315.08376,714.064208 1313.30234,718.424294 1314.89381,722.206028 C1316.04025,724.933006 1318.62865,726.61164 1321.40282,726.745969 L1320.03114,788.091427 C1319.6368,788.103289 1319.24278,788.178629 1318.86031,788.339888 C1318.57314,788.458508 1318.32383,788.625858 1318.09152,788.810521 L1284.16294,750.798579 L1299.35255,678.161138 L1323.97036,652.284343 Z M1539.30498,425.942624 C1539.43429,426.059961 1539.56648,426.176978 1539.70477,426.283736 L1326.04056,713.260798 C1324.9153,712.467646 1323.58661,711.999258 1322.20273,711.9143 L1324.35411,651.879112 L1539.30498,425.942624 Z M1540.29067,426.697624 L1365.51139,715.945457 L1329.1757,718.947825 C1329.13399,718.110753 1328.95623,717.264383 1328.61259,716.447508 C1328.10274,715.23566 1327.307,714.233161 1326.33832,713.476558 L1540.0035,426.501741 C1540.09783,426.568104 1540.19248,426.636711 1540.29067,426.697624 Z M1541.84204,427.44493 L1433.39262,710.336975 L1365.96316,715.908588 L1540.60736,426.885493 C1541.00041,427.108306 1541.41529,427.294892 1541.84204,427.44493 Z M1414.61835,759.311969 L1323.20478,790.156698 C1323.19772,790.139065 1323.1958,790.12047 1323.18842,790.104441 C1322.93269,789.49467 1322.5114,789.007045 1322.00251,788.660803 L1365.72701,716.298431 L1433.24599,710.719123 L1414.61835,759.311969 Z M1593.05898,697.516076 C1593.10968,698.012356 1593.20914,698.508316 1593.36348,699.000108 L1415.07076,759.157763 L1433.6538,710.685461 L1593.05898,697.516076 Z M1593.60798,699.675601 C1593.63974,699.751902 1593.67953,699.822113 1593.71354,699.897132 L1401.78451,793.816606 L1414.90039,759.605634 L1593.48862,699.346991 C1593.5284,699.457276 1593.56306,699.566919 1593.60798,699.675601 Z M1595.00308,701.832241 L1409.26637,881.750258 C1407.83854,880.385166 1405.68202,879.911968 1403.74402,880.726278 C1403.25149,880.933062 1402.8087,881.20685 1402.42174,881.534818 L1378.31539,855.040559 L1401.59135,794.322825 L1593.87429,700.227985 C1594.18521,700.823971 1594.56607,701.358402 1595.00308,701.832241 Z M1596.549,703.108849 L1479.29802,897.824872 L1410.79014,886.115795 C1410.90662,885.244098 1410.80651,884.328159 1410.44041,883.457745 C1410.21035,882.914978 1409.89558,882.434086 1409.51953,882.018916 L1595.2556,702.102502 C1595.6493,702.487536 1596.08599,702.821916 1596.549,703.108849 Z M1598.04871,703.818004 L1529.13301,906.341147 L1479.68723,897.891555 L1596.86729,703.294793 C1597.2443,703.502859 1597.64153,703.676622 1598.04871,703.818004 Z M1508.95176,965.6457 L1458.48339,983.784622 L1444.13508,956.931618 L1479.48508,898.227538 L1529.01205,906.694121 L1508.95176,965.6457 Z M1623.48439,922.841831 C1623.42471,923.357988 1623.48087,923.893061 1623.68044,924.407615 L1509.39583,965.485723 L1529.3804,906.755355 L1623.48439,922.841831 Z M1484.19309,1031.90203 L1468.63674,1002.7837 L1502.01505,986.029747 L1486.46704,1031.72025 C1485.7759,1031.52661 1485.01867,1031.542 1484.30443,1031.84272 C1484.26432,1031.85907 1484.23127,1031.88311 1484.19309,1031.90203 Z M1468.30786,1002.94784 L1483.87319,1032.07739 C1482.87274,1032.6862 1482.27722,1033.76051 1482.27787,1034.89478 L1401.02086,1039.61457 C1400.96696,1038.80988 1400.7908,1038.00262 1400.46128,1037.21845 C1400.43657,1037.1585 1400.40449,1037.10464 1400.37657,1037.04501 L1468.30786,1002.94784 Z M1509.2431,965.932632 L1621.92051,925.433838 L1502.65196,985.299753 L1509.2431,965.932632 Z M1502.18478,985.536351 L1468.46251,1002.46054 L1458.65922,984.113232 L1508.79999,966.092609 L1502.18478,985.536351 Z M1419.23299,998.285437 L1458.31076,984.238584 L1468.13523,1002.62693 L1400.22127,1036.71864 C1399.63185,1035.56546 1398.77804,1034.62195 1397.76219,1033.93973 L1419.23299,998.285437 Z M1396.42227,1006.48561 L1418.68303,998.483244 L1397.44967,1033.74513 C1396.51275,1033.1812 1395.46161,1032.81925 1394.36843,1032.70287 L1396.42227,1006.48561 Z M1388.79891,1034.41966 L1372.26136,1015.16859 L1396.04076,1006.62122 L1393.99687,1032.68203 C1392.91043,1032.62369 1391.79255,1032.79424 1390.72119,1033.24532 C1390.00503,1033.54411 1389.36266,1033.94389 1388.79891,1034.41966 Z M1342.08366,1038.63355 L1336.37681,1028.06547 L1371.89045,1015.30292 L1388.53003,1034.67132 C1387.10989,1035.99826 1386.26859,1037.82854 1386.17843,1039.75499 L1342.08366,1038.63355 Z M1355.83548,1067.58228 L1310.88304,1039.53603 C1311.10508,1039.12951 1311.23888,1038.68485 1311.27706,1038.22031 L1341.8613,1038.99582 L1356.80576,1066.67468 C1356.41688,1066.91481 1356.08864,1067.22322 1355.83548,1067.58228 Z M1306.54755,1040.90657 C1307.30447,1041.27782 1308.19069,1041.35508 1309.03937,1041.07071 L1309.38397,1040.93927 C1309.92719,1040.6892 1310.37127,1040.3093 1310.69245,1039.84796 L1355.64617,1067.89647 C1355.42766,1068.29785 1355.29386,1068.73546 1355.25247,1069.19295 L1319.24438,1067.1498 L1318.83977,1067.12704 L1292.64974,1065.64044 L1306.54755,1040.90657 Z M1305.3347,1039.90022 C1305.58144,1040.2346 1305.88144,1040.51865 1306.22092,1040.73505 L1292.24128,1065.61768 L1267.69823,1064.22438 L1305.3347,1039.90022 Z M1238.21134,1062.55247 L1230.83633,1054.56839 L1304.82228,1038.81789 C1304.8595,1038.95543 1304.88934,1039.09649 1304.94742,1039.23274 C1305.00068,1039.35938 1305.07416,1039.4703 1305.14122,1039.58668 L1267.07383,1064.18975 L1238.21134,1062.55247 Z M1249.94975,1075.25796 L1238.57167,1062.942 L1266.5489,1064.52894 L1249.94975,1075.25796 Z M1238.04096,1062.91218 L1249.63531,1075.4609 L1239.85897,1081.77853 L1204.64052,1062.03407 C1204.79549,1061.71861 1204.89945,1061.38519 1204.94694,1061.03382 L1238.04096,1062.91218 Z M1230.41696,1054.65911 L1237.6816,1062.5217 L1204.98448,1060.6661 C1204.98961,1060.47374 1204.971,1060.27786 1204.94116,1060.08422 L1230.41696,1054.65911 Z M1210.28384,1032.86766 L1230.12466,1054.34429 L1204.85902,1059.72387 C1204.82084,1059.58377 1204.78779,1059.44495 1204.73196,1059.30742 C1204.34853,1058.39885 1203.60349,1057.76311 1202.73748,1057.46977 L1210.28384,1032.86766 Z M1199.47175,1021.16371 L1209.99378,1032.55315 L1202.38325,1057.36525 C1202.14934,1057.31428 1201.9087,1057.28318 1201.66805,1057.28607 L1199.47175,1021.16371 Z M1168.83361,994.531916 L1171.76661,991.176572 L1199.07677,1020.73668 L1201.30002,1057.32069 C1200.99841,1057.35596 1200.6968,1057.41879 1200.40225,1057.54254 C1200.3923,1057.54639 1200.38428,1057.55376 1200.37273,1057.55761 L1168.83361,994.531916 Z M1144.90019,1021.89082 L1164.55106,999.427075 L1173.69819,1048.30878 L1152.57906,1039.19523 L1144.90019,1021.89082 Z M1144.63388,1022.19667 L1152.07884,1038.97755 L1136.01617,1032.04886 L1144.63388,1022.19667 Z M1130.75852,990.919456 L1144.46799,1021.8251 L1135.66065,1031.89497 L1085.57763,1010.27856 C1085.82309,1009.60884 1085.84652,1008.86474 1085.61646,1008.14565 L1130.75852,990.919456 Z M1085.84363,996.934452 L1129.01849,987.000507 L1130.60932,990.582831 L1085.49389,1007.7978 C1085.09506,1006.90975 1084.35098,1006.28908 1083.48593,1006.01209 L1085.84363,996.934452 Z M1085.43581,997.029027 L1083.13202,1005.90661 C1082.50442,1005.78094 1081.83574,1005.83223 1081.20011,1006.09833 C1080.77978,1006.27562 1080.41336,1006.53017 1080.11464,1006.83698 L1072.3225,1000.04486 L1085.43581,997.029027 Z M1052.8834,983.104321 L1094.81268,960.921738 L1085.54234,996.623796 L1071.97758,999.746708 L1052.8834,983.104321 Z M1052.53527,983.287701 L1071.54024,999.846413 L1040.63578,1006.9572 L1042.06522,988.828217 L1052.53527,983.287701 Z M1042.91551,978.027064 C1043.36824,978.038285 1043.82804,977.961663 1044.27147,977.775076 C1044.69405,977.598749 1045.05951,977.3458 1045.35823,977.035785 L1052.23815,983.028019 L1042.09827,988.391888 L1042.91551,978.027064 Z M1040.4638,976.836696 C1040.99547,977.475641 1041.74019,977.881193 1042.54908,977.991478 L1041.71324,988.596106 L1002.76252,1009.20329 L1001.52881,1005.75177 L1040.4638,976.836696 Z M1025.24564,963.843638 L1040.10668,973.143126 C1039.63758,973.99719 1039.53587,975.042007 1039.9424,976.009562 C1040.0239,976.202881 1040.12529,976.378887 1040.23406,976.546558 L1001.40014,1005.38757 L998.765546,998.012291 L1025.24564,963.843638 Z M977.071107,936.957291 C978.022142,936.557189 978.784831,935.903817 979.322916,935.110666 L1024.93087,963.647754 L998.619233,997.599365 L976.97902,936.991274 C977.010464,936.977489 977.04223,936.970115 977.071107,936.957291 Z M1029.98124,877.723269 L1038.94035,945.568142 L1025.15869,963.353769 L979.517038,934.796163 C980.286465,933.459924 980.449463,931.795397 979.806455,930.26584 C979.567413,929.696144 979.231791,929.196978 978.83296,928.770587 L1029.98124,877.723269 Z M982.799135,864.642367 L1025.41056,843.11476 L1029.9206,877.263215 L978.574024,928.507058 C977.815507,927.801109 976.85613,927.346506 975.839318,927.196147 L982.799135,864.642367 Z M961.694119,875.305344 L982.404795,864.842418 L975.472252,927.151584 C975.012778,927.118563 974.54817,927.140363 974.085166,927.234939 L961.694119,875.305344 Z M971.070347,929.087335 L965.713236,925.183133 L958.07993,877.130489 L961.354647,875.477183 L973.7258,927.324064 C973.52077,927.382733 973.313814,927.447172 973.10782,927.534695 C972.278713,927.88254 971.589502,928.426268 971.070347,929.087335 Z M966.490043,930.073484 L970.119312,931.071174 C970.016636,931.494359 969.970111,931.930688 969.979737,932.373429 L966.86513,932.426327 L966.490043,930.073484 Z M966.097629,929.967367 L966.490043,932.433701 L950.678929,932.703962 L948.060053,925.009371 L966.097629,929.967367 Z M965.795056,925.698008 L970.853765,929.385488 C970.577182,929.796169 970.361242,930.24404 970.212683,930.714032 L966.426512,929.674664 L965.795056,925.698008 Z M942.522618,908.739515 L965.370876,925.390558 L966.03474,929.567265 L947.915345,924.58811 L942.522618,908.739515 Z M923.278602,894.712539 L942.006351,908.363137 L947.486352,924.46949 L900.261891,911.493423 C900.60393,910.020611 900.510559,908.433668 899.880707,906.934888 C899.834824,906.823321 899.777069,906.719448 899.727014,906.612049 L923.278602,894.712539 Z M890.04693,870.497387 L922.943301,894.469528 L899.566583,906.278951 C898.183989,903.714836 895.44832,902.251963 892.634682,902.397512 L890.04693,870.497387 Z M876.080452,876.774629 L887.9363,868.960136 L889.652912,870.211096 L892.266332,902.418031 C891.552735,902.491447 890.834967,902.668415 890.139339,902.960156 C890.027358,903.007604 889.922436,903.065632 889.813664,903.117247 L876.080452,876.774629 Z M875.770178,876.978848 L889.479646,903.277545 C888.627437,903.737919 887.898118,904.349613 887.305807,905.062295 L862.752809,885.559563 L875.770178,876.978848 Z M887.618005,868.728025 L875.910074,876.44602 L864.174548,853.939316 C864.747287,853.615516 865.238847,853.195216 865.633828,852.706951 L887.618005,868.728025 Z M889.435688,867.529963 L887.946889,868.511303 L865.851694,852.408477 C866.813959,851.019982 867.071611,849.187784 866.368923,847.516524 C866.089452,846.853214 865.686771,846.280632 865.196494,845.81096 L885.645667,820.822534 L889.435688,867.529963 Z M889.787353,867.297853 L885.984176,820.408967 L904.413524,797.886554 L921.024868,846.706061 L889.787353,867.297853 Z M889.614729,869.726677 L888.264542,868.742772 L889.469379,867.949621 L889.614729,869.726677 Z M935.176163,888.289105 L923.312293,894.283583 L890.008748,870.01361 L889.820402,867.716549 L921.14872,847.068012 L935.176163,888.289105 Z M950.377639,831.01039 L957.671794,876.923065 L935.508897,888.120793 L921.467015,846.858984 L947.507529,829.693708 C948.178452,830.598426 949.263286,831.087012 950.377639,831.01039 Z M958.018646,876.747699 L950.761711,831.077714 L961.266731,875.107537 L958.018646,876.747699 Z M941.798753,907.757213 L923.64631,894.527556 L935.294561,888.641118 L941.798753,907.757213 Z M935.627616,888.474088 L957.732437,877.305855 L965.290019,924.876324 L942.317587,908.133912 L935.627616,888.474088 Z M982.451641,864.403845 L961.604599,874.93634 L951.092841,830.878305 C951.207709,830.845283 951.321936,830.822521 951.432633,830.776035 C953.118763,830.06688 953.907762,828.130488 953.200583,826.44929 C953.081543,826.165884 952.915657,825.917103 952.732445,825.686275 L990.485382,792.202412 L982.451641,864.403845 Z M1025.35826,842.72652 L982.846301,864.203153 L990.898332,791.835652 L1015.72823,769.811443 L1025.35826,842.72652 Z M1061.86208,824.283673 L1025.70704,842.550513 L1016.06161,769.517137 L1033.93105,753.668863 L1061.86208,824.283673 Z M1078.55493,815.850112 L1062.19161,824.118247 L1034.224,753.407258 L1041.4466,747.001457 L1078.55493,815.850112 Z M1083.33802,823.950896 L1079.05868,816.010088 L1101.93903,804.45105 C1102.05357,804.648215 1102.1832,804.829031 1102.33208,804.99606 L1083.33802,823.950896 Z M1156.56545,829.385296 L1144.89795,851.086345 L1107.02405,805.2224 C1107.33592,804.932903 1107.58363,804.593073 1107.76363,804.217015 L1154.34797,823.221864 C1153.91802,824.391393 1153.90679,825.718014 1154.42883,826.958394 C1154.87547,828.020204 1155.64073,828.847338 1156.56545,829.385296 Z M1206.16044,775.580864 L1162.67787,821.285473 C1162.3907,821.012647 1162.07305,820.777651 1161.73486,820.57792 L1196.7348,755.862051 L1206.16044,775.580864 Z M1226.60993,716.455843 L1218.35255,762.7683 L1206.43253,775.294573 L1196.95266,755.460346 L1220.64479,711.652695 L1226.60993,716.455843 Z M1226.68373,716.041635 L1220.82287,711.321521 L1228.93843,696.31641 C1229.31608,696.502997 1229.71491,696.642135 1230.12658,696.732542 L1226.68373,716.041635 Z M1235.22764,722.919031 L1227.01133,716.303882 L1230.49044,696.793455 C1230.88927,696.851483 1231.29709,696.86591 1231.70554,696.825835 L1235.22764,722.919031 Z M1248.83187,730.727113 L1247.13772,732.508977 L1235.64573,723.255014 L1232.0694,696.771655 C1232.43743,696.708498 1232.80225,696.606869 1233.16033,696.461319 L1248.83187,730.727113 Z M1249.10653,730.440501 L1233.49435,696.303587 C1233.84762,696.125977 1234.17554,695.916308 1234.46848,695.672015 L1257.56477,721.549771 L1249.10653,730.440501 Z M1317.62595,789.262559 L1282.10204,760.66039 L1284.07021,751.24613 L1317.80885,789.04744 C1317.74114,789.115406 1317.68563,789.191067 1317.62595,789.262559 Z M1321.42175,794.430224 C1321.72015,794.306795 1321.97716,794.129827 1322.21492,793.938432 L1346.6553,820.795604 L1318.22565,834.707807 L1320.20215,794.682852 C1320.61125,794.675479 1321.02196,794.597895 1321.42175,794.430224 Z M1346.99926,820.627613 L1322.49856,793.701192 C1323.31002,792.876302 1323.63377,791.66253 1323.31323,790.509993 L1414.44701,759.757916 L1401.29873,794.055769 L1346.99926,820.627613 Z M1347.2582,820.911339 L1401.10557,794.561668 L1378.03848,854.735994 L1347.2582,820.911339 Z M1371.55932,871.629727 L1317.46777,850.074228 L1318.20511,835.128107 L1346.91263,821.079971 L1377.88832,855.12199 L1371.55932,871.629727 Z M1401.04781,883.380802 L1371.90296,871.765659 L1378.16683,855.426234 L1402.1535,881.784882 C1401.68152,882.245897 1401.30932,882.789625 1401.04781,883.380802 Z M1343.69053,981.908182 L1334.00211,970.631908 L1371.77141,872.108695 L1400.91466,883.719029 C1400.4985,884.881505 1400.49497,886.191455 1401.00867,887.417729 C1401.40205,888.350018 1402.04088,889.101492 1402.8148,889.636244 L1343.69053,981.908182 Z M1321.93673,1002.10083 L1325.96869,1009.5646 L1309.61243,1035.08617 C1309.52612,1035.0368 1309.43852,1034.98711 1309.34643,1034.94671 L1321.93673,1002.10083 Z M1310.96358,981.775456 L1321.70764,1001.67252 L1308.99894,1034.8204 C1308.78845,1034.75179 1308.57155,1034.70659 1308.3524,1034.68254 L1310.96358,981.775456 Z M1259.95423,890.357582 L1260.97296,889.195426 L1305.33983,971.361581 L1307.77966,1034.66844 C1307.59035,1034.68254 1307.40233,1034.70723 1307.21334,1034.75468 L1259.95423,890.357582 Z M1219.45535,1002.96003 L1304.87458,1036.91004 C1304.70773,1037.40247 1304.658,1037.92888 1304.74014,1038.45658 L1230.54563,1054.25452 L1210.40961,1032.45858 L1219.45535,1002.96003 Z M1197.84338,994.369374 L1219.11235,1002.82185 L1210.1202,1032.14536 L1199.43549,1020.58119 L1197.84338,994.369374 Z M1176.42231,985.855023 L1197.46348,994.218695 L1199.0418,1020.15448 L1172.0111,990.897655 L1176.42231,985.855023 Z M1164.55459,982.825083 C1164.94348,982.440049 1165.26498,981.996666 1165.50787,981.517057 L1176.05878,985.710434 L1171.75987,990.62515 L1164.55459,982.825083 Z M1163.4043,983.6862 C1163.72324,983.512438 1164.01619,983.305975 1164.28378,983.076429 L1171.51601,990.904388 L1168.65457,994.175094 L1163.4043,983.6862 Z M1162.07369,984.182801 C1162.36246,984.117079 1162.65156,984.030519 1162.93456,983.911899 C1162.98205,983.891381 1163.0244,983.865733 1163.07157,983.845215 L1168.3905,994.47485 L1164.77246,998.612444 L1162.07369,984.182801 Z M1156.24427,981.194859 C1157.17316,983.384841 1159.4561,984.587712 1161.70951,984.248523 L1164.46443,998.965419 L1144.7372,1021.51893 L1131.10473,990.788012 L1156.24427,981.194859 Z M1156.08993,980.770713 C1156.09924,980.79604 1156.10918,980.821366 1156.11945,980.847655 L1130.95457,990.450426 L1129.3862,986.916511 L1156.08993,980.770713 Z M1113.47433,951.048707 L1189.67648,910.733293 C1189.99638,911.241756 1190.44109,911.633523 1190.95223,911.898013 L1162.8768,974.465258 C1161.66683,973.975389 1160.27108,973.94333 1158.97159,974.488341 C1156.61936,975.475772 1155.39976,978.015522 1155.99111,980.415173 L1129.23347,986.571551 L1113.47433,951.048707 Z M1113.14737,951.220545 L1128.86704,986.655868 L1085.94727,996.532747 L1095.25643,960.687063 L1113.14737,951.220545 Z M1101.67913,935.950624 C1103.14097,936.29366 1104.71865,936.202611 1106.2113,935.585787 L1112.99817,950.883921 L1095.38093,960.204889 L1101.67913,935.950624 Z M1066.0057,911.246244 L1086.03422,885.40183 L1100.46242,921.8762 C1096.69037,923.475326 1094.91953,927.822589 1096.50812,931.599193 C1096.71315,932.090344 1096.96919,932.544306 1097.26214,932.967171 L1045.48978,972.586253 C1045.15288,972.19673 1044.74346,971.886715 1044.27981,971.690191 L1066.0057,911.246244 Z M1039.32827,945.671694 L1065.27349,912.190396 L1043.92975,971.577021 C1043.54472,971.461927 1043.14107,971.419609 1042.73262,971.451668 L1039.32827,945.671694 Z M1039.00869,946.08462 L1042.36491,971.487254 C1042.14383,971.529252 1041.92629,971.593371 1041.71003,971.68442 C1041.11772,971.93224 1040.64605,972.338433 1040.2992,972.827981 L1025.47217,963.549973 L1039.00869,946.08462 Z M1067.99247,839.786988 L1080.20384,870.658325 L1065.67713,911.067673 L1039.26185,945.156819 L1030.30916,877.394659 L1067.99247,839.786988 Z M1067.84423,839.413816 L1030.24884,876.934285 L1025.7587,842.938753 L1061.99685,824.630236 L1067.84423,839.413816 Z M1068.1298,839.129448 L1062.32926,824.463206 L1078.73012,816.176156 L1083.06625,824.22276 L1068.1298,839.129448 Z M1091.36117,839.613867 L1080.39186,870.130627 L1068.27611,839.502941 L1083.24946,824.561629 L1091.36117,839.613867 Z M1091.5293,839.147081 L1083.52219,824.290085 L1102.58941,805.258307 C1102.8615,805.502279 1103.166,805.70233 1103.50002,805.843071 L1091.5293,839.147081 Z M1103.63157,858.938348 C1103.24397,858.953095 1102.85509,859.02587 1102.47679,859.182962 C1102.43668,859.200594 1102.40139,859.228166 1102.36096,859.246439 L1091.76449,839.584051 L1103.85104,805.956882 C1104.07661,806.023246 1104.30923,806.067808 1104.54603,806.0848 L1103.63157,858.938348 Z M1131.23404,876.499559 L1106.75484,863.599473 C1107.12672,862.78901 1107.18063,861.836523 1106.80778,860.949759 C1106.30916,859.766444 1105.19962,859.03645 1104.0012,858.948928 L1104.9163,806.096662 C1105.3007,806.080632 1105.69086,806.008498 1106.06884,805.850124 C1106.31334,805.746893 1106.53505,805.611281 1106.74137,805.458999 L1144.7096,851.436434 L1131.23404,876.499559 Z M1160.85409,829.788283 L1191.08153,905.987531 C1190.87682,906.082106 1190.68719,906.193994 1190.51393,906.322552 L1145.15271,851.393154 L1156.8908,829.560661 C1158.09083,830.149593 1159.51128,830.265328 1160.85409,829.788283 Z M1213.37502,790.671893 L1206.13573,831.26943 L1164.20646,825.681466 C1164.32903,824.802075 1164.22988,823.879404 1163.8596,822.999371 C1163.62858,822.452116 1163.31093,821.96898 1162.9336,821.552528 L1206.33114,775.936403 L1213.37502,790.671893 Z M1218.23319,763.426801 L1213.48572,790.049298 L1206.60259,775.650433 L1218.23319,763.426801 Z M1237.84171,742.281663 L1218.81235,762.28324 L1226.93785,716.718731 L1235.29952,723.45218 L1237.84171,742.281663 Z M1238.16578,741.938627 L1235.71824,723.787842 L1246.88295,732.777636 L1238.16578,741.938627 Z M1261.0442,888.552955 L1258.47377,883.794048 C1258.57099,883.733777 1258.66436,883.671902 1258.75292,883.603295 L1262.03309,887.422218 L1261.0442,888.552955 Z M1234.10687,955.187263 L1250.76955,900.858338 L1259.67283,890.680741 L1306.86136,1034.86368 C1306.81355,1034.87971 1306.76349,1034.88612 1306.71536,1034.90664 C1306.42595,1035.02879 1306.17696,1035.19678 1305.94209,1035.38176 L1234.10687,955.187263 Z M1195.96698,963.51054 L1218.24923,938.036092 L1233.69296,955.278311 L1219.22048,1002.47016 L1197.81771,993.963181 L1195.96698,963.51054 Z M1195.62173,963.906795 L1197.4407,993.812501 L1176.67804,985.561037 L1195.62173,963.906795 Z M1192.48274,912.279521 L1195.58804,963.382943 L1176.31739,985.416128 L1165.66413,981.182677 C1166.1804,979.959929 1166.22532,978.538733 1165.66895,977.219807 C1165.17321,976.038736 1164.28025,975.143957 1163.21146,974.620105 L1191.28656,912.056387 C1191.66582,912.201616 1192.06915,912.281765 1192.48274,912.279521 Z M1203.09813,850.412776 L1253.80812,879.51411 C1253.41153,880.30662 1253.33067,881.245642 1253.65892,882.134009 L1195.40611,907.49689 C1194.95402,906.601149 1194.14673,905.991057 1193.22521,905.77145 L1203.09813,850.412776 Z M1202.82572,849.832499 L1163.66805,827.361702 C1163.88624,826.947494 1164.0457,826.505715 1164.14389,826.045661 L1206.07124,831.632343 L1202.82572,849.832499 Z M1234.5949,835.058538 L1206.5028,831.315275 L1213.64872,791.242552 L1234.5949,835.058538 Z M1235.03224,835.11881 L1213.75909,790.619636 L1218.69363,762.943024 L1237.90427,742.750372 L1250.65404,837.199469 L1235.03224,835.11881 Z M1255.17242,878.105418 C1254.68118,878.372473 1254.27016,878.741477 1253.9801,879.186783 L1203.16519,850.0271 L1206.43606,831.680112 L1234.78325,835.456716 L1255.17242,878.105418 Z M1256.12602,877.74539 C1255.91554,877.787067 1255.70537,877.849904 1255.50099,877.934541 L1235.22026,835.516347 L1250.70442,837.57777 L1256.12602,877.74539 Z M1256.49309,877.710445 L1251.08304,837.628745 L1265.23497,839.513521 L1257.24262,877.733528 C1256.99588,877.695698 1256.74561,877.690248 1256.49309,877.710445 Z M1218.00025,937.760381 L1195.93393,962.987971 L1192.85012,912.244255 C1193.15173,912.208349 1193.45238,912.146474 1193.74693,912.024007 C1194.03539,911.90154 1194.28791,911.733869 1194.52181,911.547924 L1218.00025,937.760381 Z M1250.44035,900.675278 L1218.2457,937.481143 L1194.80289,911.309722 C1195.69136,910.421354 1196.01478,909.071651 1195.55691,907.833515 L1253.81133,882.469993 C1254.18802,883.216016 1254.80439,883.770324 1255.53596,884.060142 L1250.44035,900.675278 Z M1250.17532,901.538319 L1233.81874,954.866347 L1218.49277,937.758457 L1250.17532,901.538319 Z M1257.89879,884.07553 C1257.94339,884.060142 1257.98831,884.054371 1258.03098,884.035135 C1258.07334,884.017503 1258.10927,883.989932 1258.1513,883.970375 L1260.78366,888.848864 L1259.82139,889.950427 L1257.89879,884.07553 Z M1259.53807,890.271662 L1251.03459,899.997221 L1255.88955,884.164656 C1256.42154,884.308603 1256.98722,884.323029 1257.54584,884.184533 L1259.53807,890.271662 Z M1191.42614,905.858011 L1161.19773,829.655557 C1162.17636,829.225639 1162.9551,828.527064 1163.48195,827.680053 L1202.75674,850.218495 L1192.86071,905.710217 C1192.38937,905.653792 1191.90198,905.698355 1191.42614,905.858011 Z M1131.38549,876.996801 L1189.46984,907.606534 C1189.20096,908.193222 1189.10278,908.851403 1189.21027,909.510545 L1110.5792,926.931977 C1110.48807,926.563934 1110.37577,926.199098 1110.22625,925.840032 C1109.56527,924.267836 1108.42012,923.048935 1107.04554,922.267325 L1131.38549,876.996801 Z M1144.96276,851.743884 L1190.23125,906.558831 C1189.99734,906.772988 1189.80001,907.014075 1189.63926,907.280168 L1131.56036,876.671398 L1144.96276,851.743884 Z M1103.92356,865.517591 C1104.29896,865.497714 1104.67501,865.427824 1105.03919,865.275542 C1105.71332,864.991495 1106.23537,864.508038 1106.58479,863.9268 L1131.05981,876.825604 L1106.72179,922.088754 C1105.75632,921.603053 1104.68785,921.328945 1103.59467,921.294962 L1103.92356,865.517591 Z M1101.88833,864.945329 C1102.37893,865.282915 1102.95584,865.475593 1103.55424,865.514385 L1103.22568,921.290153 C1102.41871,921.306503 1101.60405,921.456862 1100.80767,921.748924 L1086.29733,885.061679 L1101.88833,864.945329 Z M1085.877,885.003011 L1066.40902,910.124163 L1080.40823,871.176727 L1085.877,885.003011 Z M1080.59721,870.649349 L1091.59604,840.050196 L1102.03689,859.422446 C1100.66713,860.261121 1100.06936,861.98592 1100.70948,863.508745 C1100.91387,863.993163 1101.22671,864.391021 1101.60052,864.714181 L1086.13946,884.662539 L1080.59721,870.649349 Z M1110.66807,927.290402 L1189.29882,909.867367 C1189.3354,909.997528 1189.363,910.129613 1189.4169,910.258492 C1189.43968,910.312032 1189.47498,910.356594 1189.50129,910.408851 L1113.32449,950.7108 L1106.545,935.429337 C1109.66057,933.958449 1111.31493,930.572008 1110.66807,927.290402 Z M1305.00677,1036.5702 L1219.56445,1002.60705 L1233.98013,955.599547 L1305.65909,1035.6206 C1305.38379,1035.89567 1305.16688,1036.22044 1305.00677,1036.5702 Z M1262.27984,887.140094 L1259.03528,883.365734 C1259.99337,882.445948 1260.34343,881.005196 1259.79861,879.708711 C1259.38694,878.731539 1258.55527,878.067908 1257.60199,877.811753 L1265.60108,839.560648 L1297.35454,843.791214 C1297.37892,844.147074 1297.44566,844.50037 1297.59133,844.846291 C1297.7662,845.265308 1298.02065,845.630145 1298.32771,845.92926 L1262.27984,887.140094 Z M1303.96365,935.663692 L1262.52112,887.423179 L1298.61488,846.160409 C1299.16645,846.588082 1299.83833,846.84039 1300.53909,846.861228 L1303.96365,935.663692 Z M1303.76119,844.612257 C1304.00761,843.876172 1304.01146,843.056091 1303.68803,842.286984 C1303.68097,842.271275 1303.66974,842.25781 1303.66461,842.243704 L1317.82681,835.31341 L1317.1052,849.92996 L1303.76119,844.612257 Z M1312.38692,945.47004 L1304.34901,936.113165 L1300.90808,846.843275 C1301.24595,846.816666 1301.58831,846.750944 1301.92008,846.612126 C1302.70908,846.280632 1303.29177,845.674067 1303.62739,844.954332 L1317.08466,850.3182 L1312.38692,945.47004 Z M1312.73634,945.875913 L1317.44884,850.463109 L1371.42841,871.969878 L1333.72969,970.313237 L1312.73634,945.875913 Z M1310.62475,981.1519 L1308.07454,1032.77148 L1305.73577,972.098308 L1310.62475,981.1519 Z M1305.30614,970.524509 L1261.2303,888.900159 L1262.27663,887.704982 L1303.98611,936.256471 L1305.30614,970.524509 Z M1304.37243,936.707868 L1312.36093,946.006074 L1310.6594,980.439218 L1305.70497,971.261235 L1304.37243,936.707868 Z M1333.85194,971.023033 L1343.48069,982.232945 L1326.1965,1009.20874 L1322.11128,1001.64687 L1333.85194,971.023033 Z M1321.8809,1001.2192 L1310.99887,981.066301 L1312.71003,946.412267 L1333.57857,970.705004 L1321.8809,1001.2192 Z M1297.34716,843.419325 L1265.67841,839.199338 L1275.95786,790.040001 L1299.10612,840.657402 C1298.046,841.214916 1297.3985,842.277046 1297.34716,843.419325 Z M1252.09439,736.97454 L1281.69327,760.80594 L1275.82695,788.866304 L1252.09439,736.97454 Z M1247.42617,732.741088 L1248.99776,731.089384 L1251.10935,735.706909 L1247.42617,732.741088 Z M1251.45235,736.457741 L1275.69957,789.474472 L1265.30941,839.151569 L1251.03234,837.24884 L1238.23091,742.407336 L1247.17141,733.009105 L1251.45235,736.457741 Z M1046.04038,973.449293 C1045.95311,973.242189 1045.84626,973.049191 1045.72369,972.870941 L1097.48386,933.260835 C1098.46826,934.531031 1099.81813,935.43094 1101.32104,935.861499 L1094.94071,960.436679 L1052.58468,982.846563 L1045.58989,976.749494 C1046.299,975.836441 1046.51847,974.589648 1046.04038,973.449293 Z M1336.20129,1027.73879 L1326.39607,1009.57999 L1343.73321,982.525647 L1371.63247,1015.00124 L1336.20129,1027.73879 Z M1311.07492,1036.77026 C1311.06144,1036.73756 1311.05695,1036.70389 1311.04508,1036.67344 C1310.8009,1036.09156 1310.40335,1035.62509 1309.92591,1035.2843 L1326.16762,1009.93649 L1335.84931,1027.86446 L1311.07492,1036.77026 Z M1336.02739,1028.19179 L1341.6598,1038.62169 L1311.29406,1037.8513 C1311.28572,1037.60797 1311.24529,1037.3656 1311.18433,1037.12259 L1336.02739,1028.19179 Z M1396.07285,1006.21823 L1372.00467,1014.86851 L1343.94016,982.199603 L1403.12828,889.834692 C1403.74402,890.196002 1404.42874,890.431319 1405.14105,890.511788 L1396.07285,1006.21823 Z M1443.91465,957.297737 L1458.13461,983.910937 L1419.53492,997.78531 L1443.91465,957.297737 Z M1443.71283,956.919756 L1418.9856,997.983437 L1396.45339,1006.08037 L1405.51036,890.538718 C1406.23968,890.570777 1406.98729,890.451195 1407.70634,890.148234 C1407.79618,890.111686 1407.88025,890.06552 1407.9672,890.025446 L1443.71283,956.919756 Z M1410.73046,886.476463 L1479.09395,898.161816 L1443.93262,956.552675 L1408.29288,889.851363 C1409.57889,889.106942 1410.44201,887.863356 1410.73046,886.476463 Z M1319.83413,794.659449 L1317.84671,834.893432 L1303.48781,841.918621 C1302.68085,840.525958 1300.97001,839.898234 1299.43693,840.495502 L1276.0846,789.432795 L1282.01702,761.065942 L1317.39333,789.550133 C1316.79813,790.442027 1316.64604,791.603541 1317.093,792.664389 C1317.58103,793.827185 1318.66009,794.547882 1319.83413,794.659449 Z M1329.19463,719.316509 L1365.27524,716.33562 L1321.68197,788.478385 C1321.2841,788.267434 1320.85094,788.141119 1320.39884,788.104892 L1321.77149,726.760716 C1322.72734,726.759434 1323.69955,726.573489 1324.63486,726.181081 C1327.48476,724.984622 1329.19591,722.221738 1329.19463,719.316509 Z M1258.06499,721.557465 L1298.86901,678.667998 L1283.85812,750.455864 L1258.06499,721.557465 Z M1283.76475,750.904696 L1281.77829,760.400067 L1251.75107,736.224348 L1249.27113,730.801811 L1257.81087,721.826124 L1283.76475,750.904696 Z M1154.48755,822.87979 L1107.90257,803.876544 C1108.15829,803.133726 1108.16407,802.303707 1107.83518,801.524983 C1107.45817,800.625394 1106.72436,799.994143 1105.87087,799.695349 L1111.54788,779.877152 L1155.26403,821.656721 C1154.94542,822.02797 1154.68584,822.438651 1154.48755,822.87979 Z M1101.73881,804.083969 C1101.74555,804.099678 1101.75581,804.112502 1101.76255,804.126608 L1078.88413,815.685647 L1041.73185,746.749149 L1052.23591,737.433311 L1102.59037,800.355453 C1101.56971,801.269148 1101.17826,802.752219 1101.73881,804.083969 Z M858.533795,853.5421 C859.943663,854.625709 861.877818,854.945342 863.635821,854.207333 C863.708336,854.175915 863.774113,854.139367 863.845023,854.106025 L875.598517,876.65088 L862.446386,885.319117 L843.732755,870.455389 L858.533795,853.5421 Z M856.567232,850.0271 C856.618891,850.511839 856.736968,851.002028 856.937828,851.475226 C857.242968,852.200732 857.699875,852.813709 858.250474,853.305821 L843.442375,870.225843 L821.370602,852.695089 L822.168265,850.791077 L856.567232,850.0271 Z M821.069313,852.458169 L819.059113,850.858081 L821.763337,850.799733 L821.069313,852.458169 Z M822.324525,850.416943 L829.761142,832.668505 L857.010664,847.367127 C856.68531,848.079809 856.520387,848.861098 856.546697,849.657775 L822.324525,850.416943 Z M1198.419,1060.14737 L1175.95867,1058.38763 L1174.18751,1048.924 L1198.58906,1059.45297 C1198.50692,1059.67642 1198.45237,1059.91045 1198.419,1060.14737 Z M1198.73762,1059.1157 L1174.10665,1048.48639 L1164.86005,999.07378 L1168.5705,994.832313 L1200.04994,1057.7349 C1199.46918,1058.06511 1199.02287,1058.54889 1198.73762,1059.1157 Z M1268.37557,1097.76755 L1240.22154,1081.98339 L1249.89007,1075.73757 L1269.1989,1096.6397 C1268.8713,1096.97857 1268.59632,1097.35879 1268.37557,1097.76755 Z M1624.05489,925.112603 L1488.0476,1032.70576 C1487.70428,1032.32072 1487.28909,1032.01456 1486.82031,1031.82637 L1502.48543,985.793789 L1623.90152,924.848112 C1623.95317,924.938199 1623.99777,925.03053 1624.05489,925.112603 Z M1718.4114,1074.54111 C1717.23223,1075.03515 1716.5058,1076.13767 1716.41083,1077.33028 L1497.15335,1072.40691 L1486.71442,1037.97986 C1488.54815,1037.22646 1489.34036,1035.29071 1488.6335,1033.60951 C1488.56997,1033.45948 1533.79011,997.388521 1624.29393,925.396649 C1626.81558,926.56137 1627.44094,926.50751 1628.03582,926.258087 C1629.71938,925.551817 1630.50967,923.614785 1629.80217,921.932945 C1629.09659,920.250785 1627.15794,919.459558 1625.47566,920.166469 C1624.45596,920.594463 1623.7706,921.475136 1623.5399,922.475712 L1529.49976,906.405907 L1598.39812,703.932135 C1599.97773,704.391227 1601.71584,704.336085 1603.34967,703.64905 C1607.13969,702.059863 1608.91726,697.700417 1607.32739,693.917401 C1605.73592,690.133423 1601.3754,688.35284 1597.58538,689.94299 C1594.62607,691.187217 1592.89983,694.119696 1593.04326,697.147392 L1433.80012,710.305877 L1542.19081,427.56355 C1543.7778,428.03258 1545.52874,427.97872 1547.17251,427.287839 C1550.96254,425.697048 1552.74011,421.338244 1551.14928,417.554907 C1549.55909,413.77189 1545.19825,411.990987 1541.40823,413.58306 C1537.62142,415.171607 1535.84095,419.531052 1537.43179,423.31471 C1537.81586,424.232251 1538.36774,425.029891 1539.03289,425.693201 L1324.374,651.324163 L1328.1422,546.215937 C1334.77314,544.047755 1336.55232,539.687027 1334.96212,535.904973 C1333.37065,532.120995 1329.00981,530.340412 1325.22076,531.930882 C1321.43298,533.52039 1319.65284,537.880797 1321.24367,541.664455 C1321.87834,543.170288 1322.95643,544.354564 1324.2601,545.13938 L1233.78794,687.333991 C1232.44577,686.550778 1230.76702,686.37958 1229.22207,687.027823 C1228.06568,687.513844 1227.18364,688.376885 1226.65293,689.411444 L1152.47093,654.781455 C1152.99843,653.552616 1153.04527,652.123726 1152.48633,650.795502 C1151.39412,648.195159 1148.39566,646.970808 1145.79155,648.064357 C1143.18679,649.156622 1141.96174,652.154503 1143.05684,654.755166 C1143.16658,655.017199 1115.4717,680.124032 1059.97221,730.075664 L1007.33481,679.76924 C1008.63847,678.342915 1009.07869,676.238852 1008.28071,674.342215 C1007.18625,671.74091 1004.1894,670.516559 1001.58368,671.610107 C998.978598,672.703656 997.755472,675.699933 998.849932,678.300917 C999.063627,678.807243 972.316468,712.692383 918.608456,779.956339 L879.479021,720.884858 C880.66974,719.999376 881.157771,718.392876 880.555513,716.965589 C879.849617,715.283108 877.912252,714.49124 876.227406,715.198151 C874.544165,715.904421 873.75324,717.842095 874.459778,719.523934 C874.676039,720.037313 859.715851,757.579904 829.579213,832.151706 L726.234073,776.404471 C726.618145,775.587275 726.677825,774.622927 726.29985,773.725262 C725.592991,772.044064 723.655947,771.252836 721.970459,771.960389 C720.288822,772.666659 719.496614,774.603371 720.203473,776.284248 C720.876641,777.884015 722.659671,778.661778 724.279061,778.12895 L753.259312,851.953233 C676.368482,853.661194 618.70036,854.942165 580.254945,855.796146 C577.662902,855.853723 573.774836,855.940088 568.590749,856.055241 C567.649019,853.351987 565.711013,852.559156 564.02713,853.266068 C562.343246,853.972979 561.552642,855.911614 562.257897,857.592812 C562.966039,859.273369 564.905008,860.065879 566.587929,859.358327 C567.140239,859.12643 638.763791,884.089316 781.458585,934.246984 C781.1143,935.35528 781.141252,936.587004 781.626075,937.739863 C782.719893,940.34245 785.716423,941.5668 788.321501,940.473893 C790.266887,939.656698 791.439958,937.779296 791.456322,935.799945 L911.662758,933.739804 L978.54643,1018.5188 C977.497212,1019.42961 977.088113,1020.93224 977.655397,1022.28226 C978.362897,1023.96346 980.301866,1024.75437 981.985108,1024.04682 C983.45273,1023.4316 984.240126,1021.88184 983.95135,1020.38114 L1004.66042,1015.61486 L1032.11947,1092.5316 C1030.45772,1093.24845 1029.67578,1095.17137 1030.37911,1096.84424 C1031.08693,1098.52479 1033.02558,1099.31506 1034.70882,1098.60943 C1036.33238,1097.9272 1037.11368,1096.10014 1036.53132,1094.46222 L1113.76824,1055.50324 C1114.6073,1056.86737 1116.33161,1057.46368 1117.85506,1056.82313 C1118.92706,1056.37333 1119.63039,1055.42373 1119.82291,1054.36064 L1160.30927,1057.53068 L1185.12794,1113.47508 C1183.60288,1114.25477 1182.90469,1116.07831 1183.57882,1117.68385 C1184.28568,1119.36344 1186.22561,1120.15531 1187.90917,1119.44904 C1189.07069,1118.95981 1189.79359,1117.88165 1189.90461,1116.70956 C1189.91851,1116.38469 1215.93304,1111.32859 1267.94818,1101.54127 C1269.25409,1104.77222 1272.25222,1105.99753 1274.85698,1104.90366 C1276.59573,1103.74568 1276.95061,1103.31993 1277.23681,1102.8541 C1277.77875,1101.83974 1277.97512,1101.06551 1277.98827,1100.27428 C1277.96752,1099.79403 1303.80194,1089.96139 1355.49151,1070.77637 C1356.05784,1072.10587 1357.3984,1072.85991 1358.76848,1072.76117 C1361.17366,1071.50123 1361.3819,1071.17807 1361.53784,1070.83151 L1510.90709,1128.12209 C1511.43716,1131.07028 1512.15974,1131.70089 1513.00553,1132 C1516.77919,1131.36073 1517.54541,1129.94114 1517.37952,1128.51834 L1584.77304,1111.61724 L1716.55136,1078.56521 C1718.93537,1080.93441 1719.99421,1081.04341 1720.97188,1080.63305 C1722.65705,1079.9255 1723.44765,1077.9875 1722.74175,1076.30662 C1722.03329,1074.62446 1720.09593,1073.8342 1718.4114,1074.54111 Z" id="Fill-4"></path>
        </g>
    </g>
</svg>