<?xml version="1.0" encoding="UTF-8"?>
<svg width="270px" height="270px" viewBox="-123 -60 270 270" version="1.1" xmlns="http://www.w3.org/2000/svg" xmlns:xlink="http://www.w3.org/1999/xlink">
    <!-- Generator: sketchtool 49 (51002) - http://www.bohemiancoding.com/sketch -->
    <title>Product-Design</title>
    <desc>Created with sketchtool.</desc>
    <defs></defs>
    <g id="Homepage" stroke="none" stroke-width="1" fill="none" fill-rule="evenodd" opacity="0.05">
        <g id="Homepage-V1-Copy-2" transform="translate(-1158.000000, -920.000000)" fill="#000000" fill-rule="nonzero">
            <g id="Group-10" transform="translate(1035.000000, 860.000000)">
                <g transform="translate(123.000000, 60.000000)" id="Shape">
                    <path d="M166.6,0 L3.4,0 C1.5232,0 0,1.52133333 0,3.39583333 L0,118.854167 C0,120.732062 1.5232,122.25 3.4,122.25 L81.6,122.25 L81.6,156.208333 L51,156.208333 C49.1232,156.208333 47.6,157.726271 47.6,159.604167 C47.6,161.482062 49.1232,163 51,163 L119,163 C120.8802,163 122.4,161.482062 122.4,159.604167 C122.4,157.726271 120.8802,156.208333 119,156.208333 L88.4,156.208333 L88.4,122.25 L166.6,122.25 C168.4802,122.25 170,120.732062 170,118.854167 L170,3.39583333 C170,1.52133333 168.4802,0 166.6,0 Z M163.2,115.458333 L6.8,115.458333 L6.8,6.79166667 L163.2,6.79166667 L163.2,115.458333 Z"></path>
                    <path d="M24.35,33 L84.65,33 C86.4992,33 88,31.432 88,29.5 C88,27.568 86.4992,26 84.65,26 L24.35,26 C22.5008,26 21,27.568 21,29.5 C21,31.432 22.5008,33 24.35,33 Z"></path>
                    <path d="M24.35,48 L84.65,48 C86.4992,48 88,46.432 88,44.5 C88,42.568 86.4992,41 84.65,41 L24.35,41 C22.5008,41 21,42.568 21,44.5 C21,46.432 22.5008,48 24.35,48 Z"></path>
                    <path d="M24.4166667,96 L58.5833333,96 C60.4693333,96 62,94.4355 62,92.5 L62,78.5 C62,76.568 60.4693333,75 58.5833333,75 L24.4166667,75 C22.5306667,75 21,76.568 21,78.5 L21,92.5 C21,94.4355 22.5306667,96 24.4166667,96 Z M27.8333333,82 L55.1666667,82 L55.1666667,89 L27.8333333,89 L27.8333333,82 Z"></path>
                    <path d="M24.4166667,61 L58.5833333,61 C60.4693333,61 62,59.432 62,57.5 C62,55.568 60.4693333,54 58.5833333,54 L24.4166667,54 C22.5306667,54 21,55.568 21,57.5 C21,59.432 22.5306667,61 24.4166667,61 Z"></path>
                    <path d="M105.057376,90.3128429 C106.304473,90.8476208 107.734966,90.5493792 108.691963,89.5689531 L118.668737,79.3224717 L126.151317,94.1522738 C126.744855,95.3280996 127.911924,96 129.115673,96 C129.629183,96 130.156032,95.8765897 130.646201,95.6160569 L137.605267,91.9137485 C138.388871,91.4989528 138.982409,90.7756314 139.249167,89.9083314 C139.515926,89.0410314 139.439233,88.101742 139.032426,87.292719 L132.333449,74.0124016 L144.664368,74.0124016 C146.038175,74.0124016 147.271934,73.1451015 147.772106,71.8287252 C148.272279,70.5123489 147.932162,69.0142852 146.918479,68.0578555 L108.588594,31.9020711 C107.618259,30.9833502 106.197769,30.7433857 104.994021,31.2884478 C103.780269,31.8369379 103,33.0710407 103,34.4285538 L103,87.1453123 C103,88.5302499 103.810279,89.781493 105.057376,90.3128429 Z M109.668966,42.227398 L136.098081,67.1562748 L126.851559,67.1562748 C125.684489,67.1562748 124.607451,67.7801824 124.00391,68.8017452 C123.400368,69.8233081 123.35702,71.0985477 123.893872,72.1612473 L131.579856,87.398989 L130.542832,87.9474791 L122.496724,72.0069845 C122.009889,71.0368426 121.096241,70.3649421 120.049213,70.196967 C119.87582,70.1695425 119.705761,70.1558303 119.539037,70.1558303 C118.662068,70.1558303 117.811775,70.5123489 117.181557,71.1568248 L109.668966,78.8733954 L109.668966,42.227398 Z"></path>
                </g>
            </g>
        </g>
    </g>
</svg>