<svg viewBox="0 0 216 24" xmlns="http://www.w3.org/2000/svg"><path d="M.8152604 12.3570076c0 6.4015224 5.1532256 11.4907327 11.5547476 11.4907327 2.848678 0 5.601332-.992236 7.77785-3.1047384.224053-.2240532.288069-.6401522.032008-.8642055l-1.984472-2.0484871c-.192046-.1920457-.54413-.2240533-.800191 0-1.344319 1.0882588-2.976708 1.8244338-4.897164 1.8244338-4.096975 0-7.169705-3.3928068-7.169705-7.3937583 0-4.0329591 3.040723-7.4577736 7.137697-7.4577736 1.792426 0 3.584853.7041675 4.929172 1.8884491.256061.2560609.576137.2560609.800191 0l1.952464-2.0164795c.256061-.2560609.256061-.6401523-.032008-.8962132C17.939333 1.8265033 15.602777.8022597 12.370008.8022597 5.968486.8022597.8152604 5.9554852.8152604 12.3570076zM24.340855 22.9195195c0 .3200762.256061.6081447.608145.6081447h11.714786c.352083 0 .608144-.2880685.608144-.6081447v-2.6246241c0-.3200762-.256061-.6081447-.608144-.6081447h-8.161941V1.7304805c0-.3200762-.288069-.6081447-.608145-.6081447H24.949c-.352084 0-.608145.2880685-.608145.6081447v21.189039zm14.819524.6081447h2.784663c.512122 0 .80019-.3200761.92822-.6401523l1.568373-3.4568221h9.570276l1.568373 3.4568221c.224054.4481066.448107.6401523.928221.6401523h2.784662c.480115 0 .736175-.416099.54413-.8321979L49.978952 1.1543434c-.096023-.1920456-.224053-.3520837-.544129-.3520837h-.320076c-.288069 0-.448107.1600381-.54413.3520837L38.61625 22.6954663c-.192046.4160989.064015.8321979.544129.8321979zm6.849629-7.6498193l3.136746-7.0416746h.096023l3.200761 7.0416746h-6.43353zm16.739981 7.0416746c0 .3200762.288069.6081447.608145.6081447h2.976708c.320076 0 .608145-.2880685.608145-.6081447V1.7304805c0-.3200762-.288069-.6081447-.608145-.6081447h-2.976708c-.320076 0-.608145.2880685-.608145.6081447v21.189039zm10.018383 0c0 .3200762.256061.6081447.608145.6081447h2.9447c.320076 0 .608145-.2880685.608145-.6081447v-8.161941h3.552844l4.257013 8.4820172c.064015.1280304.224053.2880685.512122.2880685h3.360799c.544129 0 .768183-.5121218.544129-.9282208L84.771226 14.46951c2.784663-1.1202664 4.737127-3.5208373 4.737127-6.4655376 0-3.8089058-3.136746-6.8816366-6.977659-6.8816366h-9.154177c-.352084 0-.608145.2880685-.608145.6081447v21.189039zm4.192997-11.5867555V4.9632493h5.217241c1.696403 0 3.168754 1.4083349 3.168754 3.1047383 0 1.7924263-1.472351 3.2647764-3.168754 3.2647764h-5.217241zm24.101732 12.1628926c.096023.1920456.256061.3520837.544129.3520837h.320076c.288069 0 .448107-.1600381.54413-.3520837l9.92236-21.5411229c.192045-.4160989-.064016-.8321979-.54413-.8321979h-3.264776c-.288069 0-.480114.1920457-.54413.3520838l-6.145461 13.7632731h-.224053L95.525784 1.4744196c-.064015-.1600381-.256061-.3520838-.544129-.3520838h-3.264777c-.480114 0-.736175.416099-.544129.8321979l9.890352 21.5411229zm12.482969-11.138649c0 6.4015224 5.08921 11.4907327 11.490732 11.4907327 6.401523 0 11.522741-5.0892103 11.522741-11.4907327S131.438325.8022597 125.036802.8022597c-6.401522 0-11.490732 5.1532255-11.490732 11.5547479zm4.160989 0c0-4.0329591 3.296784-7.3937583 7.329743-7.3937583s7.361751 3.3607992 7.361751 7.3937583c0 4.0329591-3.328792 7.3297431-7.361751 7.3297431s-7.329743-3.296784-7.329743-7.3297431zm26.950409 10.5625119c0 .3200762.256061.6081447.608145.6081447h2.9447c.320076 0 .608145-.2880685.608145-.6081447V12.7090913l7.393758-10.6585347c.256061-.416099 0-.9282208-.512121-.9282208h-3.296785c-.25606 0-.416098.1600381-.512121.2880685l-5.121218 7.3617508-5.121218-7.3617508c-.096023-.1280304-.256061-.2880685-.512122-.2880685h-3.264776c-.512122 0-.768183.5121218-.512122.9282208l7.297735 10.6905424v10.1784205zm10.242436.6081447h2.784662c.512122 0 .800191-.3200761.928221-.6401523l1.568373-3.4568221h9.570276l1.568373 3.4568221c.224053.4481066.448107.6401523.928221.6401523h2.784662c.480114 0 .736175-.416099.54413-.8321979l-9.858345-21.5411229c-.096023-.1920456-.224053-.3520837-.544129-.3520837h-.320076c-.288069 0-.448107.1600381-.54413.3520837l-9.954367 21.5411229c-.192046.4160989.064015.8321979.544129.8321979zm6.849629-7.6498193l3.136746-7.0416746h.096023l3.200761 7.0416746h-6.43353zm16.739981 7.0416746c0 .3200762.288069.6081447.608145.6081447h2.912693c.352083 0 .608144-.2880685.608144-.6081447V9.1562464h.032008l13.379182 14.6914939h.768182c.320076 0 .608145-.2560609.608145-.576137V1.7304805c0-.3200762-.288069-.6081447-.608145-.6081447h-2.9447c-.352084 0-.608145.2880685-.608145.6081447v13.2191437h-.032007L179.897849.8022597h-.80019c-.320076 0-.608145.2560609-.608145.576137v21.5411228zm27.7506 0c0 .3200762.288068.6081447.608144.6081447h2.976708c.320076 0 .608145-.2880685.608145-.6081447V4.9632493h4.897165c.352083 0 .608144-.2880685.608144-.6081447V1.7304805c0-.3200762-.256061-.6081447-.608144-.6081447h-13.987327c-.352084 0-.608145.2880685-.608145.6081447v2.6246241c0 .3200762.256061.6081447.608145.6081447h4.897165v17.9562702z" fill="#FFF" fill-rule="evenodd"/></svg>