<svg viewBox="0 0 48 48" xmlns="http://www.w3.org/2000/svg"><g fill="none" fill-rule="evenodd"><path d="M24 29.9748281l5.0000508 5.0007071-2.7288516 8.2742461h-1.3958437V37.125c0-.4832461-.3921914-.8747812-.8754375-.8747812-.4832461 0-.8754375.3915351-.8754375.8747812v6.1247813h-1.3624571l-2.7596132-8.2774454L24 29.9748281zm-4.0835977 13.2749532h-.2909648c-.4832461 0-.8754375.3921914-.8754375.8754375 0 .483246.3921914.8747812.8754375.8747812h8.749207c.4832461 0 .8754375-.3915352.8754375-.8747812 0-.4832461-.3921914-.8754375-.8754375-.8754375h-.2615156L30.9995625 34.5 24 27.4997813 17.0004375 34.5l2.9159648 8.7497813z" fill="#FF4F00"/><path d="M42.375 24c.4819336 0 .8754375.3921914.8754375.8747812 0 .4825899-.3935039.8754375-.8754375.8754375-.4819336 0-.8754375-.3928476-.8754375-.8754375 0-.4825898.3935039-.8747812.8754375-.8747812zm-19.2504375 1.7502187h1.750875V24h-1.750875v1.7502187zm-17.4995625 0c-.4819336 0-.8754375-.3928476-.8754375-.8754375C4.7495625 24.3921914 5.1430664 24 5.625 24c.4819336 0 .8754375.3921914.8754375.8747812 0 .4825899-.3935039.8754375-.8754375.8754375zM4.7495625 6.49978125h1.750875v-1.7495625h-1.750875v1.7495625zm36.75 0h1.750875v-1.7495625h-1.750875v1.7495625zM43.0722656 8.25H45V3h-5.25v5.25h1.5547383c-.2153321 1.43808984-.608836 2.8384453-1.1791992 4.18613672-.881836 2.08342968-2.1430664 3.95546488-3.7516172 5.56335938-1.6073203 1.6073203-3.4786172 2.8697812-5.5627031 3.751043-1.3471172.569707-2.7480469.9645234-4.1861368 1.1798554v-.6806133h-5.25v.6806133c-1.4380898-.215332-2.8390195-.6101484-4.1861367-1.1798554-2.0840859-.8811797-3.9554648-2.1437227-5.5627031-3.751043-1.6085508-1.6079766-2.86978126-3.4799297-3.7516172-5.56335938C7.30426172 11.08836328 6.9107578 9.68808984 6.69542578 8.25H8.25V3H3v5.25h1.92773438C5.94418358 15.7084453 11.23388672 21.8069766 18.2488711 24H8.10004687c-.3601992-1.0196484-1.3316953-1.7502188-2.47504687-1.7502188-1.44965625 0-2.625 1.1753438-2.625 2.625 0 1.4496563 1.17534375 2.625 2.625 2.625 1.14335156 0 2.11484766-.7305703 2.47504687-1.7495625H21.375v1.7495625h5.25v-1.7495625h13.2749531c.3601992 1.0189922 1.3316953 1.7495625 2.4750469 1.7495625 1.4496563 0 2.625-1.1753437 2.625-2.625 0-1.4496562-1.1753437-2.625-2.625-2.625-1.1433516 0-2.1148477.7305704-2.4750469 1.7502188H29.7511289c7.0149844-2.1930234 12.303457-8.2915547 13.3211367-15.75z" fill="#2A3240"/></g></svg>