<svg viewBox="0 0 48 48" xmlns="http://www.w3.org/2000/svg"><g fill="none"><path d="M5.8595618 30.5449375c.423-.1037768.68070786-.531.57667416-.9534821-.34378652-1.393875-.52597753-2.8499108-.52597753-4.35125 0-5.0049911 2.02786517-9.5300804 5.30994382-12.8114286C14.497 9.15585714 19.0126966 7.13141964 24.0100112 7.12299107l-1.7960337 2.82199107c-.2334157.36716965-.1251573.85444643.2418652 1.0878125.3675506.23336607.8549775.12484822 1.0894494-.24179464l2.4429439-3.83974107c.0892471-.08586607.1573707-.19175.1985618-.31238393l.2270786-.35663393-.2846404-.28604464c-.0681236-.118-.1663484-.21492857-.2841124-.28499107L22.6406742 2.494125c-.3073484-.30816964-.8063933-.3092232-1.1147978-.00263393-.3084045.30711607-.3094607.80545536-.0021124 1.1141518h-.0010561l1.9475955 1.95490177C12.85041573 5.86344644 4.3339101 14.5538304 4.33285393 25.2396786c0 1.6288214.1990899 3.212866.57244944 4.7279018.1040337.4230089.53125843.6811339.95425843.5773571zm30.2711685 8.1957321c-3.2107865 2.8725625-7.4434269 4.6172768-12.091146 4.6178036-6.8836517.0010536-12.87007868-3.8344732-15.94092138-9.4826696l3.34492135.218616c.4340899.0284465.8090337-.3002678.83755056-.734866.02904495-.4340715-.30048314-.8091429-.73510112-.8375893l-5.3352921-.3476786-1.51086517 5.125625c-.12251684.4172143.1156517.8555.5333708.9782411.4177191.1227411.8555056-.1158929.97907865-.5331072l.77998877-2.644991c3.40829214 5.8757678 9.7622697 9.8329821 17.0472697 9.8340357 5.046955.0005268 9.6577078-1.8990625 13.1436292-5.0197411.3237191-.2902589.3506517-.7880714.0607303-1.1120446-.2909775-.3245-.7889663-.3518929-1.1132135-.061634zm7.4777528-3.163875l-2.9842359.2997411c1.9734719-3.068 3.1215393-6.7207321 3.1215393-10.6363303-.0015843-9.1586965-6.2541685-16.8566161-14.7300112-19.06016076-.4219438-.10957143-.851809.14275893-.9621798.5641875-.1093146.4209018.1436405.85128572.5650562.96085715 7.7930225 2.0265446 13.5518427 9.1097053 13.5497303 17.5351161 0 3.6400892-1.0730786 7.0241607-2.919809 9.8624821l-.9965056-2.9905625c-.1383595-.4124732-.5835393-.6358304-.9970337-.4983393-.4134944.1380179-.6368764.5831518-.4985168.9966786l1.4358764 4.3091071c.0105618.118.0485842.2323125.1114269.3355625l.1420562.4251161.4768652-.0484643c.0802696.0057947.1610674-.0047411.2381685-.0237053l4.606-.4630447c.4325056-.0431964.7488315-.4293303.705-.862875-.0438314-.4330178-.4298652-.7490893-.863427-.7053661z" fill="#2A3240"/><path d="M22.8017416 34.9104107h2.6758314c1.1612697-.0031607 2.0986292-.9397857 2.1012697-2.1002946l.005809-3.9445715c.0005281-.2428482.0374944-.4314375.1024494-.6063303.111427-.3018482.3216068-.5820982.6374045-.9029107.4657753-.4809554 1.2874832-1.0087947 1.8815843-1.8163572.5983258-.8065089 1.0503708-1.9180268 1.0440337-3.4051428-.0021124-1.765259-.7916067-3.4388572-2.0611348-4.6746965-1.2700562-1.2353125-3.042854-2.0449821-5.0326967-2.0449821-1.9898427 0-3.7631685.8096696-5.0332247 2.0449821-1.2700562 1.2358393-2.0590225 2.9094375-2.0611348 4.6746965-.0021124 1.1310089.2476741 2.0434018.6342359 2.7708928.581427 1.0925536 1.5763484 1.7441875 2.1392922 2.3073215.2851685.2813035.5048539.5352142.6447977.786491.1394158.2528572.2175731.5004465.2196854.865509v3.945625c.0026405 1.1594553.9405281 2.0966071 2.1017978 2.0997678zm3.0460224-1.7304911c-.0992809.0979822-.2265505.1543483-.370191.154875h-2.6758314c-.1441686-.0005267-.2714382-.0568928-.370191-.154875-.0982248-.0990357-.1547304-.2265178-.1557866-.3703303v-2.1013482h3.7298989l-.0021123 2.1002946c-.0005281.1453929-.0575618.2723482-.1557866.3713839zm-6.4807191-8.5650089c-.4177191-.5915803-.7218988-1.2858839-.7282359-2.4806339-.0021124-1.2843036.5867079-2.5770357 1.5842697-3.5452679.9959775-.9677053 2.3764044-1.5993214 3.9332134-1.5993214 1.556809 0 2.937236.6310893 3.9326854 1.5993214.9970337.9682322 1.5869101 2.2609643 1.5847978 3.5452679-.0021124.9081786-.1890562 1.5255714-.458382 2.0302321-.4018764.7554107-1.1813371 1.2811429-1.850427 1.9227679-.3305843.3223928-.6669775.6795536-.9273259 1.1362768-.2624606.454616-.4325056 1.0140625-.429337 1.6404107l-.0010562.2686607h-3.730427v-.2686607c0-.4156339-.070764-.8022947-.1969775-1.1483929-.2228539-.6084375-.5972697-1.069375-.9737978-1.4597232-.5708651-.5836786-1.3191685-1.0504107-1.739-1.6409375z" fill="#FF4F00"/></g></svg>