<svg viewBox="0 0 196 196" xmlns="http://www.w3.org/2000/svg"><g fill="none" fill-rule="evenodd"><path fill="#FFF" d="M97.1169022 14.0376769l82.14589232 82.1458923-82.1458923 82.14589232-82.14589232-82.1458923z"/><path d="M26.9589456 112.743379l-2.9634658-2.963466 2.8907873-2.890787 2.9634659 2.963466-2.8907874 2.890787zm5.9269318 5.928749l-2.9634659-2.963466 2.8907874-2.892604 2.9634659 2.963465-2.8907874 2.892605zm5.9251148 5.925115l-2.9616489-2.961649 2.8889704-2.892605 2.9634659 2.963466-2.8907874 2.890788zm35.5579566 35.559773l-2.9634659-2.963466 2.8907874-2.88897 2.9634659 2.963466-2.8907874 2.88897zm5.9251148 5.925115l-2.9616489-2.961649 2.8889704-2.88897 2.9634659 2.963465-2.8907874 2.887154zm5.9269317 5.928749l-2.9634658-2.963466 2.8907873-2.890788 2.9634659 2.963466-2.8907874 2.890788zm-.0723151-142.1647809l-2.8907873-2.8907874 2.9634658-2.9634659 2.8907874 2.8907874-2.9634659 2.9634659zm-5.9269317 5.9269317l-2.8907874-2.8907873 2.9634659-2.9634659 2.8907874 2.8907874-2.9634659 2.9634658zm-5.9251148 5.9251148l-2.8907874-2.8889704 2.9634659-2.9634659 2.8889704 2.8907874-2.9616489 2.9616489zM38.7386771 77.2579192l-2.8907874-2.8907874 2.9634659-2.9634658 2.8907874 2.8907873-2.9634659 2.9634659zm-5.9251148 5.9251148l-2.8907874-2.8889704 2.9634659-2.9634659 2.8889704 2.8907874-2.9616489 2.9616489zm-5.9269318 5.9269318l-2.8907873-2.8907874 2.9634658-2.9616489 2.8907874 2.8889704-2.9634659 2.9634659zm82.9695955-59.2638667l-2.965283-2.9634659 2.890787-2.8907874 2.963466 2.9634659-2.88897 2.8907874zm5.926931 5.9269317l-2.963466-2.9634658 2.888971-2.8907874 2.963466 2.9634659-2.888971 2.8907873zm5.925115 5.9269318l-2.961649-2.9634659 2.887154-2.8907874 2.963466 2.9634659-2.888971 2.8907874zm35.561591 35.5597736l-2.963466-2.9652829 2.890787-2.8907873 2.963466 2.9652828-2.890787 2.8907874zm5.925114 5.9251148l-2.961648-2.9616489 2.88897-2.8907874 2.963466 2.9634659-2.890788 2.8889704zm5.926932 5.9269317l-2.963466-2.9634659 2.890788-2.8907873 2.963466 2.9634658-2.890788 2.8907874zm-.072497 23.6334133l-2.890787-2.890787 2.965283-2.963466 2.88897 2.890787-2.963466 2.963466zm-5.926931 5.926932l-2.890788-2.890788 2.963466-2.963466 2.890788 2.890788-2.963466 2.963466zm-5.925115 5.925115l-2.890788-2.887154 2.963466-2.965283 2.888971 2.890788-2.961649 2.961649zm-35.563408 35.559773l-2.88897-2.88897 2.963466-2.963466 2.88897 2.88897-2.963466 2.963466zm-5.925114 5.926932l-2.888971-2.888971 2.963466-2.963465 2.887153 2.890787-2.961648 2.961649zm-5.926932 5.926932l-2.888971-2.890788 2.963466-2.963466 2.888971 2.890788-2.963466 2.963466zM98.0014536 23.6199136l-8.5233712-8.5197373 8.5233712-8.52518813 8.5215544 8.52337123-8.5215544 8.5215542zm0-22.8265002L83.6946907 15.1019933l14.3067629 14.2976781 14.3031294-14.2994951L98.0014536.7934134z" fill="#3F4A5A"/><path d="M172.376271 98.001817l8.525188-8.5251882 8.525188 8.5251882-8.525188 8.525188-8.525188-8.525188zm8.525188-14.304946l-14.306763 14.304946 14.306763 14.304946 14.304946-14.304946-14.304946-14.304946zM15.1025384 106.531184l-8.5288221-8.5306389 8.5288221-8.5288221 8.5215542 8.5288221-8.5215542 8.5306389zm.0018169-22.8410358L.79214154 98.0005451 15.1043553 112.314576l14.2994951-14.3140309-14.2994951-14.3103969zM89.4791725 180.89728l8.5215543-8.516103 8.5270052 8.51792-8.5251883 8.525188-8.5233712-8.527005zm8.5215543-14.292227l-14.303129 14.29041 14.303129 14.310397 14.3085802-14.30858-14.3085802-14.292227z" fill="#474F59"/><path fill="#CFCFCF" d="M15.66507 154.64526L154.644533 15.6676137l25.690034 25.6918501L41.358737 180.33711"/><path fill="#DCDCDC" d="M15.66507 154.64526L154.644533 15.6676137l8.563345 8.5669783-138.9758297 138.97583"/><path fill="#FFF" d="M165.8839 38.6754468l2.17127-2.1676363 8.557894 8.5633444-2.158551 2.1712702m-10.164089 1.5931127l2.164003-2.1640023 4.280763 4.2825806-2.164002 2.1676363m-14.447941-2.6822001l2.167636-2.1730871 8.565162 8.5687952-2.16582 2.1676363m-10.163906 1.5967467l2.169453-2.1640024 4.278947 4.2807637-2.16582 2.1603685m-14.446124-2.6765675l2.167637-2.1694533 8.561527 8.5651614-2.162185 2.1640023m-10.160455 1.6056498l2.164003-2.1712702 4.278946 4.2825807-2.164002 2.1658193m-14.447941-2.6820184l2.169453-2.1658193 8.559711 8.5615274-2.162186 2.1694533m-10.162089 1.6020158l2.164002-2.1694532 4.284398 4.2789467-2.169454 2.1694533m-14.44249-2.6836537l2.16582-2.1658193 8.561527 8.5615274-2.162185 2.1712702m-10.165724 1.596565l2.169453-2.1640024 4.278947 4.2771298-2.162185 2.1694537m-14.449758-2.6838358l2.164002-2.1712702 8.565161 8.568795-2.158551 2.16582m-10.167541 1.598563l2.167637-2.167636 4.277129 4.284398-2.162185 2.164002m-14.4444886-2.682018l2.1676363-2.167637 8.5578933 8.565162-2.160368 2.167636m-10.16209 1.600199l2.1658194-2.167637 4.2771296 4.278947-2.1640022 2.167637m-14.4426717-2.682019l2.1658193-2.167636 8.5633444 8.563344-2.1676363 2.169453m-10.161908 1.598564l2.1694532-2.165819 4.2807637 4.278947-2.1694532 2.162185m-14.4426717-2.676749l2.1676363-2.17127 8.5597104 8.565161-2.1640024 2.173087m-10.1655419 1.596747l2.1712702-2.169454 4.2789468 4.282581-2.1658194 2.165819m-14.4481226-2.68547l2.1712703-2.162186 8.5578935 8.561528-2.1585515 2.169453m-10.1657237 1.600017l2.1658194-2.169453 4.2789467 4.280764-2.1621854 2.167636m-14.4515748-2.683654l2.1712702-2.164002 8.5597105 8.561527-2.1585515 2.169454m-10.1640884 1.596565l2.1640024-2.16582 4.2825806 4.282581-2.1658193 2.165819m-14.4461239-2.682018l2.1640023-2.173087 8.5669783 8.566978-2.1676362 2.165819"/><path d="M54.8787552 29.4948802L45.386943 45.3878514l-15.8947882 9.4899953c-.2198525-.3833791-.3906469-.7940126-.5196513-1.2082801-.0363392-.1399061-.0726785-.2707274-.1072008-.4069996l-8.9249199-33.3212757 33.3194588 8.9231029c.1399061.0363393.2634595.0726785.4106335.1108348.4142675.1290043.824901.2961648 1.2082801.5196512" fill="#DCDCDC"/><path fill="#CFCFCF" d="M19.9412913 19.9416547l26.9146659 18.4657901.7558564.6468387 5.6489365-10.1895259"/><path fill="#474F59" d="M19.9412913 19.9416547l3.2051219 11.973783 8.7668442-8.7704781"/><path fill="#353F49" d="M19.9412913 19.9416547l9.0048663 6.1740386 2.9670998-2.9707337"/><path fill="#FD5C22" d="M142.829371 151.4018l-8.557893 8.559711L30.4865784 56.1747946l8.5633444-8.5597105"/><path fill="#FD5C22" d="M151.396168 142.833187l-8.566978 8.568795L39.0497411 47.6152658l8.5615274-8.5615274"/><path fill="#FD5C22" d="M159.960966 134.273658l-8.565162 8.559711L47.6109051 39.0539201l8.5651613-8.5669783"/><path d="M39.0495594 47.6130854c2.3620513 2.3656853 2.3638682 6.1958423 0 8.5615275-2.3656852 2.3675021-6.1958422 2.3675021-8.5633444 0-2.3675022-2.3675022-2.3675022-6.1958422 0-8.5633444 2.3675022-2.3675022 6.1976592-2.3675022 8.5633444.0018169" fill="#FF916E"/><path d="M47.614539 39.0499228c2.3675022 2.3602343 2.3638683 6.1940252-.0018169 8.5633443-2.3638683 2.3656852-6.2012931 2.3656852-8.5633444 0-2.3656852-2.3693191-2.3638683-6.2012931 0-8.5651613 2.3620513-2.3620513 6.1994761-2.3638682 8.5651613.001817" fill="#F87B55"/><path d="M56.1758847 30.4867601c2.3675022 2.3656852 2.3675022 6.1976592.001817 8.5615274-2.3656852 2.3638682-6.1958422 2.3620513-8.5633444.001817-2.3656852-2.3656852-2.3656852-6.1976592-.0018169-8.5651614 2.3656852-2.3656852 6.1940252-2.3656852 8.5633443.001817" fill="#EE643C"/><path fill="#DCDCDC" d="M169.514191 143.823431l-25.690033 25.690034-9.551772-9.551772 25.688216-25.688217"/><path fill="#CCCBCA" d="M169.514191 143.823431l-8.563344 8.568796-9.555406-9.55904 8.565161-8.559711"/><path d="M173.934316 148.243375c1.315481 1.319114 2.125846 3.130626 2.124029 5.13837.003634 2.00956-.806731 3.822889-2.125846 5.140187l-15.409659 15.411476c-1.319115 1.315481-3.132443 2.127663-5.142004 2.127663-2.007744 0-3.821072-.812182-5.13837-2.125846l-4.417036-4.422487 25.688216-25.690033 4.42067 4.42067z" fill="#474F59"/><path d="M160.951029 152.391863l4.418853 4.422487c1.313663 1.306396 2.12948 3.130627 2.12948 5.134736 0 2.005927-.815817 3.822889-2.12948 5.140187l8.563344-8.566978c1.317298-1.319115 2.127663-3.132443 2.124029-5.140187.001817-2.009561-.808548-3.821072-2.122212-5.13837l-4.42067-4.42067-8.563344 8.568795z" fill="#232E38"/></g></svg>