<svg viewBox="0 0 48 48" xmlns="http://www.w3.org/2000/svg"><g fill="none" fill-rule="evenodd"><path d="M24.3978261 6.1525c-.2554348 0-.4086957-.205-.4086957-.41s.1532609-.41.4086957-.41c.2043478 0 .4086956.15375.4086956.41 0 .205-.1532608.41-.4086956.41zm18.2380435 19.52625c.0510869-.15375.1021739-.3075.1021739-.5125V5.435c0-.82-.6641305-1.435-1.4304348-1.435H6.9771739c-.8173913 0-1.43043477.66625-1.43043477 1.435v19.73125c0 .205.05108696.35875.1021739.5125H1v.35875c0 .76875.66413044 1.435 1.43043478 1.435H16.223913v-3.22875H7.79456522v-17.015H40.5923913v17.015h-7.4076087v3.22875h12.925c.8173913 0 1.4304348-.66625 1.4304348-1.435v-.35875h-4.9043478z" fill="#2A3240"/><path d="M24.2445652 38.08125c.1021739-.05125.2554348-.1025.3576087-.1025.1021739 0 .2554348.05125.3576087.1025.3065217.15375.5108696.41.5108696.76875 0 .46125-.3576087.87125-.8684783.87125-.4597826 0-.8684782-.35875-.8684782-.87125 0-.35875.2043478-.66625.5108695-.76875m6.9989131-22.55h-13.027174c-.5108695 0-.9195652.41-.9195652.9225v22.96c0 .5125.4086957.9225.9195652.9225h9.2467392V37.005h-8.0206522V17.99125h10.575v12.1975h2.1456522v-13.735c0-.5125-.4086957-.9225-.9195652-.9225" fill="#FF4F00"/><path d="M35.126087 42.8475h-5.4663044v-10.25h5.4663044v10.25zM32.3163043 44.59c-.2554347 0-.4597826-.205-.4597826-.46125 0-.05125 0-.15375.051087-.205.1021739-.15375.2554348-.25625.4086956-.25625.1532609 0 .3576087.1025.4086957.25625.051087.05125.051087.15375.051087.205.0510869.205-.2043479.46125-.4597827.46125zm3.8315218-12.96625s0-.05125 0 0c-.1532609-.205-.4597826-.35875-.7663044-.35875h-5.9771739c-.3065217 0-.5619565.15375-.7152174.35875-.1021739.15375-.2043478.35875-.2043478.56375v11.63375c0 .5125.4086957.9225.9195652.9225h6.0282609c.5108696 0 .9195652-.41.9195652-.9225V32.1875c0-.25625-.0510869-.41-.2043478-.56375z" fill="#2A3240"/></g></svg>