<?xml version="1.0" encoding="UTF-8"?>
<svg width="286px" height="155px" viewBox="0 0 286 155" version="1.1" xmlns="http://www.w3.org/2000/svg" xmlns:xlink="http://www.w3.org/1999/xlink">
    <!-- Generator: Sketch 51.3 (57544) - http://www.bohemiancoding.com/sketch -->
    <title>ValueAddedServices_New</title>
    <desc>Created with Sketch.</desc>
    <defs>
        <linearGradient x1="99.989025%" y1="50.0455867%" x2="0.0161450409%" y2="50.0455867%" id="linearGradient-1">
            <stop stop-color="#C7C8CA" offset="0%"></stop>
            <stop stop-color="#CBCCCE" offset="30.99%"></stop>
            <stop stop-color="#D7D8D9" offset="67.44%"></stop>
            <stop stop-color="#E6E7E8" offset="100%"></stop>
        </linearGradient>
        <linearGradient x1="99.9309673%" y1="49.9513678%" x2="-0.000297388811%" y2="49.9513678%" id="linearGradient-2">
            <stop stop-color="#C7C8CA" offset="0%"></stop>
            <stop stop-color="#CBCCCE" offset="30.99%"></stop>
            <stop stop-color="#D7D8D9" offset="67.44%"></stop>
            <stop stop-color="#E6E7E8" offset="100%"></stop>
        </linearGradient>
        <linearGradient x1="99.9946816%" y1="49.9693226%" x2="-0.000578871201%" y2="49.9693226%" id="linearGradient-3">
            <stop stop-color="#E6E7E8" offset="0%"></stop>
            <stop stop-color="#E1E2E3" offset="31.17%"></stop>
            <stop stop-color="#D2D4D5" offset="74.25%"></stop>
            <stop stop-color="#C7C8CA" offset="100%"></stop>
        </linearGradient>
        <linearGradient x1="66.3859167%" y1="49.9914848%" x2="-33.6012408%" y2="49.9914848%" id="linearGradient-4">
            <stop stop-color="#C7C8CA" offset="0%"></stop>
            <stop stop-color="#CBCCCE" offset="30.99%"></stop>
            <stop stop-color="#D7D8D9" offset="67.44%"></stop>
            <stop stop-color="#E6E7E8" offset="100%"></stop>
        </linearGradient>
        <linearGradient x1="-0.0464337189%" y1="49.9123043%" x2="99.9898831%" y2="49.9123043%" id="linearGradient-5">
            <stop stop-color="#E6E7E8" offset="0%"></stop>
            <stop stop-color="#E1E2E3" offset="31.17%"></stop>
            <stop stop-color="#D2D4D5" offset="74.25%"></stop>
            <stop stop-color="#C7C8CA" offset="100%"></stop>
        </linearGradient>
        <linearGradient x1="99.9473536%" y1="49.9936391%" x2="0.0390966831%" y2="49.9936391%" id="linearGradient-6">
            <stop stop-color="#C7C8CA" offset="0%"></stop>
            <stop stop-color="#CBCCCE" offset="30.99%"></stop>
            <stop stop-color="#D7D8D9" offset="67.44%"></stop>
            <stop stop-color="#E6E7E8" offset="100%"></stop>
        </linearGradient>
        <radialGradient cx="79.1093724%" cy="49.9842258%" fx="79.1093724%" fy="49.9842258%" r="114.301198%" gradientTransform="translate(0.791094,0.499842),scale(0.580399,1.000000),rotate(180.000000),translate(-0.791094,-0.499842)" id="radialGradient-7">
            <stop stop-color="#33429A" offset="0%"></stop>
            <stop stop-color="#2C337E" offset="100%"></stop>
        </radialGradient>
        <radialGradient cx="79.1002625%" cy="49.9747917%" fx="79.1002625%" fy="49.9747917%" r="79.6343832%" gradientTransform="translate(0.791003,0.499748),scale(1.000000,0.790802),rotate(180.000000),translate(-0.791003,-0.499748)" id="radialGradient-8">
            <stop stop-color="#33429A" offset="0%"></stop>
            <stop stop-color="#2C337E" offset="100%"></stop>
        </radialGradient>
        <linearGradient x1="81.8543143%" y1="114.21452%" x2="33.3042688%" y2="-0.814938751%" id="linearGradient-9">
            <stop stop-color="#C7C8CA" offset="0%"></stop>
            <stop stop-color="#CBCCCE" offset="30.99%"></stop>
            <stop stop-color="#D7D8D9" offset="67.44%"></stop>
            <stop stop-color="#E6E7E8" offset="100%"></stop>
        </linearGradient>
        <linearGradient x1="24.1236791%" y1="115.36103%" x2="58.9364971%" y2="27.4905099%" id="linearGradient-10">
            <stop stop-color="#C7C8CA" offset="0%"></stop>
            <stop stop-color="#CBCCCE" offset="30.99%"></stop>
            <stop stop-color="#D7D8D9" offset="67.44%"></stop>
            <stop stop-color="#E6E7E8" offset="100%"></stop>
        </linearGradient>
        <linearGradient x1="26.230222%" y1="97.5694793%" x2="77.465836%" y2="0.96292189%" id="linearGradient-11">
            <stop stop-color="#C3D4EE" offset="0%"></stop>
            <stop stop-color="#C6D7EE" offset="8.054812%"></stop>
            <stop stop-color="#D0DEF1" offset="13.82%"></stop>
            <stop stop-color="#E0ECF5" offset="18.85%"></stop>
            <stop stop-color="#EBF7FA" offset="21.17%"></stop>
            <stop stop-color="#DCE9F4" offset="24.96%"></stop>
            <stop stop-color="#CEDDF0" offset="30.95%"></stop>
            <stop stop-color="#C6D6EE" offset="38.37%"></stop>
            <stop stop-color="#C3D4EE" offset="51.43%"></stop>
            <stop stop-color="#D4E2F2" offset="63.16%"></stop>
            <stop stop-color="#EBF7FA" offset="75.5%"></stop>
            <stop stop-color="#C3D4EE" offset="100%"></stop>
        </linearGradient>
        <linearGradient x1="99.9007905%" y1="49.9978819%" x2="0.536363636%" y2="49.9978819%" id="linearGradient-12">
            <stop stop-color="#C7C8CA" offset="0%"></stop>
            <stop stop-color="#CBCCCE" offset="30.99%"></stop>
            <stop stop-color="#D7D8D9" offset="67.44%"></stop>
            <stop stop-color="#E6E7E8" offset="100%"></stop>
        </linearGradient>
        <linearGradient x1="211.256917%" y1="49.9978819%" x2="19.2387352%" y2="49.9978819%" id="linearGradient-13">
            <stop stop-color="#C7C8CA" offset="0%"></stop>
            <stop stop-color="#CBCCCE" offset="30.99%"></stop>
            <stop stop-color="#D7D8D9" offset="67.44%"></stop>
            <stop stop-color="#E6E7E8" offset="100%"></stop>
        </linearGradient>
        <linearGradient x1="85.605431%" y1="14.9017123%" x2="14.6600992%" y2="85.6023973%" id="linearGradient-14">
            <stop stop-color="#C7C8CA" offset="0%"></stop>
            <stop stop-color="#CBCCCE" offset="30.99%"></stop>
            <stop stop-color="#D7D8D9" offset="67.44%"></stop>
            <stop stop-color="#E6E7E8" offset="100%"></stop>
        </linearGradient>
        <linearGradient x1="85.301438%" y1="14.4138298%" x2="14.4945153%" y2="85.3042553%" id="linearGradient-15">
            <stop stop-color="#C7C8CA" offset="0%"></stop>
            <stop stop-color="#CBCCCE" offset="30.99%"></stop>
            <stop stop-color="#D7D8D9" offset="67.44%"></stop>
            <stop stop-color="#E6E7E8" offset="100%"></stop>
        </linearGradient>
        <linearGradient x1="0.0433144699%" y1="49.5141914%" x2="99.8247298%" y2="49.5141914%" id="linearGradient-16">
            <stop stop-color="#C7C8CA" offset="0%"></stop>
            <stop stop-color="#CBCCCE" offset="30.99%"></stop>
            <stop stop-color="#D7D8D9" offset="67.44%"></stop>
            <stop stop-color="#E6E7E8" offset="100%"></stop>
        </linearGradient>
        <linearGradient x1="99.9007905%" y1="49.8517312%" x2="0.536363636%" y2="49.8517312%" id="linearGradient-17">
            <stop stop-color="#C7C8CA" offset="0%"></stop>
            <stop stop-color="#CBCCCE" offset="30.99%"></stop>
            <stop stop-color="#D7D8D9" offset="67.44%"></stop>
            <stop stop-color="#E6E7E8" offset="100%"></stop>
        </linearGradient>
        <linearGradient x1="211.256917%" y1="49.8517312%" x2="19.2387352%" y2="49.8517312%" id="linearGradient-18">
            <stop stop-color="#C7C8CA" offset="0%"></stop>
            <stop stop-color="#CBCCCE" offset="30.99%"></stop>
            <stop stop-color="#D7D8D9" offset="67.44%"></stop>
            <stop stop-color="#E6E7E8" offset="100%"></stop>
        </linearGradient>
        <linearGradient x1="85.3362194%" y1="14.456314%" x2="14.5317164%" y2="84.9153584%" id="linearGradient-19">
            <stop stop-color="#C7C8CA" offset="0%"></stop>
            <stop stop-color="#CBCCCE" offset="30.99%"></stop>
            <stop stop-color="#D7D8D9" offset="67.44%"></stop>
            <stop stop-color="#E6E7E8" offset="100%"></stop>
        </linearGradient>
        <linearGradient x1="0.0433144699%" y1="50.4%" x2="99.8247298%" y2="50.4%" id="linearGradient-20">
            <stop stop-color="#C7C8CA" offset="0%"></stop>
            <stop stop-color="#CBCCCE" offset="30.99%"></stop>
            <stop stop-color="#D7D8D9" offset="67.44%"></stop>
            <stop stop-color="#E6E7E8" offset="100%"></stop>
        </linearGradient>
        <linearGradient x1="99.916996%" y1="49.8911816%" x2="0.55256917%" y2="49.8911816%" id="linearGradient-21">
            <stop stop-color="#C7C8CA" offset="0%"></stop>
            <stop stop-color="#CBCCCE" offset="30.99%"></stop>
            <stop stop-color="#D7D8D9" offset="67.44%"></stop>
            <stop stop-color="#E6E7E8" offset="100%"></stop>
        </linearGradient>
        <linearGradient x1="211.273123%" y1="49.8911816%" x2="19.2549407%" y2="49.8911816%" id="linearGradient-22">
            <stop stop-color="#C7C8CA" offset="0%"></stop>
            <stop stop-color="#CBCCCE" offset="30.99%"></stop>
            <stop stop-color="#D7D8D9" offset="67.44%"></stop>
            <stop stop-color="#E6E7E8" offset="100%"></stop>
        </linearGradient>
        <linearGradient x1="85.3525133%" y1="14.3624573%" x2="14.5480103%" y2="84.8215017%" id="linearGradient-23">
            <stop stop-color="#C7C8CA" offset="0%"></stop>
            <stop stop-color="#CBCCCE" offset="30.99%"></stop>
            <stop stop-color="#D7D8D9" offset="67.44%"></stop>
            <stop stop-color="#E6E7E8" offset="100%"></stop>
        </linearGradient>
        <linearGradient x1="0.0595126233%" y1="50.2191419%" x2="99.840928%" y2="50.2191419%" id="linearGradient-24">
            <stop stop-color="#C7C8CA" offset="0%"></stop>
            <stop stop-color="#CBCCCE" offset="30.99%"></stop>
            <stop stop-color="#D7D8D9" offset="67.44%"></stop>
            <stop stop-color="#E6E7E8" offset="100%"></stop>
        </linearGradient>
        <linearGradient x1="99.9328063%" y1="49.9833266%" x2="0.568774704%" y2="49.9833266%" id="linearGradient-25">
            <stop stop-color="#C7C8CA" offset="0%"></stop>
            <stop stop-color="#CBCCCE" offset="30.99%"></stop>
            <stop stop-color="#D7D8D9" offset="67.44%"></stop>
            <stop stop-color="#E6E7E8" offset="100%"></stop>
        </linearGradient>
        <linearGradient x1="211.290119%" y1="49.9833266%" x2="19.270751%" y2="49.9833266%" id="linearGradient-26">
            <stop stop-color="#C7C8CA" offset="0%"></stop>
            <stop stop-color="#CBCCCE" offset="30.99%"></stop>
            <stop stop-color="#D7D8D9" offset="67.44%"></stop>
            <stop stop-color="#E6E7E8" offset="100%"></stop>
        </linearGradient>
        <linearGradient x1="85.3688071%" y1="14.4911263%" x2="14.5639612%" y2="84.9505119%" id="linearGradient-27">
            <stop stop-color="#C7C8CA" offset="0%"></stop>
            <stop stop-color="#CBCCCE" offset="30.99%"></stop>
            <stop stop-color="#D7D8D9" offset="67.44%"></stop>
            <stop stop-color="#E6E7E8" offset="100%"></stop>
        </linearGradient>
        <linearGradient x1="0.0753156998%" y1="50.4686469%" x2="99.8571261%" y2="50.4686469%" id="linearGradient-28">
            <stop stop-color="#C7C8CA" offset="0%"></stop>
            <stop stop-color="#CBCCCE" offset="30.99%"></stop>
            <stop stop-color="#D7D8D9" offset="67.44%"></stop>
            <stop stop-color="#E6E7E8" offset="100%"></stop>
        </linearGradient>
        <linearGradient x1="99.9498024%" y1="49.9066859%" x2="0.58458498%" y2="49.9066859%" id="linearGradient-29">
            <stop stop-color="#C7C8CA" offset="0%"></stop>
            <stop stop-color="#CBCCCE" offset="30.99%"></stop>
            <stop stop-color="#D7D8D9" offset="67.44%"></stop>
            <stop stop-color="#E6E7E8" offset="100%"></stop>
        </linearGradient>
        <linearGradient x1="211.305929%" y1="49.9066859%" x2="19.2869565%" y2="49.9066859%" id="linearGradient-30">
            <stop stop-color="#C7C8CA" offset="0%"></stop>
            <stop stop-color="#CBCCCE" offset="30.99%"></stop>
            <stop stop-color="#D7D8D9" offset="67.44%"></stop>
            <stop stop-color="#E6E7E8" offset="100%"></stop>
        </linearGradient>
        <linearGradient x1="85.384758%" y1="14.9614334%" x2="14.580598%" y2="85.4201365%" id="linearGradient-31">
            <stop stop-color="#C7C8CA" offset="0%"></stop>
            <stop stop-color="#CBCCCE" offset="30.99%"></stop>
            <stop stop-color="#D7D8D9" offset="67.44%"></stop>
            <stop stop-color="#E6E7E8" offset="100%"></stop>
        </linearGradient>
        <linearGradient x1="0.0915138533%" y1="50.0580858%" x2="99.8733243%" y2="50.0580858%" id="linearGradient-32">
            <stop stop-color="#C7C8CA" offset="0%"></stop>
            <stop stop-color="#CBCCCE" offset="30.99%"></stop>
            <stop stop-color="#D7D8D9" offset="67.44%"></stop>
            <stop stop-color="#E6E7E8" offset="100%"></stop>
        </linearGradient>
        <linearGradient x1="99.9660079%" y1="50.0173276%" x2="0.600790514%" y2="50.0173276%" id="linearGradient-33">
            <stop stop-color="#C7C8CA" offset="0%"></stop>
            <stop stop-color="#CBCCCE" offset="30.99%"></stop>
            <stop stop-color="#D7D8D9" offset="67.44%"></stop>
            <stop stop-color="#E6E7E8" offset="100%"></stop>
        </linearGradient>
        <linearGradient x1="211.322134%" y1="50.0173276%" x2="19.3027668%" y2="50.0173276%" id="linearGradient-34">
            <stop stop-color="#C7C8CA" offset="0%"></stop>
            <stop stop-color="#CBCCCE" offset="30.99%"></stop>
            <stop stop-color="#D7D8D9" offset="67.44%"></stop>
            <stop stop-color="#E6E7E8" offset="100%"></stop>
        </linearGradient>
        <linearGradient x1="85.4010519%" y1="14.6627986%" x2="14.5962059%" y2="85.1221843%" id="linearGradient-35">
            <stop stop-color="#C7C8CA" offset="0%"></stop>
            <stop stop-color="#CBCCCE" offset="30.99%"></stop>
            <stop stop-color="#D7D8D9" offset="67.44%"></stop>
            <stop stop-color="#E6E7E8" offset="100%"></stop>
        </linearGradient>
        <linearGradient x1="0.107712007%" y1="49.479868%" x2="99.8891274%" y2="49.479868%" id="linearGradient-36">
            <stop stop-color="#C7C8CA" offset="0%"></stop>
            <stop stop-color="#CBCCCE" offset="30.99%"></stop>
            <stop stop-color="#D7D8D9" offset="67.44%"></stop>
            <stop stop-color="#E6E7E8" offset="100%"></stop>
        </linearGradient>
        <linearGradient x1="78.6208657%" y1="2.57256395%" x2="0.732186459%" y2="110.840654%" id="linearGradient-37">
            <stop stop-color="#B1B3B6" offset="0%"></stop>
            <stop stop-color="#B5B7BA" offset="23.14%"></stop>
            <stop stop-color="#C1C3C5" offset="50.42%"></stop>
            <stop stop-color="#D5D6D8" offset="79.67%"></stop>
            <stop stop-color="#E6E7E8" offset="100%"></stop>
        </linearGradient>
        <linearGradient x1="93.3719676%" y1="51.6038325%" x2="-24.8024795%" y2="47.0608674%" id="linearGradient-38">
            <stop stop-color="#C7C8CA" offset="0%"></stop>
            <stop stop-color="#CBCCCE" offset="30.99%"></stop>
            <stop stop-color="#D7D8D9" offset="67.44%"></stop>
            <stop stop-color="#E6E7E8" offset="100%"></stop>
        </linearGradient>
        <linearGradient x1="78.6924528%" y1="2.61546747%" x2="0.803773585%" y2="110.883557%" id="linearGradient-39">
            <stop stop-color="#B1B3B6" offset="0%"></stop>
            <stop stop-color="#B5B7BA" offset="23.14%"></stop>
            <stop stop-color="#C1C3C5" offset="50.42%"></stop>
            <stop stop-color="#D5D6D8" offset="79.67%"></stop>
            <stop stop-color="#E6E7E8" offset="100%"></stop>
        </linearGradient>
        <linearGradient x1="93.3326639%" y1="51.6132146%" x2="-24.8418943%" y2="47.0733238%" id="linearGradient-40">
            <stop stop-color="#C7C8CA" offset="0%"></stop>
            <stop stop-color="#CBCCCE" offset="30.99%"></stop>
            <stop stop-color="#D7D8D9" offset="67.44%"></stop>
            <stop stop-color="#E6E7E8" offset="100%"></stop>
        </linearGradient>
        <linearGradient x1="0.0364434687%" y1="49.9863118%" x2="100.006037%" y2="49.9863118%" id="linearGradient-41">
            <stop stop-color="#C7C8CA" offset="0%"></stop>
            <stop stop-color="#CBCCCE" offset="30.99%"></stop>
            <stop stop-color="#D7D8D9" offset="67.44%"></stop>
            <stop stop-color="#E6E7E8" offset="100%"></stop>
        </linearGradient>
        <linearGradient x1="49.9731868%" y1="77.6624214%" x2="49.9731868%" y2="2.11580189%" id="linearGradient-42">
            <stop stop-color="#C7C8CA" offset="0%"></stop>
            <stop stop-color="#CBCCCE" offset="30.99%"></stop>
            <stop stop-color="#D7D8D9" offset="67.44%"></stop>
            <stop stop-color="#E6E7E8" offset="100%"></stop>
        </linearGradient>
        <linearGradient x1="0.0728070175%" y1="49.9716049%" x2="99.9337719%" y2="49.9716049%" id="linearGradient-43">
            <stop stop-color="#C7C8CA" offset="0%"></stop>
            <stop stop-color="#CBCCCE" offset="30.99%"></stop>
            <stop stop-color="#D7D8D9" offset="67.44%"></stop>
            <stop stop-color="#E6E7E8" offset="100%"></stop>
        </linearGradient>
        <linearGradient x1="0.0440242057%" y1="49.9437173%" x2="100.014675%" y2="49.9437173%" id="linearGradient-44">
            <stop stop-color="#C7C8CA" offset="0%"></stop>
            <stop stop-color="#CBCCCE" offset="30.99%"></stop>
            <stop stop-color="#D7D8D9" offset="67.44%"></stop>
            <stop stop-color="#E6E7E8" offset="100%"></stop>
        </linearGradient>
        <linearGradient x1="62.8921212%" y1="84.6850467%" x2="38.549697%" y2="19.1453271%" id="linearGradient-45">
            <stop stop-color="#C7C8CA" offset="0%"></stop>
            <stop stop-color="#CBCCCE" offset="30.99%"></stop>
            <stop stop-color="#D7D8D9" offset="67.44%"></stop>
            <stop stop-color="#E6E7E8" offset="100%"></stop>
        </linearGradient>
        <linearGradient x1="-0.359090909%" y1="49.1402356%" x2="99.225%" y2="49.1402356%" id="linearGradient-46">
            <stop stop-color="#C7C8CA" offset="0%"></stop>
            <stop stop-color="#CBCCCE" offset="30.99%"></stop>
            <stop stop-color="#D7D8D9" offset="67.44%"></stop>
            <stop stop-color="#E6E7E8" offset="100%"></stop>
        </linearGradient>
        <linearGradient x1="-0.143181818%" y1="47.9191218%" x2="99.4409091%" y2="47.9191218%" id="linearGradient-47">
            <stop stop-color="#C7C8CA" offset="0%"></stop>
            <stop stop-color="#CBCCCE" offset="30.99%"></stop>
            <stop stop-color="#D7D8D9" offset="67.44%"></stop>
            <stop stop-color="#E6E7E8" offset="100%"></stop>
        </linearGradient>
        <linearGradient x1="-0.359090909%" y1="48.7375677%" x2="99.225%" y2="48.7375677%" id="linearGradient-48">
            <stop stop-color="#C7C8CA" offset="0%"></stop>
            <stop stop-color="#CBCCCE" offset="30.99%"></stop>
            <stop stop-color="#D7D8D9" offset="67.44%"></stop>
            <stop stop-color="#E6E7E8" offset="100%"></stop>
        </linearGradient>
        <linearGradient x1="-0.143181818%" y1="49.3893278%" x2="99.4409091%" y2="49.3893278%" id="linearGradient-49">
            <stop stop-color="#C7C8CA" offset="0%"></stop>
            <stop stop-color="#CBCCCE" offset="30.99%"></stop>
            <stop stop-color="#D7D8D9" offset="67.44%"></stop>
            <stop stop-color="#E6E7E8" offset="100%"></stop>
        </linearGradient>
    </defs>
    <g id="Page-1" stroke="none" stroke-width="1" fill="none" fill-rule="evenodd">
        <g id="Insight-Webpage-Update_v4" transform="translate(-963.000000, -1129.000000)" fill-rule="nonzero">
            <g id="ValueAddedServices_New" transform="translate(963.000000, 1129.000000)">
                <g id="Group" transform="translate(0.000000, 2.000000)" fill="#E97925">
                    <path d="M244.260643,93.5386364 C244.216845,93.5386364 244.173047,93.5386364 244.12925,93.4951705 L190.60827,62.8082386 C189.600919,62.2431818 189.075345,61.4607955 189.075345,60.6349432 C189.075345,59.8090909 189.600919,59.0267045 190.60827,58.4616477 L225.471363,38.4673295 C226.259724,37.9892045 226.741501,37.4241477 226.741501,36.7721591 C226.741501,36.1636364 226.303522,35.5551136 225.471363,35.0769886 L166.431853,1.30397727 C164.636141,0.304261364 161.745482,0.304261364 159.993568,1.30397727 L140.153139,12.6485795 C139.364778,13.1267045 138.883002,13.6917614 138.883002,14.34375 C138.883002,14.9522727 139.32098,15.5607955 140.153139,16.0389205 L169.585299,32.9036932 C170.592649,33.46875 171.118224,34.2511364 171.118224,35.0769886 C171.118224,35.9028409 170.592649,36.6852273 169.585299,37.2502841 L125.568453,62.4605114 C123.641348,63.5471591 120.487902,63.5471591 118.560796,62.4605114 L89.3476263,45.6826705 C89.2162328,45.5957386 89.1724349,45.421875 89.2600306,45.2914773 C89.3476263,45.1610795 89.5228178,45.1176136 89.6542113,45.2045455 L118.867381,61.9389205 C120.663093,62.9386364 123.553752,62.9386364 125.305666,61.9389205 L169.322511,36.7286932 C170.110873,36.2505682 170.592649,35.6855114 170.592649,35.0335227 C170.592649,34.425 170.154671,33.8164773 169.322511,33.3383523 L139.890352,16.5170455 C138.883002,15.9519886 138.357427,15.1696023 138.357427,14.34375 C138.357427,13.5178977 138.883002,12.7355114 139.890352,12.1704545 L159.686983,0.825852273 C161.614089,-0.260795455 164.767534,-0.260795455 166.69464,0.825852273 L225.73415,34.6423295 C226.741501,35.2073864 227.267075,35.9897727 227.267075,36.815625 C227.267075,37.6414773 226.741501,38.4238636 225.73415,38.9889205 L190.871057,58.9832386 C190.082695,59.4613636 189.600919,60.0264205 189.600919,60.6784091 C189.600919,61.2869318 190.038897,61.8954545 190.871057,62.3735795 L244.392037,93.0170455 C244.52343,93.1039773 244.567228,93.2778409 244.479632,93.4082386 C244.435835,93.4951705 244.348239,93.5386364 244.260643,93.5386364 Z" id="Shape"></path>
                    <path d="M231.515467,70.5017045 C231.427871,70.5017045 231.340276,70.4582386 231.296478,70.3713068 C231.208882,70.2409091 231.25268,70.0670455 231.384074,69.9801136 L283.372129,40.2059659 C284.467075,39.5539773 285.124043,38.728125 285.124043,37.8588068 C285.124043,36.9894886 284.510873,36.1636364 283.372129,35.5116477 L233.486371,6.99801136 C231.077489,5.60710227 227.135681,5.60710227 224.726799,6.99801136 L213.602144,13.3875 C213.47075,13.4744318 213.295559,13.4309659 213.207963,13.3005682 C213.120368,13.1701705 213.164165,12.9963068 213.295559,12.909375 L224.464012,6.51988636 C227.004288,5.04204545 231.208882,5.04204545 233.749158,6.51988636 L283.591118,35.0769886 C284.905054,35.8159091 285.605819,36.815625 285.605819,37.9022727 C285.605819,38.9889205 284.905054,39.9886364 283.591118,40.7275568 L231.603063,70.5017045 C231.603063,70.5017045 231.559265,70.5017045 231.515467,70.5017045 Z" id="Shape"></path>
                    <path d="M107.742726,152.913068 C106.297397,152.913068 104.895865,152.608807 103.800919,152.000284 L32.6294028,111.185795 C31.5344564,110.533807 30.9212864,109.707955 30.9212864,108.751705 C30.9212864,107.795455 31.5344564,106.969602 32.6294028,106.317614 L56.9372129,92.4085227 C59.1271057,91.1480114 62.6309342,91.1480114 64.820827,92.4085227 L109.757427,118.140341 C111.772129,119.31392 115.056968,119.31392 117.071669,118.140341 L177.644104,83.4545455 C178.563859,82.9329545 179.089433,82.2375 179.089433,81.4985795 C179.089433,80.7596591 178.563859,80.0642045 177.644104,79.5426136 L159.730781,69.2846591 C157.71608,68.1110795 154.43124,68.1110795 152.416539,69.2846591 L117.334456,89.3659091 C115.144564,90.6264205 111.640735,90.6264205 109.450842,89.3659091 L60.4410413,61.2869318 C58.42634,60.1133523 55.1415008,60.1133523 53.1267994,61.2869318 L0.788361409,91.2784091 C0.656967841,91.3653409 0.481776417,91.321875 0.394180704,91.1914773 C0.306584992,91.0610795 0.350382848,90.8872159 0.481776417,90.8002841 L52.8202144,60.8088068 C55.0101072,59.5482955 58.5139357,59.5482955 60.7038285,60.8088068 L109.713629,88.8877841 C111.728331,90.0613636 115.01317,90.0613636 117.027871,88.8877841 L152.109954,68.8065341 C154.299847,67.5460227 157.803675,67.5460227 159.993568,68.8065341 L177.906891,79.0644886 C179.001838,79.7164773 179.615008,80.5423295 179.615008,81.4985795 C179.615008,82.4113636 179.001838,83.2806818 177.906891,83.9326705 L117.290658,118.661932 C115.100766,119.922443 111.596937,119.922443 109.407044,118.661932 L64.4704441,92.9301136 C62.4557427,91.7565341 59.1709035,91.7565341 57.1562021,92.9301136 L32.848392,106.839205 C31.9286371,107.360795 31.4030628,108.05625 31.4030628,108.79517 C31.4030628,109.534091 31.9286371,110.18608 32.848392,110.751136 L104.063706,151.565625 C106.078407,152.739205 109.363247,152.739205 111.377948,151.565625 L203.528637,98.7545455 C203.660031,98.6676136 203.835222,98.7110795 203.922818,98.8414773 C204.010413,98.971875 203.966616,99.1457386 203.835222,99.2326705 L111.684533,152.000284 C110.589587,152.608807 109.188055,152.913068 107.742726,152.913068 Z" id="Shape"></path>
                    <path d="M175.89219,132.70142 C175.848392,132.70142 175.804594,132.70142 175.760796,132.657955 L160.431547,123.877841 C160.300153,123.790909 160.256355,123.617045 160.343951,123.486648 C160.431547,123.35625 160.606738,123.312784 160.738132,123.399716 L176.067381,132.17983 C176.198775,132.266761 176.242573,132.440625 176.154977,132.571023 C176.067381,132.657955 175.979786,132.70142 175.89219,132.70142 Z" id="Shape"></path>
                    <path d="M134.02144,36.2071023 C133.933844,36.2071023 133.846248,36.1636364 133.80245,36.0767045 C133.714855,35.9463068 133.758652,35.7724432 133.890046,35.6855114 L154.03706,24.1235795 C154.168453,24.0366477 154.343645,24.0801136 154.43124,24.2105114 C154.518836,24.3409091 154.475038,24.5147727 154.343645,24.6017045 L134.196631,36.1636364 C134.109035,36.2071023 134.065237,36.2071023 134.02144,36.2071023 Z" id="Shape"></path>
                    <path d="M134.240429,41.2926136 L125.174273,41.2926136 C125.042879,41.2926136 124.911485,41.1622159 124.911485,41.0318182 L124.911485,35.8159091 C124.911485,35.6855114 125.042879,35.5551136 125.174273,35.5551136 L134.240429,35.5551136 C134.371822,35.5551136 134.503216,35.6855114 134.503216,35.8159091 L134.503216,41.0318182 C134.503216,41.11875 134.459418,41.1622159 134.41562,41.2056818 C134.371822,41.2491477 134.284227,41.2926136 134.240429,41.2926136 Z M125.43706,40.7275568 L133.977642,40.7275568 L133.977642,36.0767045 L125.43706,36.0767045 L125.43706,40.7275568 Z" id="Shape"></path>
                    <path d="M109.932619,140.829545 C108.180704,140.829545 106.42879,140.438352 105.071057,139.699432 C103.713323,138.917045 102.96876,137.873864 102.96876,136.74375 C102.96876,135.613636 103.713323,134.570455 105.071057,133.788068 C107.742726,132.266761 112.122511,132.266761 114.794181,133.788068 C116.151914,134.570455 116.896478,135.613636 116.896478,136.74375 C116.896478,137.873864 116.151914,138.917045 114.794181,139.699432 C113.436447,140.438352 111.684533,140.829545 109.932619,140.829545 Z M109.932619,133.179545 C108.2683,133.179545 106.603982,133.527273 105.333844,134.266193 C104.151302,134.918182 103.494334,135.830966 103.494334,136.74375 C103.494334,137.656534 104.151302,138.525852 105.333844,139.221307 C107.874119,140.655682 111.991118,140.655682 114.487596,139.221307 C115.670138,138.569318 116.327106,137.656534 116.327106,136.74375 C116.327106,135.830966 115.670138,134.961648 114.487596,134.266193 C113.261256,133.570739 111.596937,133.179545 109.932619,133.179545 Z" id="Shape"></path>
                    <path d="M75.9892802,121.400284 C74.237366,121.400284 72.4854518,121.009091 71.1277182,120.27017 C69.7699847,119.487784 69.0254211,118.444602 69.0254211,117.314489 C69.0254211,116.184375 69.7699847,115.141193 71.1277182,114.358807 C73.7993874,112.8375 78.179173,112.8375 80.8508423,114.358807 C82.2085758,115.141193 82.9531394,116.184375 82.9531394,117.314489 C82.9531394,118.444602 82.2085758,119.487784 80.8508423,120.27017 C79.4931087,121.009091 77.7411945,121.400284 75.9892802,121.400284 Z M75.9892802,113.750284 C74.3249617,113.750284 72.6606432,114.098011 71.3905054,114.836932 C70.2079632,115.48892 69.5509954,116.401705 69.5509954,117.314489 C69.5509954,118.227273 70.2079632,119.096591 71.3905054,119.792045 C73.930781,121.22642 78.0477795,121.22642 80.5442573,119.792045 C81.7267994,119.140057 82.3837672,118.227273 82.3837672,117.314489 C82.3837672,116.401705 81.7267994,115.532386 80.5442573,114.836932 C79.3179173,114.098011 77.6535988,113.750284 75.9892802,113.750284 Z" id="Shape"></path>
                    <path d="M63.7258806,105.144034 C63.6382848,105.144034 63.5506891,105.100568 63.5068913,105.013636 C63.4192956,104.883239 63.4630934,104.709375 63.594487,104.622443 L74.6753446,98.2764205 C74.8067381,98.1894886 74.9819296,98.2329545 75.0695253,98.3633523 C75.157121,98.49375 75.1133231,98.6676136 74.9819296,98.7545455 L63.901072,105.100568 C63.8134763,105.144034 63.7696784,105.144034 63.7258806,105.144034 Z" id="Shape"></path>
                    <path d="M124.561103,144.567614 C124.517305,144.567614 124.473507,144.567614 124.429709,144.524148 L115.232159,139.177841 C115.100766,139.090909 115.056968,138.917045 115.144564,138.786648 C115.232159,138.65625 115.407351,138.612784 115.538744,138.699716 L124.736294,144.046023 C124.867688,144.132955 124.911485,144.306818 124.82389,144.437216 C124.780092,144.524148 124.692496,144.567614 124.561103,144.567614 Z" id="Shape"></path>
                    <path d="M184.958346,137.91733 L175.89219,137.91733 C175.760796,137.91733 175.629403,137.786932 175.629403,137.656534 L175.629403,132.440625 C175.629403,132.353693 175.673201,132.310227 175.716998,132.266761 C175.760796,132.223295 175.848392,132.17983 175.89219,132.17983 L184.958346,132.17983 C185.08974,132.17983 185.221133,132.310227 185.221133,132.440625 L185.221133,137.656534 C185.221133,137.786932 185.133538,137.91733 184.958346,137.91733 Z M176.154977,137.352273 L184.695559,137.352273 L184.695559,132.70142 L176.154977,132.70142 L176.154977,137.352273 Z" id="Shape"></path>
                </g>
                <path d="M135.955419,124 C135.911433,124 135.867446,124 135.82346,123.956414 L98.6988305,102.555721 L76.397661,114.977712 C76.2657014,115.064884 76.0897553,115.021298 76.0457688,114.89054 C75.9577957,114.759782 76.0017823,114.585438 76.1337418,114.541852 L98.5668709,102.032689 C98.654844,101.989104 98.742817,101.989104 98.8307901,102.032689 L135.955419,123.433383 L165.602339,106.652798 C165.734299,106.565627 165.910245,106.609212 165.954231,106.73997 C166.042204,106.870728 165.998218,107.045072 165.866258,107.088658 L136.087379,123.956414 C136.087379,124 135.999406,124 135.955419,124 Z" id="Shape" fill="#E97925"></path>
                <g id="Group" transform="translate(123.000000, 0.000000)">
                    <g id="Shape">
                        <g>
                            <g transform="translate(45.922864, 0.000000)">
                                <path d="M1.26834578,56.3664754 L10.5403908,1.14137723 L9.79687774,0.834083359 L10.9340153,0.175596497 C11.1526956,0.0438991241 11.4588481,0.0438991241 11.8087366,0.219495621 L85.8976245,43.152839 C86.5099293,43.504032 86.9472899,44.4259136 86.8598178,45.0405014 L77.5003007,100.704591 C77.4565646,101.011885 77.3253564,101.187481 77.1066761,101.275279 L76.0132746,101.889867 L75.8383303,100.880187 L75.8820664,100.880187 L2.23053913,58.2102386 C1.66197033,57.9029447 1.18087366,57.0249622 1.26834578,56.3664754 Z" fill="url(#linearGradient-1)"></path>
                                <path d="M85.4602638,44.7332075 L86.6848736,44.206418 C86.8160817,44.5137119 86.9035539,44.8649049 86.8598178,45.1282996 L77.5003007,100.792389 C77.4565646,101.099683 77.3253564,101.275279 77.1066761,101.363078 L76.0132746,101.977665 L75.8383303,100.967986 L75.8820664,100.967986 L72.1645012,98.7730293 L85.4602638,44.7332075 Z" fill="url(#linearGradient-2)"></path>
                                <path d="M1.09340153,58.9126246 L75.1822894,101.845968 C75.7508582,102.197161 76.2319549,101.977665 76.3631631,101.406977 L85.7226802,45.7428873 C85.8101523,45.1282996 85.3727917,44.206418 84.7604869,43.855225 L10.6278629,0.965780731 C10.0592941,0.614587738 9.57819743,0.834083359 9.44698925,1.40477197 L0.0874721227,57.0688614 C-8.92341756e-15,57.6834491 0.481096675,58.5614316 1.09340153,58.9126246 Z" fill="#273044"></path>
                                <polygon fill="#384256" points="11.5900563 4.47771066 83.0110444 45.8745847 74.17636 98.2901389 2.79910793 56.937164"></polygon>
                            </g>
                            <g transform="translate(0.000000, 58.385835)">
                                <path d="M0.437360613,26.9101631 L4.46107826,29.0173211 L45.0044071,5.53128964 C45.7041841,5.13619752 46.8850577,5.18009665 47.6723068,5.66298701 L117.606269,46.1818786 C118.26231,45.7867865 121.323834,44.3381154 121.323834,44.3381154 L119.836808,48.2012383 C119.836808,48.2012383 119.836808,48.2012383 119.836808,48.2012383 C119.793072,48.3768348 119.661864,48.5524313 119.443183,48.6402295 L76.7567876,73.3993355 C76.0570107,73.7944277 74.876137,73.7505285 74.0888879,73.2676382 L2.53669156,31.7829659 C2.23053913,31.6073694 2.01185882,31.3878738 1.9243867,31.124479 L0.437360613,26.9101631 Z" fill="url(#linearGradient-3)"></path>
                                <path d="M1.04966547,27.56865 L74.3950403,70.0630021 C75.1822894,70.5458925 76.4068991,70.5897916 77.1066761,70.1946995 L120.886474,44.8210057 C121.58625,44.4259136 121.498778,43.7235276 120.711529,43.2406373 L47.3661544,0.74628511 C46.5789053,0.263394745 45.3542956,0.219495621 44.6545186,0.614587738 L0.874721227,25.9882815 C0.174944245,26.3833736 0.262416368,27.0857596 1.04966547,27.56865 Z" fill="url(#linearGradient-4)"></path>
                                <path d="M96.5254874,60.844186 L96.5254874,60.0540018 C96.5254874,59.9662036 96.4817513,59.9223044 96.4380152,59.9662036 L93.5951712,61.5904712 C93.5514352,61.6343703 93.5076991,61.7221685 93.5076991,61.8099668 L93.5076991,62.600151 C93.5076991,62.6879493 93.5514352,62.7318484 93.5951712,62.6879493 L96.4380152,61.0636817 C96.4817513,61.0197825 96.5254874,60.9319843 96.5254874,60.844186 Z" fill="#384256"></path>
                                <path d="M92.2830894,63.302537 L92.2830894,62.5123528 C92.2830894,62.4245545 92.2393533,62.3806554 92.1956173,62.4245545 L89.3527733,64.0488221 C89.3090372,64.0927212 89.2653012,64.1805195 89.2653012,64.2683177 L89.2653012,65.058502 C89.2653012,65.1463002 89.3090372,65.1901993 89.3527733,65.1463002 L92.1956173,63.5220326 C92.2393533,63.4781335 92.2830894,63.3903352 92.2830894,63.302537 Z" fill="#384256"></path>
                                <path d="M109.471362,42.450453 L48.5470281,7.15555723 C48.1534035,6.93606161 47.6285708,6.93606161 47.2349462,7.15555723 L25.5418598,19.7546059 C25.2357074,19.9302024 25.2357074,20.3691936 25.5418598,20.5886892 L86.4661932,55.883585 C86.8598178,56.1030806 87.3846505,56.1030806 87.7782751,55.883585 L109.515098,43.2845364 C109.777514,43.0650408 109.777514,42.6260495 109.471362,42.450453 Z" fill="url(#linearGradient-5)"></path>
                                <path d="M109.471362,43.2406373 L109.252681,43.3723346 L48.5470281,8.16523709 C48.1534035,7.94574147 47.6285708,7.94574147 47.2349462,8.16523709 L25.7605401,20.6325883 L25.5418598,20.500891 C25.2357074,20.3252945 25.2357074,19.8863032 25.5418598,19.6668076 L47.2349462,7.06775899 C47.6285708,6.84826336 48.1534035,6.84826336 48.5470281,7.06775899 L109.471362,42.3626548 C109.777514,42.6260495 109.777514,43.0650408 109.471362,43.2406373 Z" fill="#273044"></path>
                                <g transform="translate(28.428440, 8.779825)" fill="#273044">
                                    <polygon points="17.144536 1.53646934 70.0651703 32.2219571 72.4269176 30.8610843 19.5062834 0.175596497"></polygon>
                                    <polygon points="11.3713759 4.87280278 61.0118056 33.6706282 63.3735529 32.2658562 13.7331233 3.51192993"></polygon>
                                    <polygon points="7.61007467 7.06775899 66.0851887 40.9139837 68.446936 39.5531108 9.97182198 5.70688614"></polygon>
                                    <polygon points="3.8487734 9.21881607 62.3238874 43.1089399 64.6856347 41.748067 6.21052071 7.85794322"></polygon>
                                    <polygon points="0.0874721227 11.4137723 58.5625861 45.3038961 60.9243334 43.9430233 2.44921943 10.0528994"></polygon>
                                    <polygon points="73.2579027 34.0657203 75.61965 35.4265932 77.9813974 34.0657203 75.61965 32.7048475"></polygon>
                                    <polygon points="64.9917871 35.9533827 69.8464899 38.7629266 72.2082373 37.4020538 67.3097984 34.5925098"></polygon>
                                </g>
                                <path d="M46.1852808,50.9668831 L29.7405217,41.4407732 C29.0844808,41.0895802 29.0844808,40.4749924 29.7405217,40.0799003 L40.9806895,33.58283 C41.6367304,33.231637 42.6426598,33.231637 43.2987007,33.58283 L59.7434598,43.1089399 C60.3995007,43.4601329 60.3995007,44.0747206 59.7434598,44.4698127 L48.503292,50.9668831 C47.8472511,51.3619752 46.7975856,51.3619752 46.1852808,50.9668831 Z" fill="url(#linearGradient-6)"></path>
                                <path d="M59.7434598,43.6796285 L43.2987007,34.1535186 C42.6426598,33.8023256 41.6367304,33.8023256 40.9806895,34.1535186 L29.7405217,40.6505889 C29.5218414,40.7822863 29.4343693,40.9139837 29.3468972,41.0456811 C29.1719529,40.7383872 29.3031611,40.3432951 29.7405217,40.0799003 L40.9806895,33.58283 C41.6367304,33.231637 42.6426598,33.231637 43.2987007,33.58283 L59.7434598,43.1089399 C60.1808204,43.3723346 60.3120286,43.7235276 60.1370843,44.0747206 C60.0496122,43.9430233 59.918404,43.7674268 59.7434598,43.6796285 Z" fill="#99ADD9"></path>
                            </g>
                        </g>
                        <polygon fill="url(#radialGradient-7)" opacity="0.42" points="81.2178659 97.6755512 97.006584 87.9299456 61.4929022 67.3412564 44.7419907 78.6233313"></polygon>
                        <polygon fill="url(#radialGradient-8)" opacity="0.42" points="97.006584 87.9299456 100.636677 64.9707037 67.3097984 45.7867865 67.3097984 70.6336907"></polygon>
                        <g transform="translate(6.997770, 32.485352)">
                            <g transform="translate(56.419519, 0.000000)">
                                <path d="M0.393624552,2.15105708 L3.93624552,0.131697372 C3.97998158,0.0877982483 4.02371764,0.0877982483 4.11118977,0.131697372 L48.2846117,25.7248867 C48.4158199,25.812685 48.5470281,26.0321806 48.5470281,26.2077771 L48.5470281,34.5925098 C48.5470281,34.6803081 48.503292,34.7681063 48.459556,34.7681063 C48.459556,34.7681063 48.459556,34.7681063 48.459556,34.7681063 L44.916935,36.8313651 L44.8731989,32.7926457 L4.11118977,9.17491694 C3.97998158,9.0871187 3.8487734,8.86762307 3.8487734,8.69202658 L3.8487734,5.83858351 L0.393624552,2.15105708 Z" fill="url(#linearGradient-9)"></path>
                                <path d="M0.568568797,11.2381758 L44.7419907,36.8313651 C44.8731989,36.9191634 45.0044071,36.8313651 45.0044071,36.6118695 L45.0044071,28.2271368 C45.0044071,28.0515403 44.8731989,27.7881456 44.7419907,27.7442465 L0.568568797,2.15105708 C0.437360613,2.06325883 0.306152429,2.15105708 0.306152429,2.3705527 L0.306152429,10.7552854 C0.306152429,10.9308819 0.437360613,11.1503775 0.568568797,11.2381758 Z" fill="url(#linearGradient-10)"></path>
                                <path d="M6.64788132,9.52610994 L41.0681616,29.8514044 C40.0184961,30.773286 39.0125667,31.826865 38.0941094,32.9682422 L3.41141278,12.8624434 C4.41734219,11.6332679 5.51074373,10.4918907 6.64788132,9.52610994 Z" fill="#2F308E" opacity="0.6"></path>
                                <path d="M1.83691458,8.7359257 L43.517381,32.880444 C43.6048531,32.9243431 43.6923253,32.880444 43.6923253,32.7487466 L43.6923253,30.6415886 C43.6923253,30.5098913 43.6048531,30.3781939 43.517381,30.2903957 L1.83691458,6.14587738 C1.74944245,6.10197825 1.66197033,6.14587738 1.66197033,6.27757475 L1.66197033,8.38473271 C1.66197033,8.51643008 1.70570639,8.64812745 1.83691458,8.7359257 Z" fill="#273044"></path>
                                <path d="M1.83691458,6.14587738 L2.66789974,6.62876774 L2.66789974,7.77014497 C2.66789974,7.90184234 2.75537186,8.03353972 2.84284399,8.12133796 L43.6485892,31.7829659 L43.6485892,32.7487466 C43.6485892,32.880444 43.5611171,32.9243431 43.473645,32.880444 L1.79317851,8.7359257 C1.70570639,8.69202658 1.61823427,8.51643008 1.61823427,8.38473271 L1.61823427,6.27757475 C1.66197033,6.14587738 1.70570639,6.10197825 1.83691458,6.14587738 Z" fill="#273044"></path>
                            </g>
                            <path d="M34.8139048,99.2998188 L0.131208184,79.1940199 C4.59228644,76.6039716 8.35358771,70.9409846 9.53446137,65.4974932 C10.015558,63.302537 11.3276399,61.3709755 13.2957626,60.2734974 L39.4936634,45.0844005 C46.7975856,40.8700846 51.5210802,33.231637 52.0021769,24.8030051 C52.4395375,17.691347 57.775337,10.6674872 61.9739989,8.25303534 L96.6566955,28.3588342 C92.5455058,30.7293869 88.0406915,37.4020538 87.5158587,44.3820145 C86.9035539,52.8106463 82.3112674,60.4490939 75.0073452,64.707309 L47.9784593,80.3792963 C46.0540726,81.5206735 44.6982547,83.4083359 44.217158,85.6032921 C43.0800204,91.0467834 39.3187191,96.7097705 34.8139048,99.2998188 Z" fill="url(#linearGradient-11)" opacity="0.96"></path>
                            <path d="M61.9739989,8.29693446 L96.6566955,28.4027333 C96.3942792,28.5783298 96.0881267,28.7539263 95.8257104,28.9295228 L61.1867498,8.82372395 C61.4054301,8.64812745 61.7115825,8.47253096 61.9739989,8.29693446 Z" fill="#4E5AA8" opacity="0.8"></path>
                        </g>
                    </g>
                    <g transform="translate(35.426210, 49.606010)">
                        <g transform="translate(0.000000, 5.267895)">
                            <path d="M0.349888491,3.24853519 L11.415112,3.24853519 L11.415112,26.9540622 C11.415112,27.7881456 10.8902793,28.5783298 9.79687774,29.2368167 C7.65381073,30.5098913 4.15492583,30.5098913 1.96812276,29.2368167 C0.874721227,28.6222289 0.349888491,27.7881456 0.349888491,26.9540622 L0.349888491,3.24853519 Z" id="Shape" fill="url(#linearGradient-12)"></path>
                            <path d="M0.349888491,3.24853519 L11.415112,3.24853519 L11.415112,26.9540622 C11.415112,27.7881456 10.8902793,28.5783298 9.79687774,29.2368167 C7.65381073,30.5098913 4.15492583,30.5098913 1.96812276,29.2368167 C0.874721227,28.6222289 0.349888491,27.7881456 0.349888491,26.9540622 L0.349888491,3.24853519 Z" id="Shape" fill="url(#linearGradient-13)"></path>
                            <ellipse id="Oval" fill="url(#linearGradient-14)" cx="5.86063222" cy="3.24853519" rx="5.51074373" ry="3.20463606"></ellipse>
                            <path d="M3.36767672,4.74110541 C4.76723068,5.53128964 7.04150587,5.53128964 8.39732378,4.74110541 C9.79687774,3.95092117 9.79687774,2.63394745 8.39732378,1.79986409 C6.99776981,1.00967986 4.72349462,1.00967986 3.36767672,1.79986409 C1.96812276,2.59004832 1.96812276,3.90702205 3.36767672,4.74110541 Z" id="Shape" fill="url(#linearGradient-15)" opacity="0.3"></path>
                            <path d="M1.96812276,5.31179402 C4.11118977,6.58486862 7.61007467,6.58486862 9.79687774,5.31179402 C10.8028071,4.69720628 11.3713759,3.95092117 11.415112,3.16073694 C11.4588481,4.03871942 10.9340153,4.87280278 9.79687774,5.53128964 C7.65381073,6.80436424 4.15492583,6.80436424 1.96812276,5.53128964 C0.830985165,4.87280278 0.306152429,3.9948203 0.349888491,3.16073694 C0.393624552,3.90702205 0.918457288,4.69720628 1.96812276,5.31179402 Z" id="Shape" fill="url(#linearGradient-16)" opacity="0.5"></path>
                        </g>
                        <g id="Shape">
                            <path d="M0.349888491,3.38023256 L11.415112,3.38023256 L11.415112,5.53128964 C11.415112,6.365373 10.8902793,7.15555723 9.79687774,7.8140441 C7.65381073,9.0871187 4.15492583,9.0871187 1.96812276,7.8140441 C0.874721227,7.19945636 0.349888491,6.365373 0.349888491,5.53128964 L0.349888491,3.38023256 Z" fill="url(#linearGradient-17)"></path>
                            <path d="M0.349888491,3.38023256 L11.415112,3.38023256 L11.415112,5.53128964 C11.415112,6.365373 10.8902793,7.15555723 9.79687774,7.8140441 C7.65381073,9.0871187 4.15492583,9.0871187 1.96812276,7.8140441 C0.874721227,7.19945636 0.349888491,6.365373 0.349888491,5.53128964 L0.349888491,3.38023256 Z" fill="url(#linearGradient-18)"></path>
                            <path d="M1.96812276,5.66298701 C4.11118977,6.93606161 7.61007467,6.93606161 9.79687774,5.66298701 C11.9399447,4.38991241 11.9399447,2.3705527 9.79687774,1.14137723 C7.65381073,-0.131697372 4.15492583,-0.131697372 1.96812276,1.14137723 C-0.174944245,2.3705527 -0.174944245,4.38991241 1.96812276,5.66298701 Z" fill="url(#linearGradient-19)"></path>
                            <path d="M1.96812276,5.39959227 C4.11118977,6.67266687 7.61007467,6.67266687 9.79687774,5.39959227 C10.8028071,4.78500453 11.3713759,4.03871942 11.415112,3.24853519 C11.4588481,4.12651767 10.9340153,4.96060103 9.79687774,5.61908789 C7.65381073,6.89216249 4.15492583,6.89216249 1.96812276,5.61908789 C0.830985165,4.96060103 0.306152429,4.08261854 0.349888491,3.24853519 C0.393624552,4.03871942 0.918457288,4.82890365 1.96812276,5.39959227 Z" fill="url(#linearGradient-20)" opacity="0.5"></path>
                        </g>
                        <g transform="translate(9.184573, 18.437632)" id="Shape">
                            <path d="M0.306152429,3.29243431 L11.3713759,3.29243431 L11.3713759,19.096119 C11.3713759,19.9302024 10.8465432,20.7203866 9.75314168,21.3788735 C7.61007467,22.6519481 4.11118977,22.6519481 1.9243867,21.3788735 C0.830985165,20.7642857 0.306152429,19.9302024 0.306152429,19.096119 L0.306152429,3.29243431 Z" fill="url(#linearGradient-21)"></path>
                            <path d="M0.306152429,3.29243431 L11.3713759,3.29243431 L11.3713759,19.096119 C11.3713759,19.9302024 10.8465432,20.7203866 9.75314168,21.3788735 C7.61007467,22.6519481 4.11118977,22.6519481 1.9243867,21.3788735 C0.830985165,20.7642857 0.306152429,19.9302024 0.306152429,19.096119 L0.306152429,3.29243431 Z" fill="url(#linearGradient-22)"></path>
                            <path d="M1.9243867,5.57518876 C4.0674537,6.84826336 7.56633861,6.84826336 9.75314168,5.57518876 C11.8962087,4.30211416 11.8962087,2.28275445 9.75314168,1.05357898 C7.61007467,-0.219495621 4.11118977,-0.219495621 1.9243867,1.05357898 C-0.218680307,2.28275445 -0.218680307,4.30211416 1.9243867,5.57518876 Z" fill="url(#linearGradient-23)"></path>
                            <path d="M1.9243867,5.31179402 C4.0674537,6.58486862 7.56633861,6.58486862 9.75314168,5.31179402 C10.7590711,4.69720628 11.3276399,3.95092117 11.3713759,3.16073694 C11.415112,4.03871942 10.8902793,4.87280278 9.75314168,5.53128964 C7.61007467,6.80436424 4.11118977,6.80436424 1.9243867,5.53128964 C0.787249104,4.87280278 0.262416368,3.9948203 0.306152429,3.16073694 C0.349888491,3.95092117 0.874721227,4.74110541 1.9243867,5.31179402 Z" fill="url(#linearGradient-24)" opacity="0.5"></path>
                        </g>
                        <g transform="translate(18.369146, 15.364693)" id="Shape">
                            <path d="M0.262416368,3.55582905 L11.3276399,3.55582905 L11.3276399,27.4369526 C11.3276399,28.2710359 10.8028071,29.0612202 9.70940562,29.719707 C7.56633861,30.9927816 4.0674537,30.9927816 1.88065064,29.719707 C0.787249104,29.1051193 0.262416368,28.2710359 0.262416368,27.4369526 L0.262416368,3.55582905 Z" fill="url(#linearGradient-25)"></path>
                            <path d="M0.262416368,3.55582905 L11.3276399,3.55582905 L11.3276399,27.4369526 C11.3276399,28.2710359 10.8028071,29.0612202 9.70940562,29.719707 C7.56633861,30.9927816 4.0674537,30.9927816 1.88065064,29.719707 C0.787249104,29.1051193 0.262416368,28.2710359 0.262416368,27.4369526 L0.262416368,3.55582905 Z" fill="url(#linearGradient-26)"></path>
                            <path d="M1.88065064,5.83858351 C4.02371764,7.11165811 7.52260255,7.11165811 9.70940562,5.83858351 C11.8524726,4.56550891 11.8524726,2.5461492 9.70940562,1.31697372 C7.56633861,0.0438991241 4.0674537,0.0438991241 1.88065064,1.31697372 C-0.262416368,2.5461492 -0.262416368,4.56550891 1.88065064,5.83858351 Z" fill="url(#linearGradient-27)"></path>
                            <path d="M1.88065064,5.57518876 C4.02371764,6.84826336 7.52260255,6.84826336 9.70940562,5.57518876 C10.715335,4.96060103 11.2839038,4.21431592 11.3276399,3.42413168 C11.3713759,4.30211416 10.8465432,5.13619752 9.70940562,5.79468439 C7.56633861,7.06775899 4.0674537,7.06775899 1.88065064,5.79468439 C0.743513043,5.13619752 0.218680307,4.25821504 0.262416368,3.42413168 C0.306152429,4.21431592 0.874721227,5.00450015 1.88065064,5.57518876 Z" fill="url(#linearGradient-28)" opacity="0.5"></path>
                        </g>
                        <g transform="translate(27.553719, 25.022501)" id="Shape">
                            <path d="M0.218680307,3.51192993 L11.2839038,3.51192993 L11.2839038,23.0909393 C11.2839038,23.9250227 10.7590711,24.7152069 9.66566955,25.3736937 C7.52260255,26.6467683 4.02371764,26.6467683 1.83691458,25.3736937 C0.743513043,24.759106 0.218680307,23.9250227 0.218680307,23.0909393 L0.218680307,3.51192993 Z" fill="url(#linearGradient-29)"></path>
                            <path d="M0.218680307,3.51192993 L11.2839038,3.51192993 L11.2839038,23.0909393 C11.2839038,23.9250227 10.7590711,24.7152069 9.66566955,25.3736937 C7.52260255,26.6467683 4.02371764,26.6467683 1.83691458,25.3736937 C0.743513043,24.759106 0.218680307,23.9250227 0.218680307,23.0909393 L0.218680307,3.51192993 Z" fill="url(#linearGradient-30)"></path>
                            <path d="M1.83691458,5.75078526 C3.97998158,7.02385986 7.47886649,7.02385986 9.66566955,5.75078526 C11.8087366,4.47771066 11.8087366,2.45835095 9.66566955,1.22917548 C7.52260255,-0.0438991241 4.02371764,-0.0438991241 1.83691458,1.22917548 C-0.306152429,2.50225008 -0.306152429,4.52160979 1.83691458,5.75078526 Z" fill="url(#linearGradient-31)"></path>
                            <path d="M1.83691458,5.53128964 C3.97998158,6.80436424 7.47886649,6.80436424 9.66566955,5.53128964 C10.671599,4.9167019 11.2401678,4.17041679 11.2839038,3.38023256 C11.3276399,4.25821504 10.8028071,5.0922984 9.66566955,5.75078526 C7.52260255,7.02385986 4.02371764,7.02385986 1.83691458,5.75078526 C0.699776981,5.0922984 0.174944245,4.21431592 0.218680307,3.38023256 C0.262416368,4.17041679 0.830985165,4.9167019 1.83691458,5.53128964 Z" fill="url(#linearGradient-32)" opacity="0.5"></path>
                        </g>
                        <g transform="translate(36.738292, 35.119299)" id="Shape">
                            <path d="M0.174944245,3.51192993 L11.2401678,3.51192993 L11.2401678,18.2620356 C11.2401678,19.096119 10.715335,19.8863032 9.62193349,20.5447901 C7.47886649,21.8178647 3.97998158,21.8178647 1.79317851,20.5447901 C0.699776981,19.9302024 0.174944245,19.096119 0.174944245,18.2620356 L0.174944245,3.51192993 Z" fill="url(#linearGradient-33)"></path>
                            <path d="M0.174944245,3.51192993 L11.2401678,3.51192993 L11.2401678,18.2620356 C11.2401678,19.096119 10.715335,19.8863032 9.62193349,20.5447901 C7.47886649,21.8178647 3.97998158,21.8178647 1.79317851,20.5447901 C0.699776981,19.9302024 0.174944245,19.096119 0.174944245,18.2620356 L0.174944245,3.51192993 Z" fill="url(#linearGradient-34)"></path>
                            <path d="M1.79317851,5.79468439 C3.93624552,7.06775899 7.43513043,7.06775899 9.62193349,5.79468439 C11.7650005,4.52160979 11.7650005,2.50225008 9.62193349,1.2730746 C7.47886649,-8.77076189e-15 3.97998158,-8.77076189e-15 1.79317851,1.2730746 C-0.349888491,2.50225008 -0.349888491,4.52160979 1.79317851,5.79468439 Z" fill="url(#linearGradient-35)"></path>
                            <path d="M1.79317851,5.57518876 C3.93624552,6.84826336 7.43513043,6.84826336 9.62193349,5.57518876 C10.6278629,4.96060103 11.1964317,4.21431592 11.2401678,3.42413168 C11.2839038,4.30211416 10.7590711,5.13619752 9.62193349,5.79468439 C7.47886649,7.06775899 3.97998158,7.06775899 1.79317851,5.79468439 C0.65604092,5.13619752 0.131208184,4.25821504 0.174944245,3.42413168 C0.218680307,4.17041679 0.787249104,4.96060103 1.79317851,5.57518876 Z" fill="url(#linearGradient-36)" opacity="0.5"></path>
                        </g>
                    </g>
                    <g transform="translate(118.962087, 46.533072)" fill="#E97925" id="Shape">
                        <polygon points="3.19273248 1.93156146 4.24239795 2.63394745 4.37360613 1.84376321 3.32394066 1.14137723"></polygon>
                        <polygon points="2.31801125 7.28725461 3.41141278 7.98964059 4.15492583 3.33633343 3.06152429 2.63394745"></polygon>
                        <polygon points="1.9243867 9.83340381 2.97405217 10.5357898 3.2802046 8.69202658 2.23053913 7.98964059"></polygon>
                        <polygon points="1.48702609 12.5112504 2.58042762 13.1697372 2.84284399 11.325974 1.79317851 10.6674872"></polygon>
                        <polygon points="1.18087366 3.46803081 2.23053913 4.17041679 2.53669156 2.32665358 1.48702609 1.62426759"></polygon>
                        <polygon points="0.612304859 6.97996074 1.70570639 7.68234672 2.14306701 4.96060103 1.04966547 4.30211416"></polygon>
                        <polygon points="0.0874721227 10.2284959 1.18087366 10.9308819 1.53076215 8.60422833 0.481096675 7.90184234"></polygon>
                        <polygon points="1.09340153 15.1451978 2.14306701 15.8475838 2.44921943 14.0038206 1.3558179 13.3014346"></polygon>
                        <polygon points="1.57449821 0.921881607 2.66789974 1.58036847 2.79910793 0.790184234 1.70570639 0.131697372"></polygon>
                    </g>
                    <polygon id="Shape" fill="#E97925" points="118.830879 63.7415282 120.711529 64.9707037 120.799001 64.1805195 118.962087 62.9952431"></polygon>
                </g>
                <path d="M166.968208,54.4213198 C165.592486,55.1928934 163.407514,55.1928934 162.031792,54.4213198 C160.656069,53.6497462 160.656069,52.3502538 162.031792,51.5786802 C163.407514,50.8071066 165.592486,50.8071066 166.968208,51.5786802 C168.343931,52.3908629 168.343931,53.6497462 166.968208,54.4213198 Z" id="Shape" fill="#2F308E" opacity="0.2"></path>
                <g id="Group" transform="translate(155.000000, 37.000000)">
                    <g>
                        <polygon id="Shape" fill="#DC8227" points="2.75625 13.2 1.79375 10.8888889 2.1875 10.8444444 2.66875 11.4222222"></polygon>
                        <path d="M18.025,6.57777778 L17.0625,4.31111111 C17.0625,4.31111111 16.75625,6.88888889 16.8,6.93333333 C16.84375,6.93333333 18.025,6.57777778 18.025,6.57777778 Z" id="Shape" fill="#FFD95B"></path>
                        <g>
                            <path d="M12.11875,14.0444444 C7.875,15.8666667 3.28125,14.4444444 1.79375,10.8888889 C0.30625,7.33333333 2.5375,2.97777778 6.78125,1.15555556 C11.025,-0.666666667 15.61875,0.755555556 17.10625,4.31111111 C18.59375,7.91111111 16.3625,12.2666667 12.11875,14.0444444 Z" id="Shape" fill="#FFD95B"></path>
                            <ellipse id="Oval" fill="#FFD95B" transform="translate(10.406992, 9.903511) rotate(-22.836711) translate(-10.406992, -9.903511) " cx="10.4069919" cy="9.90351111" rx="8.31236771" ry="6.97766673"></ellipse>
                            <path d="M3.0625,7.73333333 C2.1875,9.46666667 2.0125,11.4222222 2.75625,13.2 C4.24375,16.7555556 8.8375,18.1777778 13.08125,16.3555556 C15.18125,15.4666667 16.75625,13.9555556 17.675,12.2222222 L3.0625,7.73333333 Z" id="Shape" fill="#DC8227"></path>
                            <ellipse id="Oval" fill="#F8BF2E" transform="translate(10.407079, 9.905156) rotate(-22.836711) translate(-10.407079, -9.905156) " cx="10.4070794" cy="9.90515556" rx="7.91862397" ry="6.66656057"></ellipse>
                            <ellipse id="Oval" fill="#F2B527" transform="translate(10.407211, 9.907111) rotate(-22.836711) translate(-10.407211, -9.907111) " cx="10.4072106" cy="9.90711111" rx="6.38739834" ry="5.37769219"></ellipse>
                            <path d="M16.275,7.42222222 C16.23125,7.28888889 16.1875,7.2 16.1,7.11111111 C16.975,9.77777778 15.26875,12.8888889 12.1625,14.2222222 C9.05625,15.5555556 5.6875,14.6222222 4.375,12.1333333 C4.41875,12.2666667 4.4625,12.3555556 4.50625,12.4888889 C5.64375,15.2 9.1875,16.3111111 12.425,14.9333333 C15.70625,13.4666667 17.4125,10.1333333 16.275,7.42222222 Z" id="Shape" fill="#FFD95B"></path>
                            <g transform="translate(4.375000, 7.555556)" fill="#FFD95B" id="Shape">
                                <path d="M7.35,2.26666667 L5.6875,1.77777778 C4.6375,2.53333333 2.7125,4 1.18125,5.15555556 C2.14375,6.17777778 3.63125,6.71111111 5.20625,6.62222222 L7.35,2.26666667 Z"></path>
                                <path d="M6.86875,6.31111111 C7.0875,6.26666667 7.2625,6.17777778 7.48125,6.08888889 C8.88125,5.46666667 9.975,4.44444444 10.63125,3.28888889 L7.91875,2.44444444 L6.86875,6.31111111 Z"></path>
                                <path d="M3.89375,1.2 L0.7875,0.222222222 C0.30625,1.2 -0.04375,2.17777778 0.175,3.2 L3.89375,1.2 Z"></path>
                            </g>
                            <path d="M8.3125,5.68888889 C11.55,4.31111111 15.09375,5.37777778 16.23125,8.13333333 C16.45,8.66666667 16.58125,9.24444444 16.58125,9.86666667 C16.7125,9.06666667 16.625,8.22222222 16.275,7.42222222 C15.1375,4.71111111 11.59375,3.6 8.35625,4.97777778 C5.775,6.08888889 4.15625,8.44444444 4.2,10.7111111 C4.4625,8.66666667 5.99375,6.66666667 8.3125,5.68888889 Z" id="Shape" fill="#DC8227"></path>
                        </g>
                        <path d="M1.79375,10.8888889 C2.0125,11.4222222 2.31875,11.9111111 2.66875,12.3111111 C2.625,11.7333333 2.49375,10.8444444 2.49375,10.8444444 L2.5375,9.33333333 L2.84375,8.75555556 L3.4125,7.82222222 L2.275,5.11111111 C1.26875,6.93333333 1.00625,9.02222222 1.79375,10.8888889 Z" id="Shape" fill="#DC8227"></path>
                    </g>
                    <g transform="translate(2.625000, 0.444444)" fill="#DC8227" id="Shape">
                        <path d="M14.175,4.48888889 L13.65,3.2 C13.65,3.15555556 13.65,3.06666667 13.69375,3.06666667 L13.7375,3.06666667 C13.78125,3.06666667 13.86875,3.06666667 13.86875,3.11111111 L14.39375,4.4 C14.39375,4.44444444 14.39375,4.53333333 14.35,4.53333333 L14.30625,4.53333333 C14.2625,4.57777778 14.175,4.53333333 14.175,4.48888889 Z"></path>
                        <path d="M12.8625,3.42222222 L12.20625,1.86666667 C12.1625,1.82222222 12.20625,1.73333333 12.25,1.73333333 L12.3375,1.68888889 C12.38125,1.64444444 12.46875,1.68888889 12.46875,1.73333333 L13.125,3.28888889 C13.16875,3.33333333 13.125,3.42222222 13.08125,3.42222222 L12.99375,3.46666667 C12.99375,3.51111111 12.90625,3.46666667 12.8625,3.42222222 Z"></path>
                        <path d="M11.41875,2.62222222 L10.7625,1.06666667 C10.71875,0.977777778 10.7625,0.933333333 10.85,0.888888889 L10.98125,0.844444444 C11.06875,0.8 11.1125,0.844444444 11.15625,0.933333333 L11.8125,2.48888889 C11.85625,2.57777778 11.8125,2.62222222 11.725,2.66666667 L11.59375,2.71111111 C11.50625,2.71111111 11.4625,2.66666667 11.41875,2.62222222 Z"></path>
                        <path d="M9.625,2.26666667 L8.925,0.577777778 C8.88125,0.488888889 8.925,0.444444444 9.0125,0.4 L9.14375,0.355555556 C9.23125,0.311111111 9.275,0.355555556 9.31875,0.444444444 L10.01875,2.13333333 C10.0625,2.22222222 10.01875,2.26666667 9.93125,2.31111111 L9.8,2.35555556 C9.7125,2.35555556 9.625,2.31111111 9.625,2.26666667 Z"></path>
                        <path d="M7.91875,2.26666667 L7.175,0.444444444 C7.13125,0.355555556 7.175,0.311111111 7.2625,0.266666667 L7.39375,0.222222222 C7.48125,0.177777778 7.525,0.222222222 7.56875,0.311111111 L8.3125,2.13333333 C8.35625,2.22222222 8.3125,2.26666667 8.225,2.31111111 L8.09375,2.35555556 C8.05,2.35555556 7.9625,2.31111111 7.91875,2.26666667 Z"></path>
                        <path d="M6.34375,2.48888889 L5.6,0.711111111 C5.55625,0.622222222 5.6,0.577777778 5.6875,0.533333333 L5.81875,0.488888889 C5.90625,0.444444444 5.95,0.488888889 5.99375,0.577777778 L6.7375,2.35555556 C6.78125,2.44444444 6.7375,2.48888889 6.65,2.53333333 L6.51875,2.57777778 C6.475,2.57777778 6.3875,2.57777778 6.34375,2.48888889 Z"></path>
                        <path d="M4.9,3.02222222 L4.15625,1.24444444 C4.1125,1.15555556 4.15625,1.11111111 4.24375,1.06666667 L4.375,1.02222222 C4.4625,0.977777778 4.50625,1.02222222 4.55,1.11111111 L5.29375,2.88888889 C5.3375,2.97777778 5.29375,3.02222222 5.20625,3.06666667 L5.075,3.11111111 C4.9875,3.11111111 4.9,3.06666667 4.9,3.02222222 Z"></path>
                        <path d="M3.5,3.68888889 L2.8,1.95555556 C2.75625,1.86666667 2.8,1.82222222 2.8875,1.77777778 L3.01875,1.73333333 C3.10625,1.68888889 3.15,1.73333333 3.19375,1.82222222 L3.89375,3.55555556 C3.9375,3.64444444 3.89375,3.68888889 3.80625,3.73333333 L3.675,3.77777778 C3.5875,3.77777778 3.54375,3.73333333 3.5,3.68888889 Z"></path>
                        <path d="M2.23125,4.62222222 L1.53125,2.93333333 C1.4875,2.84444444 1.53125,2.8 1.61875,2.75555556 L1.75,2.71111111 C1.8375,2.66666667 1.88125,2.71111111 1.925,2.8 L2.625,4.48888889 C2.66875,4.57777778 2.625,4.62222222 2.5375,4.66666667 L2.40625,4.71111111 C2.31875,4.71111111 2.23125,4.66666667 2.23125,4.62222222 Z"></path>
                        <path d="M1.09375,5.91111111 L0.35,4.13333333 C0.30625,4.04444444 0.35,4 0.4375,3.95555556 L0.56875,3.91111111 C0.65625,3.86666667 0.7,3.91111111 0.74375,4 L1.4875,5.77777778 C1.53125,5.86666667 1.4875,5.91111111 1.4,5.95555556 L1.26875,6 C1.18125,6 1.09375,6 1.09375,5.91111111 Z"></path>
                    </g>
                </g>
                <path d="M185.994194,69.4213198 C184.612482,70.1928934 182.417997,70.1928934 181.036284,69.4213198 C179.654572,68.6497462 179.654572,67.3502538 181.036284,66.5786802 C182.417997,65.8071066 184.612482,65.8071066 185.994194,66.5786802 C187.335269,67.3502538 187.335269,68.6497462 185.994194,69.4213198 Z" id="Shape" fill="#2F308E" opacity="0.2"></path>
                <g id="Group" transform="translate(172.000000, 48.000000)">
                    <g>
                        <polygon id="Shape" fill="#DC8227" points="8.11509434 19.2245283 6.0754717 17.9226415 6.33584906 17.6622642 7.07358491 17.8358491"></polygon>
                        <path d="M16.9245283,5.29433962 L14.8849057,3.99245283 C14.8849057,3.99245283 16.1,6.2490566 16.1,6.2490566 C16.1,6.2490566 16.9245283,5.29433962 16.9245283,5.29433962 Z" id="Shape" fill="#FFD95B"></path>
                        <g>
                            <ellipse id="Oval" fill="#FFD95B" transform="translate(10.504269, 10.958307) rotate(-57.446195) translate(-10.504269, -10.958307) " cx="10.5042692" cy="10.9583066" rx="8.24541502" ry="6.81331663"></ellipse>
                            <ellipse id="Oval" fill="#FFD95B" transform="translate(12.544356, 12.284265) rotate(-57.446195) translate(-12.544356, -12.284265) " cx="12.5443562" cy="12.2842653" rx="8.24541502" ry="6.81331663"></ellipse>
                            <path d="M5.33773585,14.6679245 C5.59811321,16.5773585 6.50943396,18.2264151 8.11509434,19.2245283 C11.2830189,21.2641509 15.8396226,19.7886792 18.3132075,15.9698113 C19.5283019,14.0603774 20.0056604,11.9339623 19.7886792,10.0245283 L5.33773585,14.6679245 Z" id="Shape" fill="#DC8227"></path>
                            <path d="M18.0528302,15.7962264 C15.709434,19.4415094 11.3698113,20.8735849 8.33207547,18.9207547 C5.29433962,16.9679245 4.73018868,12.454717 7.07358491,8.76603774 C9.41698113,5.12075472 13.7566038,3.68867925 16.7943396,5.64150943 C19.8320755,7.59433962 20.3962264,12.1075472 18.0528302,15.7962264 Z" id="Shape" fill="#F8BF2E"></path>
                            <ellipse id="Oval" fill="#F2B527" transform="translate(12.543879, 12.283614) rotate(-57.446195) translate(-12.543879, -12.283614) " cx="12.5438789" cy="12.2836143" rx="6.33595049" ry="5.25102746"></ellipse>
                            <path d="M15.9698113,6.94339623 C15.8830189,6.9 15.7528302,6.81320755 15.6660377,6.76981132 C17.8358491,8.41886792 18.1830189,11.890566 16.4037736,14.7113208 C14.6245283,17.5320755 11.3264151,18.6603774 8.89622642,17.4018868 C8.98301887,17.4886792 9.06981132,17.5320755 9.2,17.6188679 C11.6301887,19.1811321 15.145283,18.0528302 17.0113208,15.1018868 C18.8339623,12.1509434 18.4,8.50566038 15.9698113,6.94339623 Z" id="Shape" fill="#FFD95B"></path>
                            <g transform="translate(6.943396, 10.415094)" fill="#FFD95B" id="Shape">
                                <path d="M6.63962264,1.04150943 L4.99056604,1.56226415 C4.55660377,2.77735849 3.7754717,4.99056604 3.16792453,6.81320755 C4.51320755,7.07358491 6.03207547,6.68301887 7.29056604,5.72830189 L6.63962264,1.04150943 Z"></path>
                                <path d="M8.46226415,4.55660377 C8.59245283,4.38301887 8.72264151,4.20943396 8.80943396,4.03584906 C9.63396226,2.73396226 9.93773585,1.30188679 9.80754717,0 L7.11698113,0.867924528 L8.46226415,4.55660377 Z"></path>
                                <path d="M3.21132075,2.16981132 L0.130188679,3.16792453 C0.260377358,4.20943396 0.520754717,5.20754717 1.30188679,5.90188679 L3.21132075,2.16981132 Z"></path>
                            </g>
                            <path d="M8.50566038,10.0679245 C10.3716981,7.11698113 13.8867925,5.98867925 16.3169811,7.5509434 C16.7943396,7.85471698 17.2283019,8.28867925 17.5320755,8.72264151 C17.1849057,7.98490566 16.6207547,7.37735849 15.9264151,6.94339623 C13.4962264,5.38113208 9.98113208,6.50943396 8.11509434,9.46037736 C6.59622642,11.8037736 6.59622642,14.5811321 7.89811321,16.4037736 C7.03018868,14.6245283 7.16037736,12.1509434 8.50566038,10.0679245 Z" id="Shape" fill="#DC8227"></path>
                        </g>
                        <path d="M6.0754717,17.9226415 C6.55283019,18.2264151 7.07358491,18.4433962 7.59433962,18.6169811 C7.20377358,18.1830189 6.63962264,17.5320755 6.63962264,17.5320755 L5.85849057,16.3169811 L5.77169811,15.6660377 L5.72830189,14.5811321 L3.29811321,13.0188679 C3.42830189,15.0584906 4.38301887,16.8377358 6.0754717,17.9226415 Z" id="Shape" fill="#DC8227"></path>
                    </g>
                    <g transform="translate(3.471698, 3.037736)" fill="#DC8227" id="Shape">
                        <path d="M11.5433962,1.6490566 L10.4150943,0.911320755 C10.3716981,0.867924528 10.3716981,0.824528302 10.3716981,0.781132075 L10.3716981,0.737735849 C10.4150943,0.694339623 10.4584906,0.694339623 10.5018868,0.694339623 L11.6301887,1.43207547 C11.6735849,1.4754717 11.6735849,1.51886792 11.6735849,1.56226415 L11.6735849,1.60566038 C11.6301887,1.6490566 11.5867925,1.69245283 11.5433962,1.6490566 Z"></path>
                        <path d="M9.89433962,1.51886792 L8.50566038,0.60754717 C8.46226415,0.564150943 8.41886792,0.520754717 8.46226415,0.433962264 L8.50566038,0.390566038 C8.5490566,0.347169811 8.59245283,0.303773585 8.67924528,0.347169811 L10.0679245,1.25849057 C10.1113208,1.30188679 10.154717,1.34528302 10.1113208,1.43207547 L10.0679245,1.4754717 C10.0245283,1.51886792 9.93773585,1.51886792 9.89433962,1.51886792 Z"></path>
                        <path d="M8.24528302,1.69245283 L6.85660377,0.824528302 C6.81320755,0.781132075 6.76981132,0.694339623 6.81320755,0.650943396 L6.9,0.564150943 C6.94339623,0.520754717 7.03018868,0.477358491 7.07358491,0.520754717 L8.46226415,1.38867925 C8.50566038,1.43207547 8.5490566,1.51886792 8.50566038,1.56226415 L8.41886792,1.6490566 C8.3754717,1.69245283 8.28867925,1.73584906 8.24528302,1.69245283 Z"></path>
                        <path d="M6.55283019,2.43018868 L5.03396226,1.4754717 C4.99056604,1.43207547 4.94716981,1.34528302 4.99056604,1.30188679 L5.07735849,1.21509434 C5.12075472,1.17169811 5.20754717,1.12830189 5.2509434,1.17169811 L6.76981132,2.12641509 C6.81320755,2.16981132 6.85660377,2.25660377 6.81320755,2.3 L6.72641509,2.38679245 C6.72641509,2.43018868 6.63962264,2.47358491 6.55283019,2.43018868 Z"></path>
                        <path d="M5.20754717,3.38490566 L3.60188679,2.34339623 C3.55849057,2.3 3.51509434,2.21320755 3.55849057,2.16981132 L3.64528302,2.08301887 C3.68867925,2.03962264 3.7754717,1.99622642 3.81886792,2.03962264 L5.4245283,3.08113208 C5.46792453,3.1245283 5.51132075,3.21132075 5.46792453,3.25471698 L5.38113208,3.34150943 C5.33773585,3.38490566 5.2509434,3.38490566 5.20754717,3.38490566 Z"></path>
                        <path d="M4.03584906,4.42641509 L2.47358491,3.42830189 C2.43018868,3.38490566 2.38679245,3.29811321 2.43018868,3.25471698 L2.51698113,3.16792453 C2.56037736,3.1245283 2.64716981,3.08113208 2.69056604,3.1245283 L4.25283019,4.12264151 C4.29622642,4.16603774 4.33962264,4.25283019 4.29622642,4.29622642 L4.20943396,4.38301887 C4.16603774,4.46981132 4.12264151,4.46981132 4.03584906,4.42641509 Z"></path>
                        <path d="M3.1245283,5.68490566 L1.51886792,4.68679245 C1.4754717,4.64339623 1.43207547,4.55660377 1.4754717,4.51320755 L1.56226415,4.42641509 C1.60566038,4.38301887 1.69245283,4.33962264 1.73584906,4.38301887 L3.34150943,5.38113208 C3.38490566,5.4245283 3.42830189,5.51132075 3.38490566,5.55471698 L3.29811321,5.64150943 C3.25471698,5.68490566 3.21132075,5.72830189 3.1245283,5.68490566 Z"></path>
                        <path d="M2.34339623,6.98679245 L0.781132075,5.98867925 C0.737735849,5.94528302 0.694339623,5.85849057 0.737735849,5.81509434 L0.824528302,5.72830189 C0.867924528,5.68490566 0.954716981,5.64150943 0.998113208,5.68490566 L2.56037736,6.68301887 C2.60377358,6.72641509 2.64716981,6.81320755 2.60377358,6.85660377 L2.51698113,6.94339623 C2.51698113,7.03018868 2.43018868,7.03018868 2.34339623,6.98679245 Z"></path>
                        <path d="M1.82264151,8.46226415 L0.303773585,7.50754717 C0.260377358,7.46415094 0.216981132,7.37735849 0.260377358,7.33396226 L0.347169811,7.24716981 C0.390566038,7.20377358 0.477358491,7.16037736 0.520754717,7.20377358 L2.03962264,8.15849057 C2.08301887,8.20188679 2.12641509,8.28867925 2.08301887,8.33207547 L1.99622642,8.41886792 C1.99622642,8.50566038 1.90943396,8.50566038 1.82264151,8.46226415 Z"></path>
                        <path d="M1.6490566,10.154717 L0.0867924528,9.15660377 C0.0433962264,9.11320755 1.5959456e-14,9.02641509 0.0433962264,8.98301887 L0.130188679,8.89622642 C0.173584906,8.85283019 0.260377358,8.80943396 0.303773585,8.85283019 L1.86603774,9.8509434 C1.90943396,9.89433962 1.95283019,9.98113208 1.90943396,10.0245283 L1.82264151,10.1113208 C1.77924528,10.1981132 1.69245283,10.1981132 1.6490566,10.154717 Z"></path>
                    </g>
                </g>
                <path d="M203.994194,88.4213198 C202.612482,89.1928934 200.417997,89.1928934 199.036284,88.4213198 C197.654572,87.6497462 197.654572,86.3502538 199.036284,85.5786802 C200.417997,84.8071066 202.612482,84.8071066 203.994194,85.5786802 C205.335269,86.3502538 205.335269,87.6091371 203.994194,88.4213198 Z" id="Shape" fill="#2F308E" opacity="0.2"></path>
                <g id="Group" transform="translate(190.000000, 68.000000)">
                    <g>
                        <polygon id="Shape" fill="#DC8227" points="7.94150943 19.1811321 5.90188679 17.8792453 6.16226415 17.6188679 6.9 17.7924528"></polygon>
                        <path d="M16.7509434,5.2509434 L14.7113208,3.9490566 C14.7113208,3.9490566 15.9264151,6.20566038 15.9264151,6.20566038 C15.9698113,6.2490566 16.7509434,5.2509434 16.7509434,5.2509434 Z" id="Shape" fill="#FFD95B"></path>
                        <g>
                            <ellipse id="Oval" fill="#FFD95B" transform="translate(10.330020, 10.927908) rotate(-57.446195) translate(-10.330020, -10.927908) " cx="10.3300204" cy="10.9279075" rx="8.24541502" ry="6.81331663"></ellipse>
                            <ellipse id="Oval" fill="#FFD95B" transform="translate(12.391115, 12.214033) rotate(-57.446195) translate(-12.391115, -12.214033) " cx="12.3911155" cy="12.2140328" rx="8.24541502" ry="6.81331663"></ellipse>
                            <path d="M5.20754717,14.6245283 C5.46792453,16.5339623 6.37924528,18.1830189 7.98490566,19.1811321 C11.1528302,21.2207547 15.709434,19.745283 18.1830189,15.9264151 C19.3981132,14.0169811 19.8754717,11.890566 19.6584906,9.98113208 L5.20754717,14.6245283 Z" id="Shape" fill="#DC8227"></path>
                            <ellipse id="Oval" fill="#F8BF2E" transform="translate(12.390985, 12.213903) rotate(-57.446195) translate(-12.390985, -12.213903) " cx="12.3909853" cy="12.2139026" rx="7.85484273" ry="6.50953818"></ellipse>
                            <ellipse id="Oval" fill="#F2B527" transform="translate(12.391419, 12.214554) rotate(-57.446195) translate(-12.391419, -12.214554) " cx="12.3914192" cy="12.2145536" rx="6.33595049" ry="5.25102746"></ellipse>
                            <path d="M15.7962264,6.9 C15.709434,6.85660377 15.5792453,6.76981132 15.4924528,6.72641509 C17.6622642,8.3754717 18.009434,11.8471698 16.2301887,14.6679245 C14.4509434,17.4886792 11.1528302,18.6169811 8.72264151,17.3584906 C8.80943396,17.445283 8.89622642,17.4886792 9.02641509,17.5754717 C11.4566038,19.1377358 14.9716981,18.009434 16.8377358,15.0584906 C18.7037736,12.1075472 18.2264151,8.46226415 15.7962264,6.9 Z" id="Shape" fill="#FFD95B"></path>
                            <g transform="translate(6.943396, 9.981132)" fill="#FFD95B" id="Shape">
                                <path d="M6.46603774,1.4754717 L4.81698113,1.99622642 C4.38301887,3.21132075 3.60188679,5.4245283 2.99433962,7.24716981 C4.33962264,7.50754717 5.85849057,7.11698113 7.11698113,6.16226415 L6.46603774,1.4754717 Z"></path>
                                <path d="M8.28867925,4.94716981 C8.41886792,4.77358491 8.5490566,4.6 8.63584906,4.42641509 C9.46037736,3.1245283 9.76415094,1.69245283 9.63396226,0.390566038 L6.94339623,1.25849057 L8.28867925,4.94716981 Z"></path>
                                <path d="M3.08113208,2.56037736 L0,3.55849057 C0.130188679,4.6 0.390566038,5.59811321 1.17169811,6.29245283 L3.08113208,2.56037736 Z"></path>
                            </g>
                            <path d="M8.33207547,10.0245283 C10.1981132,7.07358491 13.7132075,5.94528302 16.1433962,7.50754717 C16.6207547,7.81132075 17.054717,8.24528302 17.3584906,8.67924528 C17.0113208,7.94150943 16.4471698,7.33396226 15.7528302,6.9 C13.3226415,5.33773585 9.80754717,6.46603774 7.94150943,9.41698113 C6.42264151,11.7603774 6.42264151,14.5377358 7.7245283,16.3603774 C6.85660377,14.5811321 6.98679245,12.1509434 8.33207547,10.0245283 Z" id="Shape" fill="#DC8227"></path>
                        </g>
                        <path d="M5.90188679,17.8792453 C6.37924528,18.1830189 6.9,18.4 7.42075472,18.5735849 C7.03018868,18.1396226 6.46603774,17.4886792 6.46603774,17.4886792 L5.68490566,16.2735849 L5.59811321,15.6226415 L5.55471698,14.5377358 L3.1245283,12.9754717 C3.29811321,15.0150943 4.25283019,16.8377358 5.90188679,17.8792453 Z" id="Shape" fill="#DC8227"></path>
                    </g>
                    <g transform="translate(3.037736, 3.037736)" fill="#DC8227" id="Shape">
                        <path d="M11.8037736,1.60566038 L10.6754717,0.867924528 C10.6320755,0.824528302 10.6320755,0.781132075 10.6320755,0.737735849 L10.6320755,0.694339623 C10.6754717,0.650943396 10.7188679,0.650943396 10.7622642,0.650943396 L11.890566,1.38867925 C11.9339623,1.43207547 11.9339623,1.4754717 11.9339623,1.51886792 L11.9339623,1.56226415 C11.890566,1.6490566 11.8471698,1.6490566 11.8037736,1.60566038 Z"></path>
                        <path d="M10.154717,1.4754717 L8.76603774,0.564150943 C8.72264151,0.520754717 8.67924528,0.477358491 8.72264151,0.390566038 L8.76603774,0.347169811 C8.80943396,0.303773585 8.85283019,0.260377358 8.93962264,0.303773585 L10.3283019,1.21509434 C10.3716981,1.25849057 10.4150943,1.30188679 10.3716981,1.38867925 L10.3283019,1.43207547 C10.2849057,1.4754717 10.1981132,1.4754717 10.154717,1.4754717 Z"></path>
                        <path d="M8.50566038,1.6490566 L7.11698113,0.781132075 C7.07358491,0.737735849 7.03018868,0.650943396 7.07358491,0.60754717 L7.16037736,0.520754717 C7.20377358,0.477358491 7.29056604,0.433962264 7.33396226,0.477358491 L8.72264151,1.34528302 C8.76603774,1.38867925 8.80943396,1.4754717 8.76603774,1.51886792 L8.67924528,1.60566038 C8.67924528,1.6490566 8.59245283,1.69245283 8.50566038,1.6490566 Z"></path>
                        <path d="M6.85660377,2.38679245 L5.33773585,1.43207547 C5.29433962,1.38867925 5.2509434,1.30188679 5.29433962,1.25849057 L5.38113208,1.17169811 C5.4245283,1.12830189 5.51132075,1.08490566 5.55471698,1.12830189 L7.07358491,2.08301887 C7.11698113,2.12641509 7.16037736,2.21320755 7.11698113,2.25660377 L7.03018868,2.34339623 C6.98679245,2.43018868 6.9,2.43018868 6.85660377,2.38679245 Z"></path>
                        <path d="M5.46792453,3.34150943 L3.86226415,2.3 C3.81886792,2.25660377 3.7754717,2.16981132 3.81886792,2.12641509 L3.90566038,2.03962264 C3.9490566,1.99622642 4.03584906,1.95283019 4.07924528,1.99622642 L5.68490566,3.03773585 C5.72830189,3.08113208 5.77169811,3.16792453 5.72830189,3.21132075 L5.64150943,3.29811321 C5.59811321,3.34150943 5.51132075,3.38490566 5.46792453,3.34150943 Z"></path>
                        <path d="M4.33962264,4.42641509 L2.77735849,3.42830189 C2.73396226,3.38490566 2.69056604,3.29811321 2.73396226,3.25471698 L2.82075472,3.16792453 C2.86415094,3.1245283 2.9509434,3.08113208 2.99433962,3.1245283 L4.55660377,4.12264151 C4.6,4.16603774 4.64339623,4.25283019 4.6,4.29622642 L4.51320755,4.38301887 C4.46981132,4.42641509 4.38301887,4.42641509 4.33962264,4.42641509 Z"></path>
                        <path d="M3.38490566,5.64150943 L1.77924528,4.64339623 C1.73584906,4.6 1.69245283,4.51320755 1.73584906,4.46981132 L1.82264151,4.38301887 C1.86603774,4.33962264 1.95283019,4.29622642 1.99622642,4.33962264 L3.60188679,5.33773585 C3.64528302,5.38113208 3.68867925,5.46792453 3.64528302,5.51132075 L3.55849057,5.59811321 C3.55849057,5.64150943 3.47169811,5.68490566 3.38490566,5.64150943 Z"></path>
                        <path d="M2.64716981,6.94339623 L1.08490566,5.94528302 C1.04150943,5.90188679 0.998113208,5.81509434 1.04150943,5.77169811 L1.12830189,5.68490566 C1.17169811,5.64150943 1.25849057,5.59811321 1.30188679,5.64150943 L2.86415094,6.63962264 C2.90754717,6.68301887 2.9509434,6.76981132 2.90754717,6.81320755 L2.82075472,6.9 C2.77735849,6.98679245 2.69056604,6.98679245 2.64716981,6.94339623 Z"></path>
                        <path d="M2.12641509,8.41886792 L0.60754717,7.46415094 C0.564150943,7.42075472 0.520754717,7.33396226 0.564150943,7.29056604 L0.650943396,7.20377358 C0.694339623,7.16037736 0.781132075,7.11698113 0.824528302,7.16037736 L2.34339623,8.11509434 C2.38679245,8.15849057 2.43018868,8.24528302 2.38679245,8.28867925 L2.3,8.3754717 C2.25660377,8.46226415 2.16981132,8.46226415 2.12641509,8.41886792 Z"></path>
                        <path d="M1.90943396,10.1113208 L0.347169811,9.11320755 C0.303773585,9.06981132 0.260377358,8.98301887 0.303773585,8.93962264 L0.390566038,8.85283019 C0.433962264,8.80943396 0.520754717,8.76603774 0.564150943,8.80943396 L2.12641509,9.80754717 C2.16981132,9.8509434 2.21320755,9.93773585 2.16981132,9.98113208 L2.08301887,10.0679245 C2.03962264,10.154717 1.95283019,10.154717 1.90943396,10.1113208 Z"></path>
                    </g>
                </g>
                <g id="Group" transform="translate(90.000000, 123.000000)">
                    <g id="Shape">
                        <path d="M38.9571429,15.3290323 L38.9571429,11.7145161 L33.1285714,11.7145161 L20.2285714,4.13709677 C19.9285714,3.96290323 19.3714286,3.96290323 18.9857143,4.18064516 L6.12857143,11.7145161 L0.342857143,11.7145161 L0.342857143,15.3725806 C0.342857143,15.5032258 0.428571429,15.5903226 0.557142857,15.6774194 L19.0714286,26.5209677 C19.3714286,26.6951613 19.9285714,26.6951613 20.3142857,26.4774194 L38.6571429,15.7209677 C38.8285714,15.5903226 38.9571429,15.4596774 38.9571429,15.3290323 Z" fill="url(#linearGradient-37)"></path>
                        <path d="M19.0714286,22.9064516 L0.557142857,12.0629032 C0.257142857,11.8887097 0.3,11.5403226 0.642857143,11.3225806 L18.9857143,0.566129032 C19.3714286,0.348387097 19.8857143,0.348387097 20.2285714,0.522580645 L38.7428571,11.366129 C39.0428571,11.5403226 39,11.8887097 38.6571429,12.1064516 L20.3142857,22.8629032 C19.9285714,23.0370968 19.4142857,23.0806452 19.0714286,22.9064516 Z" fill="url(#linearGradient-38)"></path>
                        <path d="M19.1571429,21.6 L2.74285714,11.9758065 C2.44285714,11.8016129 2.48571429,11.5403226 2.82857143,11.3225806 L19.0714286,1.78548387 C19.4142857,1.61129032 19.8857143,1.56774194 20.1857143,1.74193548 L36.6,11.366129 C36.9,11.5403226 36.8571429,11.8016129 36.5142857,12.0193548 L20.2714286,21.5564516 C19.9285714,21.7741935 19.4142857,21.7741935 19.1571429,21.6 Z" fill="#273044"></path>
                        <path d="M19.2,20.816129 L4.11428571,11.9758065 C3.85714286,11.8451613 3.9,11.5403226 4.2,11.366129 L19.1142857,2.61290323 C19.4142857,2.43870968 19.8428571,2.43870968 20.1,2.56935484 L35.1857143,11.4096774 C35.4428571,11.5403226 35.4,11.8451613 35.1,12.0193548 L20.1857143,20.7725806 C19.8857143,20.9467742 19.4571429,20.9467742 19.2,20.816129 Z" fill="#384256"></path>
                    </g>
                    <g transform="translate(16.714286, 9.145161)" fill="#E97925" id="Shape">
                        <polygon points="2.57142857 1.95967742 0.814285714 0.958064516 1.8 0.391935484 3.55714286 1.39354839"></polygon>
                        <polygon points="5.87142857 1.82903226 4.11428571 2.87419355 3.12857143 2.30806452 4.88571429 1.26290323"></polygon>
                        <polygon points="2.18571429 2.22096774 1.24285714 2.78709677 0.257142857 2.22096774 1.24285714 1.65483871"></polygon>
                        <polygon points="5.52857143 4.13709677 4.54285714 4.70322581 1.75714286 3.09193548 2.74285714 2.52580645"></polygon>
                    </g>
                </g>
                <g id="Group" transform="translate(238.000000, 7.000000)">
                    <g id="Shape">
                        <path d="M38.6142857,15.447541 L38.6142857,11.7737705 L32.7857143,11.7737705 L19.8857143,4.07213115 C19.5857143,3.89508197 19.0285714,3.89508197 18.6428571,4.11639344 L5.78571429,11.7737705 L0,11.7737705 L0,15.4918033 C0,15.6245902 0.0857142857,15.7131148 0.214285714,15.8016393 L18.7285714,26.8229508 C19.0285714,27 19.5857143,27 19.9714286,26.7786885 L38.3142857,15.8459016 C38.5285714,15.7131148 38.6142857,15.5803279 38.6142857,15.447541 Z" fill="url(#linearGradient-39)"></path>
                        <path d="M18.7714286,23.1491803 L0.257142857,12.1278689 C-0.0428571429,11.9508197 -1.95884975e-14,11.5967213 0.342857143,11.3754098 L18.6857143,0.442622951 C19.0714286,0.221311475 19.5857143,0.221311475 19.9285714,0.398360656 L38.4428571,11.4196721 C38.7428571,11.5967213 38.7,11.9508197 38.3571429,12.1721311 L20.0142857,23.104918 C19.6285714,23.3262295 19.0714286,23.3262295 18.7714286,23.1491803 Z" fill="url(#linearGradient-40)"></path>
                        <path d="M18.8142857,21.8655738 L2.4,12.0836066 C2.1,11.9065574 2.14285714,11.6409836 2.48571429,11.4196721 L18.7285714,1.72622951 C19.0714286,1.54918033 19.5428571,1.50491803 19.8428571,1.68196721 L36.2571429,11.4639344 C36.5571429,11.6409836 36.5142857,11.9065574 36.1714286,12.1278689 L19.9285714,21.8213115 C19.5857143,21.9983607 19.1142857,21.9983607 18.8142857,21.8655738 Z" fill="#273044"></path>
                        <path d="M18.8571429,21.0245902 L3.77142857,12.0393443 C3.51428571,11.9065574 3.55714286,11.5967213 3.85714286,11.4196721 L18.7714286,2.52295082 C19.0714286,2.34590164 19.5,2.34590164 19.7571429,2.47868852 L34.8428571,11.4639344 C35.1,11.5967213 35.0571429,11.9065574 34.7571429,12.0836066 L19.8428571,20.9803279 C19.5857143,21.157377 19.1142857,21.2016393 18.8571429,21.0245902 Z" fill="#384256"></path>
                    </g>
                    <g transform="translate(16.285714, 9.295082)" fill="#E97925" id="Shape">
                        <polygon points="2.7 1.85901639 0.942857143 0.840983607 1.88571429 0.26557377 3.68571429 1.32786885"></polygon>
                        <polygon points="6 1.72622951 4.2 2.78852459 3.25714286 2.21311475 5.01428571 1.15081967"></polygon>
                        <polygon points="2.31428571 2.12459016 1.32857143 2.7 0.385714286 2.12459016 1.32857143 1.54918033"></polygon>
                        <polygon points="5.61428571 4.11639344 4.67142857 4.69180328 1.88571429 3.00983607 2.87142857 2.43442623"></polygon>
                    </g>
                </g>
                <g id="Group" transform="translate(54.000000, 63.000000)">
                    <polygon id="Shape" fill="url(#linearGradient-41)" points="19.9565217 23.4270968 0.130434783 11.8890323 19.9565217 0.350967742 39.7391304 11.8890323"></polygon>
                    <polygon id="Shape" fill="#FFFFFF" points="19.9565217 67.6929032 0.130434783 56.1548387 19.9565217 44.6167742 39.7391304 56.1548387"></polygon>
                    <polygon id="Shape" fill="url(#linearGradient-42)" points="39.7391304 11.8890323 39.7391304 56.1548387 19.9565217 67.6929032 19.9565217 23.4270968"></polygon>
                    <polygon id="Shape" fill="#273044" points="0.130434783 11.8890323 0.130434783 56.1548387 19.9565217 67.6929032 19.9565217 23.4270968"></polygon>
                    <polygon id="Shape" fill="#384256" points="1.47826087 14.8283871 1.47826087 54.6193548 18.6086957 64.5780645 18.6086957 24.7870968"></polygon>
                    <polygon id="Shape" fill="#273044" points="36.7826087 22.5935484 36.7826087 23.7341935 22.9130435 31.8064516 22.9130435 30.6658065"></polygon>
                    <polygon id="Shape" fill="#273044" points="36.7826087 27.5509677 36.7826087 28.6916129 22.9130435 36.763871 22.9130435 35.6232258"></polygon>
                    <polygon id="Shape" fill="#273044" points="36.7826087 32.4645161 36.7826087 33.6490323 22.9130435 41.7212903 22.9130435 40.5367742"></polygon>
                    <polygon id="Shape" fill="#273044" points="36.7826087 37.4219355 36.7826087 38.6064516 22.9130435 46.6787097 22.9130435 45.4941935"></polygon>
                    <polygon id="Shape" fill="#273044" points="36.7826087 42.3793548 36.7826087 43.563871 22.9130435 51.636129 22.9130435 50.4516129"></polygon>
                    <polygon id="Shape" fill="#273044" points="36.7826087 47.3367742 36.7826087 48.4774194 22.9130435 56.5496774 22.9130435 55.4090323"></polygon>
                    <polygon id="Shape" fill="url(#linearGradient-43)" points="19.9565217 20.4 14.7391304 20.4 0.130434783 11.8890323 16.0434783 2.63225806 19.9565217 2.63225806"></polygon>
                    <g transform="translate(5.217391, 2.632258)" id="Shape">
                        <polygon fill="url(#linearGradient-44)" points="14.7391304 16.7587097 0.347826087 8.37935484 14.7391304 0 29.0869565 8.37935484"></polygon>
                        <polygon fill="url(#linearGradient-45)" points="29.0869565 8.37935484 29.0869565 9.3883871 14.7391304 17.7677419 14.7391304 16.7587097"></polygon>
                        <polygon fill="#384256" points="0.347826087 8.37935484 0.347826087 9.3883871 14.7391304 17.7677419 14.7391304 16.7587097"></polygon>
                    </g>
                    <g transform="translate(13.043478, 6.580645)" id="Shape">
                        <g>
                            <polygon fill="#273044" points="1.34782609 4.56258065 0.695652174 4.16774194 0.739130435 3.90451613 6.65217391 0.438709677 7.47826087 0.833548387 7.30434783 1.05290323"></polygon>
                            <polygon fill="#384256" points="6.69565217 0.701935484 7.30434783 1.05290323 7.73913043 0.833548387 6.69565217 0.219354839 0.304347826 3.9483871 0.695652174 4.16774194"></polygon>
                        </g>
                        <g transform="translate(2.173913, 1.316129)">
                            <polygon fill="#273044" points="1.08695652 4.34322581 0.434782609 3.99225806 0.52173913 3.68516129 6.39130435 0.219354839 7.2173913 0.614193548 7.08695652 0.877419355"></polygon>
                            <polygon fill="#384256" points="6.43478261 0.482580645 7.08695652 0.877419355 7.47826087 0.614193548 6.43478261 0.0438709677 0.0434782609 3.77290323 0.434782609 3.99225806"></polygon>
                        </g>
                        <g transform="translate(3.913043, 2.193548)">
                            <polygon fill="#273044" points="1.26086957 4.60645161 0.652173913 4.25548387 0.695652174 3.9483871 6.60869565 0.482580645 7.43478261 0.877419355 7.26086957 1.09677419"></polygon>
                            <polygon fill="#384256" points="6.60869565 0.745806452 7.26086957 1.09677419 7.65217391 0.877419355 6.60869565 0.263225806 0.217391304 3.99225806 0.652173913 4.25548387"></polygon>
                        </g>
                        <g transform="translate(6.086957, 3.509677)">
                            <polygon fill="#273044" points="1.04347826 4.43096774 0.391304348 4.03612903 0.434782609 3.72903226 6.34782609 0.263225806 7.17391304 0.658064516 7 0.921290323"></polygon>
                            <polygon fill="#384256" points="6.39130435 0.570322581 7 0.921290323 7.43478261 0.701935484 6.39130435 0.0877419355 0 3.81677419 0.391304348 4.03612903"></polygon>
                        </g>
                    </g>
                    <polygon id="Shape" fill="#273044" points="0.130434783 49.1793548 19.9565217 37.1148387 19.9565217 23.4270968 0.130434783 11.8890323"></polygon>
                    <g transform="translate(16.956522, 23.690323)" id="Shape">
                        <path d="M2.2173913,1.71096774 C2.2173913,1.18451613 1.86956522,0.570322581 1.43478261,0.350967742 C1.2173913,0.219354839 1,0.219354839 0.869565217,0.307096774 L0.304347826,0.658064516 L0.652173913,0.658064516 C0.652173913,0.701935484 0.652173913,0.789677419 0.652173913,0.833548387 C0.652173913,1.36 1,1.97419355 1.43478261,2.19354839 C1.47826087,2.23741935 1.56521739,2.23741935 1.60869565,2.28129032 L1.43478261,2.5883871 L2,2.28129032 C2.13043478,2.14967742 2.2173913,1.97419355 2.2173913,1.71096774 Z" fill="url(#linearGradient-46)"></path>
                        <path d="M1.65217391,2.06193548 C1.65217391,2.5883871 1.30434783,2.76387097 0.869565217,2.50064516 C0.434782609,2.23741935 0.0869565217,1.62322581 0.0869565217,1.14064516 C0.0869565217,0.614193548 0.434782609,0.438709677 0.869565217,0.701935484 C1.30434783,0.921290323 1.65217391,1.53548387 1.65217391,2.06193548 Z" fill="#384256"></path>
                        <path d="M1.30434783,1.84258065 C1.30434783,2.14967742 1.08695652,2.23741935 0.869565217,2.10580645 C0.608695652,1.97419355 0.434782609,1.62322581 0.434782609,1.31612903 C0.434782609,1.00903226 0.652173913,0.921290323 0.869565217,1.05290323 C1.08695652,1.2283871 1.30434783,1.57935484 1.30434783,1.84258065 Z" fill="#4D59A7"></path>
                    </g>
                    <g transform="translate(0.434783, 13.600000)" id="Shape">
                        <path d="M2.13043478,1.53548387 C2.13043478,1.00903226 1.7826087,0.39483871 1.34782609,0.175483871 C1.13043478,0.0438709677 0.913043478,0.0438709677 0.782608696,0.131612903 L0.217391304,0.482580645 L0.565217391,0.482580645 C0.565217391,0.526451613 0.565217391,0.614193548 0.565217391,0.658064516 C0.565217391,1.18451613 0.913043478,1.79870968 1.34782609,2.01806452 C1.39130435,2.06193548 1.47826087,2.06193548 1.52173913,2.10580645 L1.34782609,2.41290323 L1.91304348,2.10580645 C2.04347826,1.93032258 2.13043478,1.75483871 2.13043478,1.53548387 Z" fill="url(#linearGradient-47)"></path>
                        <path d="M1.56521739,1.84258065 C1.56521739,2.36903226 1.2173913,2.54451613 0.782608696,2.28129032 C0.347826087,2.01806452 -2.84217094e-14,1.40387097 -2.84217094e-14,0.921290323 C-2.84217094e-14,0.39483871 0.347826087,0.219354839 0.782608696,0.482580645 C1.2173913,0.745806452 1.56521739,1.36 1.56521739,1.84258065 Z" fill="#384256"></path>
                        <path d="M1.2173913,1.66709677 C1.2173913,1.97419355 1,2.06193548 0.782608696,1.93032258 C0.52173913,1.79870968 0.347826087,1.44774194 0.347826087,1.14064516 C0.347826087,0.833548387 0.565217391,0.745806452 0.782608696,0.877419355 C1,1.00903226 1.2173913,1.36 1.2173913,1.66709677 Z" fill="#4D59A7"></path>
                    </g>
                    <g transform="translate(16.956522, 63.174194)" id="Shape">
                        <path d="M2.2173913,1.88645161 C2.2173913,1.36 1.86956522,0.745806452 1.43478261,0.526451613 C1.2173913,0.39483871 1,0.39483871 0.869565217,0.482580645 L0.304347826,0.833548387 L0.652173913,0.833548387 C0.652173913,0.877419355 0.652173913,0.96516129 0.652173913,1.00903226 C0.652173913,1.53548387 1,2.14967742 1.43478261,2.36903226 C1.47826087,2.41290323 1.56521739,2.41290323 1.60869565,2.45677419 L1.43478261,2.76387097 L2,2.45677419 C2.13043478,2.32516129 2.2173913,2.14967742 2.2173913,1.88645161 Z" fill="url(#linearGradient-48)"></path>
                        <path d="M1.65217391,2.23741935 C1.65217391,2.76387097 1.30434783,2.93935484 0.869565217,2.67612903 C0.434782609,2.41290323 0.0869565217,1.79870968 0.0869565217,1.31612903 C0.0869565217,0.833548387 0.434782609,0.614193548 0.869565217,0.877419355 C1.30434783,1.09677419 1.65217391,1.71096774 1.65217391,2.23741935 Z" fill="#384256"></path>
                        <path d="M1.30434783,2.01806452 C1.30434783,2.32516129 1.08695652,2.41290323 0.869565217,2.28129032 C0.608695652,2.14967742 0.434782609,1.79870968 0.434782609,1.4916129 C0.434782609,1.18451613 0.652173913,1.09677419 0.869565217,1.2283871 C1.08695652,1.36 1.30434783,1.71096774 1.30434783,2.01806452 Z" fill="#4D59A7"></path>
                    </g>
                    <g transform="translate(0.434783, 53.083871)" id="Shape">
                        <path d="M2.13043478,1.66709677 C2.13043478,1.14064516 1.7826087,0.526451613 1.34782609,0.307096774 C1.13043478,0.175483871 0.913043478,0.175483871 0.782608696,0.263225806 L0.217391304,0.614193548 L0.565217391,0.614193548 C0.565217391,0.658064516 0.565217391,0.745806452 0.565217391,0.789677419 C0.565217391,1.31612903 0.913043478,1.93032258 1.34782609,2.14967742 C1.39130435,2.19354839 1.47826087,2.19354839 1.52173913,2.23741935 L1.34782609,2.54451613 L1.91304348,2.23741935 C2.04347826,2.10580645 2.13043478,1.93032258 2.13043478,1.66709677 Z" fill="url(#linearGradient-49)"></path>
                        <path d="M1.56521739,2.01806452 C1.56521739,2.54451613 1.2173913,2.72 0.782608696,2.45677419 C0.347826087,2.19354839 -2.84217094e-14,1.57935484 -2.84217094e-14,1.09677419 C-2.84217094e-14,0.614193548 0.347826087,0.39483871 0.782608696,0.658064516 C1.2173913,0.877419355 1.56521739,1.4916129 1.56521739,2.01806452 Z" fill="#384256"></path>
                        <path d="M1.2173913,1.79870968 C1.2173913,2.10580645 1,2.19354839 0.782608696,2.06193548 C0.52173913,1.93032258 0.347826087,1.57935484 0.347826087,1.27225806 C0.347826087,0.96516129 0.565217391,0.877419355 0.782608696,1.00903226 C1,1.18451613 1.2173913,1.53548387 1.2173913,1.79870968 Z" fill="#4D59A7"></path>
                    </g>
                </g>
                <g id="Group" transform="translate(62.000000, 96.000000)" fill="#E97925">
                    <polygon id="Shape" points="1.75714286 1.62580645 2.74285714 2.21290323 2.74285714 1.53548387 1.75714286 0.948387097"></polygon>
                    <polygon id="Shape" points="1.75714286 6.36774194 2.74285714 6.95483871 2.74285714 2.89032258 1.75714286 2.25806452"></polygon>
                    <polygon id="Shape" points="1.75714286 8.62580645 2.74285714 9.25806452 2.74285714 7.63225806 1.75714286 7"></polygon>
                    <polygon id="Shape" points="1.75714286 10.9741935 2.74285714 11.6064516 2.74285714 9.98064516 1.75714286 9.3483871"></polygon>
                    <polygon id="Shape" points="0.257142857 2.98064516 1.28571429 3.61290323 1.28571429 1.98709677 0.257142857 1.35483871"></polygon>
                    <polygon id="Shape" points="0.257142857 6.09677419 1.28571429 6.72903226 1.28571429 4.33548387 0.257142857 3.70322581"></polygon>
                    <polygon id="Shape" points="0.257142857 8.98709677 1.28571429 9.57419355 1.28571429 7.54193548 0.257142857 6.90967742"></polygon>
                    <polygon id="Shape" points="1.75714286 13.3225806 2.74285714 13.9548387 2.74285714 12.3290323 1.75714286 11.6967742"></polygon>
                    <polygon id="Shape" points="0.257142857 0.722580645 1.28571429 1.35483871 1.28571429 0.632258065 0.257142857 0.0451612903"></polygon>
                </g>
            </g>
        </g>
    </g>
</svg>