<?xml version="1.0" encoding="UTF-8"?>
<svg width="107px" height="136px" viewBox="0 0 107 136" version="1.1" xmlns="http://www.w3.org/2000/svg" xmlns:xlink="http://www.w3.org/1999/xlink">
    <!-- Generator: Sketch 51.3 (57544) - http://www.bohemiancoding.com/sketch -->
    <title>Group 46</title>
    <desc>Created with Sketch.</desc>
    <defs>
        <polygon id="path-1" points="5.11961723e-05 0.29510687 106.831053 0.29510687 106.831053 66.6075641 5.11961723e-05 66.6075641"></polygon>
        <polygon id="path-3" points="0 137 107 137 107 1 0 1"></polygon>
    </defs>
    <g id="Page-1" stroke="none" stroke-width="1" fill="none" fill-rule="evenodd">
        <g id="Insight-Webpage-Update_v4" transform="translate(-267.000000, -3355.000000)">
            <g id="Group-46" transform="translate(267.000000, 3355.000000)">
                <path d="M86.5887992,64.6791512 C97.0278606,62.9232238 105,53.7877739 105,42.7616813 C105,30.5025831 95.0980703,20.5567843 82.9132029,20.5567843 C79.8754187,20.5567843 76.9720451,21.1650602 74.3369819,22.2792899 C72.0709094,10.7127933 61.9170235,2 49.7658865,2 C35.9364044,2 24.7588506,13.2626158 24.708255,27.1758335 C23.5164459,26.9567925 22.2745523,26.8215629 20.982063,26.8215629 C10.5092712,26.8215629 2,35.348737 2,45.9022975 C2,56.455858 10.5092712,65 20.982063,65 L26.1683744,65 L86.5887992,64.6791512 Z" id="Fill-1" fill="#EA7924"></path>
                <path d="M100,115 L100,124.413743 C100,130.259236 79.181126,135 53.5084973,135 C27.818874,135 7,130.259236 7,124.413743 L7,115.136086 C7.08497289,116.784125 8.80966515,118.330746 11.8367601,119.70713 C19.4472415,123.190521 35.243445,125.586257 53.4915027,125.586257 C71.7400754,125.586257 87.5527585,123.190521 95.1462453,119.70713 C98.2408036,118.27952 100,116.68219 100,115" id="Fill-3" fill="#EA7924"></path>
                <path d="M8.64685138,120.005022 L8.64685138,124.050026 C8.64685138,124.827988 10.8213587,127.328012 20.7523932,129.516154 C29.3476297,131.410323 40.8026604,132.453408 53.0084382,132.453408 C65.2070564,132.453408 76.656973,131.410323 85.2496524,129.516154 C95.1791527,127.327514 97.3531486,124.827988 97.3531486,124.050026 L97.3531486,119.977166 C96.6959892,120.378085 95.9503561,120.764579 95.1172723,121.136648 C87.0411151,124.723033 70.9005631,126.950471 52.9915618,126.950471 C35.1004597,126.950471 18.9604191,124.72353 10.8709653,121.138638 C10.0399271,120.773035 9.29838534,120.395495 8.64685138,120.005022 M53.0084382,136 C40.5397966,136 28.7978659,134.925577 19.946414,132.9752 C10.0286761,130.789545 5,127.786631 5,124.050026 L5,115.130821 L8.64429434,115.039793 C8.67497882,115.619286 9.67120186,116.718082 12.3780851,117.909399 C19.9121497,121.24807 35.8522297,123.40388 52.9915618,123.40388 C70.1477703,123.40388 86.0873389,121.24807 93.5994129,117.911886 C96.3691994,116.675304 97.3531486,115.570041 97.3531486,115 L101,115 L101,124.050026 C101,127.786631 95.9718353,130.789047 86.0556316,132.9752 C77.2067367,134.925577 65.4699201,136 53.0084382,136" id="Fill-5" fill="#273044"></path>
                <path d="M84.7817339,107.309797 C94.1327601,109.184466 100,111.858451 100,114.842233 C100,116.456752 98.2416302,117.989353 95.1471052,119.358617 C87.5549638,122.70085 71.7445673,125 53.4997426,125 C35.2549178,125 19.4615129,122.70085 11.8523799,119.358617 C8.8258212,118.037511 7.10091962,116.55406 7.01647667,114.972805 C7,114.92415 7,114.891383 7,114.842233 C7,114.793579 7,114.760812 7.01647667,114.711662 C7.18536256,111.614188 13.7296907,108.842398 23.9086696,107 L84.7817339,107.309797 Z" id="Fill-7" fill="#FFFFFF"></path>
                <polygon id="Fill-9" fill="#FFFFFF" points="71.4444444 37 24 37 24 115 85 115 85 50.5647908"></polygon>
                <path d="M53,127 C35.1125539,127 18.9753502,124.726572 10.8868069,121.066845 C7.14958189,119.388053 5.23060453,117.462977 5.03067909,115.188025 C5,115.01131 5,114.873696 5,114.800572 C5,114.726941 5,114.588819 5.03119041,114.410073 C5.4008735,110.354261 11.5382264,107.188625 23.2786045,105 L23.9504767,108.558674 C11.5540772,110.869172 8.71012517,113.820515 8.66001598,114.762487 L8.65745939,114.800572 L8.66001598,114.840181 C8.69069507,115.43177 9.68725433,116.554519 12.3936618,117.770197 C19.9264021,121.178562 35.8636804,123.379374 53,123.379374 C70.1526818,123.379374 86.0894487,121.179069 93.6007137,117.772736 C96.3700133,116.510848 97.3537896,115.382513 97.3537896,114.800572 C97.3537896,113.935278 94.8999734,111.183501 83.6934115,108.868433 L84.4353342,105.32347 C95.4271425,107.593851 101,110.782338 101,114.800572 C101,117.1781 99.0211984,119.286492 95.1183063,121.064814 C87.0430573,124.726572 70.9058535,127 53,127" id="Fill-11" fill="#273044"></path>
                <g id="Group-15">
                    <mask id="mask-2" fill="white">
                        <use xlink:href="#path-1"></use>
                    </mask>
                    <g id="Clip-14"></g>
                    <path d="M20.840989,28.6318618 C11.3620177,28.6318618 3.65085024,36.3276557 3.65085024,45.7879534 C3.65085024,55.2574573 11.3620177,62.9609229 20.840989,62.9609229 L26.0358646,62.9609229 L86.4028072,62.6422893 C96.1331517,60.9478542 103.180305,52.5687626 103.180305,42.6640145 C103.180305,31.490358 94.0735297,22.4003504 82.8799986,22.4003504 C80.1307641,22.4003504 77.4777785,22.9291901 74.995788,23.9710145 L72.9310464,24.8379229 L72.4974148,22.6427779 C70.3599746,11.8066786 60.7617163,3.94159466 49.6746732,3.94159466 C36.8868933,3.94159466 26.444922,14.3608618 26.3983335,27.1680908 L26.3906541,29.3468695 L24.2445105,28.954587 C23.0562474,28.7372206 21.9432426,28.6318618 20.840989,28.6318618 Z M20.840989,66.6075641 C9.34949617,66.6075641 5.11961723e-05,57.2674573 5.11961723e-05,45.7879534 C5.11961723e-05,34.3171443 9.34949617,24.9852206 20.840989,24.9852206 C21.5019316,24.9852206 22.1633861,25.0164191 22.8350799,25.0793275 C23.9465488,11.2338542 35.5783191,0.294953435 49.6746732,0.294953435 C61.7851278,0.294953435 72.3607211,8.40962519 75.5860799,19.8717397 C77.9242091,19.1291137 80.3688263,18.7542206 82.8799986,18.7542206 C96.0865632,18.7542206 106.831104,29.4798466 106.831104,42.6640145 C106.831104,54.4058924 98.4333957,64.330587 86.8630608,66.263358 L86.5717545,66.2884191 L26.0455919,66.6075641 L20.840989,66.6075641 Z" id="Fill-13" fill="#273044" mask="url(#mask-2)"></path>
                </g>
                <path d="M61.1979135,16.1428252 C60.75521,16.1428252 60.3109904,15.9848315 59.9632963,15.6653989 C57.0407458,12.9854132 53.2292507,11.5098215 49.2312744,11.5098215 C47.1385402,11.5098215 45.1044288,11.9104658 43.1860471,12.7014184 C42.2693072,13.0799141 41.21258,12.662043 40.8249618,11.7696989 C40.4368382,10.8773547 40.8653913,9.84768893 41.7816258,9.46968544 C44.1462487,8.494653 46.6528803,8 49.2312744,8 C54.1515497,8 58.8398604,9.81520426 62.4335414,13.1109222 C63.1577355,13.7748893 63.1921007,14.8852745 62.5103575,15.5910779 C62.1555883,15.957761 61.6770036,16.1428252 61.1979135,16.1428252 M34.8004546,19 C34.4522552,19 34.1010236,18.9020538 33.7917376,18.6977941 C32.9679856,18.1544141 32.752193,17.0637165 33.3096153,16.2614435 C33.9014027,15.4104434 34.571017,14.5998031 35.2987488,13.8526556 C35.9845349,13.1498054 37.1241426,13.1197816 37.8458099,13.7871941 C38.5679826,14.4536221 38.5977994,15.5644995 37.9135294,16.2673498 C37.3202259,16.8761913 36.7754378,17.5367131 36.2938209,18.2292273 C35.9451161,18.7302788 35.3775864,19 34.8004546,19" id="Fill-16" fill="#FFFFFF"></path>
                <polygon id="Fill-18" fill="#FFFFFF" points="71.4444444 37 24 37 24 115 85 115 85 50.5647908"></polygon>
                <polygon id="Fill-20" fill="#EA7924" points="33 104 41 104 41 71"></polygon>
                <polygon id="Fill-22" fill="#EA7924" points="50 105 58 105 58 88"></polygon>
                <mask id="mask-4" fill="white">
                    <use xlink:href="#path-3"></use>
                </mask>
                <g id="Clip-25"></g>
                <path d="M34.6334763,102.357825 L39.3665237,102.357825 L39.3665237,72.6421747 L34.6334763,72.6421747 L34.6334763,102.357825 Z M31,106 L43,106 L43,69 L31,69 L31,106 Z" id="Fill-24" fill="#273044" mask="url(#mask-4)"></path>
                <path d="M52.6334763,102.328774 L57.3665237,102.328774 L57.3665237,86.6712261 L52.6334763,86.6712261 L52.6334763,102.328774 Z M49,106 L61,106 L61,83 L49,83 L49,106 Z" id="Fill-26" fill="#273044" mask="url(#mask-4)"></path>
                <polygon id="Fill-27" fill="#273044" mask="url(#mask-4)" points="65 90 75 90 75 85 65 85"></polygon>
                <polygon id="Fill-28" fill="#273044" mask="url(#mask-4)" points="65 82 75 82 75 77 65 77"></polygon>
                <polygon id="Fill-29" fill="#273044" mask="url(#mask-4)" points="65 99 75 99 75 94 65 94"></polygon>
                <polygon id="Fill-30" fill="#273044" mask="url(#mask-4)" points="65 107 75 107 75 102 65 102"></polygon>
                <path d="M33,58.1125828 C35.5164441,60.6291391 39.5962229,60.6291391 42.1126669,58.1125828 C44.629111,55.5960265 44.629111,51.5165563 42.1126669,49 L33,58.1125828 Z" id="Fill-31" fill="#EA7924" mask="url(#mask-4)"></path>
                <path d="M38.5002546,48.8423938 C37.2516886,48.8423938 36.004141,49.3454039 35.0534588,50.3514242 C33.1536221,52.3629257 33.1536221,55.6370743 35.0534588,57.6485758 C36.9553324,59.6606164 40.0467044,59.6595381 41.9465412,57.6485758 C43.8463779,55.6370743 43.8463779,52.3629257 41.9465412,50.3514242 C40.995859,49.3454039 39.7478022,48.8423938 38.5002546,48.8423938 M38.5002546,63 C36.322393,63 34.1445313,62.1222931 32.486566,60.3668793 C29.1711447,56.8560518 29.1711447,51.1439483 32.486566,47.6331207 C35.8024966,44.1228323 41.1975034,44.121754 44.513434,47.6331207 C47.8288553,51.1439483 47.8288553,56.8560518 44.513434,60.3668793 C42.8554687,62.1222931 40.677607,63 38.5002546,63" id="Fill-32" fill="#273044" mask="url(#mask-4)"></path>
                <path d="M50.7810591,77 C50.3299384,77 49.8783181,76.8237524 49.5316096,76.4707404 C48.830699,75.7564468 48.8217066,74.589905 49.5116265,73.8647574 L58.1463661,64.7892999 C58.7958201,64.1075681 59.8409413,64.0527814 60.5533423,64.6642209 L64.3161784,67.8945649 L72.9314345,58.5694664 C73.609864,57.8339817 74.7379155,57.8071052 75.4493174,58.5110618 C76.1607192,59.2139846 76.1861978,60.3805264 75.5062695,61.1160111 L65.7439779,71.6825954 C65.098021,72.3819003 64.0389115,72.4449566 63.3195164,71.8273148 L59.5371967,68.5809484 L52.0504917,76.4500662 C51.7017849,76.8165165 51.2416718,77 50.7810591,77" id="Fill-33" fill="#273044" mask="url(#mask-4)"></path>
                <path d="M63,50 C63,48.895305 62.1043053,48 61.000251,48 C59.8951927,48 59,48.895305 59,50 C59,51.104695 59.8951927,52 61.000251,52 C62.1043053,52 63,51.104695 63,50" id="Fill-34" fill="#273044" mask="url(#mask-4)"></path>
                <path d="M63,57.0002511 C63,55.8954175 62.1043053,55 61.000251,55 C59.8951927,55 59,55.8954175 59,57.0002511 C59,58.1045825 59.8951927,59 61.000251,59 C62.1043053,59 63,58.1045825 63,57.0002511" id="Fill-35" fill="#273044" mask="url(#mask-4)"></path>
                <path d="M56,50 C56,48.895305 55.104695,48 54,48 C52.895305,48 52,48.895305 52,50 C52,51.104695 52.895305,52 54,52 C55.104695,52 56,51.104695 56,50" id="Fill-36" fill="#273044" mask="url(#mask-4)"></path>
                <path d="M56,57.0002511 C56,55.8954175 55.104695,55 54,55 C52.895305,55 52,55.8954175 52,57.0002511 C52,58.1045825 52.895305,59 54,59 C55.104695,59 56,58.1045825 56,57.0002511" id="Fill-37" fill="#273044" mask="url(#mask-4)"></path>
                <path d="M92,89.729396 C90.8953822,89.729396 90,88.8460747 90,87.7574853 L90,71.9719107 C90,70.8828069 90.8953822,70 92,70 C93.1046178,70 94,70.8828069 94,71.9719107 L94,87.7574853 C94,88.8460747 93.1046178,89.729396 92,89.729396 M92,100 C90.8953822,100 90,99.1166787 90,98.0280893 L90,95.093631 C90,94.0045272 90.8953822,93.1217203 92,93.1217203 C93.1046178,93.1217203 94,94.0045272 94,95.093631 L94,98.0280893 C94,99.1166787 93.1046178,100 92,100" id="Fill-38" fill="#273044" mask="url(#mask-4)"></path>
                <path d="M101,95.729396 C99.8953822,95.729396 99,94.8460747 99,93.7574853 L99,77.9719107 C99,76.8828069 99.8953822,76 101,76 C102.104618,76 103,76.8828069 103,77.9719107 L103,93.7574853 C103,94.8460747 102.104618,95.729396 101,95.729396 M101,106 C99.8953822,106 99,105.116679 99,104.028089 L99,101.093631 C99,100.004527 99.8953822,99.1217203 101,99.1217203 C102.104618,99.1217203 103,100.004527 103,101.093631 L103,104.028089 C103,105.116679 102.104618,106 101,106" id="Fill-39" fill="#273044" mask="url(#mask-4)"></path>
                <path d="M15,89.729396 C13.8953822,89.729396 13,88.8460747 13,87.7574853 L13,71.9719107 C13,70.8828069 13.8953822,70 15,70 C16.1046178,70 17,70.8828069 17,71.9719107 L17,87.7574853 C17,88.8460747 16.1046178,89.729396 15,89.729396 M15,100 C13.8953822,100 13,99.1166787 13,98.0280893 L13,95.093631 C13,94.0045272 13.8953822,93.1217203 15,93.1217203 C16.1046178,93.1217203 17,94.0045272 17,95.093631 L17,98.0280893 C17,99.1166787 16.1046178,100 15,100" id="Fill-40" fill="#273044" mask="url(#mask-4)"></path>
                <path d="M7,95.729396 C5.89538221,95.729396 5,94.8460747 5,93.7574853 L5,77.9719107 C5,76.8828069 5.89538221,76 7,76 C8.10461779,76 9,76.8828069 9,77.9719107 L9,93.7574853 C9,94.8460747 8.10461779,95.729396 7,95.729396 M7,106 C5.89538221,106 5,105.116679 5,104.028089 L5,101.093631 C5,100.004527 5.89538221,99.1217203 7,99.1217203 C8.10461779,99.1217203 9,100.004527 9,101.093631 L9,104.028089 C9,105.116679 8.10461779,106 7,106" id="Fill-41" fill="#273044" mask="url(#mask-4)"></path>
                <path d="M28.6587006,109.334292 L78.3412994,109.334292 L78.3412994,52.9517974 L68.0757993,42.6657079 L28.6587006,42.6657079 L28.6587006,109.334292 Z M82,113 L25,113 L25,39 L69.5908944,39 L82,51.4330735 L82,113 Z" id="Fill-42" fill="#EA7924" mask="url(#mask-4)"></path>
                <polygon id="Fill-43" fill="#FFFFFF" mask="url(#mask-4)" points="85 51 71 51 71 37"></polygon>
                <path d="M24.6975893,112.349229 L82.3024107,112.349229 L82.3024107,51.0331808 L69.7624446,38.6502585 L24.6975893,38.6502585 L24.6975893,112.349229 Z M86,116 L21,116 L21,35 L71.2936437,35 L86,49.5211576 L86,116 Z" id="Fill-44" fill="#273044" mask="url(#mask-4)"></path>
                <polygon id="Fill-45" fill="#273044" mask="url(#mask-4)" points="83 52 68 52 68 37 71.5848582 37 71.5848582 48.4155243 83 48.4155243"></polygon>
            </g>
        </g>
    </g>
</svg>