<svg width="48" height="48" xmlns="http://www.w3.org/2000/svg"><g fill="none"><path d="M24.1740707 44.0146963c10.949899 0 19.85849496-8.9234963 19.85849496-19.8903704 0-10.96728886-8.90859596-19.89119997-19.85849496-19.89119997-10.949899 0-19.8580808 8.9234963-19.8580808 19.89119997 0 10.9668741 8.9077677 19.8903704 19.8580808 19.8903704zm0-36.69161482c9.2486061 0 16.77314142 7.53677042 16.77314142 16.80082962 0 9.2636445-7.52453532 16.8004148-16.77314142 16.8004148-9.2490202 0-16.7731414-7.5371852-16.7731414-16.8004148 0-9.2640592 7.5241212-16.80082962 16.7731414-16.80082962z" fill="#2A3240"/><path d="M22.0582222 22.8769778c.1064344-.1041185.2182525-.1933037.3358687-.273363l-.0095252-.0132741s9.3343333-6.7117037 9.6764141-6.3669926c.3437374.3455408-6.3562424 9.692563-6.3562424 9.692563l-.0120101-.0116148c-.0807576.1198815-.1702121.2318815-.2741616.3368296-.9272627.9283556-2.4314243.9283556-3.3599293 0-.9235354-.9283555-.9235354-2.4353778-.0004142-3.3641481z" fill="#FF4F00"/><path d="M24.1740707 13.95514074c.4286364 0 .7765152-.34844444.7765152-.77777778v-2.10642963c0-.42933333-.3478788-.77777777-.7765152-.77777777-.4290505 0-.7765151.34844444-.7765151.77777777v2.10642963c0 .42933334.3474646.77777778.7765151.77777778zm5.1084344 1.37096296c.3710707.2148741.846505.0871111 1.0610303-.2849778l1.051505-1.8239407c.2145253-.3716741.0869697-.8478815-.2845151-1.06275557-.3714849-.21487407-.8465051-.0871111-1.0610304.28497778l-1.051505 1.8239407c-.2141111.3720889-.0873838.8478815.2845152 1.0627556zm3.7396969 3.745363c.2145253.371674.6891313.499437 1.0606162.2845629l1.82139392-1.0532148c.3710707-.2148741.49821212-.6906667.284101-1.0627555-.21452524-.3720889-.68954544-.4994371-1.0610303-.2849778L33.306303 18.0082963c-.3714848.2157037-.4986262.6910815-.284101 1.0631704zm1.3687374 5.1167407c0 .4293333.3478788.7777778.77651515.7777778l2.1030101.0004148c.42863636 0 .77651515-.3488593.77651515-.7781926 0-.4297481-.34829293-.7777778-.7769293-.7777778h-2.10259595c-.42863635 0-.77651515.3480297-.77651515.7777778zm-1.3691515 5.1167407c-.2145253.3716741-.0869697.8474667.2845151 1.0623408l1.82139397 1.0540444c.3710707.2148741.8460909.0866963 1.06061616-.2853926.2149394-.371674.0869697-.8482963-.28451515-1.0627555l-1.82097978-1.0528c-.3714849-.2148741-.8460909-.0875259-1.0610303.2845629zm-3.739697 3.745363c-.3710707.2148741-.4982121.6902519-.284101 1.0623408l1.051505 1.8251851c.2141112.3716741.6895455.4986074 1.0610304.2841482.3714848-.2144593.4986262-.6910815.2845151-1.0627556l-1.051505-1.8235259c-.2145253-.3725037-.6895455-.4998518-1.0614445-.2853926zm-10.2160404 0c-.3710707-.2148741-.846505-.0875259-1.0610303.284563l-1.0523333 1.8247703c-.2149394.3716741-.0861414.8470519.2849293 1.061926.3706565.2157037.8469192.0875259 1.0610303-.284563l1.0506767-1.8235259c.2149394-.3720889.0882122-.8474667-.2832727-1.0631704zm-3.7392828-3.745363c-.2145253-.371674-.6895455-.4998518-1.0610303-.2853925l-1.8222222 1.0536296c-.3710708.2144592-.4969697.6906667-.2828586 1.0627555.2128687.3716741.6891313.4998519 1.0606161.2853926l1.8205657-1.0532148c.3714848-.2148741.4990404-.6906666.2849293-1.0631704zm-1.3687374-5.1167407c0-.4293333-.3478788-.7781926-.7765151-.7781926h-2.1042526c-.4282222-.0004148-.7752727.3492741-.7752727.7786074-.0016566.4285037.3474646.7781926.776101.7781926l2.102596-.0004148c.4286363 0 .7765151-.3480296.7773434-.7781926zm1.3687374-5.1163259c.2145252-.3716741.0873838-.8478815-.284101-1.0627556l-1.8222223-1.0540444c-.3706565-.2148741-.8456767-.0858667-1.060202.2858074-.2157677.3704296-.087798.8478815.2836869 1.0627555l1.8213939 1.0528c.3714849.2148741.8456768.087526 1.0614445-.2845629zm3.7392828-3.745363c.3710707-.2148741.4990404-.6906666.2849293-1.0627555l-1.0523333-1.82560004c-.213697-.37167407-.6891313-.49777777-1.0606162-.28331852-.371899.2128-.4994545.69025186-.2849293 1.06234075l1.0519192 1.8239407c.2141111.3720889.688303.4998519 1.0610303.2853926z" fill="#2A3240"/></g></svg>