<?xml version="1.0" encoding="UTF-8"?>
<svg width="120px" height="120px" viewBox="0 0 120 120" version="1.1" xmlns="http://www.w3.org/2000/svg" xmlns:xlink="http://www.w3.org/1999/xlink">
    <!-- Generator: Sketch 51.3 (57544) - http://www.bohemiancoding.com/sketch -->
    <title>Group 54</title>
    <desc>Created with Sketch.</desc>
    <defs>
        <polygon id="path-1" points="0.0771962687 0.238671756 85.3895373 0.238671756 85.3895373 93.4351145 0.0771962687 93.4351145"></polygon>
        <polygon id="path-3" points="2.75373134 119.553893 122.56491 119.553893 122.56491 0 2.75373134 0"></polygon>
    </defs>
    <g id="Page-1" stroke="none" stroke-width="1" fill="none" fill-rule="evenodd">
        <g id="Insight-Webpage-Update_v4" transform="translate(-558.000000, -4266.000000)">
            <g id="Group-54" transform="translate(558.000000, 4266.000000)">
                <path d="M59.908022,6.59441221 C30.5252496,6.59441221 6.62056679,30.4505954 6.62056679,59.7736489 C6.62056679,89.0967023 30.5252496,112.952427 59.908022,112.952427 C89.2912534,112.952427 113.195936,89.0967023 113.195936,59.7736489 C113.195936,30.4505954 89.2912534,6.59441221 59.908022,6.59441221 M59.908022,116.218534 C28.7206377,116.218534 3.34775709,90.8976183 3.34775709,59.7736489 C3.34775709,28.6496794 28.7206377,3.32876336 59.908022,3.32876336 C91.0954063,3.32876336 116.468746,28.6496794 116.468746,59.7736489 C116.468746,90.8976183 91.0954063,116.218534 59.908022,116.218534" id="Fill-1" fill="#192330"></path>
                <path d="M103.83504,59.773374 C103.83504,35.563145 84.1678903,15.9367328 59.9079761,15.9367328 C35.6480619,15.9367328 15.9813716,35.563145 15.9813716,59.773374 C15.9813716,83.9836031 35.6480619,103.610473 59.9079761,103.610473 C84.1678903,103.610473 103.83504,83.9836031 103.83504,59.773374" id="Fill-3" fill="#EA7924"></path>
                <path d="M59.908022,17.5697863 C36.588966,17.5697863 17.6175929,36.5023053 17.6175929,59.7740611 C17.6175929,83.0449008 36.588966,101.97742 59.908022,101.97742 C83.2275369,101.97742 102.19891,83.0449008 102.19891,59.7740611 C102.19891,36.5023053 83.2275369,17.5697863 59.908022,17.5697863 M59.908022,105.243527 C34.7848131,105.243527 14.3452422,84.8458168 14.3452422,59.7740611 C14.3452422,34.7013893 34.7848131,14.3041374 59.908022,14.3041374 C85.0316899,14.3041374 105.471261,34.7013893 105.471261,59.7740611 C105.471261,84.8458168 85.0316899,105.243527 59.908022,105.243527" id="Fill-5" fill="#192330"></path>
                <path d="M103.83504,59.773374 C103.83504,53.8063511 84.1678903,48.9687939 59.9079761,48.9687939 C35.6480619,48.9687939 15.9813716,53.8063511 15.9813716,59.773374 C15.9813716,65.740855 35.6480619,70.5784122 59.9079761,70.5784122 C84.1678903,70.5784122 103.83504,65.740855 103.83504,59.773374" id="Fill-7" fill="#FFFFFF"></path>
                <path d="M59.908022,50.6014351 C34.0922496,50.6014351 17.6175929,56.0339542 17.6175929,59.7736489 C17.6175929,63.5128855 34.0922496,68.9458626 59.908022,68.9458626 C85.7242534,68.9458626 102.19891,63.5128855 102.19891,59.7736489 C102.19891,56.0339542 85.7242534,50.6014351 59.908022,50.6014351 M59.908022,72.2115115 C48.0463243,72.2115115 36.876272,71.0701374 28.4558205,68.9989924 C19.092675,66.6960916 14.3452422,63.5921221 14.3452422,59.7736489 C14.3452422,55.9547176 19.092675,52.8512061 28.4558205,50.5483053 C36.876272,48.4767023 48.0463243,47.3357863 59.908022,47.3357863 C71.7697198,47.3357863 82.939772,48.4767023 91.3606825,50.5483053 C100.723828,52.8512061 105.471261,55.9547176 105.471261,59.7736489 C105.471261,63.5921221 100.723828,66.6960916 91.3606825,68.9989924 C82.939772,71.0701374 71.7697198,72.2115115 59.908022,72.2115115" id="Fill-9" fill="#192330"></path>
                <path d="M59.908022,15.9367328 C53.9287534,15.9367328 49.0808093,35.563145 49.0808093,59.773374 C49.0808093,83.9836031 53.9287534,103.610473 59.908022,103.610473 C65.8877496,103.610473 70.7352347,83.9836031 70.7352347,59.773374 C70.7352347,35.563145 65.8877496,15.9367328 59.908022,15.9367328" id="Fill-11" fill="#FFFFFF"></path>
                <path d="M59.908022,17.5697863 C56.1606526,17.5697863 50.7174437,34.0107023 50.7174437,59.7740611 C50.7174437,85.5369618 56.1606526,101.97742 59.908022,101.97742 C63.6553914,101.97742 69.0986004,85.5369618 69.0986004,59.7740611 C69.0986004,34.0107023 63.6553914,17.5697863 59.908022,17.5697863 M59.908022,105.243527 C56.0817123,105.243527 52.9713728,100.505359 50.6632869,91.1618473 C48.5878914,82.7577252 47.444634,71.6105496 47.444634,59.7740611 C47.444634,47.9366565 48.5878914,36.7894809 50.6632869,28.3853588 C52.9713728,19.0418473 56.0817123,14.3041374 59.908022,14.3041374 C63.7347907,14.3041374 66.8446713,19.0418473 69.1527571,28.3853588 C71.2281526,36.7894809 72.3714101,47.9366565 72.3714101,59.7740611 C72.3714101,71.6105496 71.2281526,82.7577252 69.1527571,91.1618473 C66.8446713,100.505359 63.7347907,105.243527 59.908022,105.243527" id="Fill-13" fill="#192330"></path>
                <path d="M59.9241313,33.1136794 C36.6137955,33.1136794 17.6497657,44.9936794 17.6497657,59.5965802 C17.6497657,74.1994809 36.6137955,86.0799389 59.9241313,86.0799389 C83.2344672,86.0799389 102.198497,74.1994809 102.198497,59.5965802 C102.198497,44.9936794 83.2344672,33.1136794 59.9241313,33.1136794 M59.9241313,89.3451298 C47.8857358,89.3451298 36.5449522,86.3290992 27.9909448,80.8521527 C19.2120493,75.2304733 14.376956,67.6823817 14.376956,59.5965802 C14.376956,51.5112366 19.2120493,43.962687 27.9909448,38.3414656 C36.5449522,32.8640611 47.8857358,29.8480305 59.9241313,29.8480305 C71.9620679,29.8480305 83.3028515,32.8640611 91.8573179,38.3414656 C100.636213,43.962687 105.471307,51.5112366 105.471307,59.5965802 C105.471307,67.6823817 100.636213,75.2304733 91.8573179,80.8521527 C83.3028515,86.3290992 71.9620679,89.3451298 59.9241313,89.3451298" id="Fill-15" fill="#192330"></path>
                <path d="M59.9241313,17.4082901 C45.2912619,17.4082901 33.3868813,36.3339389 33.3868813,59.5965344 C33.3868813,82.8591298 45.2912619,101.784779 59.9241313,101.784779 C74.5570007,101.784779 86.4609224,82.8591298 86.4609224,59.5965344 C86.4609224,36.3339389 74.5570007,17.4082901 59.9241313,17.4082901 M59.9241313,105.050427 C51.8221948,105.050427 44.2576948,100.225237 38.6253963,91.4643206 C33.1367507,82.9278321 30.1140716,71.6102748 30.1140716,59.5965344 C30.1140716,47.5827939 33.1367507,36.2652366 38.6253963,27.7287481 C44.2576948,18.967374 51.8221948,14.1426412 59.9241313,14.1426412 C68.0260679,14.1426412 75.590109,18.967374 81.2228664,27.7287481 C86.711053,36.2652366 89.7337321,47.5827939 89.7337321,59.5965344 C89.7337321,71.6102748 86.711053,82.9278321 81.2228664,91.4643206 C75.590109,100.225237 68.0260679,105.050427 59.9241313,105.050427" id="Fill-17" fill="#192330"></path>
                <path d="M107.019041,18.7063053 C107.019041,15.1589771 104.137721,12.2830992 100.582653,12.2830992 C97.0275862,12.2830992 94.1462653,15.1589771 94.1462653,18.7063053 C94.1462653,22.2536336 97.0275862,25.1295115 100.582653,25.1295115 C104.137721,25.1295115 107.019041,22.2536336 107.019041,18.7063053" id="Fill-19" fill="#FFFFFF"></path>
                <path d="M18.9453504,108.357893 C22.4999586,108.357893 25.3817384,105.482473 25.3817384,101.935145 C25.3817384,98.3869008 22.4999586,95.5114809 18.9453504,95.5114809 C15.3907422,95.5114809 12.5089623,98.3869008 12.5089623,101.935145 C12.5089623,105.482473 15.3907422,108.357893 18.9453504,108.357893" id="Fill-21" fill="#FFFFFF"></path>
                <path d="M13.7686567,97.8856947 C4.88970896,87.1992824 0,73.6649313 0,59.7760763 C0,26.8154656 26.8773358,4.58015267e-05 59.9129328,4.58015267e-05 C70.5226007,4.58015267e-05 80.9358358,2.79806107 90.025444,8.09042748 L88.3764179,10.9108855 C79.7866119,5.90981679 69.9438582,3.26569466 59.9129328,3.26569466 C28.6810299,3.26569466 3.2728097,28.6163817 3.2728097,59.7760763 C3.2728097,72.905542 7.89448881,85.6997405 16.287403,95.8012672 L13.7686567,97.8856947 Z" id="Fill-23" fill="#EA7924"></path>
                <path d="M90.6105201,8.83708397 C90.6105201,7.07830534 89.1822515,5.65250382 87.4194045,5.65250382 C85.6570164,5.65250382 84.2282888,7.07830534 84.2282888,8.83708397 C84.2282888,10.5963206 85.6570164,12.0216641 87.4194045,12.0216641 C89.1822515,12.0216641 90.6105201,10.5963206 90.6105201,8.83708397" id="Fill-25" fill="#EA7924"></path>
                <path d="M18.9453504,97.1441221 C16.2980966,97.1441221 14.1451377,99.2931298 14.1451377,101.934962 C14.1451377,104.576336 16.2980966,106.725344 18.9453504,106.725344 C21.5926041,106.725344 23.7455631,104.576336 23.7455631,101.934962 C23.7455631,99.2931298 21.5926041,97.1441221 18.9453504,97.1441221 M18.9453504,109.990992 C14.4939437,109.990992 10.872328,106.376794 10.872328,101.934962 C10.872328,97.4926718 14.4939437,93.8784733 18.9453504,93.8784733 C23.3967571,93.8784733 27.0183728,97.4926718 27.0183728,101.934962 C27.0183728,106.376794 23.3967571,109.990992 18.9453504,109.990992" id="Fill-27" fill="#EA7924"></path>
                <path d="M30.9400534,112.111924 C30.3562623,111.789023 29.7678817,111.451466 29.191434,111.107038 L30.8725869,108.304901 C31.4169078,108.630092 31.9727026,108.949786 32.5248257,109.254824 L30.9400534,112.111924 Z" id="Fill-29" fill="#EA7924"></path>
                <g id="Group-33" transform="translate(34.421642, 26.118779)">
                    <mask id="mask-2" fill="white">
                        <use xlink:href="#path-1"></use>
                    </mask>
                    <g id="Clip-32"></g>
                    <path d="M74.4614463,5.25989313 C73.8322187,4.18126718 73.1561776,3.10676336 72.4525993,2.06615267 L75.1645657,0.238671756 C75.9085321,1.33882443 76.6240433,2.47561832 77.2895284,3.61699237 L74.4614463,5.25989313 Z M77.8168679,12.0119542 C77.3363418,10.8559237 76.8099201,9.70080916 76.2527485,8.5800458 L79.1840955,7.12905344 C79.773853,8.31531298 80.3305657,9.53729771 80.8390881,10.7611145 L77.8168679,12.0119542 Z M80.2355619,19.1519542 C79.9152112,17.9427939 79.548506,16.7281374 79.1464612,15.5414198 L82.2462448,14.495313 C82.6721552,15.7511908 83.0595134,17.0368397 83.3991403,18.3165344 L80.2355619,19.1519542 Z M81.6743866,26.5521069 C81.5174239,25.3063053 81.3173194,24.0527176 81.0791216,22.8275267 L84.2918082,22.205542 C84.5437746,23.5021832 84.7558119,24.8281374 84.9210358,26.1463053 L81.6743866,26.5521069 Z M85.3873343,34.1047786 L82.1154425,34.085084 L82.1168194,33.6495115 C82.1168194,32.5392824 82.0837746,31.4139389 82.0195209,30.3096641 L85.2859052,30.1186718 C85.3542896,31.2856947 85.3896291,32.4756183 85.3896291,33.6545496 L85.3873343,34.1047786 Z M84.8026254,42.0536336 L81.5624015,41.5988244 C81.7368045,40.3617252 81.8717373,39.1008092 81.9635284,37.8504275 L85.227159,38.0899695 C85.1298604,39.4113435 84.9871254,40.745542 84.8026254,42.0536336 Z M83.1636963,49.8540916 L80.0129687,48.9719542 C80.3521366,47.766458 80.6545881,46.5343969 80.911603,45.3110382 L84.1141925,45.9811145 C83.8420321,47.2754656 83.5221403,48.5789771 83.1636963,49.8540916 Z M80.4944127,57.3614198 L77.4905507,56.0656947 C77.9862224,54.9211145 78.4506851,53.7426412 78.8706291,52.5623359 L81.9543493,53.6560763 C81.5096216,54.9041679 81.0185396,56.1504275 80.4944127,57.3614198 Z M76.8438828,64.4427939 L74.0401254,62.7586718 C74.6858754,61.6878321 75.304547,60.5808092 75.8777821,59.4687481 L78.7875582,60.9627939 C78.1808194,62.1394351 77.5272672,63.3101221 76.8438828,64.4427939 Z M72.281409,70.9791298 L69.7268642,68.9386718 C70.5116776,67.9598931 71.2721664,66.9440153 71.9863007,65.9198931 L74.6721067,67.7863053 C73.9162075,68.8695115 73.1121179,69.9440153 72.281409,70.9791298 Z M66.8900619,76.8572977 L64.6274127,74.4976031 C65.5370619,73.6296641 66.4251403,72.7232519 67.2687,71.8026412 L69.6837224,74.0070687 C68.7915134,74.9803511 67.8515731,75.9394351 66.8900619,76.8572977 Z M60.7639276,81.9737863 L58.8349388,79.3360763 C59.8483119,78.5977557 60.8502112,77.8163817 61.8117224,77.0125649 L63.9123604,79.5169924 C62.8953157,80.3666107 61.8355881,81.1933282 60.7639276,81.9737863 Z M54.0090246,86.2360763 L52.4490358,83.3656947 C53.5509873,82.7693588 54.6478903,82.1267634 55.7094537,81.457145 L57.4580731,84.217145 C56.3359276,84.9256947 55.1752299,85.6049313 54.0090246,86.2360763 Z M3.74975597,89.377145 C2.5133306,88.896229 1.27782313,88.3676794 0.0771962687,87.8061527 L1.46645373,84.8496641 C2.60190896,85.3805038 3.76995,85.8801985 4.93845,86.3350076 L3.74975597,89.377145 Z M46.7410097,89.5630992 L45.5789351,86.5099695 C46.7534015,86.0647786 47.92695,85.5747023 49.0674537,85.0525649 L50.4319276,88.0209618 C49.2248754,88.5733282 47.9829425,89.0922595 46.7410097,89.5630992 Z M11.3725433,91.7661527 C10.0815022,91.4547023 8.78541269,91.0960763 7.52099104,90.6998931 L8.5013194,87.5840153 C9.69597985,87.9586718 10.9209313,88.2976031 12.1408343,88.5911908 L11.3725433,91.7661527 Z M39.0929799,91.8861527 L38.3522261,88.7047786 C39.573506,88.4217252 40.8007522,88.0937863 42.0000022,87.7296641 L42.9532522,90.8537863 C41.6837821,91.2394351 40.3849388,91.5861527 39.0929799,91.8861527 Z M19.2450022,93.1140916 C17.9241291,92.9780611 16.592241,92.795313 15.2860545,92.5718015 L15.8400134,89.3533282 C17.074144,89.5644733 18.3330582,89.737145 19.5823343,89.8663053 L19.2450022,93.1140916 Z M31.2099649,93.1658473 L30.9006291,89.9143969 C32.1494463,89.796229 33.4097373,89.6350076 34.6466216,89.4339389 L35.1721254,92.6574504 C33.8631851,92.8695115 32.5303791,93.0408092 31.2099649,93.1658473 Z M25.4776142,93.4351603 C24.7322709,93.4351603 23.9759127,93.4209618 23.2291925,93.3934809 L23.3503567,90.1301221 C24.0566888,90.155771 24.7722,90.1695115 25.4776142,90.1695115 L25.4858754,90.1695115 C26.0357037,90.1695115 26.5836963,90.1617252 27.129853,90.1461527 L27.2230209,93.4104275 C26.6438194,93.426916 26.0659948,93.4351603 25.4776142,93.4351603 Z" id="Fill-31" fill="#EA7924" mask="url(#mask-2)"></path>
                </g>
                <path d="M104.609068,25.0715725 C104.218038,24.5714198 103.815534,24.0726412 103.411194,23.5898931 L105.923515,21.4967634 C106.350803,22.0083664 106.777172,22.535542 107.189773,23.0640916 L104.609068,25.0715725 Z" id="Fill-34" fill="#EA7924"></path>
                <path d="M34.5547847,110.885908 C34.5547847,109.12713 33.1260571,107.701328 31.3632101,107.701328 C29.600822,107.701328 28.1720944,109.12713 28.1720944,110.885908 C28.1720944,112.645145 29.600822,114.070489 31.3632101,114.070489 C33.1260571,114.070489 34.5547847,112.645145 34.5547847,110.885908" id="Fill-36" fill="#EA7924"></path>
                <mask id="mask-4" fill="white">
                    <use xlink:href="#path-3"></use>
                </mask>
                <g id="Clip-39"></g>
                <polygon id="Fill-38" fill="#FFFFFF" mask="url(#mask-4)" points="43.8513358 75.1451908 55.2462761 75.1451908 55.2462761 63.7740458 43.8513358 63.7740458"></polygon>
                <polygon id="Fill-40" fill="#FFFFFF" mask="url(#mask-4)" points="64.6479739 74.9871756 76.0424552 74.9871756 76.0424552 63.6160305 64.6479739 63.6160305"></polygon>
                <path d="M66.2841493,73.3548092 L74.4058209,73.3548092 L74.4058209,65.249313 L66.2841493,65.249313 L66.2841493,73.3548092 Z M63.0113396,76.62 L77.6786306,76.62 L77.6786306,61.9827481 L63.0113396,61.9827481 L63.0113396,76.62 Z" id="Fill-41" fill="#192330" mask="url(#mask-4)"></path>
                <polygon id="Fill-42" fill="#FFFFFF" mask="url(#mask-4)" points="43.8513358 55.2746565 55.2462761 55.2746565 55.2462761 43.9035115 43.8513358 43.9035115"></polygon>
                <path d="M45.4875112,53.6418321 L53.6096418,53.6418321 L53.6096418,45.5358779 L45.4875112,45.5358779 L45.4875112,53.6418321 Z M42.2147015,56.9074809 L56.8824515,56.9074809 L56.8824515,42.270229 L42.2147015,42.270229 L42.2147015,56.9074809 Z" id="Fill-43" fill="#192330" mask="url(#mask-4)"></path>
                <polygon id="Fill-44" fill="#EA7924" mask="url(#mask-4)" points="76.0422716 74.9871756 76.0422716 63.6160305 64.6477903 63.6160305"></polygon>
                <polygon id="Fill-45" fill="#EA7924" mask="url(#mask-4)" points="43.8512899 43.9034198 43.8512899 55.2745649 55.2462302 55.2745649"></polygon>
                <polygon id="Fill-46" fill="#FFFFFF" mask="url(#mask-4)" points="64.6479739 55.1170992 76.0424552 55.1170992 76.0424552 43.7454962 64.6479739 43.7454962"></polygon>
                <polygon id="Fill-47" fill="#EA7924" mask="url(#mask-4)" points="55.246322 63.7738626 43.8513817 63.7738626 43.8513817 75.1450076"></polygon>
                <polygon id="Fill-48" fill="#EA7924" mask="url(#mask-4)" points="64.6476985 55.1171908 76.0421799 55.1171908 76.0421799 43.7455878"></polygon>
                <path d="M45.4875112,73.5119084 L53.6096418,73.5119084 L53.6096418,65.4064122 L45.4875112,65.4064122 L45.4875112,73.5119084 Z M42.2147015,76.7775573 L56.8824515,76.7775573 L56.8824515,62.1407634 L42.2147015,62.1407634 L42.2147015,76.7775573 Z" id="Fill-49" fill="#192330" mask="url(#mask-4)"></path>
                <path d="M66.2841493,73.3548092 L74.4058209,73.3548092 L74.4058209,65.249313 L66.2841493,65.249313 L66.2841493,73.3548092 Z M63.0113396,76.62 L77.6786306,76.62 L77.6786306,61.9827481 L63.0113396,61.9827481 L63.0113396,76.62 Z" id="Fill-50" fill="#192330" mask="url(#mask-4)"></path>
                <path d="M45.4875112,53.6418321 L53.6096418,53.6418321 L53.6096418,45.5358779 L45.4875112,45.5358779 L45.4875112,53.6418321 Z M42.2147015,56.9074809 L56.8824515,56.9074809 L56.8824515,42.270229 L42.2147015,42.270229 L42.2147015,56.9074809 Z" id="Fill-51" fill="#192330" mask="url(#mask-4)"></path>
                <path d="M66.2841493,53.4842748 L74.4058209,53.4842748 L74.4058209,45.3787786 L66.2841493,45.3787786 L66.2841493,53.4842748 Z M63.0113396,56.7499237 L77.6786306,56.7499237 L77.6786306,42.1131298 L63.0113396,42.1131298 L63.0113396,56.7499237 Z" id="Fill-52" fill="#192330" mask="url(#mask-4)"></path>
                <path d="M100.58247,13.9159237 C97.935675,13.9159237 95.782716,16.0644733 95.782716,18.7063053 C95.782716,21.3481374 97.935675,23.496687 100.58247,23.496687 C103.229724,23.496687 105.382682,21.3481374 105.382682,18.7063053 C105.382682,16.0644733 103.229724,13.9159237 100.58247,13.9159237 M100.58247,26.7623359 C96.131522,26.7623359 92.5099063,23.1481374 92.5099063,18.7063053 C92.5099063,14.2644733 96.131522,10.6502748 100.58247,10.6502748 C105.033876,10.6502748 108.655492,14.2644733 108.655492,18.7063053 C108.655492,23.1481374 105.033876,26.7623359 100.58247,26.7623359" id="Fill-53" fill="#EA7924" mask="url(#mask-4)"></path>
            </g>
        </g>
    </g>
</svg>