<?xml version="1.0" encoding="UTF-8"?>
<svg width="374px" height="147px" viewBox="0 0 374 147" version="1.1" xmlns="http://www.w3.org/2000/svg" xmlns:xlink="http://www.w3.org/1999/xlink">
    <!-- Generator: Sketch 51.3 (57544) - http://www.bohemiancoding.com/sketch -->
    <title>Insight_White_Logo_Tag</title>
    <desc>Created with Sketch.</desc>
    <defs></defs>
    <g id="Page-1" stroke="none" stroke-width="1" fill="none" fill-rule="evenodd">
        <g id="Insight-Webpage-Update_v4" transform="translate(-135.000000, -222.000000)" fill-rule="nonzero">
            <g id="Insight_White_Logo_Tag" transform="translate(135.000000, 222.000000)">
                <g id="Group">
                    <g transform="translate(65.454327, 8.951613)" fill="#FFFFFF">
                        <path d="M36.134375,29.1822581 L45.2800481,29.1822581 L45.2800481,36.6120968 L45.459375,36.6120968 C46.7146635,33.9266129 48.8665865,31.6887097 51.4668269,30.3459677 C54.5153846,28.7346774 57.8329327,27.9290323 61.3298077,27.9290323 C63.5713942,27.9290323 65.8129808,28.2870968 67.9649038,29.0032258 C70.0271635,29.6298387 71.9100962,30.7935484 73.5240385,32.2258065 C75.2276442,33.8370968 76.4829327,35.8064516 77.3795673,37.9548387 C78.3658654,40.5508065 78.9038462,43.4153226 78.8141827,46.1903226 L78.8141827,77.1629032 L69.6685096,77.1629032 L69.6685096,48.8758065 C69.7581731,46.9064516 69.3995192,45.0266129 68.771875,43.1467742 C68.2338942,41.7145161 67.4269231,40.3717742 66.3509615,39.2975806 C65.3646635,38.3129032 64.1990385,37.5967742 62.8540865,37.1491935 C61.5091346,36.7016129 60.1641827,36.5225806 58.7295673,36.5225806 C56.9362981,36.5225806 55.1430288,36.791129 53.4394231,37.4177419 C51.8254808,38.0443548 50.3012019,39.0290323 49.1355769,40.2822581 C47.8802885,41.7145161 46.8939904,43.4153226 46.2663462,45.2951613 C45.5490385,47.6225806 45.1903846,50.0395161 45.2800481,52.5459677 L45.2800481,77.3419355 L36.134375,77.3419355 L36.134375,29.1822581 Z" id="Shape"></path>
                        <path d="M118.266106,41.2669355 C117.190144,39.9241935 115.755529,38.7604839 114.23125,37.8653226 C112.437981,36.8806452 110.375721,36.4330645 108.403125,36.5225806 C106.430529,36.4330645 104.457933,36.9701613 102.754327,37.8653226 C101.230048,38.6709677 100.333413,40.1927419 100.333413,41.8935484 C100.24375,43.1467742 100.781731,44.4 101.678365,45.3846774 C102.664663,46.2798387 103.740625,47.0854839 104.995913,47.5330645 C106.251202,48.0701613 107.596154,48.5177419 109.030769,48.7862903 L112.706971,49.5024194 C114.589904,49.95 116.472837,50.4870968 118.266106,51.2032258 C119.880048,51.8298387 121.404327,52.725 122.749279,53.8887097 C124.004567,54.9629032 124.990865,56.3056452 125.708173,57.8274194 C126.515144,59.6177419 126.873798,61.5870968 126.784135,63.4669355 C126.873798,65.883871 126.246154,68.3008065 125.080529,70.4491935 C124.004567,72.3290323 122.390625,73.9403226 120.597356,75.1935484 C118.714423,76.4467742 116.5625,77.3419355 114.320913,77.7895161 C111.989663,78.3266129 109.658413,78.5951613 107.2375,78.5951613 C103.650962,78.6846774 100.064423,78.0580645 96.6572115,76.8048387 C93.3396635,75.3725806 90.5600962,73.0451613 88.5875,70.091129 L95.4915865,64.4516129 C97.0158654,65.9733871 98.7194712,67.316129 100.51274,68.3903226 C102.575,69.5540323 104.90625,70.1806452 107.2375,70.091129 C108.403125,70.091129 109.56875,70.0016129 110.734375,69.7330645 C111.810337,69.5540323 112.886298,69.1959677 113.872596,68.658871 C114.769231,68.2112903 115.486538,67.4951613 116.024519,66.6895161 C116.5625,65.883871 116.921154,64.9887097 116.921154,64.0040323 C116.921154,62.7508065 116.472837,61.5870968 115.665865,60.6919355 C114.769231,59.7967742 113.782933,59.0806452 112.617308,58.6330645 C111.362019,58.0959677 110.106731,57.7379032 108.851442,57.3798387 C107.50649,57.1112903 106.340865,56.8427419 105.354567,56.5741935 C103.471635,56.1266129 101.588702,55.5895161 99.7954327,54.8733871 C98.0918269,54.3362903 96.5675481,53.5306452 95.1329327,52.4564516 C93.7879808,51.4717742 92.6223558,50.1290323 91.8153846,48.6072581 C91.0084135,46.8169355 90.5600962,44.8475806 90.6497596,42.8782258 C90.5600962,40.6403226 91.0980769,38.3129032 92.2637019,36.3435484 C93.25,34.5532258 94.6846154,32.9419355 96.4778846,31.6887097 C98.2711538,30.4354839 100.24375,29.5403226 102.395673,28.9137097 C104.547596,28.2870968 106.789183,28.0185484 109.030769,28.0185484 C112.258654,28.0185484 115.396875,28.6451613 118.355769,29.808871 C121.314663,30.9725806 123.82524,33.1209677 125.439183,35.8959677 L118.266106,41.2669355 Z" id="Shape"></path>
                        <rect id="SVGID_1_" x="138.530048" y="29.1822581" width="9.14567308" height="48.0701613"></rect>
                        <path d="M185.513702,36.4330645 C183.272115,36.4330645 181.030529,36.791129 178.878606,37.6862903 C176.995673,38.4919355 175.292067,39.6556452 173.857452,41.1774194 C172.422837,42.6991935 171.346875,44.4895161 170.719231,46.458871 C170.001923,48.6072581 169.553606,50.9346774 169.643269,53.1725806 C169.643269,58.0064516 171.077885,61.9451613 173.947115,64.8991935 C176.816346,67.8532258 180.671875,69.2854839 185.513702,69.2854839 C190.355529,69.2854839 194.211058,67.8532258 197.080288,64.8991935 C199.949519,62.0346774 201.384135,58.0064516 201.384135,53.1725806 C201.384135,50.8451613 201.025481,48.6072581 200.308173,46.458871 C199.590865,44.4895161 198.514904,42.6991935 197.169952,41.1774194 C195.735337,39.6556452 194.031731,38.4919355 192.148798,37.6862903 C190.086538,36.8806452 187.844952,36.4330645 185.513702,36.4330645 Z M210.619471,76.8943548 C210.619471,80.2959677 209.991827,83.6975806 208.736538,86.9201613 C207.48125,89.8741935 205.687981,92.5596774 203.356731,94.7080645 C200.935817,96.9459677 198.066587,98.7362903 195.018029,99.8104839 C191.521154,101.06371 187.934615,101.690323 184.258413,101.600806 C179.954567,101.690323 175.650721,100.974194 171.615865,99.6314516 C167.58101,98.1991935 163.815144,95.8717742 160.676923,92.9177419 L166.863702,85.2193548 C169.015625,87.6362903 171.705529,89.6056452 174.57476,91.0379032 C177.533654,92.3806452 180.761538,93.0967742 184.079087,93.0072581 C186.948317,93.0967742 189.817548,92.5596774 192.507452,91.575 C194.569712,90.7693548 196.362981,89.4266129 197.88726,87.7258065 C199.232212,86.2040323 200.128846,84.3241935 200.666827,82.4443548 C201.204808,80.475 201.473798,78.416129 201.473798,76.4467742 L201.473798,69.2854839 L201.204808,69.2854839 C199.501202,72.15 196.990625,74.3879032 194.031731,75.7306452 C191.072837,77.0733871 187.844952,77.7895161 184.527404,77.7895161 C181.120192,77.7895161 177.802644,77.1629032 174.664423,75.9096774 C171.705529,74.7459677 169.105288,72.9556452 166.863702,70.7177419 C164.622115,68.4798387 162.91851,65.7943548 161.752885,62.9298387 C160.497596,59.7967742 159.869952,56.4846774 159.959615,53.1725806 C159.959615,49.7709677 160.497596,46.458871 161.663221,43.2362903 C162.739183,40.1927419 164.442788,37.5072581 166.594712,35.0903226 C168.746635,32.7629032 171.436538,30.9725806 174.305769,29.7193548 C177.533654,28.3766129 180.940865,27.75 184.43774,27.75 C187.755288,27.75 190.983173,28.5556452 193.942067,29.8983871 C196.900962,31.1516129 199.411538,33.3 201.204808,35.8959677 L201.384135,35.8959677 L201.384135,29.0032258 L210.529808,29.0032258 L210.529808,76.8943548 L210.619471,76.8943548 Z" id="Shape"></path>
                        <path d="M224.427644,0.537096774 L233.573317,0.537096774 L233.573317,36.5225806 L233.752644,36.5225806 C235.007933,33.8370968 237.159856,31.5991935 239.760096,30.2564516 C242.808654,28.6451613 246.126202,27.8395161 249.623077,27.8395161 C251.864663,27.8395161 254.10625,28.1975806 256.258173,28.9137097 C258.320433,29.5403226 260.203365,30.7040323 261.817308,32.1362903 C263.520913,33.7475806 264.776202,35.7169355 265.672837,37.8653226 C266.659135,40.4612903 267.197115,43.3258065 267.107452,46.1008065 L267.107452,77.0733871 L257.961779,77.0733871 L257.961779,48.8758065 C258.051442,46.9064516 257.692788,45.0266129 257.065144,43.1467742 C256.527163,41.7145161 255.720192,40.3717742 254.644231,39.2975806 C253.657933,38.3129032 252.492308,37.5967742 251.147356,37.1491935 C249.802404,36.7016129 248.457452,36.5225806 247.022837,36.5225806 C245.229567,36.5225806 243.436298,36.791129 241.732692,37.4177419 C240.11875,38.0443548 238.594471,39.0290323 237.428846,40.2822581 C236.173558,41.7145161 235.18726,43.4153226 234.559615,45.2951613 C233.842308,47.6225806 233.483654,50.0395161 233.573317,52.5459677 L233.573317,77.3419355 L224.427644,77.3419355 L224.427644,0.537096774 Z" id="Shape"></path>
                        <path d="M306.828365,37.0596774 L293.7375,37.0596774 L293.7375,58.8120968 C293.7375,60.1548387 293.7375,61.4975806 293.827163,62.8403226 C293.916827,64.0935484 294.096154,65.2572581 294.634135,66.4209677 C295.082452,67.4056452 295.710096,68.3008065 296.696394,68.9274194 C297.862019,69.6435484 299.296635,70.0016129 300.73125,69.9120968 C301.896875,69.9120968 302.972837,69.8225806 304.048798,69.6435484 C305.12476,69.4645161 306.200721,69.1064516 307.187019,68.5693548 L307.187019,76.8943548 C305.842067,77.6104839 304.407452,77.9685484 302.972837,78.1475806 C301.627885,78.3266129 300.282933,78.5056452 298.937981,78.5056452 C296.158413,78.6846774 293.289183,78.1475806 290.778606,77.0733871 C288.985337,76.2677419 287.550721,74.925 286.47476,73.2241935 C285.578125,71.6129032 284.950481,69.8225806 284.860817,68.0322581 C284.68149,66.0629032 284.591827,64.1830645 284.591827,62.2137097 L284.591827,37.1491935 L274.011538,37.1491935 L274.011538,29.1822581 L284.591827,29.1822581 L284.591827,15.6653226 L293.7375,15.6653226 L293.7375,29.1822581 L306.828365,29.1822581 L306.828365,37.0596774 Z" id="Shape"></path>
                        <path d="M136.378125,15.2177419 C136.378125,11.5475806 139.337019,8.41451613 143.192548,8.50403226 C144.896154,8.50403226 146.59976,9.22016129 147.765385,10.4733871 C151.082933,13.7854839 150.096635,19.3354839 145.703125,21.3943548 C144.896154,21.7524194 143.999519,21.9314516 143.102885,21.9314516 C139.247356,21.8419355 136.467788,18.708871 136.378125,15.2177419 Z" id="Shape"></path>
                        <path d="M0.627644231,15.2177419 C0.627644231,11.5475806 3.58653846,8.41451613 7.44206731,8.50403226 C9.14567308,8.50403226 10.8492788,9.22016129 12.0149038,10.4733871 C15.3324519,13.7854839 14.3461538,19.3354839 9.95264423,21.3943548 C9.14567308,21.7524194 8.24903846,21.9314516 7.35240385,21.9314516 C3.58653846,21.8419355 0.717307692,18.708871 0.627644231,15.2177419 Z" id="Shape"></path>
                    </g>
                    <path d="M92.1740385,87.4572581 C81.2350962,87.4572581 77.7382212,80.3854839 77.3795673,76.7153226 L77.3795673,76.3572581 L77.3795673,38.4919355 L80.3384615,37.5072581 C81.1454327,37.2387097 88.4081731,34.2846774 88.4081731,25.3330645 C88.4081731,15.2177419 80.3384615,8.9516129 72.8963942,8.9516129 C63.4817308,8.9516129 57.5639423,17.1870968 57.5639423,24.7959677 C57.5639423,34.1056452 65.6336538,37.9548387 65.7233173,38.0443548 L68.2338942,39.2080645 L68.2338942,87.5467742 L43.2177885,87.5467742 L43.4867788,82.9814516 C43.5764423,81.0120968 43.2177885,75.1040323 40.5278846,72.2395161 C39.4519231,71.0758065 38.0173077,70.5387097 36.134375,70.5387097 C33.803125,70.5387097 32.0098558,71.1653226 30.8442308,72.5080645 C28.3336538,75.3725806 28.3336538,80.9225806 28.5129808,82.6233871 L29.140625,87.4572581 L6.81442308,87.4572581 L5.828125,84.5927419 C-1.52427885,63.2879032 -1.165625,46.7274194 6.99375,35.358871 C17.0360577,21.2153226 35.6860577,20.141129 40.4382212,20.141129 L40.4382212,28.7346774 C36.7620192,28.7346774 21.7882212,29.5403226 14.0771635,40.2822581 C7.98004808,48.7862903 7.71105769,61.6766129 13.0908654,78.7741935 L19.9949519,78.7741935 C20.2639423,75.1935484 21.2502404,70.3596774 24.478125,66.6895161 C27.3473558,63.4669355 31.3822115,61.766129 36.2240385,61.766129 C40.5278846,61.766129 44.2040865,63.2879032 46.8939904,66.1524194 C50.3908654,69.8225806 51.6461538,75.0145161 52.0944712,78.7741935 L59.6262019,78.7741935 L59.6262019,44.3104839 C55.8603365,41.7145161 49.0459135,35.5379032 49.0459135,24.7064516 C49.0459135,17.9032258 51.6461538,11.5475806 56.4879808,6.98225806 C60.9711538,2.68548387 66.9786058,0.268548387 72.9860577,0.268548387 C87.8701923,0.268548387 97.1055288,13.2483871 97.1055288,25.3330645 C97.1055288,36.4330645 90.2014423,41.9830645 86.0769231,44.3104839 L86.0769231,75.9991935 C86.25625,76.7153226 87.2425481,78.8637097 92.1740385,78.8637097 L92.1740385,87.4572581 Z" id="Shape" fill="#EA7924"></path>
                </g>
                <g id="Group" transform="translate(1.000000, 126.000000)">
                    <g fill="#FFFFFF" id="Shape">
                        <path d="M4.03485577,14.7 C4.57283654,14.7 5.11081731,14.6086957 5.55913462,14.5173913 L5.55913462,15.2478261 C5.11081731,15.4304348 4.57283654,15.4304348 4.03485577,15.4304348 C3.13822115,15.4304348 2.51057692,15.1565217 2.06225962,14.7 C1.61394231,14.2434783 1.43461538,13.4217391 1.43461538,12.4173913 L1.43461538,5.84347826 L0,5.84347826 L0,5.47826087 L1.52427885,5.02173913 L1.97259615,2.73913043 L2.42091346,2.73913043 L2.42091346,5.20434783 L5.37980769,5.20434783 L5.37980769,6.02608696 L2.42091346,6.02608696 L2.42091346,12.5086957 C2.42091346,13.3304348 2.60024038,13.8782609 2.86923077,14.2434783 C3.13822115,14.6086957 3.496875,14.7 4.03485577,14.7 Z"></path>
                        <path d="M14.7048077,15.3391304 L14.7048077,8.76521739 C14.7048077,7.76086957 14.5254808,7.03043478 14.0771635,6.57391304 C13.6288462,6.1173913 13.0012019,5.84347826 12.1045673,5.84347826 C10.9389423,5.84347826 10.0423077,6.1173913 9.50432692,6.75652174 C8.96634615,7.39565217 8.69735577,8.4 8.69735577,9.76956522 L8.69735577,15.4304348 L7.80072115,15.4304348 L7.80072115,0.82173913 L8.69735577,0.82173913 L8.69735577,5.47826087 L8.60769231,6.75652174 L8.69735577,6.75652174 C9.05600962,6.1173913 9.50432692,5.66086957 10.1319712,5.38695652 C10.7596154,5.11304348 11.3872596,4.93043478 12.2838942,4.93043478 C14.5254808,4.93043478 15.6911058,6.20869565 15.6911058,8.67391304 L15.6911058,15.3391304 L14.7048077,15.3391304 Z"></path>
                        <path d="M22.8641827,15.5217391 C21.4295673,15.5217391 20.2639423,15.0652174 19.4569712,14.1521739 C18.65,13.2391304 18.2016827,11.9608696 18.2016827,10.3173913 C18.2016827,8.67391304 18.5603365,7.39565217 19.3673077,6.39130435 C20.1742788,5.38695652 21.2502404,4.93043478 22.5055288,4.93043478 C23.6711538,4.93043478 24.5677885,5.38695652 25.2850962,6.20869565 C26.0024038,7.03043478 26.2713942,8.2173913 26.2713942,9.58695652 L26.2713942,10.3173913 L19.0983173,10.3173913 C19.0983173,11.6869565 19.4569712,12.7826087 20.0846154,13.5130435 C20.7122596,14.2434783 21.6088942,14.6086957 22.7745192,14.6086957 C23.3125,14.6086957 23.8504808,14.6086957 24.2987981,14.5173913 C24.7471154,14.426087 25.2850962,14.2434783 25.9127404,13.9695652 L25.9127404,14.7913043 C25.3747596,15.0652174 24.8367788,15.2478261 24.3884615,15.3391304 C24.0298077,15.5217391 23.4918269,15.5217391 22.8641827,15.5217391 Z M22.5951923,5.84347826 C21.6088942,5.84347826 20.8915865,6.20869565 20.2639423,6.84782609 C19.7259615,7.48695652 19.3673077,8.4 19.2776442,9.67826087 L25.4644231,9.67826087 C25.4644231,8.49130435 25.1954327,7.57826087 24.7471154,6.93913043 C24.2091346,6.1173913 23.4918269,5.84347826 22.5951923,5.84347826 Z"></path>
                    </g>
                    <g transform="translate(34.072115, 0.000000)" fill="#EA7924" id="Shape">
                        <path d="M5.11081731,4.83913043 C6.36610577,4.83913043 7.35240385,5.29565217 8.06971154,6.20869565 C8.78701923,7.12173913 9.14567308,8.49130435 9.14567308,10.1347826 C9.14567308,11.8695652 8.78701923,13.1478261 8.06971154,14.0608696 C7.35240385,14.973913 6.36610577,15.5217391 5.11081731,15.5217391 C3.85552885,15.5217391 2.86923077,15.0652174 2.15192308,14.1521739 L1.97259615,14.1521739 L1.61394231,15.3391304 L0,15.3391304 L0,0.730434783 L2.15192308,0.730434783 L2.15192308,4.2 C2.15192308,4.47391304 2.15192308,4.83913043 2.15192308,5.38695652 C2.15192308,5.93478261 2.15192308,6.20869565 2.06225962,6.39130435 L2.15192308,6.39130435 C2.68990385,5.29565217 3.76586538,4.83913043 5.11081731,4.83913043 Z M4.48317308,6.57391304 C3.58653846,6.57391304 2.95889423,6.84782609 2.60024038,7.39565217 C2.24158654,7.94347826 2.06225962,8.76521739 1.97259615,10.0434783 L1.97259615,10.226087 C1.97259615,11.5043478 2.15192308,12.4173913 2.60024038,12.9652174 C2.95889423,13.5130435 3.67620192,13.7869565 4.48317308,13.7869565 C5.29014423,13.7869565 5.828125,13.5130435 6.18677885,12.873913 C6.54543269,12.2347826 6.81442308,11.3217391 6.81442308,10.226087 C6.90408654,7.76086957 6.09711538,6.57391304 4.48317308,6.57391304 Z"></path>
                        <path d="M16.0497596,15.5217391 C14.4358173,15.5217391 13.2701923,15.0652174 12.3735577,14.1521739 C11.4769231,13.2391304 11.0286058,11.9608696 11.0286058,10.3173913 C11.0286058,8.5826087 11.4769231,7.30434783 12.2838942,6.3 C13.0908654,5.29565217 14.2564904,4.83913043 15.6911058,4.83913043 C17.0360577,4.83913043 18.1120192,5.29565217 18.8293269,6.1173913 C19.5466346,6.93913043 19.9949519,8.12608696 19.9949519,9.58695652 L19.9949519,10.773913 L13.1805288,10.773913 C13.1805288,11.7782609 13.4495192,12.5086957 13.9875,13.0565217 C14.5254808,13.6043478 15.2427885,13.8782609 16.1394231,13.8782609 C16.7670673,13.8782609 17.3050481,13.7869565 17.8430288,13.6956522 C18.3810096,13.6043478 18.9189904,13.4217391 19.5466346,13.1478261 L19.5466346,14.973913 C19.0086538,15.2478261 18.4706731,15.4304348 17.9326923,15.5217391 C17.3947115,15.5217391 16.7670673,15.5217391 16.0497596,15.5217391 Z M15.6911058,6.4826087 C14.9737981,6.4826087 14.4358173,6.66521739 14.0771635,7.12173913 C13.6288462,7.57826087 13.4495192,8.2173913 13.3598558,9.03913043 L17.9326923,9.03913043 C17.9326923,8.2173913 17.7533654,7.57826087 17.3050481,7.12173913 C16.8567308,6.66521739 16.31875,6.4826087 15.6911058,6.4826087 Z"></path>
                        <path d="M29.3199519,12.4173913 C29.3199519,13.4217391 28.9612981,14.2434783 28.2439904,14.7 C27.5266827,15.2478261 26.4507212,15.5217391 25.1057692,15.5217391 C23.7608173,15.5217391 22.6848558,15.3391304 21.8778846,14.8826087 L21.8778846,12.9652174 C23.0435096,13.5130435 24.2091346,13.7869565 25.1954327,13.7869565 C26.5403846,13.7869565 27.1680288,13.4217391 27.1680288,12.6 C27.1680288,12.326087 27.0783654,12.1434783 26.9887019,11.9608696 C26.8990385,11.7782609 26.6300481,11.5956522 26.2713942,11.4130435 C25.9127404,11.2304348 25.4644231,11.0478261 24.8367788,10.773913 C23.6711538,10.3173913 22.8641827,9.86086957 22.4158654,9.40434783 C21.9675481,8.94782609 21.7882212,8.30869565 21.7882212,7.57826087 C21.7882212,6.66521739 22.146875,6.02608696 22.8641827,5.47826087 C23.5814904,5.02173913 24.478125,4.74782609 25.7334135,4.74782609 C26.8990385,4.74782609 28.0646635,5.02173913 29.140625,5.47826087 L28.4233173,7.12173913 C27.3473558,6.66521739 26.3610577,6.39130435 25.64375,6.39130435 C24.478125,6.39130435 23.9401442,6.75652174 23.9401442,7.39565217 C23.9401442,7.76086957 24.1194712,8.03478261 24.3884615,8.2173913 C24.6574519,8.4 25.3747596,8.76521739 26.3610577,9.13043478 C27.1680288,9.49565217 27.7956731,9.76956522 28.1543269,10.0434783 C28.5129808,10.3173913 28.7819712,10.5913043 28.9612981,10.9565217 C29.2302885,11.5043478 29.3199519,11.8695652 29.3199519,12.4173913 Z"></path>
                        <path d="M35.4170673,13.7869565 C35.9550481,13.7869565 36.4930288,13.6956522 37.0310096,13.5130435 L37.0310096,15.1565217 C36.7620192,15.2478261 36.4930288,15.3391304 36.134375,15.4304348 C35.7757212,15.5217391 35.3274038,15.5217391 34.96875,15.5217391 C32.9064904,15.5217391 31.9201923,14.426087 31.9201923,12.2347826 L31.9201923,6.66521739 L30.5752404,6.66521739 L30.5752404,5.66086957 L32.0995192,4.83913043 L32.8168269,2.64782609 L34.1617788,2.64782609 L34.1617788,4.93043478 L37.0310096,4.93043478 L37.0310096,6.57391304 L34.1617788,6.57391304 L34.1617788,12.1434783 C34.1617788,12.6913043 34.2514423,13.0565217 34.5204327,13.3304348 C34.6100962,13.6043478 34.96875,13.7869565 35.4170673,13.7869565 Z"></path>
                    </g>
                    <g transform="translate(76.213942, 0.000000)" fill="#FFFFFF" id="Shape">
                        <path d="M9.86298077,15.3391304 L7.71105769,8.49130435 C7.53173077,8.03478261 7.35240385,7.39565217 7.17307692,6.4826087 L7.08341346,6.4826087 L6.90408654,7.21304348 L6.45576923,8.5826087 L4.21418269,15.3391304 L3.31754808,15.3391304 L0.448317308,5.20434783 L1.43461538,5.20434783 L3.04855769,11.1391304 C3.40721154,12.6 3.67620192,13.6956522 3.76586538,14.3347826 L3.85552885,14.3347826 C4.21418269,12.873913 4.48317308,11.8695652 4.6625,11.4130435 L6.72475962,5.20434783 L7.53173077,5.20434783 L9.50432692,11.4130435 C9.95264423,12.873913 10.2216346,13.8782609 10.3112981,14.3347826 L10.4009615,14.3347826 C10.490625,13.9695652 10.6699519,12.873913 11.1182692,11.0478261 L12.6425481,5.20434783 L13.5391827,5.20434783 L10.8492788,15.3391304 L9.86298077,15.3391304 Z"></path>
                        <path d="M21.6088942,15.3391304 L21.3399038,13.6956522 L21.2502404,13.6956522 C20.7122596,14.3347826 20.2639423,14.7913043 19.7259615,15.0652174 C19.1879808,15.3391304 18.5603365,15.4304348 17.8430288,15.4304348 C16.8567308,15.4304348 16.1394231,15.1565217 15.5117788,14.7 C14.8841346,14.2434783 14.7048077,13.5130435 14.7048077,12.6 C14.7048077,11.5956522 15.153125,10.8652174 15.9600962,10.3173913 C16.7670673,9.76956522 17.9326923,9.49565217 19.4569712,9.40434783 L21.3399038,9.31304348 L21.3399038,8.67391304 C21.3399038,7.66956522 21.1605769,6.93913043 20.8019231,6.4826087 C20.4432692,6.02608696 19.815625,5.75217391 18.9189904,5.75217391 C18.0223558,5.75217391 17.0360577,6.02608696 16.0497596,6.57391304 L15.6911058,5.75217391 C16.7670673,5.20434783 17.8430288,4.93043478 18.9189904,4.93043478 C19.9949519,4.93043478 20.8019231,5.20434783 21.3399038,5.84347826 C21.8778846,6.39130435 22.146875,7.30434783 22.146875,8.5826087 L22.146875,15.3391304 L21.6088942,15.3391304 Z M17.9326923,14.7 C19.0086538,14.7 19.815625,14.426087 20.4432692,13.7869565 C21.0709135,13.1478261 21.3399038,12.326087 21.3399038,11.2304348 L21.3399038,10.226087 L19.6362981,10.3173913 C18.2016827,10.4086957 17.2153846,10.5913043 16.6774038,10.9565217 C16.0497596,11.3217391 15.7807692,11.9608696 15.7807692,12.6913043 C15.7807692,13.3304348 15.9600962,13.7869565 16.31875,14.1521739 C16.6774038,14.5173913 17.2153846,14.7 17.9326923,14.7 Z"></path>
                        <path d="M23.7608173,5.20434783 L24.6574519,5.20434783 L26.809375,10.9565217 C27.4370192,12.6913043 27.8853365,13.8782609 28.0646635,14.5173913 L28.1543269,14.5173913 C28.4233173,13.6956522 28.8716346,12.5086957 29.4096154,10.9565217 L31.5615385,5.29565217 L32.4581731,5.29565217 L27.975,17.1652174 C27.6163462,18.1695652 27.3473558,18.8086957 27.0783654,19.0826087 C26.809375,19.3565217 26.5403846,19.6304348 26.1817308,19.8130435 C25.8230769,19.9956522 25.4644231,20.0869565 25.0161058,20.0869565 C24.6574519,20.0869565 24.2987981,19.9956522 23.8504808,19.9043478 L23.8504808,19.0826087 C24.2091346,19.173913 24.5677885,19.2652174 25.0161058,19.2652174 C25.2850962,19.2652174 25.64375,19.173913 25.8230769,19.0826087 C26.0024038,18.9913043 26.2713942,18.7173913 26.4507212,18.3521739 C26.6300481,18.0782609 26.8990385,17.5304348 27.0783654,16.8913043 C27.3473558,16.2521739 27.5266827,15.7956522 27.5266827,15.5217391 L23.7608173,5.20434783 Z"></path>
                        <path d="M41.6935096,14.7 C42.2314904,14.7 42.7694712,14.6086957 43.2177885,14.5173913 L43.2177885,15.2478261 C42.7694712,15.4304348 42.2314904,15.4304348 41.6935096,15.4304348 C40.796875,15.4304348 40.1692308,15.1565217 39.7209135,14.7 C39.2725962,14.2434783 39.0932692,13.4217391 39.0932692,12.4173913 L39.0932692,5.84347826 L37.5689904,5.84347826 L37.5689904,5.47826087 L39.0932692,5.02173913 L39.5415865,2.73913043 L39.9899038,2.73913043 L39.9899038,5.20434783 L42.9487981,5.20434783 L42.9487981,6.02608696 L39.9899038,6.02608696 L39.9899038,12.5086957 C39.9899038,13.3304348 40.1692308,13.8782609 40.4382212,14.2434783 C40.7072115,14.6086957 41.0658654,14.7 41.6935096,14.7 Z"></path>
                        <path d="M53.61875,10.226087 C53.61875,11.8695652 53.2600962,13.1478261 52.453125,14.1521739 C51.6461538,15.0652174 50.5701923,15.5217391 49.1355769,15.5217391 C48.2389423,15.5217391 47.5216346,15.3391304 46.8043269,14.8826087 C46.1766827,14.426087 45.6387019,13.8782609 45.2800481,13.0565217 C44.9213942,12.2347826 44.7420673,11.3217391 44.7420673,10.226087 C44.7420673,8.5826087 45.1007212,7.30434783 45.9076923,6.3 C46.7146635,5.38695652 47.790625,4.93043478 49.1355769,4.93043478 C50.4805288,4.93043478 51.5564904,5.38695652 52.3634615,6.3 C53.1704327,7.30434783 53.61875,8.5826087 53.61875,10.226087 Z M45.7283654,10.226087 C45.7283654,11.5956522 45.9973558,12.6913043 46.625,13.5130435 C47.2526442,14.3347826 48.0596154,14.7 49.2252404,14.7 C50.3908654,14.7 51.1978365,14.3347826 51.8254808,13.5130435 C52.453125,12.6913043 52.7221154,11.5956522 52.7221154,10.226087 C52.7221154,8.85652174 52.453125,7.76086957 51.8254808,6.93913043 C51.1978365,6.20869565 50.3908654,5.75217391 49.2252404,5.75217391 C48.0596154,5.75217391 47.2526442,6.1173913 46.7146635,6.93913043 C45.9973558,7.76086957 45.7283654,8.85652174 45.7283654,10.226087 Z"></path>
                        <path d="M69.0408654,5.20434783 L69.0408654,5.84347826 L66.9786058,5.93478261 C67.5165865,6.66521739 67.7855769,7.39565217 67.7855769,8.2173913 C67.7855769,9.22173913 67.4269231,9.95217391 66.7992788,10.5913043 C66.1716346,11.2304348 65.275,11.5043478 64.1990385,11.5043478 C63.7507212,11.5043478 63.3920673,11.5043478 63.2127404,11.4130435 C62.8540865,11.5956522 62.5850962,11.8695652 62.4057692,12.0521739 C62.2264423,12.2347826 62.1367788,12.6 62.1367788,12.873913 C62.1367788,13.2391304 62.2264423,13.4217391 62.4954327,13.6043478 C62.7644231,13.7869565 63.1230769,13.7869565 63.7507212,13.7869565 L65.4543269,13.7869565 C66.5302885,13.7869565 67.3372596,13.9695652 67.9649038,14.426087 C68.5028846,14.8826087 68.8615385,15.5217391 68.8615385,16.4347826 C68.8615385,17.5304348 68.4132212,18.3521739 67.60625,18.9 C66.7096154,19.4478261 65.5439904,19.8130435 63.9300481,19.8130435 C62.6747596,19.8130435 61.6884615,19.5391304 60.9711538,19.0826087 C60.2538462,18.626087 59.8951923,17.8956522 59.8951923,16.9826087 C59.8951923,16.2521739 60.0745192,15.7043478 60.5228365,15.2478261 C60.9711538,14.7913043 61.5091346,14.426087 62.2264423,14.3347826 C61.9574519,14.2434783 61.6884615,14.0608696 61.5091346,13.7869565 C61.3298077,13.5130435 61.2401442,13.2391304 61.2401442,12.9652174 C61.2401442,12.326087 61.6884615,11.6869565 62.4954327,11.1391304 C61.9574519,10.8652174 61.4194712,10.5 61.1504808,9.95217391 C60.7918269,9.40434783 60.7021635,8.85652174 60.7021635,8.12608696 C60.7021635,7.12173913 61.0608173,6.3 61.6884615,5.66086957 C62.3161058,5.02173913 63.2127404,4.74782609 64.2887019,4.74782609 C64.9163462,4.74782609 65.4543269,4.83913043 65.8129808,4.93043478 L69.0408654,4.93043478 L69.0408654,5.20434783 Z M60.9711538,17.073913 C60.9711538,18.4434783 61.9574519,19.173913 64.0197115,19.173913 C66.6199519,19.173913 67.9649038,18.3521739 67.9649038,16.6173913 C67.9649038,15.9782609 67.7855769,15.5217391 67.3372596,15.2478261 C66.8889423,14.973913 66.2612981,14.7913043 65.3646635,14.7913043 L63.6610577,14.7913043 C61.8677885,14.8826087 60.9711538,15.6130435 60.9711538,17.073913 Z M61.6884615,8.30869565 C61.6884615,9.13043478 61.9574519,9.67826087 62.4057692,10.1347826 C62.8540865,10.5913043 63.4817308,10.773913 64.2887019,10.773913 C65.0956731,10.773913 65.7233173,10.5913043 66.1716346,10.1347826 C66.6199519,9.67826087 66.7992788,9.03913043 66.7992788,8.2173913 C66.7992788,7.30434783 66.5302885,6.66521739 66.0819712,6.3 C65.6336538,5.84347826 65.0060096,5.66086957 64.1990385,5.66086957 C63.3920673,5.66086957 62.7644231,5.93478261 62.3161058,6.39130435 C61.9574519,6.84782609 61.6884615,7.48695652 61.6884615,8.30869565 Z"></path>
                        <path d="M75.1379808,15.5217391 C73.7033654,15.5217391 72.5377404,15.0652174 71.7307692,14.1521739 C70.9237981,13.2391304 70.4754808,11.9608696 70.4754808,10.3173913 C70.4754808,8.67391304 70.8341346,7.39565217 71.6411058,6.39130435 C72.4480769,5.38695652 73.5240385,4.93043478 74.7793269,4.93043478 C75.9449519,4.93043478 76.8415865,5.38695652 77.5588942,6.20869565 C78.2762019,7.03043478 78.5451923,8.2173913 78.5451923,9.58695652 L78.5451923,10.3173913 L71.3721154,10.3173913 C71.3721154,11.6869565 71.7307692,12.7826087 72.3584135,13.5130435 C72.9860577,14.2434783 73.8826923,14.6086957 75.0483173,14.6086957 C75.5862981,14.6086957 76.1242788,14.6086957 76.5725962,14.5173913 C77.0209135,14.426087 77.5588942,14.2434783 78.1865385,13.9695652 L78.1865385,14.7913043 C77.6485577,15.0652174 77.1105769,15.2478261 76.6622596,15.3391304 C76.2139423,15.5217391 75.6759615,15.5217391 75.1379808,15.5217391 Z M74.8689904,5.84347826 C73.8826923,5.84347826 73.1653846,6.20869565 72.5377404,6.84782609 C71.9997596,7.48695652 71.6411058,8.4 71.5514423,9.67826087 L77.7382212,9.67826087 C77.7382212,8.49130435 77.4692308,7.57826087 77.0209135,6.93913043 C76.4829327,6.1173913 75.765625,5.84347826 74.8689904,5.84347826 Z"></path>
                        <path d="M84.1043269,14.7 C84.6423077,14.7 85.1802885,14.6086957 85.6286058,14.5173913 L85.6286058,15.2478261 C85.1802885,15.4304348 84.6423077,15.4304348 84.1043269,15.4304348 C83.2076923,15.4304348 82.5800481,15.1565217 82.1317308,14.7 C81.6834135,14.2434783 81.5040865,13.4217391 81.5040865,12.4173913 L81.5040865,5.84347826 L79.9798077,5.84347826 L79.9798077,5.47826087 L81.5040865,5.02173913 L81.9524038,2.73913043 L82.4007212,2.73913043 L82.4007212,5.20434783 L85.3596154,5.20434783 L85.3596154,6.02608696 L82.4007212,6.02608696 L82.4007212,12.5086957 C82.4007212,13.3304348 82.4903846,13.8782609 82.8490385,14.2434783 C83.0283654,14.5173913 83.4766827,14.7 84.1043269,14.7 Z"></path>
                        <path d="M95.2225962,14.7 C95.7605769,14.7 96.2985577,14.6086957 96.746875,14.5173913 L96.746875,15.2478261 C96.2985577,15.4304348 95.7605769,15.4304348 95.2225962,15.4304348 C94.3259615,15.4304348 93.6983173,15.1565217 93.25,14.7 C92.8016827,14.2434783 92.6223558,13.4217391 92.6223558,12.4173913 L92.6223558,5.84347826 L91.0980769,5.84347826 L91.0980769,5.47826087 L92.6223558,5.02173913 L93.0706731,2.73913043 L93.5189904,2.73913043 L93.5189904,5.20434783 L96.4778846,5.20434783 L96.4778846,6.02608696 L93.5189904,6.02608696 L93.5189904,12.5086957 C93.5189904,13.3304348 93.6086538,13.8782609 93.9673077,14.2434783 C94.2362981,14.5173913 94.6846154,14.7 95.2225962,14.7 Z"></path>
                        <path d="M105.892548,15.3391304 L105.892548,8.76521739 C105.892548,7.76086957 105.713221,7.03043478 105.264904,6.57391304 C104.816587,6.1173913 104.188942,5.84347826 103.292308,5.84347826 C102.126683,5.84347826 101.230048,6.1173913 100.692067,6.75652174 C100.154087,7.39565217 99.8850962,8.4 99.8850962,9.76956522 L99.8850962,15.4304348 L98.9884615,15.4304348 L98.9884615,0.82173913 L99.8850962,0.82173913 L99.8850962,5.47826087 L99.7954327,6.75652174 L99.8850962,6.75652174 C100.24375,6.1173913 100.692067,5.66086957 101.319712,5.38695652 C101.857692,5.11304348 102.575,4.93043478 103.471635,4.93043478 C105.713221,4.93043478 106.878846,6.20869565 106.878846,8.67391304 L106.878846,15.3391304 L105.892548,15.3391304 Z"></path>
                        <path d="M114.051923,15.5217391 C112.617308,15.5217391 111.451683,15.0652174 110.644712,14.1521739 C109.83774,13.2391304 109.389423,11.9608696 109.389423,10.3173913 C109.389423,8.67391304 109.748077,7.39565217 110.555048,6.39130435 C111.362019,5.38695652 112.437981,4.93043478 113.693269,4.93043478 C114.858894,4.93043478 115.755529,5.38695652 116.472837,6.20869565 C117.190144,7.03043478 117.459135,8.2173913 117.459135,9.58695652 L117.459135,10.3173913 L110.286058,10.3173913 C110.286058,11.6869565 110.644712,12.7826087 111.272356,13.5130435 C111.9,14.2434783 112.796635,14.6086957 113.96226,14.6086957 C114.50024,14.6086957 115.038221,14.6086957 115.486538,14.5173913 C115.934856,14.426087 116.472837,14.2434783 117.100481,13.9695652 L117.100481,14.7913043 C116.5625,15.0652174 116.024519,15.2478261 115.576202,15.3391304 C115.217548,15.5217391 114.679567,15.5217391 114.051923,15.5217391 Z M113.782933,5.84347826 C112.796635,5.84347826 112.079327,6.20869565 111.451683,6.84782609 C110.913702,7.48695652 110.555048,8.4 110.465385,9.67826087 L116.652163,9.67826087 C116.652163,8.49130435 116.383173,7.57826087 115.934856,6.93913043 C115.396875,6.1173913 114.679567,5.84347826 113.782933,5.84347826 Z"></path>
                        <path d="M137.723077,15.3391304 L137.723077,8.67391304 C137.723077,7.66956522 137.54375,6.93913043 137.185096,6.4826087 C136.826442,6.02608696 136.198798,5.84347826 135.48149,5.84347826 C134.495192,5.84347826 133.688221,6.1173913 133.239904,6.66521739 C132.791587,7.21304348 132.522596,8.12608696 132.522596,9.40434783 L132.522596,15.3391304 L131.625962,15.3391304 L131.625962,8.4 C131.625962,6.66521739 130.81899,5.84347826 129.294712,5.84347826 C128.21875,5.84347826 127.501442,6.1173913 126.963462,6.75652174 C126.515144,7.39565217 126.246154,8.4 126.246154,9.76956522 L126.246154,15.4304348 L125.349519,15.4304348 L125.349519,5.29565217 L126.066827,5.29565217 L126.246154,6.66521739 L126.335817,6.66521739 C126.604808,6.1173913 126.963462,5.75217391 127.501442,5.47826087 C128.039423,5.20434783 128.577404,5.02173913 129.205048,5.02173913 C130.81899,5.02173913 131.805288,5.66086957 132.253606,6.84782609 C132.61226,6.3 132.970913,5.84347826 133.598558,5.47826087 C134.136538,5.20434783 134.764183,5.02173913 135.48149,5.02173913 C136.557452,5.02173913 137.364423,5.29565217 137.902404,5.93478261 C138.440385,6.57391304 138.709375,7.48695652 138.709375,8.76521739 L138.709375,15.4304348 L137.723077,15.3391304 Z"></path>
                        <path d="M150.186298,10.226087 C150.186298,11.8695652 149.827644,13.1478261 149.020673,14.1521739 C148.213702,15.0652174 147.13774,15.5217391 145.703125,15.5217391 C144.80649,15.5217391 144.089183,15.3391304 143.371875,14.8826087 C142.744231,14.426087 142.20625,13.8782609 141.847596,13.0565217 C141.488942,12.2347826 141.309615,11.3217391 141.309615,10.226087 C141.309615,8.5826087 141.668269,7.30434783 142.47524,6.3 C143.282212,5.38695652 144.358173,4.93043478 145.703125,4.93043478 C147.048077,4.93043478 148.124038,5.38695652 148.93101,6.3 C149.737981,7.30434783 150.186298,8.5826087 150.186298,10.226087 Z M142.295913,10.226087 C142.295913,11.5956522 142.564904,12.6913043 143.192548,13.5130435 C143.820192,14.3347826 144.627163,14.7 145.792788,14.7 C146.958413,14.7 147.765385,14.3347826 148.393029,13.5130435 C149.020673,12.6913043 149.289663,11.5956522 149.289663,10.226087 C149.289663,8.85652174 149.020673,7.76086957 148.393029,6.93913043 C147.765385,6.20869565 146.958413,5.75217391 145.792788,5.75217391 C144.627163,5.75217391 143.820192,6.1173913 143.282212,6.93913043 C142.564904,7.76086957 142.295913,8.85652174 142.295913,10.226087 Z"></path>
                        <path d="M159.152644,12.6913043 C159.152644,13.6043478 158.79399,14.3347826 158.166346,14.7913043 C157.449038,15.2478261 156.552404,15.5217391 155.297115,15.5217391 C153.952163,15.5217391 152.876202,15.3391304 152.158894,14.8826087 L152.158894,13.8782609 C153.145192,14.426087 154.221154,14.6086957 155.297115,14.6086957 C156.283413,14.6086957 157.000721,14.426087 157.538702,14.1521739 C158.076683,13.7869565 158.345673,13.3304348 158.345673,12.7826087 C158.345673,12.2347826 158.166346,11.8695652 157.718029,11.5043478 C157.269712,11.1391304 156.642067,10.773913 155.745433,10.5 C154.759135,10.1347826 154.041827,9.76956522 153.683173,9.58695652 C153.234856,9.31304348 152.965865,9.03913043 152.786538,8.67391304 C152.607212,8.30869565 152.517548,7.94347826 152.517548,7.48695652 C152.517548,6.75652174 152.786538,6.1173913 153.503846,5.66086957 C154.13149,5.20434783 155.028125,5.02173913 156.104087,5.02173913 C157.180048,5.02173913 158.166346,5.20434783 159.152644,5.66086957 L158.79399,6.4826087 C157.807692,6.02608696 156.911058,5.84347826 156.104087,5.84347826 C155.297115,5.84347826 154.669471,6.02608696 154.13149,6.3 C153.59351,6.57391304 153.414183,6.93913043 153.414183,7.48695652 C153.414183,8.03478261 153.59351,8.4 153.952163,8.76521739 C154.310817,9.03913043 155.028125,9.40434783 156.104087,9.86086957 C157.000721,10.226087 157.628365,10.5 158.076683,10.773913 C158.525,11.0478261 158.79399,11.3217391 158.973317,11.6869565 C158.973317,11.8695652 159.152644,12.2347826 159.152644,12.6913043 Z"></path>
                        <path d="M164.353125,14.7 C164.891106,14.7 165.429087,14.6086957 165.877404,14.5173913 L165.877404,15.2478261 C165.429087,15.4304348 164.891106,15.4304348 164.353125,15.4304348 C163.45649,15.4304348 162.828846,15.1565217 162.380529,14.7 C161.932212,14.2434783 161.752885,13.4217391 161.752885,12.4173913 L161.752885,5.84347826 L160.228606,5.84347826 L160.228606,5.47826087 L161.752885,5.02173913 L162.201202,2.73913043 L162.649519,2.73913043 L162.649519,5.20434783 L165.608413,5.20434783 L165.608413,6.02608696 L162.649519,6.02608696 L162.649519,12.5086957 C162.649519,13.3304348 162.739183,13.8782609 163.097837,14.2434783 C163.366827,14.5173913 163.725481,14.7 164.353125,14.7 Z"></path>
                        <path d="M181.120192,10.226087 C181.120192,11.8695652 180.761538,13.1478261 179.954567,14.1521739 C179.147596,15.0652174 178.071635,15.5217391 176.637019,15.5217391 C175.740385,15.5217391 175.023077,15.3391304 174.305769,14.8826087 C173.678125,14.426087 173.140144,13.8782609 172.78149,13.0565217 C172.422837,12.2347826 172.24351,11.3217391 172.24351,10.226087 C172.24351,8.5826087 172.602163,7.30434783 173.409135,6.3 C174.216106,5.38695652 175.292067,4.93043478 176.637019,4.93043478 C177.981971,4.93043478 179.057933,5.38695652 179.864904,6.3 C180.761538,7.30434783 181.120192,8.5826087 181.120192,10.226087 Z M173.229808,10.226087 C173.229808,11.5956522 173.498798,12.6913043 174.126442,13.5130435 C174.754087,14.3347826 175.561058,14.7 176.726683,14.7 C177.892308,14.7 178.699279,14.3347826 179.326923,13.5130435 C179.954567,12.6913043 180.223558,11.5956522 180.223558,10.226087 C180.223558,8.85652174 179.954567,7.76086957 179.326923,6.93913043 C178.699279,6.20869565 177.892308,5.75217391 176.726683,5.75217391 C175.561058,5.75217391 174.754087,6.1173913 174.216106,6.93913043 C173.588462,7.76086957 173.229808,8.85652174 173.229808,10.226087 Z"></path>
                        <path d="M184.706731,5.20434783 L184.706731,11.7782609 C184.706731,12.7826087 184.886058,13.5130435 185.334375,13.9695652 C185.782692,14.426087 186.410337,14.7 187.306971,14.7 C188.472596,14.7 189.369231,14.426087 189.907212,13.7869565 C190.445192,13.1478261 190.714183,12.1434783 190.714183,10.773913 L190.714183,5.11304348 L191.610817,5.11304348 L191.610817,15.2478261 L190.803846,15.2478261 L190.624519,13.8782609 L190.534856,13.8782609 C189.907212,14.973913 188.741587,15.4304348 187.037981,15.4304348 C184.796394,15.4304348 183.630769,14.1521739 183.630769,11.6869565 L183.630769,5.02173913 L184.706731,5.02173913 L184.706731,5.20434783 Z"></path>
                        <path d="M197.618269,14.7 C198.15625,14.7 198.694231,14.6086957 199.142548,14.5173913 L199.142548,15.2478261 C198.694231,15.4304348 198.15625,15.4304348 197.618269,15.4304348 C196.721635,15.4304348 196.09399,15.1565217 195.645673,14.7 C195.197356,14.2434783 195.018029,13.4217391 195.018029,12.4173913 L195.018029,5.84347826 L193.49375,5.84347826 L193.49375,5.47826087 L195.018029,5.02173913 L195.466346,2.73913043 L195.914663,2.73913043 L195.914663,5.20434783 L198.873558,5.20434783 L198.873558,6.02608696 L195.914663,6.02608696 L195.914663,12.5086957 C195.914663,13.3304348 196.004327,13.8782609 196.362981,14.2434783 C196.631971,14.5173913 197.080288,14.7 197.618269,14.7 Z"></path>
                        <path d="M214.475,10.226087 C214.475,11.8695652 214.116346,13.1478261 213.309375,14.1521739 C212.502404,15.0652174 211.426442,15.5217391 209.991827,15.5217391 C209.095192,15.5217391 208.377885,15.3391304 207.660577,14.8826087 C207.032933,14.426087 206.494952,13.8782609 206.136298,13.0565217 C205.777644,12.2347826 205.598317,11.3217391 205.598317,10.226087 C205.598317,8.5826087 205.956971,7.30434783 206.763942,6.3 C207.570913,5.38695652 208.646875,4.93043478 209.991827,4.93043478 C211.336779,4.93043478 212.41274,5.38695652 213.219712,6.3 C214.116346,7.30434783 214.475,8.5826087 214.475,10.226087 Z M206.584615,10.226087 C206.584615,11.5956522 206.853606,12.6913043 207.48125,13.5130435 C208.108894,14.3347826 208.915865,14.7 210.08149,14.7 C211.247115,14.7 212.054087,14.3347826 212.681731,13.5130435 C213.309375,12.6913043 213.578365,11.5956522 213.578365,10.226087 C213.578365,8.85652174 213.309375,7.76086957 212.681731,6.93913043 C212.054087,6.20869565 211.247115,5.75217391 210.08149,5.75217391 C208.915865,5.75217391 208.108894,6.1173913 207.570913,6.93913043 C206.853606,7.76086957 206.584615,8.85652174 206.584615,10.226087 Z"></path>
                        <path d="M220.930769,5.93478261 L218.599519,5.93478261 L218.599519,15.3391304 L217.702885,15.3391304 L217.702885,5.93478261 L215.819952,5.93478261 L215.819952,5.47826087 L217.702885,5.11304348 L217.702885,4.29130435 C217.702885,3.01304348 217.971875,2.1 218.420192,1.55217391 C218.86851,1.00434783 219.585817,0.639130435 220.661779,0.639130435 C221.19976,0.639130435 221.73774,0.730434783 222.275721,0.913043478 L222.096394,1.73478261 C221.648077,1.55217391 221.110096,1.46086957 220.661779,1.46086957 C219.944471,1.46086957 219.40649,1.64347826 219.1375,2.1 C218.86851,2.55652174 218.689183,3.19565217 218.689183,4.2 L218.689183,5.11304348 L221.020433,5.11304348 L220.930769,5.93478261 Z"></path>
                    </g>
                    <g transform="translate(303.959135, 0.913043)" fill="#EA7924" id="Shape">
                        <polygon points="10.7596154 14.426087 8.51802885 14.426087 8.51802885 8.2173913 2.33125 8.2173913 2.33125 14.426087 0.0896634615 14.426087 0.0896634615 0.730434783 2.33125 0.730434783 2.33125 6.3 8.51802885 6.3 8.51802885 0.730434783 10.7596154 0.730434783"></polygon>
                        <path d="M20.4432692,14.426087 L19.9949519,12.9652174 L19.9052885,12.9652174 C19.4569712,13.6043478 18.9189904,14.0608696 18.3810096,14.2434783 C17.8430288,14.426087 17.2153846,14.6086957 16.4980769,14.6086957 C15.5117788,14.6086957 14.7048077,14.3347826 14.1668269,13.7869565 C13.6288462,13.2391304 13.3598558,12.4173913 13.3598558,11.4130435 C13.3598558,10.3173913 13.7185096,9.49565217 14.5254808,9.03913043 C15.3324519,8.49130435 16.4980769,8.2173913 18.1120192,8.12608696 L19.9052885,8.03478261 L19.9052885,7.48695652 C19.9052885,6.84782609 19.7259615,6.3 19.4569712,6.02608696 C19.1879808,5.66086957 18.65,5.56956522 18.0223558,5.56956522 C17.484375,5.56956522 17.0360577,5.66086957 16.4980769,5.84347826 C15.9600962,6.02608696 15.6014423,6.20869565 15.153125,6.39130435 L14.4358173,4.83913043 C14.9737981,4.56521739 15.6014423,4.29130435 16.2290865,4.2 C16.8567308,4.0173913 17.484375,3.92608696 18.1120192,3.92608696 C19.3673077,3.92608696 20.3536058,4.2 21.0709135,4.74782609 C21.6985577,5.29565217 22.0572115,6.20869565 22.0572115,7.48695652 L22.0572115,14.426087 L20.4432692,14.426087 Z M17.2153846,12.9652174 C18.0223558,12.9652174 18.65,12.7826087 19.0983173,12.326087 C19.5466346,11.8695652 19.815625,11.2304348 19.815625,10.4086957 L19.815625,9.49565217 L18.4706731,9.58695652 C17.484375,9.58695652 16.6774038,9.76956522 16.2290865,10.1347826 C15.7807692,10.4086957 15.5117788,10.9565217 15.5117788,11.5956522 C15.5117788,12.0521739 15.6911058,12.4173913 15.9600962,12.6913043 C16.31875,12.7826087 16.6774038,12.9652174 17.2153846,12.9652174 Z"></path>
                        <path d="M28.4233173,14.6086957 C27.1680288,14.6086957 26.1817308,14.1521739 25.4644231,13.2391304 C24.7471154,12.326087 24.3884615,10.9565217 24.3884615,9.31304348 C24.3884615,7.57826087 24.7471154,6.3 25.4644231,5.38695652 C26.1817308,4.47391304 27.1680288,3.92608696 28.4233173,3.92608696 C29.7682692,3.92608696 30.7545673,4.47391304 31.471875,5.47826087 L31.5615385,5.47826087 C31.471875,4.74782609 31.3822115,4.10869565 31.3822115,3.74347826 L31.3822115,0 L33.5341346,0 L33.5341346,14.6086957 L31.8305288,14.6086957 L31.471875,13.2391304 L31.3822115,13.2391304 C30.8442308,14.1521739 29.7682692,14.6086957 28.4233173,14.6086957 Z M29.0509615,12.873913 C29.9475962,12.873913 30.5752404,12.6 31.0235577,12.1434783 C31.471875,11.5956522 31.6512019,10.773913 31.6512019,9.67826087 L31.6512019,9.40434783 C31.6512019,8.12608696 31.471875,7.21304348 31.0235577,6.66521739 C30.5752404,6.1173913 29.9475962,5.84347826 29.0509615,5.84347826 C28.3336538,5.84347826 27.7060096,6.1173913 27.2576923,6.75652174 C26.809375,7.39565217 26.6300481,8.30869565 26.6300481,9.40434783 C26.6300481,10.5913043 26.809375,11.4130435 27.2576923,12.0521739 C27.6163462,12.5086957 28.2439904,12.873913 29.0509615,12.873913 Z"></path>
                        <path d="M45.8180288,9.22173913 C45.8180288,10.9565217 45.3697115,12.2347826 44.5627404,13.1478261 C43.7557692,14.0608696 42.5004808,14.6086957 40.9762019,14.6086957 C39.9899038,14.6086957 39.1829327,14.426087 38.465625,13.9695652 C37.7483173,13.5130435 37.2103365,12.873913 36.7620192,12.0521739 C36.4033654,11.2304348 36.134375,10.3173913 36.134375,9.22173913 C36.134375,7.57826087 36.5826923,6.20869565 37.3896635,5.29565217 C38.1966346,4.3826087 39.4519231,3.92608696 40.9762019,3.92608696 C42.4108173,3.92608696 43.5764423,4.3826087 44.4730769,5.38695652 C45.3697115,6.3 45.8180288,7.57826087 45.8180288,9.22173913 Z M38.3759615,9.22173913 C38.3759615,11.5956522 39.2725962,12.7826087 40.9762019,12.7826087 C42.6798077,12.7826087 43.5764423,11.5956522 43.5764423,9.22173913 C43.5764423,6.84782609 42.6798077,5.66086957 40.9762019,5.66086957 C40.0795673,5.66086957 39.4519231,5.93478261 39.0036058,6.57391304 C38.5552885,7.21304348 38.3759615,8.12608696 38.3759615,9.22173913 Z"></path>
                        <path d="M57.2949519,9.22173913 C57.2949519,10.9565217 56.8466346,12.2347826 56.0396635,13.1478261 C55.2326923,14.0608696 53.9774038,14.6086957 52.453125,14.6086957 C51.4668269,14.6086957 50.6598558,14.426087 49.9425481,13.9695652 C49.2252404,13.5130435 48.6872596,12.873913 48.2389423,12.0521739 C47.8802885,11.2304348 47.6112981,10.3173913 47.6112981,9.22173913 C47.6112981,7.57826087 48.0596154,6.20869565 48.8665865,5.29565217 C49.6735577,4.3826087 50.9288462,3.92608696 52.453125,3.92608696 C53.8877404,3.92608696 55.0533654,4.3826087 55.95,5.38695652 C56.8466346,6.3 57.2949519,7.57826087 57.2949519,9.22173913 Z M49.8528846,9.22173913 C49.8528846,11.5956522 50.7495192,12.7826087 52.453125,12.7826087 C54.1567308,12.7826087 55.0533654,11.5956522 55.0533654,9.22173913 C55.0533654,6.84782609 54.1567308,5.66086957 52.453125,5.66086957 C51.5564904,5.66086957 50.9288462,5.93478261 50.4805288,6.57391304 C50.121875,7.21304348 49.8528846,8.12608696 49.8528846,9.22173913 Z"></path>
                        <path d="M64.9163462,14.6086957 C63.6610577,14.6086957 62.6747596,14.1521739 61.9574519,13.2391304 L61.8677885,13.2391304 C61.9574519,14.1521739 61.9574519,14.6086957 61.9574519,14.7913043 L61.9574519,18.9913043 L59.8055288,18.9913043 L59.8055288,4.0173913 L61.5091346,4.0173913 C61.5987981,4.2 61.6884615,4.65652174 61.778125,5.38695652 L61.8677885,5.38695652 C62.5850962,4.3826087 63.5713942,3.83478261 64.9163462,3.83478261 C66.1716346,3.83478261 67.1579327,4.29130435 67.8752404,5.20434783 C68.5925481,6.1173913 68.9512019,7.48695652 68.9512019,9.13043478 C68.9512019,10.8652174 68.5925481,12.1434783 67.8752404,13.0565217 C67.1579327,14.1521739 66.1716346,14.6086957 64.9163462,14.6086957 Z M64.3783654,5.66086957 C63.4817308,5.66086957 62.8540865,5.93478261 62.4954327,6.39130435 C62.1367788,6.93913043 61.8677885,7.76086957 61.8677885,8.85652174 L61.8677885,9.22173913 C61.8677885,10.5 62.0471154,11.4130435 62.4954327,11.9608696 C62.8540865,12.5086957 63.5713942,12.7826087 64.3783654,12.7826087 C65.0956731,12.7826087 65.7233173,12.5086957 66.0819712,11.8695652 C66.440625,11.2304348 66.7096154,10.3173913 66.7096154,9.22173913 C66.7096154,8.03478261 66.5302885,7.21304348 66.0819712,6.57391304 C65.7233173,6.02608696 65.1853365,5.66086957 64.3783654,5.66086957 Z"></path>
                    </g>
                </g>
            </g>
        </g>
    </g>
</svg>