<?xml version="1.0" encoding="UTF-8"?>
<svg width="118px" height="120px" viewBox="0 0 118 120" version="1.1" xmlns="http://www.w3.org/2000/svg" xmlns:xlink="http://www.w3.org/1999/xlink">
    <!-- Generator: Sketch 51.3 (57544) - http://www.bohemiancoding.com/sketch -->
    <title>Group 74</title>
    <desc>Created with Sketch.</desc>
    <defs>
        <polygon id="path-1" points="0 119.984691 118 119.984691 118 0 0 0"></polygon>
    </defs>
    <g id="Page-1" stroke="none" stroke-width="1" fill="none" fill-rule="evenodd">
        <g id="Insight-Webpage-Update_v4" transform="translate(-162.000000, -4266.000000)">
            <g id="Group-74" transform="translate(162.000000, 4266.000000)">
                <path d="M71.4284975,36.9285432 L45.2280725,36.9285432 C42.9870558,36.9285432 41.1531392,38.7700247 41.1531392,41.0213827 L41.1531392,78.9236049 C41.1531392,81.1744691 42.9870558,83.0164444 45.2280725,83.0164444 L71.4284975,83.0164444 C73.6700058,83.0164444 75.5034308,81.1744691 75.5034308,78.9236049 L75.5034308,41.0213827 C75.5034308,38.7700247 73.6700058,36.9285432 71.4284975,36.9285432" id="Fill-1" fill="#EA7924"></path>
                <mask id="mask-2" fill="white">
                    <use xlink:href="#path-1"></use>
                </mask>
                <g id="Clip-4"></g>
                <polygon id="Fill-3" fill="#FFFFFF" mask="url(#mask-2)" points="41.1529917 59.9723457 75.5032833 59.9723457 75.5032833 48.4503704 41.1529917 48.4503704"></polygon>
                <path d="M75.50348,71.5161975 L41.1531883,71.5161975 L41.1531883,78.223358 C41.1531883,80.8826173 43.2993133,83.0381728 45.9469383,83.0381728 L70.70973,83.0381728 C73.357355,83.0381728 75.50348,80.8826173 75.50348,78.223358 L75.50348,71.5161975 Z" id="Fill-5" fill="#FFFFFF" mask="url(#mask-2)"></path>
                <path d="M116.239293,26.4564444 L116.239293,31.8589136 C116.239293,33.4040988 114.968826,34.680642 113.429909,34.680642 L95.5288175,34.680642 C93.9761342,34.680642 92.7199258,33.4040988 92.7199258,31.8589136 L92.7199258,26.4564444 L116.239293,26.4564444 Z" id="Fill-6" fill="#FFFFFF" mask="url(#mask-2)"></path>
                <polygon id="Fill-7" fill="#EA7924" mask="url(#mask-2)" points="92.719975 26.4562963 116.239342 26.4562963 116.239342 18.2177778 92.719975 18.2177778"></polygon>
                <polygon id="Fill-8" fill="#FFFFFF" mask="url(#mask-2)" points="92.719975 18.2177778 116.239342 18.2177778 116.239342 9.99358025 92.719975 9.99358025"></polygon>
                <path d="M116.239293,4.59155556 L116.239293,9.99353086 L92.7199258,9.99353086 L92.7199258,4.59155556 C92.7199258,3.04587654 93.9761342,1.76982716 95.5288175,1.76982716 L113.429909,1.76982716 C114.968826,1.76982716 116.239293,3.04587654 116.239293,4.59155556" id="Fill-9" fill="#EA7924" mask="url(#mask-2)"></path>
                <path d="M116.239293,109.996148 L116.239293,115.398617 C116.239293,116.943802 114.968826,118.220346 113.429909,118.220346 L95.5288175,118.220346 C93.9761342,118.220346 92.7199258,116.943802 92.7199258,115.398617 L92.7199258,109.996148 L116.239293,109.996148 Z" id="Fill-10" fill="#FFFFFF" mask="url(#mask-2)"></path>
                <polygon id="Fill-11" fill="#EA7924" mask="url(#mask-2)" points="92.719975 109.996049 116.239342 109.996049 116.239342 101.757531 92.719975 101.757531"></polygon>
                <polygon id="Fill-12" fill="#FFFFFF" mask="url(#mask-2)" points="92.719975 101.758025 116.239342 101.758025 116.239342 93.5338272 92.719975 93.5338272"></polygon>
                <path d="M116.239293,88.1315062 L116.239293,93.5334815 L92.7199258,93.5334815 L92.7199258,88.1315062 C92.7199258,86.5858272 93.9761342,85.3097778 95.5288175,85.3097778 L113.429909,85.3097778 C114.968826,85.3097778 116.239293,86.5858272 116.239293,88.1315062" id="Fill-13" fill="#EA7924" mask="url(#mask-2)"></path>
                <path d="M25.2833683,26.4564444 L25.2833683,31.8589136 C25.2833683,33.4040988 24.0129017,34.680642 22.473985,34.680642 L4.57289333,34.680642 C3.02021,34.680642 1.76400167,33.4040988 1.76400167,31.8589136 L1.76400167,26.4564444 L25.2833683,26.4564444 Z" id="Fill-14" fill="#FFFFFF" mask="url(#mask-2)"></path>
                <polygon id="Fill-15" fill="#EA7924" mask="url(#mask-2)" points="1.7641 26.4562963 25.2834667 26.4562963 25.2834667 18.2177778 1.7641 18.2177778"></polygon>
                <polygon id="Fill-16" fill="#FFFFFF" mask="url(#mask-2)" points="1.7641 18.2177778 25.2834667 18.2177778 25.2834667 9.99358025 1.7641 9.99358025"></polygon>
                <path d="M25.2833683,4.59155556 L25.2833683,9.99353086 L1.76400167,9.99353086 L1.76400167,4.59155556 C1.76400167,3.04587654 3.02021,1.76982716 4.57289333,1.76982716 L22.473985,1.76982716 C24.0129017,1.76982716 25.2833683,3.04587654 25.2833683,4.59155556" id="Fill-17" fill="#EA7924" mask="url(#mask-2)"></path>
                <path d="M25.2833683,109.996148 L25.2833683,115.398617 C25.2833683,116.943802 24.0129017,118.220346 22.473985,118.220346 L4.57289333,118.220346 C3.02021,118.220346 1.76400167,116.943802 1.76400167,115.398617 L1.76400167,109.996148 L25.2833683,109.996148 Z" id="Fill-18" fill="#FFFFFF" mask="url(#mask-2)"></path>
                <polygon id="Fill-19" fill="#EA7924" mask="url(#mask-2)" points="1.7641 109.996049 25.2834667 109.996049 25.2834667 101.757531 1.7641 101.757531"></polygon>
                <polygon id="Fill-20" fill="#FFFFFF" mask="url(#mask-2)" points="1.7641 101.758025 25.2834667 101.758025 25.2834667 93.5338272 1.7641 93.5338272"></polygon>
                <path d="M25.2833683,88.1315062 L25.2833683,93.5334815 L1.76400167,93.5334815 L1.76400167,88.1315062 C1.76400167,86.5858272 3.02021,85.3097778 4.57289333,85.3097778 L22.473985,85.3097778 C24.0129017,85.3097778 25.2833683,86.5858272 25.2833683,88.1315062" id="Fill-21" fill="#EA7924" mask="url(#mask-2)"></path>
                <path d="M47.08908,87.8144691 C46.134755,87.8144691 45.3608717,87.037679 45.3608717,86.0786667 L45.3608717,83.7423704 L48.8172883,83.7423704 L48.8172883,86.0786667 C48.8172883,87.037679 48.043405,87.8144691 47.08908,87.8144691" id="Fill-22" fill="#192330" mask="url(#mask-2)"></path>
                <path d="M69.5676867,87.8144691 C68.6133617,87.8144691 67.8394783,87.037679 67.8394783,86.0786667 L67.8394783,83.7423704 L71.295895,83.7423704 L71.295895,86.0786667 C71.295895,87.037679 70.5220117,87.8144691 69.5676867,87.8144691" id="Fill-23" fill="#192330" mask="url(#mask-2)"></path>
                <path d="M45.2559008,38.7010864 C43.9667508,38.7010864 42.9185175,39.7544198 42.9185175,41.0492346 L42.9185175,78.8961481 C42.9185175,80.1904691 43.9667508,81.2438025 45.2559008,81.2438025 L71.4012592,81.2438025 C72.6899175,81.2438025 73.7386425,80.1904691 73.7386425,78.8961481 L73.7386425,41.0492346 C73.7386425,39.7544198 72.6899175,38.7010864 71.4012592,38.7010864 L45.2559008,38.7010864 Z M71.4012592,84.7889877 L45.2559008,84.7889877 C42.0202425,84.7889877 39.3883508,82.1455309 39.3883508,78.8961481 L39.3883508,41.0492346 C39.3883508,37.7998519 42.0202425,35.1563951 45.2559008,35.1563951 L71.4012592,35.1563951 C74.6359342,35.1563951 77.2683175,37.7998519 77.2683175,41.0492346 L77.2683175,78.8961481 C77.2683175,82.1455309 74.6359342,84.7889877 71.4012592,84.7889877 Z" id="Fill-24" fill="#192330" mask="url(#mask-2)"></path>
                <polygon id="Fill-25" fill="#192330" mask="url(#mask-2)" points="41.1534833 50.2232099 75.5032833 50.2232099 75.5032833 46.6780247 41.1534833 46.6780247"></polygon>
                <polygon id="Fill-26" fill="#192330" mask="url(#mask-2)" points="41.1534833 61.7451852 75.5032833 61.7451852 75.5032833 58.2 41.1534833 58.2"></polygon>
                <polygon id="Fill-27" fill="#192330" mask="url(#mask-2)" points="41.1534833 73.2666667 75.5032833 73.2666667 75.5032833 69.7219753 41.1534833 69.7219753"></polygon>
                <path d="M48.5758308,43.0167407 C48.5758308,42.1920494 47.9101142,41.5234074 47.0890308,41.5234074 C46.2679475,41.5234074 45.6022308,42.1920494 45.6022308,43.0167407 C45.6022308,43.8414321 46.2679475,44.5100741 47.0890308,44.5100741 C47.9101142,44.5100741 48.5758308,43.8414321 48.5758308,43.0167407" id="Fill-28" fill="#192330" mask="url(#mask-2)"></path>
                <path d="M48.5758308,54.2115556 C48.5758308,53.3868642 47.9101142,52.7182222 47.0890308,52.7182222 C46.2679475,52.7182222 45.6022308,53.3868642 45.6022308,54.2115556 C45.6022308,55.0362469 46.2679475,55.7048889 47.0890308,55.7048889 C47.9101142,55.7048889 48.5758308,55.0362469 48.5758308,54.2115556" id="Fill-29" fill="#192330" mask="url(#mask-2)"></path>
                <path d="M48.5758308,65.8969877 C48.5758308,65.0722963 47.9101142,64.4036543 47.0890308,64.4036543 C46.2679475,64.4036543 45.6022308,65.0722963 45.6022308,65.8969877 C45.6022308,66.721679 46.2679475,67.390321 47.0890308,67.390321 C47.9101142,67.390321 48.5758308,66.721679 48.5758308,65.8969877" id="Fill-30" fill="#192330" mask="url(#mask-2)"></path>
                <path d="M48.5758308,77.2772346 C48.5758308,76.4525432 47.9101142,75.7839012 47.0890308,75.7839012 C46.2679475,75.7839012 45.6022308,76.4525432 45.6022308,77.2772346 C45.6022308,78.1019259 46.2679475,78.7705679 47.0890308,78.7705679 C47.9101142,78.7705679 48.5758308,78.1019259 48.5758308,77.2772346" id="Fill-31" fill="#192330" mask="url(#mask-2)"></path>
                <polygon id="Fill-32" fill="#192330" mask="url(#mask-2)" points="25.2824833 103.533333 92.7175167 103.533333 92.7175167 99.988642 25.2824833 99.988642"></polygon>
                <polygon id="Fill-33" fill="#192330" mask="url(#mask-2)" points="57.2349167 101.760988 60.7650833 101.760988 60.7650833 83.8340741 57.2349167 83.8340741"></polygon>
                <path d="M62.3643275,101.760988 C62.3643275,99.8948148 60.8583525,98.3822222 58.9998525,98.3822222 C57.1418442,98.3822222 55.6358692,99.8948148 55.6358692,101.760988 C55.6358692,103.62716 57.1418442,105.140247 58.9998525,105.140247 C60.8583525,105.140247 62.3643275,103.62716 62.3643275,101.760988" id="Fill-34" fill="#FFFFFF" mask="url(#mask-2)"></path>
                <path d="M59,100.154321 C58.1184417,100.154321 57.4011,100.874815 57.4011,101.760741 C57.4011,102.646667 58.1184417,103.367654 59,103.367654 C59.88205,103.367654 60.5993917,102.646667 60.5993917,101.760741 C60.5993917,100.874815 59.88205,100.154321 59,100.154321 M59,106.912346 C56.172425,106.912346 53.8709333,104.601728 53.8709333,101.760741 C53.8709333,98.9202469 56.172425,96.6096296 59,96.6096296 C61.8280667,96.6096296 64.1295583,98.9202469 64.1295583,101.760741 C64.1295583,104.601728 61.8280667,106.912346 59,106.912346" id="Fill-35" fill="#192330" mask="url(#mask-2)"></path>
                <polygon id="Fill-36" fill="#192330" mask="url(#mask-2)" points="25.2824833 19.9960494 92.7175167 19.9960494 92.7175167 16.451358 25.2824833 16.451358"></polygon>
                <polygon id="Fill-37" fill="#192330" mask="url(#mask-2)" points="57.2349167 36.1511111 60.7650833 36.1511111 60.7650833 18.2237037 57.2349167 18.2237037"></polygon>
                <path d="M55.6358692,18.2236543 C55.6358692,20.0898272 57.1418442,21.6029136 58.9998525,21.6029136 C60.8583525,21.6029136 62.3643275,20.0898272 62.3643275,18.2236543 C62.3643275,16.3574815 60.8583525,14.8448889 58.9998525,14.8448889 C57.1418442,14.8448889 55.6358692,16.3574815 55.6358692,18.2236543" id="Fill-38" fill="#FFFFFF" mask="url(#mask-2)"></path>
                <path d="M59,16.617037 C58.1184417,16.617037 57.4011,17.3375309 57.4011,18.2234568 C57.4011,19.1093827 58.1184417,19.8303704 59,19.8303704 C59.88205,19.8303704 60.5993917,19.1093827 60.5993917,18.2234568 C60.5993917,17.3375309 59.88205,16.617037 59,16.617037 M59,23.3750617 C56.172425,23.3750617 53.8709333,21.0644444 53.8709333,18.2234568 C53.8709333,15.382963 56.172425,13.0723457 59,13.0723457 C61.8280667,13.0723457 64.1295583,15.382963 64.1295583,18.2234568 C64.1295583,21.0644444 61.8280667,23.3750617 59,23.3750617" id="Fill-39" fill="#192330" mask="url(#mask-2)"></path>
                <path d="M95.5266542,87.0821235 C94.9607458,87.0821235 94.4823542,87.5626173 94.4823542,88.1310123 L94.4823542,115.391259 C94.4823542,115.959654 94.9607458,116.439654 95.5266542,116.439654 L113.426763,116.439654 C113.992671,116.439654 114.470079,115.959654 114.470079,115.391259 L114.470079,88.1310123 C114.470079,87.5626173 113.992671,87.0821235 113.426763,87.0821235 L95.5266542,87.0821235 Z M113.426763,119.984346 L95.5266542,119.984346 C93.0048958,119.984346 90.9526792,117.924099 90.9526792,115.391259 L90.9526792,88.1310123 C90.9526792,85.5981728 93.0048958,83.5374321 95.5266542,83.5374321 L113.426763,83.5374321 C115.948521,83.5374321 117.999754,85.5981728 117.999754,88.1310123 L117.999754,115.391259 C117.999754,117.924099 115.948521,119.984346 113.426763,119.984346 Z" id="Fill-40" fill="#192330" mask="url(#mask-2)"></path>
                <polygon id="Fill-41" fill="#192330" mask="url(#mask-2)" points="92.7175167 95.3076543 116.234917 95.3076543 116.234917 91.762963 92.7175167 91.762963"></polygon>
                <polygon id="Fill-42" fill="#192330" mask="url(#mask-2)" points="92.7175167 103.533333 116.234917 103.533333 116.234917 99.988642 92.7175167 99.988642"></polygon>
                <polygon id="Fill-43" fill="#192330" mask="url(#mask-2)" points="92.7175167 111.759012 116.234917 111.759012 116.234917 108.214321 92.7175167 108.214321"></polygon>
                <path d="M95.5266542,3.54483951 C94.9607458,3.54483951 94.4823542,4.02483951 94.4823542,4.5937284 L94.4823542,31.8539753 C94.4823542,32.4223704 94.9607458,32.9023704 95.5266542,32.9023704 L113.426763,32.9023704 C113.992671,32.9023704 114.470079,32.4223704 114.470079,31.8539753 L114.470079,4.5937284 C114.470079,4.02483951 113.992671,3.54483951 113.426763,3.54483951 L95.5266542,3.54483951 Z M113.426763,36.4470617 L95.5266542,36.4470617 C93.0048958,36.4470617 90.9526792,34.3868148 90.9526792,31.8539753 L90.9526792,4.5937284 C90.9526792,2.06088889 93.0048958,0.000148148148 95.5266542,0.000148148148 L113.426763,0.000148148148 C115.948521,0.000148148148 117.999754,2.06088889 117.999754,4.5937284 L117.999754,31.8539753 C117.999754,34.3868148 115.948521,36.4470617 113.426763,36.4470617 Z" id="Fill-44" fill="#192330" mask="url(#mask-2)"></path>
                <polygon id="Fill-45" fill="#192330" mask="url(#mask-2)" points="92.7175167 11.7703704 116.234917 11.7703704 116.234917 8.22567901 92.7175167 8.22567901"></polygon>
                <polygon id="Fill-46" fill="#192330" mask="url(#mask-2)" points="92.7175167 19.9960494 116.234917 19.9960494 116.234917 16.451358 92.7175167 16.451358"></polygon>
                <polygon id="Fill-47" fill="#192330" mask="url(#mask-2)" points="92.7175167 28.2217284 116.234917 28.2217284 116.234917 24.677037 92.7175167 24.677037"></polygon>
                <path d="M4.5738275,3.54483951 C4.00791917,3.54483951 3.5295275,4.02483951 3.5295275,4.5937284 L3.5295275,31.8539753 C3.5295275,32.4223704 4.00791917,32.9023704 4.5738275,32.9023704 L22.4734442,32.9023704 C23.0393525,32.9023704 23.5172525,32.4223704 23.5172525,31.8539753 L23.5172525,4.5937284 C23.5172525,4.02483951 23.0393525,3.54483951 22.4734442,3.54483951 L4.5738275,3.54483951 Z M22.4734442,36.4470617 L4.5738275,36.4470617 C2.05206917,36.4470617 -0.0001475,34.3868148 -0.0001475,31.8539753 L-0.0001475,4.5937284 C-0.0001475,2.06088889 2.05206917,0.000148148148 4.5738275,0.000148148148 L22.4734442,0.000148148148 C24.9952025,0.000148148148 27.0469275,2.06088889 27.0469275,4.5937284 L27.0469275,31.8539753 C27.0469275,34.3868148 24.9952025,36.4470617 22.4734442,36.4470617 Z" id="Fill-48" fill="#192330" mask="url(#mask-2)"></path>
                <polygon id="Fill-49" fill="#192330" mask="url(#mask-2)" points="1.76508333 11.7703704 25.2824833 11.7703704 25.2824833 8.22567901 1.76508333 8.22567901"></polygon>
                <polygon id="Fill-50" fill="#192330" mask="url(#mask-2)" points="1.76508333 19.9960494 25.2824833 19.9960494 25.2824833 16.451358 1.76508333 16.451358"></polygon>
                <polygon id="Fill-51" fill="#192330" mask="url(#mask-2)" points="1.76508333 28.2217284 25.2824833 28.2217284 25.2824833 24.677037 1.76508333 24.677037"></polygon>
                <path d="M4.5738275,87.0821235 C4.00791917,87.0821235 3.5295275,87.5626173 3.5295275,88.1310123 L3.5295275,115.391259 C3.5295275,115.959654 4.00791917,116.439654 4.5738275,116.439654 L22.4734442,116.439654 C23.0393525,116.439654 23.5172525,115.959654 23.5172525,115.391259 L23.5172525,88.1310123 C23.5172525,87.5626173 23.0393525,87.0821235 22.4734442,87.0821235 L4.5738275,87.0821235 Z M22.4734442,119.984346 L4.5738275,119.984346 C2.05206917,119.984346 -0.0001475,117.924099 -0.0001475,115.391259 L-0.0001475,88.1310123 C-0.0001475,85.5981728 2.05206917,83.5374321 4.5738275,83.5374321 L22.4734442,83.5374321 C24.9952025,83.5374321 27.0469275,85.5981728 27.0469275,88.1310123 L27.0469275,115.391259 C27.0469275,117.924099 24.9952025,119.984346 22.4734442,119.984346 Z" id="Fill-52" fill="#192330" mask="url(#mask-2)"></path>
                <polygon id="Fill-53" fill="#192330" mask="url(#mask-2)" points="1.76508333 95.3076543 25.2824833 95.3076543 25.2824833 91.762963 1.76508333 91.762963"></polygon>
                <polygon id="Fill-54" fill="#192330" mask="url(#mask-2)" points="1.76508333 103.533333 25.2824833 103.533333 25.2824833 99.988642 1.76508333 99.988642"></polygon>
                <polygon id="Fill-55" fill="#192330" mask="url(#mask-2)" points="1.76508333 111.759012 25.2824833 111.759012 25.2824833 108.214321 1.76508333 108.214321"></polygon>
                <path d="M109.121631,70.3498765 C107.758239,70.3498765 106.652973,71.46 106.652973,72.8293827 C106.652973,74.1982716 107.758239,75.3088889 109.121631,75.3088889 C110.484531,75.3088889 111.590289,74.1982716 111.590289,72.8293827 C111.590289,71.46 110.484531,70.3498765 109.121631,70.3498765" id="Fill-56" fill="#192330" mask="url(#mask-2)"></path>
                <path d="M109.121631,61.7920494 C107.758239,61.7920494 106.652973,62.9021728 106.652973,64.2715556 C106.652973,65.6404444 107.758239,66.7505679 109.121631,66.7505679 C110.484531,66.7505679 111.590289,65.6404444 111.590289,64.2715556 C111.590289,62.9021728 110.484531,61.7920494 109.121631,61.7920494" id="Fill-57" fill="#192330" mask="url(#mask-2)"></path>
                <path d="M109.121631,53.2340247 C107.758239,53.2340247 106.652973,54.3441481 106.652973,55.7135309 C106.652973,57.0824198 107.758239,58.193037 109.121631,58.193037 C110.484531,58.193037 111.590289,57.0824198 111.590289,55.7135309 C111.590289,54.3441481 110.484531,53.2340247 109.121631,53.2340247" id="Fill-58" fill="#192330" mask="url(#mask-2)"></path>
                <path d="M109.121631,44.6759506 C107.758239,44.6759506 106.652973,45.7860741 106.652973,47.1554568 C106.652973,48.5248395 107.758239,49.634963 109.121631,49.634963 C110.484531,49.634963 111.590289,48.5248395 111.590289,47.1554568 C111.590289,45.7860741 110.484531,44.6759506 109.121631,44.6759506" id="Fill-59" fill="#192330" mask="url(#mask-2)"></path>
                <path d="M99.8313433,70.3498765 C98.4684433,70.3498765 97.362685,71.46 97.362685,72.8293827 C97.362685,74.1982716 98.4684433,75.3088889 99.8313433,75.3088889 C101.194735,75.3088889 102.300002,74.1982716 102.300002,72.8293827 C102.300002,71.46 101.194735,70.3498765 99.8313433,70.3498765" id="Fill-60" fill="#192330" mask="url(#mask-2)"></path>
                <path d="M99.8313433,61.7920494 C98.4684433,61.7920494 97.362685,62.9021728 97.362685,64.2715556 C97.362685,65.6404444 98.4684433,66.7505679 99.8313433,66.7505679 C101.194735,66.7505679 102.300002,65.6404444 102.300002,64.2715556 C102.300002,62.9021728 101.194735,61.7920494 99.8313433,61.7920494" id="Fill-61" fill="#192330" mask="url(#mask-2)"></path>
                <path d="M99.8313433,53.2340247 C98.4684433,53.2340247 97.362685,54.3441481 97.362685,55.7135309 C97.362685,57.0824198 98.4684433,58.193037 99.8313433,58.193037 C101.194735,58.193037 102.300002,57.0824198 102.300002,55.7135309 C102.300002,54.3441481 101.194735,53.2340247 99.8313433,53.2340247" id="Fill-62" fill="#192330" mask="url(#mask-2)"></path>
                <path d="M99.8313433,44.6759506 C98.4684433,44.6759506 97.362685,45.7860741 97.362685,47.1554568 C97.362685,48.5248395 98.4684433,49.634963 99.8313433,49.634963 C101.194735,49.634963 102.300002,48.5248395 102.300002,47.1554568 C102.300002,45.7860741 101.194735,44.6759506 99.8313433,44.6759506" id="Fill-63" fill="#192330" mask="url(#mask-2)"></path>
                <path d="M18.1686075,70.3498765 C16.8052158,70.3498765 15.6999492,71.46 15.6999492,72.8293827 C15.6999492,74.1982716 16.8052158,75.3088889 18.1686075,75.3088889 C19.5319992,75.3088889 20.6372658,74.1982716 20.6372658,72.8293827 C20.6372658,71.46 19.5319992,70.3498765 18.1686075,70.3498765" id="Fill-64" fill="#192330" mask="url(#mask-2)"></path>
                <path d="M18.1686075,61.7920494 C16.8052158,61.7920494 15.6999492,62.9021728 15.6999492,64.2715556 C15.6999492,65.6404444 16.8052158,66.7505679 18.1686075,66.7505679 C19.5319992,66.7505679 20.6372658,65.6404444 20.6372658,64.2715556 C20.6372658,62.9021728 19.5319992,61.7920494 18.1686075,61.7920494" id="Fill-65" fill="#192330" mask="url(#mask-2)"></path>
                <path d="M18.1686075,53.2340247 C16.8052158,53.2340247 15.6999492,54.3441481 15.6999492,55.7135309 C15.6999492,57.0824198 16.8052158,58.193037 18.1686075,58.193037 C19.5319992,58.193037 20.6372658,57.0824198 20.6372658,55.7135309 C20.6372658,54.3441481 19.5319992,53.2340247 18.1686075,53.2340247" id="Fill-66" fill="#192330" mask="url(#mask-2)"></path>
                <path d="M18.1686075,44.6759506 C16.8052158,44.6759506 15.6999492,45.7860741 15.6999492,47.1554568 C15.6999492,48.5248395 16.8052158,49.634963 18.1686075,49.634963 C19.5319992,49.634963 20.6372658,48.5248395 20.6372658,47.1554568 C20.6372658,45.7860741 19.5319992,44.6759506 18.1686075,44.6759506" id="Fill-67" fill="#192330" mask="url(#mask-2)"></path>
                <path d="M8.87856583,70.3498765 C7.51517417,70.3498765 6.4099075,71.46 6.4099075,72.8293827 C6.4099075,74.1982716 7.51517417,75.3088889 8.87856583,75.3088889 C10.2419575,75.3088889 11.3472242,74.1982716 11.3472242,72.8293827 C11.3472242,71.46 10.2419575,70.3498765 8.87856583,70.3498765" id="Fill-68" fill="#192330" mask="url(#mask-2)"></path>
                <path d="M8.87856583,61.7920494 C7.51517417,61.7920494 6.4099075,62.9021728 6.4099075,64.2715556 C6.4099075,65.6404444 7.51517417,66.7505679 8.87856583,66.7505679 C10.2419575,66.7505679 11.3472242,65.6404444 11.3472242,64.2715556 C11.3472242,62.9021728 10.2419575,61.7920494 8.87856583,61.7920494" id="Fill-69" fill="#192330" mask="url(#mask-2)"></path>
                <path d="M8.87856583,53.2340247 C7.51517417,53.2340247 6.4099075,54.3441481 6.4099075,55.7135309 C6.4099075,57.0824198 7.51517417,58.193037 8.87856583,58.193037 C10.2419575,58.193037 11.3472242,57.0824198 11.3472242,55.7135309 C11.3472242,54.3441481 10.2419575,53.2340247 8.87856583,53.2340247" id="Fill-70" fill="#192330" mask="url(#mask-2)"></path>
                <path d="M8.87856583,44.6759506 C7.51517417,44.6759506 6.4099075,45.7860741 6.4099075,47.1554568 C6.4099075,48.5248395 7.51517417,49.634963 8.87856583,49.634963 C10.2419575,49.634963 11.3472242,48.5248395 11.3472242,47.1554568 C11.3472242,45.7860741 10.2419575,44.6759506 8.87856583,44.6759506" id="Fill-71" fill="#192330" mask="url(#mask-2)"></path>
                <path d="M31.7415083,114.825185 L35.9349333,114.825185 L35.9349333,111.280494 L31.7415083,111.280494 L31.7415083,114.825185 Z M40.12885,114.825185 L44.322275,114.825185 L44.322275,111.280494 L40.12885,111.280494 L40.12885,114.825185 Z M48.5161917,114.825185 L52.7096167,114.825185 L52.7096167,111.280494 L48.5161917,111.280494 L48.5161917,114.825185 Z M56.9035333,114.825185 L61.0969583,114.825185 L61.0969583,111.280494 L56.9035333,111.280494 L56.9035333,114.825185 Z M65.2903833,114.825185 L69.4838083,114.825185 L69.4838083,111.280494 L65.2903833,111.280494 L65.2903833,114.825185 Z M73.677725,114.825185 L77.87115,114.825185 L77.87115,111.280494 L73.677725,111.280494 L73.677725,114.825185 Z M82.064575,114.825185 L86.2584917,114.825185 L86.2584917,111.280494 L82.064575,111.280494 L82.064575,114.825185 Z" id="Fill-72" fill="#192330" mask="url(#mask-2)"></path>
                <path d="M31.7415083,8.58617284 L35.9349333,8.58617284 L35.9349333,5.04148148 L31.7415083,5.04148148 L31.7415083,8.58617284 Z M40.12885,8.58617284 L44.322275,8.58617284 L44.322275,5.04148148 L40.12885,5.04148148 L40.12885,8.58617284 Z M48.5161917,8.58617284 L52.7096167,8.58617284 L52.7096167,5.04148148 L48.5161917,5.04148148 L48.5161917,8.58617284 Z M56.9035333,8.58617284 L61.0969583,8.58617284 L61.0969583,5.04148148 L56.9035333,5.04148148 L56.9035333,8.58617284 Z M65.2903833,8.58617284 L69.4838083,8.58617284 L69.4838083,5.04148148 L65.2903833,5.04148148 L65.2903833,8.58617284 Z M73.677725,8.58617284 L77.87115,8.58617284 L77.87115,5.04148148 L73.677725,5.04148148 L73.677725,8.58617284 Z M82.064575,8.58617284 L86.2584917,8.58617284 L86.2584917,5.04148148 L82.064575,5.04148148 L82.064575,8.58617284 Z" id="Fill-73" fill="#192330" mask="url(#mask-2)"></path>
            </g>
        </g>
    </g>
</svg>