<?xml version="1.0" encoding="UTF-8"?>
<svg width="108px" height="127px" viewBox="0 0 108 127" version="1.1" xmlns="http://www.w3.org/2000/svg" xmlns:xlink="http://www.w3.org/1999/xlink">
    <!-- Generator: Sketch 51.3 (57544) - http://www.bohemiancoding.com/sketch -->
    <title>Group 59</title>
    <desc>Created with Sketch.</desc>
    <defs>
        <polygon id="path-1" points="0 127 107.539426 127 107.539426 0.233563218 0 0.233563218"></polygon>
    </defs>
    <g id="Page-1" stroke="none" stroke-width="1" fill="none" fill-rule="evenodd">
        <g id="Insight-Webpage-Update_v4" transform="translate(-1067.000000, -3365.000000)">
            <g id="Group-59" transform="translate(1067.000000, 3365.000000)">
                <polygon id="Fill-1" fill="#FFFFFF" points="1 40 105 40 105 11 1 11"></polygon>
                <polygon id="Fill-2" fill="#FFFFFF" points="1 78 105 78 105 49 1 49"></polygon>
                <polygon id="Fill-3" fill="#FFFFFF" points="1 117 105 117 105 88 1 88"></polygon>
                <polygon id="Fill-4" fill="#EA7924" points="10 71 25 71 25 56 10 56"></polygon>
                <polygon id="Fill-5" fill="#EA7924" points="38 71 53 71 53 56 38 56"></polygon>
                <polygon id="Fill-6" fill="#EA7924" points="55 112 45.9997576 96 37 112"></polygon>
                <polygon id="Fill-7" fill="#EA7924" points="27 112 17.9997576 96 9 112"></polygon>
                <polygon id="Fill-8" fill="#EA7924" points="62 39 106 39 106 10 62 10"></polygon>
                <polygon id="Fill-9" fill="#EA7924" points="62 78 106 78 106 49 62 49"></polygon>
                <polygon id="Fill-10" fill="#EA7924" points="62 118 106 118 106 89 62 89"></polygon>
                <path d="M11.4789137,69.5213856 L22.5210863,69.5213856 L22.5210863,58.4786144 L11.4789137,58.4786144 L11.4789137,69.5213856 Z M8,73 L26,73 L26,55 L8,55 L8,73 Z" id="Fill-11" fill="#273044"></path>
                <path d="M40.479008,69.5213856 L51.520992,69.5213856 L51.520992,58.4786144 L40.479008,58.4786144 L40.479008,69.5213856 Z M37,73 L55,73 L55,55 L37,55 L37,73 Z" id="Fill-12" fill="#273044"></path>
                <g id="Group-58">
                    <path d="M96.4017202,57.8393521 C96.29033,57.8393521 96.1789399,57.8291337 96.0627067,57.8052908 C95.9561596,57.7858272 95.8447695,57.7512793 95.7430655,57.7074862 C95.6365184,57.6641797 95.5348143,57.6106548 95.4427964,57.5469115 C95.3507785,57.4841414 95.2587605,57.4106663 95.1807874,57.3332985 C95.1032987,57.2500916 95.0311372,57.1625054 94.9681776,57.0705398 C94.9047336,56.9732218 94.8519444,56.8759038 94.808357,56.768854 C94.7647695,56.6666701 94.7308682,56.5542678 94.711496,56.4428387 C94.6872807,56.3304364 94.6771103,56.2190073 94.6771103,56.106605 C94.6771103,55.99031 94.6872807,55.8783943 94.711496,55.765992 C94.7308682,55.6545628 94.7647695,55.5470264 94.808357,55.4399766 C94.8519444,55.3377927 94.9047336,55.2356088 94.9681776,55.1436433 C95.0311372,55.0463253 95.1032987,54.9587391 95.1807874,54.8808847 C95.5784018,54.4770149 96.1789399,54.2921107 96.7402493,54.4035398 C96.8521238,54.4278693 96.9581865,54.4624172 97.0652179,54.5013444 C97.166922,54.544651 97.268626,54.5986625 97.3601596,54.6619192 C97.4575049,54.7251759 97.5441955,54.7981644 97.6221686,54.8808847 C97.7040161,54.9587391 97.7723031,55.0463253 97.8352628,55.1436433 C97.8982224,55.2356088 97.9510117,55.3377927 97.9950834,55.4399766 C98.0386709,55.5470264 98.0720879,55.6545628 98.0967874,55.765992 C98.1161596,55.8783943 98.1302045,55.99031 98.1302045,56.106605 C98.1302045,56.2190073 98.1161596,56.3304364 98.0967874,56.4428387 C98.0720879,56.5542678 98.0386709,56.6666701 97.9950834,56.768854 C97.9510117,56.8759038 97.8982224,56.9732218 97.8352628,57.0705398 C97.7723031,57.1625054 97.7040161,57.2500916 97.6221686,57.3332985 C97.5441955,57.4106663 97.4575049,57.4841414 97.3601596,57.5469115 C97.268626,57.6106548 97.166922,57.6641797 97.0652179,57.7074862 C96.9581865,57.7512793 96.8521238,57.7858272 96.7402493,57.8052908 C96.6293435,57.8291337 96.512626,57.8393521 96.4017202,57.8393521" id="Fill-13" fill="#273044"></path>
                    <path d="M87.4661973,56.1067996 C87.4661973,55.1482172 88.2410852,54.3696732 89.1951659,54.3696732 C90.1492466,54.3696732 90.9192915,55.1482172 90.9192915,56.1067996 C90.9192915,57.0605161 90.1492466,57.8395467 89.1951659,57.8395467 C88.2410852,57.8395467 87.4661973,57.0605161 87.4661973,56.1067996" id="Fill-15" fill="#273044"></path>
                    <path d="M81.9884664,57.8393521 C81.533704,57.8393521 81.0881435,57.6539613 80.7680179,57.3332985 C80.6861704,57.2500916 80.6178834,57.1625054 80.5549238,57.0705398 C80.4919641,56.9732218 80.4391749,56.8710379 80.3951031,56.768854 C80.3515157,56.6618042 80.3180987,56.5542678 80.2933991,56.4428387 C80.2740269,56.3304364 80.2599821,56.2190073 80.2599821,56.106605 C80.2599821,55.6496969 80.4440179,55.2020341 80.7680179,54.8808847 C80.845991,54.7981644 80.9326816,54.7251759 81.0300269,54.6619192 C81.1215605,54.5986625 81.2232646,54.544651 81.3254529,54.5013444 C81.432,54.4575513 81.5380628,54.4278693 81.6499372,54.4035398 C81.8727175,54.3602333 82.0998565,54.3602333 82.3274798,54.4035398 C82.4340269,54.4278693 82.545417,54.4575513 82.6471211,54.5013444 C82.7536682,54.544651 82.8553722,54.5986625 82.9473901,54.6619192 C83.0394081,54.7251759 83.131426,54.7981644 83.2093991,54.8808847 C83.5290404,55.2020341 83.7130762,55.6496969 83.7130762,56.106605 C83.7130762,56.2190073 83.7029058,56.3304364 83.6786906,56.4428387 C83.6593184,56.5542678 83.6259013,56.6618042 83.5818296,56.768854 C83.5382422,56.8710379 83.4854529,56.9732218 83.422009,57.0705398 C83.3590493,57.1625054 83.2868879,57.2500916 83.2093991,57.3332985 C82.8892735,57.6539613 82.443713,57.8393521 81.9884664,57.8393521" id="Fill-17" fill="#273044"></path>
                    <path d="M80.2598368,63.3472107 C80.2598368,62.3886284 81.0347247,61.6105709 81.9883211,61.6105709 C82.9428861,61.6105709 83.7129309,62.3886284 83.7129309,63.3472107 C83.7129309,64.3057931 82.9428861,65.0799579 81.9883211,65.0799579 C81.0347247,65.0799579 80.2598368,64.3057931 80.2598368,63.3472107" id="Fill-19" fill="#273044"></path>
                    <path d="M81.9884664,72.3201257 C81.533704,72.3201257 81.0881435,72.1352215 80.7680179,71.814072 C80.6861704,71.7362176 80.6178834,71.6486314 80.5549238,71.5513134 C80.4919641,71.4583747 80.4391749,71.357164 80.3951031,71.2496276 C80.3515157,71.1474437 80.3180987,71.0350414 80.2933991,70.9284782 C80.2740269,70.8165625 80.2599821,70.6997808 80.2599821,70.5878651 C80.2599821,70.1304705 80.4440179,69.6828077 80.7680179,69.3616582 C80.845991,69.2838038 80.9326816,69.2103287 81.0300269,69.147072 C81.1215605,69.0843019 81.2232646,69.030777 81.3254529,68.9864973 C81.432,68.9431908 81.5380628,68.9091295 81.6499372,68.8848 C81.8727175,68.8410069 82.0998565,68.8410069 82.3274798,68.8848 C82.4340269,68.9091295 82.545417,68.9431908 82.6471211,68.9864973 C82.7536682,69.030777 82.8553722,69.0843019 82.9473901,69.147072 C83.0394081,69.2103287 83.131426,69.2838038 83.2093991,69.3616582 C83.5290404,69.6828077 83.7130762,70.1304705 83.7130762,70.5878651 C83.7130762,70.6997808 83.7029058,70.8165625 83.6786906,70.9284782 C83.6593184,71.0350414 83.6259013,71.1474437 83.5818296,71.2496276 C83.5382422,71.357164 83.4854529,71.4583747 83.422009,71.5513134 C83.3590493,71.6486314 83.2868879,71.7362176 83.2093991,71.814072 C82.8892735,72.1352215 82.443713,72.3201257 81.9884664,72.3201257" id="Fill-21" fill="#273044"></path>
                    <path d="M87.4661973,70.5881084 C87.4661973,69.6290395 88.2410852,68.850982 89.1951659,68.850982 C90.1492466,68.850982 90.9192915,69.6290395 90.9192915,70.5881084 C90.9192915,71.5466908 90.1492466,72.320369 89.1951659,72.320369 C88.2410852,72.320369 87.4661973,71.5466908 87.4661973,70.5881084" id="Fill-23" fill="#273044"></path>
                    <path d="M96.4017202,72.3248943 C96.29033,72.3248943 96.1789399,72.3102966 96.0627067,72.2913195 C95.9561596,72.2665034 95.8447695,72.2329287 95.7430655,72.188649 C95.6365184,72.1448559 95.5348143,72.091331 95.4427964,72.0280743 C95.3507785,71.9653042 95.2587605,71.896695 95.1807874,71.8139747 C95.1032987,71.7361203 95.0311372,71.6436682 94.9681776,71.5512161 C94.9047336,71.458764 94.8519444,71.3570667 94.808357,71.2495303 C94.7647695,71.1473464 94.7308682,71.0354307 94.711496,70.9283808 C94.6872807,70.8164651 94.6771103,70.6996835 94.6771103,70.5882544 C94.6771103,70.4758521 94.6872807,70.3590705 94.711496,70.2471548 C94.7308682,70.1405916 94.7647695,70.0281893 94.808357,69.9260054 C94.8519444,69.8189556 94.9047336,69.7167716 94.9681776,69.6243195 C95.0311372,69.532354 95.1032987,69.4394153 95.1807874,69.3615609 C95.2587605,69.2837065 95.3507785,69.210718 95.4427964,69.1474613 C95.5348143,69.0842046 95.6365184,69.0306797 95.7430655,68.9868866 C95.8447695,68.9430935 95.9561596,68.9090322 96.0627067,68.8851893 C96.29033,68.8409096 96.5174691,68.8409096 96.7402493,68.8851893 C96.8521238,68.9090322 96.9581865,68.9430935 97.0652179,68.9868866 C97.166922,69.0306797 97.268626,69.0842046 97.3601596,69.1474613 C97.4575049,69.210718 97.5441955,69.2837065 97.6221686,69.3615609 C97.7040161,69.4394153 97.7723031,69.532354 97.8352628,69.6243195 C97.8982224,69.7167716 97.9510117,69.8189556 97.9950834,69.9260054 C98.0386709,70.0281893 98.0720879,70.1405916 98.0967874,70.2471548 C98.1161596,70.3590705 98.1302045,70.4758521 98.1302045,70.5882544 C98.1302045,70.6996835 98.1161596,70.8164651 98.0967874,70.9283808 C98.0720879,71.0354307 98.0386709,71.1473464 97.9950834,71.2495303 C97.9510117,71.3570667 97.8982224,71.458764 97.8352628,71.5512161 C97.7723031,71.6436682 97.7040161,71.7361203 97.6221686,71.8139747 C97.5441955,71.896695 97.4575049,71.9653042 97.3601596,72.0280743 C97.268626,72.091331 97.166922,72.1448559 97.0652179,72.188649 C96.9581865,72.2329287 96.8521238,72.2665034 96.7402493,72.2913195 C96.6293435,72.3102966 96.512626,72.3248943 96.4017202,72.3248943" id="Fill-25" fill="#273044"></path>
                    <path d="M94.6773525,63.3472107 C94.6773525,62.3886284 95.4473973,61.6105709 96.4019623,61.6105709 C97.3555587,61.6105709 98.1304466,62.3886284 98.1304466,63.3472107 C98.1304466,64.3057931 97.3555587,65.0799579 96.4019623,65.0799579 C95.4473973,65.0799579 94.6773525,64.3057931 94.6773525,63.3472107" id="Fill-27" fill="#273044"></path>
                    <path d="M17.2959336,16.6545172 C12.8442027,16.6545172 9.23516233,20.2805862 9.23516233,24.7533218 C9.23516233,29.2260575 12.8442027,32.8521264 17.2959336,32.8521264 C21.7476646,32.8521264 25.3567049,29.2260575 25.3567049,24.7533218 C25.3567049,20.2805862 21.7476646,16.6545172 17.2959336,16.6545172" id="Fill-29" fill="#EA7924"></path>
                    <path d="M45.6897148,16.6545172 C41.2379839,16.6545172 37.6289435,20.2805862 37.6289435,24.7533218 C37.6289435,29.2260575 41.2379839,32.8521264 45.6897148,32.8521264 C50.1414457,32.8521264 53.7504861,29.2260575 53.7504861,24.7533218 C53.7504861,20.2805862 50.1414457,16.6545172 45.6897148,16.6545172" id="Fill-31" fill="#EA7924"></path>
                    <path d="M17.2959336,18.3894054 C13.8031265,18.3894054 10.9621937,21.2442291 10.9621937,24.7530299 C10.9621937,28.2623172 13.8031265,31.117141 17.2959336,31.117141 C20.7887408,31.117141 23.6301578,28.2623172 23.6301578,24.7530299 C23.6301578,21.2442291 20.7887408,18.3894054 17.2959336,18.3894054 M17.2959336,34.586528 C11.8993238,34.586528 7.50861525,30.1755893 7.50861525,24.7530299 C7.50861525,19.3314437 11.8993238,14.9200184 17.2959336,14.9200184 C22.6930278,14.9200184 27.0837363,19.3314437 27.0837363,24.7530299 C27.0837363,30.1755893 22.6930278,34.586528 17.2959336,34.586528" id="Fill-33" fill="#273044"></path>
                    <path d="M45.6897148,18.3894054 C42.1969076,18.3894054 39.3559749,21.2442291 39.3559749,24.7530299 C39.3559749,28.2623172 42.1969076,31.117141 45.6897148,31.117141 C49.182522,31.117141 52.023939,28.2623172 52.023939,24.7530299 C52.023939,21.2442291 49.182522,18.3894054 45.6897148,18.3894054 M45.6897148,34.586528 C40.2931049,34.586528 35.9023964,30.1755893 35.9023964,24.7530299 C35.9023964,19.3314437 40.2931049,14.9200184 45.6897148,14.9200184 C51.086809,14.9200184 55.4775175,19.3314437 55.4775175,24.7530299 C55.4775175,30.1755893 51.086809,34.586528 45.6897148,34.586528" id="Fill-35" fill="#273044"></path>
                    <path d="M89.2677148,18.3913517 C89.2580287,18.3864858 89.2531857,18.3864858 89.2434996,18.3864858 C89.2241274,18.3864858 89.2095982,18.3913517 89.1955534,18.3913517 C88.7398224,18.3913517 88.2942619,18.201095 87.9746206,17.8804322 C87.6501363,17.5592828 87.4709435,17.1116199 87.4709435,16.6542253 C87.4709435,16.1968307 87.6501363,15.7491678 87.9746206,15.4280184 C88.2942619,15.106869 88.7398224,14.9166123 89.1955534,14.9166123 C89.2192843,14.9166123 89.2434996,14.9219648 89.2725578,14.9219648 L89.3113022,14.9219648 C90.2605399,14.9316966 91.0257417,15.7151065 91.0160556,16.6736889 C91.0063695,17.6274054 90.2363247,18.3913517 89.29193,18.3913517 L89.2677148,18.3913517 Z M81.8191049,21.0481333 C81.0781184,20.4447617 80.9570422,19.3543134 81.5527372,18.6049648 C82.1484323,17.8609686 83.2381184,17.7393211 83.9791049,18.3378268 C84.7249345,18.9411985 84.8460108,20.0311602 84.2503157,20.7756429 C83.9064592,21.2038421 83.4076251,21.4276736 82.8995892,21.4276736 C82.5213471,21.4276736 82.1387462,21.3006736 81.8191049,21.0481333 Z M94.1882529,20.8388996 C93.6022439,20.0798192 93.7330063,18.9893709 94.4841632,18.4015701 C95.2343516,17.8123096 96.3196789,17.9436889 96.9056879,18.6979034 C97.4960556,19.452118 97.3604502,20.5420797 96.6097776,21.1357195 C96.2949794,21.3838805 95.9220646,21.5006621 95.5491498,21.5006621 C95.0357865,21.5006621 94.5272664,21.2719648 94.1882529,20.8388996 Z M79.6445758,26.9066774 C79.4363247,25.9724245 80.0174906,25.0430375 80.9521991,24.8338038 C81.8820646,24.629436 82.807087,25.2138307 83.0153381,26.1524628 L83.0104951,26.1524628 C83.2240735,27.0867157 82.6380646,28.0117234 81.7077148,28.2204705 C81.5769525,28.2496659 81.4510332,28.2642636 81.329957,28.2642636 C80.5356969,28.2642636 79.8237686,27.7144169 79.6445758,26.9066774 Z M96.6436789,28.3080567 C95.7142978,28.0890912 95.1423336,27.1548383 95.3602709,26.2259379 C95.5782081,25.2911985 96.5080735,24.7121563 97.437939,24.9306352 C98.3629614,25.1549533 98.9392843,26.0892061 98.7218314,27.0181065 C98.5324682,27.8166008 97.825383,28.3562291 97.040809,28.3562291 C96.9100466,28.3562291 96.7744413,28.342118 96.6436789,28.3080567 Z M84.8992843,33.5924245 C84.0469076,33.1690912 83.688522,32.1326544 84.1103516,31.27139 C84.5263695,30.4101257 85.5632664,30.0549149 86.4151587,30.4733824 C87.2772215,30.8967157 87.6307641,31.9331525 87.2094188,32.7949034 C86.9091498,33.4123862 86.2940825,33.7680835 85.6548,33.7680835 C85.4034457,33.7680835 85.1462798,33.714072 84.8992843,33.5924245 Z M91.0838583,32.8187464 C90.6770422,31.9526161 91.0451139,30.9161793 91.9023336,30.5074437 C92.7643964,30.098708 93.7964502,30.4685165 94.2027821,31.3351333 C94.6095982,32.1959111 94.2463695,33.2323479 93.3843067,33.6410835 C93.1469973,33.7578651 92.8951587,33.8109034 92.6481632,33.8109034 C91.9991946,33.8109034 91.3792843,33.4459609 91.0838583,32.8187464 Z" id="Fill-37" fill="#273044"></path>
                    <mask id="mask-2" fill="white">
                        <use xlink:href="#path-1"></use>
                    </mask>
                    <g id="Clip-40"></g>
                    <path d="M3.45357848,37.4805709 L104.085848,37.4805709 L104.085848,12.1102529 L3.45357848,12.1102529 L3.45357848,37.4805709 Z M0,40.9499579 L107.539426,40.9499579 L107.539426,8.64183908 L0,8.64183908 L0,40.9499579 Z" id="Fill-39" fill="#273044" mask="url(#mask-2)"></path>
                    <polygon id="Fill-41" fill="#273044" mask="url(#mask-2)" points="25.3572377 26.4880153 39.0112466 26.4880153 39.0112466 23.0186284 25.3572377 23.0186284"></polygon>
                    <path d="M3.45357848,76.3995019 L104.085848,76.3995019 L104.085848,51.0296705 L3.45357848,51.0296705 L3.45357848,76.3995019 Z M0,79.8693755 L107.539426,79.8693755 L107.539426,47.5607701 L0,47.5607701 L0,79.8693755 Z" id="Fill-42" fill="#273044" mask="url(#mask-2)"></path>
                    <polygon id="Fill-43" fill="#273044" mask="url(#mask-2)" points="25.3572377 65.080931 39.0112466 65.080931 39.0112466 61.6115441 25.3572377 61.6115441"></polygon>
                    <path d="M39.732861,108.394354 L51.6467623,108.394354 L45.6898117,98.3107487 L39.732861,108.394354 Z M57.711713,111.863741 L33.6679103,111.863741 L45.6898117,91.514059 L57.711713,111.863741 Z" id="Fill-44" fill="#273044" mask="url(#mask-2)"></path>
                    <path d="M98.183817,111.865541 C98.0724269,111.865541 97.9561937,111.850944 97.8448036,111.83148 C97.7382565,111.806664 97.6268664,111.773089 97.5251623,111.729296 C97.4186152,111.685016 97.3217543,111.631978 97.2248933,111.573101 C97.1328753,111.510331 97.0457004,111.436856 96.9628843,111.354135 C96.6437274,111.032986 96.4596915,110.590189 96.4596915,110.128415 C96.4596915,109.670534 96.6437274,109.222871 96.9628843,108.901721 C97.0408574,108.824354 97.1328753,108.751365 97.2248933,108.688108 C97.3217543,108.624365 97.4186152,108.57084 97.5251623,108.527534 C97.6268664,108.483741 97.7382565,108.449193 97.8448036,108.429729 C98.0675839,108.38107 98.3000502,108.38107 98.5228305,108.429729 C98.6342206,108.449193 98.7407677,108.483741 98.8473148,108.527534 C98.9490188,108.57084 99.0507229,108.624365 99.1422565,108.688108 C99.2396018,108.751365 99.3267767,108.824354 99.4042655,108.901721 C99.4865973,108.984442 99.5544,109.072028 99.6173596,109.16448 C99.6803193,109.261798 99.7335928,109.359603 99.7771803,109.466166 C99.8207677,109.56835 99.8546691,109.680266 99.8788843,109.792181 C99.8982565,109.904584 99.9127857,110.016013 99.9127857,110.128415 C99.9127857,110.239844 99.8982565,110.356626 99.8788843,110.468541 C99.8546691,110.580457 99.8207677,110.687507 99.7771803,110.795043 C99.7335928,110.896741 99.6803193,110.999411 99.6173596,111.091377 C99.5544,111.188695 99.4865973,111.276281 99.4042655,111.354135 C99.3267767,111.436856 99.2396018,111.510331 99.1422565,111.573101 C99.0507229,111.631978 98.9490188,111.690369 98.8473148,111.729296 C98.7407677,111.773089 98.6342206,111.806664 98.5228305,111.83148 C98.4114404,111.850944 98.2947229,111.865541 98.183817,111.865541" id="Fill-45" fill="#273044" mask="url(#mask-2)"></path>
                    <path d="M90.7059552,100.868363 C90.2216502,100.046026 90.4885022,98.9803939 91.3113363,98.4938038 C92.1298117,98.0018613 93.1909238,98.2748383 93.6752287,99.0966889 C94.1643767,99.9243785 93.8926816,100.985145 93.0746906,101.476601 C92.7981525,101.642041 92.4930404,101.719896 92.1927713,101.719896 C91.6024036,101.719896 91.0304395,101.41821 90.7059552,100.868363 M93.7038027,105.943497 C93.215139,105.115808 93.4858655,104.055528 94.3048251,103.564072 C95.1281435,103.077482 96.188287,103.345107 96.6725919,104.17231 C97.1568969,104.99416 96.8910135,106.060279 96.0672108,106.546869 C95.791157,106.71231 95.4913722,106.790164 95.1911031,106.790164 C94.5997668,106.790164 94.0239283,106.488478 93.7038027,105.943497" id="Fill-46" fill="#273044" mask="url(#mask-2)"></path>
                    <path d="M89.1953596,96.6449077 C88.740113,96.6449077 88.2945525,96.4595169 87.9744269,96.138854 C87.6504269,95.8177046 87.466391,95.3700418 87.466391,94.9121605 C87.466391,94.8007314 87.4809202,94.6839498 87.5002924,94.5715475 C87.5245076,94.4649843 87.5579247,94.352582 87.6019964,94.2508847 C87.6455839,94.1433483 87.6983731,94.0411644 87.7613327,93.9491989 C87.8194493,93.8567467 87.8925794,93.7642946 87.9744269,93.6864402 C88.3768843,93.2825705 88.9720951,93.0976663 89.5338888,93.2090954 C89.6409202,93.2334249 89.751826,93.2679728 89.85353,93.3112793 C89.9600771,93.3550724 90.0617812,93.4090839 90.1537991,93.471854 C90.2463013,93.5351107 90.337835,93.6037199 90.4158081,93.6864402 C90.4932969,93.7642946 90.5654583,93.8567467 90.6289022,93.9491989 C90.6918619,94.0411644 90.7446511,94.1433483 90.7882386,94.2508847 C90.8323103,94.352582 90.8657274,94.4649843 90.8850996,94.5715475 C90.9093148,94.6839498 90.9194852,94.8007314 90.9194852,94.9121605 C90.9194852,95.0245628 90.9093148,95.1408579 90.8850996,95.2532602 C90.8657274,95.3598234 90.8323103,95.4722257 90.7882386,95.5744096 C90.7446511,95.6814594 90.6918619,95.7787774 90.6289022,95.8760954 C90.5654583,95.9680609 90.4932969,96.0609996 90.4158081,96.138854 C90.337835,96.2215743 90.2463013,96.2896969 90.1537991,96.352467 C90.0617812,96.4162103 89.9600771,96.4697352 89.85353,96.5130418 C89.751826,96.5568349 89.6409202,96.5913828 89.5338888,96.6152257 C89.422983,96.6346893 89.3062655,96.6449077 89.1953596,96.6449077" id="Fill-47" fill="#273044" mask="url(#mask-2)"></path>
                    <path d="M85.3156897,101.476601 C84.4976987,100.985145 84.2260036,99.9243785 84.7156359,99.0966889 C85.1999408,98.2748383 86.2600843,98.0018613 87.0790439,98.4938038 C87.901878,98.9803939 88.16873,100.046026 87.6844251,100.868363 C87.3599408,101.41821 86.7831336,101.719896 86.1971247,101.719896 C85.8968556,101.719896 85.5917435,101.642041 85.3156897,101.476601 M82.3183265,106.546869 C81.4993668,106.060279 81.2286404,104.99416 81.717304,104.17231 C82.206452,103.350459 83.2627211,103.077482 84.0855552,103.564072 C84.9040305,104.055528 85.1752413,105.115808 84.6860933,105.943497 C84.366452,106.488478 83.7906135,106.790164 83.1992771,106.790164 C82.8994924,106.790164 82.5992233,106.71231 82.3183265,106.546869" id="Fill-48" fill="#273044" mask="url(#mask-2)"></path>
                    <path d="M80.2063695,111.865541 C80.0954637,111.865541 79.9787462,111.850944 79.8673561,111.83148 C79.7559659,111.806664 79.6494188,111.773089 79.5477148,111.729296 C79.4411677,111.690369 79.3394637,111.631978 79.24793,111.573101 C79.1505848,111.510331 79.0634099,111.436856 78.9859211,111.354135 C78.9040735,111.276281 78.8309435,111.188695 78.7679839,111.091377 C78.7050242,110.999411 78.6517507,110.896741 78.6130063,110.795043 C78.5694188,110.687507 78.5355175,110.580457 78.5113022,110.468541 C78.49193,110.356626 78.4774009,110.239844 78.4774009,110.128415 C78.4774009,109.670534 78.6619211,109.222871 78.9859211,108.901721 C79.0634099,108.824354 79.1505848,108.751365 79.24793,108.688108 C79.3394637,108.624365 79.4411677,108.57084 79.5477148,108.527534 C79.6494188,108.483741 79.760809,108.449193 79.8673561,108.429729 C80.0901363,108.38107 80.3226027,108.38107 80.545383,108.429729 C80.65193,108.449193 80.7633202,108.483741 80.8650242,108.527534 C80.9715713,108.57084 81.0732753,108.624365 81.1652933,108.688108 C81.2573112,108.751365 81.3493291,108.824354 81.4273022,108.901721 C81.7464592,109.227737 81.9309794,109.670534 81.9309794,110.128415 C81.9309794,110.239844 81.920809,110.356626 81.8965937,110.468541 C81.8772215,110.580457 81.8433202,110.687507 81.7997327,110.795043 C81.7561453,110.896741 81.7028717,110.999411 81.6399121,111.091377 C81.5769525,111.188695 81.5043067,111.276281 81.4273022,111.354135 C81.3444861,111.436856 81.2573112,111.510331 81.1652933,111.573101 C81.0684323,111.631978 80.9715713,111.685016 80.8650242,111.729296 C80.7633202,111.773089 80.65193,111.806664 80.545383,111.83148 C80.4339928,111.850944 80.3177596,111.865541 80.2063695,111.865541" id="Fill-49" fill="#273044" mask="url(#mask-2)"></path>
                    <path d="M84.4733865,110.128269 C84.4733865,109.174552 85.2434314,108.395522 86.1975121,108.395522 C87.1511085,108.395522 87.9264807,109.174552 87.9264807,110.128269 C87.9264807,111.086851 87.1511085,111.865395 86.1975121,111.865395 C85.2434314,111.865395 84.4733865,111.086851 84.4733865,110.128269 M90.4637543,110.128269 C90.4637543,109.174552 91.2391265,108.395522 92.1927229,108.395522 C93.1468036,108.395522 93.9173327,109.174552 93.9173327,110.128269 C93.9173327,111.086851 93.1468036,111.865395 92.1927229,111.865395 C91.2391265,111.865395 90.4637543,111.086851 90.4637543,110.128269" id="Fill-50" fill="#273044" mask="url(#mask-2)"></path>
                    <path d="M12.4382099,108.394354 L24.3521112,108.394354 L18.3951605,98.3107487 L12.4382099,108.394354 Z M30.4170619,111.863741 L6.37325919,111.863741 L18.3951605,91.514059 L30.4170619,111.863741 Z" id="Fill-51" fill="#273044" mask="url(#mask-2)"></path>
                    <path d="M3.45357848,115.604061 L104.085848,115.604061 L104.085848,90.2337433 L3.45357848,90.2337433 L3.45357848,115.604061 Z M0,119.072962 L107.539426,119.072962 L107.539426,86.7643563 L0,86.7643563 L0,119.072962 Z" id="Fill-52" fill="#273044" mask="url(#mask-2)"></path>
                    <polygon id="Fill-53" fill="#273044" mask="url(#mask-2)" points="23.1463857 104.285004 42.1921614 104.285004 42.1921614 100.815617 23.1463857 100.815617"></polygon>
                    <path d="M66.3329704,102.877445 C66.3329704,101.982606 67.0550691,101.257587 67.9452215,101.257587 C68.835374,101.257587 69.5574726,101.982606 69.5574726,102.877445 C69.5574726,103.771797 68.835374,104.497303 67.9452215,104.497303 C67.0550691,104.497303 66.3329704,103.771797 66.3329704,102.877445 M72.7819749,102.877445 C72.7819749,101.982606 73.4914816,101.257587 74.3947103,101.257587 C75.2843785,101.257587 76.0069614,101.982606 76.0069614,102.877445 C76.0069614,103.771797 75.2843785,104.497303 74.3947103,104.497303 C73.4914816,104.497303 72.7819749,103.771797 72.7819749,102.877445" id="Fill-54" fill="#273044" mask="url(#mask-2)"></path>
                    <path d="M66.3329704,63.4013682 C66.3329704,62.5065291 67.0550691,61.78151 67.9452215,61.78151 C68.835374,61.78151 69.5574726,62.5065291 69.5574726,63.4013682 C69.5574726,64.2952341 68.835374,65.0212264 67.9452215,65.0212264 C67.0550691,65.0212264 66.3329704,64.2952341 66.3329704,63.4013682 M72.7819749,63.4013682 C72.7819749,62.5065291 73.4914816,61.78151 74.3947103,61.78151 C75.2843785,61.78151 76.0069614,62.5065291 76.0069614,63.4013682 C76.0069614,64.2952341 75.2843785,65.0212264 74.3947103,65.0212264 C73.4914816,65.0212264 72.7819749,64.2952341 72.7819749,63.4013682" id="Fill-55" fill="#273044" mask="url(#mask-2)"></path>
                    <path d="M66.3329704,25.2045368 C66.3329704,24.3096977 67.0550691,23.5846785 67.9452215,23.5846785 C68.835374,23.5846785 69.5574726,24.3096977 69.5574726,25.2045368 C69.5574726,26.0988893 68.835374,26.824395 67.9452215,26.824395 C67.0550691,26.824395 66.3329704,26.0988893 66.3329704,25.2045368 M72.7819749,25.2045368 C72.7819749,24.3096977 73.4914816,23.5846785 74.3947103,23.5846785 C75.2843785,23.5846785 76.0069614,24.3096977 76.0069614,25.2045368 C76.0069614,26.0988893 75.2843785,26.824395 74.3947103,26.824395 C73.4914816,26.824395 72.7819749,26.0988893 72.7819749,25.2045368" id="Fill-56" fill="#273044" mask="url(#mask-2)"></path>
                    <path d="M61.5582565,127.000243 C60.6046601,127.000243 59.8317094,126.223159 59.8317094,125.26555 L59.8317094,1.9685 C59.8317094,1.00991762 60.6046601,0.233319923 61.5582565,0.233319923 C62.5118529,0.233319923 63.2848036,1.00991762 63.2848036,1.9685 L63.2848036,125.26555 C63.2848036,126.223159 62.5118529,127.000243 61.5582565,127.000243" id="Fill-57" fill="#273044" mask="url(#mask-2)"></path>
                </g>
            </g>
        </g>
    </g>
</svg>