<?xml version="1.0" encoding="UTF-8"?>
<svg width="120px" height="120px" viewBox="0 0 120 120" version="1.1" xmlns="http://www.w3.org/2000/svg" xmlns:xlink="http://www.w3.org/1999/xlink">
    <!-- Generator: Sketch 51.3 (57544) - http://www.bohemiancoding.com/sketch -->
    <title>Group 49</title>
    <desc>Created with Sketch.</desc>
    <defs></defs>
    <g id="Page-1" stroke="none" stroke-width="1" fill="none" fill-rule="evenodd">
        <g id="Insight-Webpage-Update_v4" transform="translate(-1160.000000, -4266.000000)">
            <g id="Group-49" transform="translate(1160.000000, 4266.000000)">
                <path d="M76.9347231,69.2016923 L76.9347231,83.4096923 L43.9356462,83.4096923 L43.9356462,69.2016923 C43.9356462,63.3069231 47.0256462,58.1303077 51.6894923,55.2221538 C53.8328769,57.8561538 56.9574923,59.5098462 60.4351846,59.5098462 C63.9013385,59.5098462 67.0254923,57.8561538 69.1808769,55.2221538 C73.8447231,58.1303077 76.9347231,63.3069231 76.9347231,69.2016923" id="Fill-1" fill="#FFFFFF"></path>
                <path d="M60.1133538,16.6548462 C36.2772,16.6548462 16.8856615,36.0473077 16.8856615,59.883 C16.8856615,83.7191538 36.2772,103.110692 60.1133538,103.110692 C83.9495077,103.110692 103.341046,83.7191538 103.341046,59.883 C103.341046,36.0473077 83.9495077,16.6548462 60.1133538,16.6548462 M60.1133538,106.401462 C34.4628923,106.401462 13.5944308,85.5334615 13.5944308,59.883 C13.5944308,34.2325385 34.4628923,13.3645385 60.1133538,13.3645385 C85.7638154,13.3645385 106.632277,34.2325385 106.632277,59.883 C106.632277,85.5334615 85.7638154,106.401462 60.1133538,106.401462" id="Fill-3" fill="#EA7924"></path>
                <path d="M45.5812154,81.7642154 L75.2890615,81.7642154 L75.2890615,69.2016 C75.2890615,64.5040615 73.1216769,60.1794462 69.4293692,57.3880615 C66.9767538,59.7982154 63.7713692,61.1551385 60.4353692,61.1551385 C57.0892154,61.1551385 53.8829077,59.7986769 51.4386,57.3894462 C47.7472154,60.1812923 45.5812154,64.5045231 45.5812154,69.2016 L45.5812154,81.7642154 Z M78.5802923,85.0549846 L42.2899846,85.0549846 L42.2899846,69.2016 C42.2899846,62.9039077 45.4782923,57.1559077 50.8192154,53.8263692 L52.0501385,53.0588308 L52.9653692,54.1836 C54.8692154,56.5231385 57.5913692,57.8643692 60.4353692,57.8643692 C63.2678308,57.8643692 65.9918308,56.5217538 67.9076769,54.1799077 L68.8238308,53.0606769 L70.0515231,53.8263692 C75.3919846,57.1559077 78.5802923,62.9039077 78.5802923,69.2016 L78.5802923,85.0549846 Z" id="Fill-5" fill="#192330"></path>
                <path d="M48.4315846,78.9133846 L72.4385077,78.9133846 L72.4385077,69.2016923 C72.4385077,66.2016923 71.3248154,63.336 69.3452769,61.1552308 C66.7094308,63.0023077 63.5963538,64.0052308 60.4352769,64.0052308 C57.2677385,64.0052308 54.1537385,63.0032308 51.5215846,61.1584615 C49.5443538,63.3392308 48.4315846,66.2035385 48.4315846,69.2016923 L48.4315846,78.9133846 Z M75.7292769,82.2041538 L45.1403538,82.2041538 L45.1403538,69.2016923 C45.1403538,64.8027692 47.0238923,60.6263077 50.3072769,57.7449231 L51.3766615,56.8066154 L52.4594308,57.7283077 C54.7218923,59.6538462 57.5543538,60.7144615 60.4352769,60.7144615 C63.3083538,60.7144615 66.1403538,59.6533846 68.4088154,57.7255385 L69.4915846,56.8052308 L70.5591231,57.7421538 C73.8448154,60.624 75.7292769,64.8009231 75.7292769,69.2016923 L75.7292769,82.2041538 Z" id="Fill-7" fill="#EA7924"></path>
                <path d="M69.9665538,55.7490462 L60.3314769,72.4308923 L50.8671692,55.7716615 C51.1297846,55.5778154 51.4030154,55.3950462 51.6877846,55.2242769 C53.8320923,57.8582769 56.9562462,59.5115077 60.4339385,59.5115077 C63.9000923,59.5115077 67.0247077,57.8582769 69.1796308,55.2242769 C69.4537846,55.3950462 69.7159385,55.5662769 69.9665538,55.7490462" id="Fill-9" fill="#FFFFFF"></path>
                <path d="M60.3125538,75.7808769 L50.1845538,57.6816462 C49.7410154,56.8887231 50.0239385,55.8862615 50.8168615,55.4422615 C51.6093231,54.9991846 52.6122462,55.2816462 53.0562462,56.0745692 L60.3397846,69.0908769 L68.4614769,54.8496462 C68.9119385,54.0599538 69.9167077,53.7858 70.7064,54.2353385 C71.4951692,54.6858 71.7702462,55.6910308 71.3202462,56.4802615 L60.3125538,75.7808769 Z" id="Fill-11" fill="#192330"></path>
                <path d="M60.4351846,84.9562154 C59.5264154,84.9562154 58.7898,84.2196 58.7898,83.3108308 L58.7898,72.4356 C58.7898,71.5268308 59.5264154,70.7906769 60.4351846,70.7906769 C61.3439538,70.7906769 62.0805692,71.5268308 62.0805692,72.4356 L62.0805692,83.3108308 C62.0805692,84.2196 61.3439538,84.9562154 60.4351846,84.9562154" id="Fill-13" fill="#192330"></path>
                <path d="M12.3139385,55.1689385 C12.2419385,55.1689385 12.1694769,55.1643231 12.0960923,55.1546308 C11.1951692,55.0355538 10.5614769,54.2089385 10.6805538,53.3080154 C13.7507077,30.0510923 32.9664,11.9278615 56.3700923,10.2146308 C57.2714769,10.1472462 58.0653231,10.8284769 58.1313231,11.7354 C58.1977846,12.6414 57.5165538,13.4297077 56.6110154,13.4961692 C34.7544,15.0967846 16.8102462,32.0209385 13.9427077,53.7386308 C13.8337846,54.5661692 13.1267077,55.1689385 12.3139385,55.1689385" id="Fill-15" fill="#192330"></path>
                <polygon id="Fill-17" fill="#192330" points="47.4169846 26.9168308 44.8831385 24.8117538 55.2659077 12.3432923 42.0700615 2.89836923 43.9896 0.221907692 60.0589846 11.7280615"></polygon>
                <path d="M52.9667077,109.177523 C52.8864,109.177523 52.8056308,109.171523 52.7244,109.159523 C41.6424,107.523831 31.3099385,102.089215 23.6299385,93.8567538 C15.9120923,85.5841385 11.2076308,74.8302923 10.3837846,63.5761385 C10.3177846,62.6696769 10.9985538,61.8813692 11.9045538,61.8153692 C12.8160923,61.7479846 13.5993231,62.4296769 13.6662462,63.3361385 C14.4356308,73.8439846 18.8285538,83.8856769 26.0359385,91.6118308 C33.2091692,99.3010615 42.8580923,104.3766 53.2048615,105.903831 C54.1039385,106.036754 54.7251692,106.873062 54.5917846,107.772138 C54.4717846,108.589523 53.7688615,109.177523 52.9667077,109.177523" id="Fill-19" fill="#192330"></path>
                <polygon id="Fill-21" fill="#192330" points="27.0836308 72.5334462 24.9776308 75.0663692 12.5124 64.6799077 3.06332308 77.8729846 0.387784615 75.9534462 11.8985538 59.8877538"></polygon>
                <path d="M63.6240462,109.566046 C62.7697385,109.566046 62.0483538,108.906046 61.9846615,108.040662 C61.9186615,107.1342 62.5994308,106.345892 63.5054308,106.279892 C84.2866615,104.757738 101.631277,89.4254308 105.684508,68.9935846 C105.861738,68.1023538 106.7322,67.5235846 107.618354,67.6998923 C108.510046,67.8766615 109.089277,68.7429692 108.912508,69.6337385 C104.571738,91.5134308 85.9989692,107.9322 63.7463538,109.561431 C63.7052769,109.564662 63.6646615,109.566046 63.6240462,109.566046" id="Fill-23" fill="#192330"></path>
                <polygon id="Fill-25" fill="#192330" points="72.7186615 92.8749231 75.2492769 94.9832308 64.8508154 107.438769 78.0346615 116.900308 76.1114308 119.574923 60.0572769 108.047077"></polygon>
                <path d="M108.088569,57.9652154 C107.234262,57.9652154 106.512877,57.3052154 106.449185,56.4398308 C104.9058,35.3466 89.3025692,17.9502923 68.5056462,14.1352154 C67.6121077,13.9709077 67.0208769,13.1133692 67.1842615,12.2198308 C67.3481077,11.3262923 68.2005692,10.7346 69.0996462,10.8979846 C91.3693385,14.9835231 108.078415,33.6121385 109.731646,56.1998308 C109.797646,57.1062923 109.116877,57.8946 108.210415,57.9606 C108.1698,57.9638308 108.129185,57.9652154 108.088569,57.9652154" id="Fill-27" fill="#192330"></path>
                <polygon id="Fill-29" fill="#192330" points="93.0408 47.2321846 95.1481846 44.7006462 107.607415 55.0954154 117.0648 41.9088 119.739415 43.8301846 108.218031 59.8884923"></polygon>
                <path d="M90.0168923,78.0791077 C90.0168923,76.4794154 88.7199692,75.1824923 87.1202769,75.1824923 C85.5205846,75.1824923 84.2236615,76.4794154 84.2236615,78.0791077 C84.2236615,79.6792615 85.5205846,80.9757231 87.1202769,80.9757231 C88.7199692,80.9757231 90.0168923,79.6792615 90.0168923,78.0791077" id="Fill-31" fill="#192330"></path>
                <path d="M90.0168923,59.2353692 C90.0168923,57.6356769 88.7199692,56.3392154 87.1202769,56.3392154 C85.5205846,56.3392154 84.2236615,57.6356769 84.2236615,59.2353692 C84.2236615,60.8355231 85.5205846,62.1319846 87.1202769,62.1319846 C88.7199692,62.1319846 90.0168923,60.8355231 90.0168923,59.2353692" id="Fill-33" fill="#192330"></path>
                <path d="M35.0875385,59.2353692 C35.0875385,57.6356769 33.7906154,56.3392154 32.1909231,56.3392154 C30.5912308,56.3392154 29.2938462,57.6356769 29.2938462,59.2353692 C29.2938462,60.8355231 30.5912308,62.1319846 32.1909231,62.1319846 C33.7906154,62.1319846 35.0875385,60.8355231 35.0875385,59.2353692" id="Fill-35" fill="#192330"></path>
                <path d="M90.0168923,40.3037077 C90.0168923,38.7035538 88.7199692,37.4070923 87.1202769,37.4070923 C85.5205846,37.4070923 84.2236615,38.7035538 84.2236615,40.3037077 C84.2236615,41.9034 85.5205846,43.1998615 87.1202769,43.1998615 C88.7199692,43.1998615 90.0168923,41.9034 90.0168923,40.3037077" id="Fill-37" fill="#192330"></path>
                <path d="M34.9798154,78.0791077 C34.9798154,76.4794154 33.6828923,75.1824923 32.0832,75.1824923 C30.4835077,75.1824923 29.1865846,76.4794154 29.1865846,78.0791077 C29.1865846,79.6792615 30.4835077,80.9757231 32.0832,80.9757231 C33.6828923,80.9757231 34.9798154,79.6792615 34.9798154,78.0791077" id="Fill-39" fill="#192330"></path>
                <path d="M34.9798154,40.3037077 C34.9798154,38.7035538 33.6828923,37.4070923 32.0832,37.4070923 C30.4835077,37.4070923 29.1865846,38.7035538 29.1865846,40.3037077 C29.1865846,41.9034 30.4835077,43.1998615 32.0832,43.1998615 C33.6828923,43.1998615 34.9798154,41.9034 34.9798154,40.3037077" id="Fill-41" fill="#192330"></path>
                <path d="M67.2676615,4.02023077 C64.3701231,3.63069231 61.4130462,3.47007692 58.4799692,3.54207692 L58.4093538,0.692076923 C61.4928923,0.616384615 64.6013538,0.785769231 67.6465846,1.19469231 L67.2676615,4.02023077 Z M79.0032,6.92469231 C76.2501231,5.91484615 73.3982769,5.11915385 70.5265846,4.55838462 L71.0725846,1.76053846 C74.0919692,2.34992308 77.0901231,3.18669231 79.9844308,4.24823077 L79.0032,6.92469231 Z M27.1110462,14.1246923 L25.4402769,11.8151538 C27.9390462,10.0073077 30.5988923,8.38684615 33.3450462,6.999 L34.6304308,9.54346154 C32.0181231,10.8639231 29.4888923,12.405 27.1110462,14.1246923 Z M89.8368923,12.2868462 C87.3630462,10.7102308 84.7493538,9.31915385 82.0668923,8.15192308 L83.2041231,5.53823077 C86.0232,6.76407692 88.7698154,8.22623077 91.3692,9.88315385 L89.8368923,12.2868462 Z M18.1295077,22.2302308 L16.0027385,20.3319231 C18.0533538,18.0343846 20.3015077,15.8817692 22.6848923,13.9336154 L24.4885846,16.1406923 C22.2205846,17.9951538 20.0808923,20.0439231 18.1295077,22.2302308 Z M99.2781231,19.8454615 C97.2025846,17.781 94.9456615,15.8623846 92.5692,14.1436154 L94.2395077,11.8340769 C96.7368923,13.6396154 99.1078154,15.6551538 101.289046,17.8253077 L99.2781231,19.8454615 Z M11.0910462,32.0665385 L8.60843077,30.6657692 C10.1199692,27.9856154 11.8548923,25.4028462 13.7675077,22.9894615 L16.0018154,24.7599231 C14.1815077,27.057 12.5301231,29.5151538 11.0910462,32.0665385 Z M106.883354,29.2543846 C105.3012,26.7920769 103.507662,24.4340769 101.552123,22.2459231 L103.678431,20.3466923 C105.732738,22.6465385 107.618585,25.125 109.281508,27.7133077 L106.883354,29.2543846 Z M6.32981538,43.1716154 L3.60350769,42.3399231 C4.50073846,39.3999231 5.64166154,36.5060769 6.99396923,33.7368462 L9.55504615,34.9885385 C8.26827692,37.623 7.1832,40.3760769 6.32981538,43.1716154 Z M112.277815,40.0862308 C111.265662,37.3368462 110.024123,34.6456154 108.587815,32.0891538 L111.073662,30.6934615 C112.582892,33.3814615 113.888585,36.2102308 114.953354,39.1008462 L112.277815,40.0862308 Z M4.07796923,55.0493077 L1.23581538,54.8263846 C1.47766154,51.7548462 1.96596923,48.6805385 2.68781538,45.6893077 L5.45889231,46.3580769 C4.77212308,49.2034615 4.30735385,52.1277692 4.07796923,55.0493077 Z M118.174431,67.1776154 L115.347046,66.8074615 C115.725969,63.9103846 115.876431,60.9523846 115.796585,58.0174615 L118.645662,57.939 C118.731046,61.0234615 118.571815,64.1314615 118.174431,67.1776154 Z M115.164277,79.5260769 L112.484585,78.5536154 C113.484277,75.7986923 114.270738,72.9431538 114.822277,70.0682308 L117.621969,70.6054615 C117.042277,73.6276154 116.2152,76.6294615 115.164277,79.5260769 Z M10.3452,91.2380769 C8.67904615,88.6428462 7.20904615,85.8966923 5.97535385,83.0780769 L8.5872,81.9353077 C9.75996923,84.6173077 11.1588923,87.2291538 12.7433538,89.6979231 L10.3452,91.2380769 Z M109.565815,90.9274615 L107.157969,89.4020769 C108.725354,86.9254615 110.108585,84.3076154 111.267046,81.621 L113.885354,82.7494615 C112.666892,85.5736154 111.213969,88.3248462 109.565815,90.9274615 Z M18.3312,101.131615 C16.1476615,98.9563846 14.1219692,96.5928462 12.3090462,94.1065385 L14.6121231,92.4274615 C16.3368923,94.7928462 18.2652,97.0423846 20.3430462,99.1128462 L18.3312,101.131615 Z M101.6532,100.869 L99.6261231,98.8640769 C101.685508,96.7811538 103.597662,94.5186923 105.309508,92.1385385 L107.623662,93.8028462 C105.825969,96.303 103.816431,98.6808462 101.6532,100.869 Z M28.2445846,109.083462 C25.6512,107.427462 23.1672,105.551769 20.8618154,103.509923 L22.7518154,101.375769 C24.9464308,103.319308 27.3104308,105.104538 29.7782769,106.680231 L28.2445846,109.083462 Z M91.7928923,108.892846 L90.2425846,106.499308 C92.7007385,104.907923 95.0527385,103.106538 97.2335077,101.146385 L99.1392,103.266231 C96.8481231,105.326538 94.3756615,107.219308 91.7928923,108.892846 Z M39.6252,114.725308 C36.7415077,113.667 33.9141231,112.367769 31.2219692,110.863615 L32.6130462,108.375462 C35.1745846,109.806692 37.8644308,111.042231 40.6073538,112.048846 L39.6252,114.725308 Z M80.4284308,114.604846 L79.4324308,111.933462 C82.1776615,110.910692 84.8628923,109.659 87.4142769,108.213923 L88.8192,110.694692 C86.1372,112.213615 83.3139692,113.529462 80.4284308,114.604846 Z M51.9570462,117.781615 C48.9053538,117.371769 45.8633538,116.712231 42.9132,115.823769 L43.7361231,113.094231 C46.5418154,113.938846 49.4352,114.566538 52.3378154,114.957 L51.9570462,117.781615 Z M64.6595077,118.107 C61.5782769,118.359923 58.4670462,118.371923 55.4098154,118.143923 L55.6230462,115.300385 C58.5312,115.518231 61.4933538,115.506692 64.4264308,115.266231 L64.6595077,118.107 Z" id="Fill-43" fill="#192330"></path>
                <path d="M72.1913538,46.6020923 C72.1913538,49.9200923 71.0508923,52.9302462 69.1812,55.2222462 C67.0258154,57.8562462 63.9012,59.5099385 60.4350462,59.5099385 C56.9573538,59.5099385 53.8332,57.8562462 51.6893538,55.2222462 C49.8081231,52.9302462 48.6792,49.9200923 48.6792,46.6020923 C48.6792,39.4639385 53.9356615,33.6942462 60.4350462,33.6942462 C66.9233538,33.6942462 72.1913538,39.4639385 72.1913538,46.6020923" id="Fill-45" fill="#EA7924"></path>
                <path d="M60.4351846,35.3394923 C54.8602615,35.3394923 50.3247231,40.3914923 50.3247231,46.6014923 C50.3247231,49.4168769 51.2607231,52.1071846 52.9610308,54.1781077 C54.8690308,56.5227231 57.5916462,57.8644154 60.4351846,57.8644154 C63.2681077,57.8644154 65.9916462,56.5218 67.9074923,54.1799538 C69.6082615,52.0961077 70.5456462,49.4039538 70.5456462,46.6014923 C70.5456462,40.3914923 66.0101077,35.3394923 60.4351846,35.3394923 M60.4351846,61.1551846 C56.5974923,61.1551846 52.9448769,59.3713385 50.4133385,56.2605692 C48.2353385,53.6085692 47.0334923,50.1761077 47.0334923,46.6014923 C47.0334923,38.5776462 53.0454923,32.0487231 60.4351846,32.0487231 C67.8248769,32.0487231 73.8368769,38.5776462 73.8368769,46.6014923 C73.8368769,50.1594923 72.6364154,53.5905692 70.4556462,56.2624154 C67.9107231,59.3722615 64.2590308,61.1551846 60.4351846,61.1551846" id="Fill-47" fill="#192330"></path>
            </g>
        </g>
    </g>
</svg>