<?xml version="1.0" encoding="UTF-8"?>
<svg width="41px" height="41px" viewBox="0 0 41 41" version="1.1" xmlns="http://www.w3.org/2000/svg" xmlns:xlink="http://www.w3.org/1999/xlink">
    <!-- Generator: Sketch 46.2 (44496) - http://www.bohemiancoding.com/sketch -->
    <title>noun_289145_cc</title>
    <desc>Created with Sketch.</desc>
    <defs></defs>
    <g id="Strata" stroke="none" stroke-width="1" fill="none" fill-rule="evenodd">
        <g id="Strata-Landing" transform="translate(-205.000000, -697.000000)" fill-rule="nonzero">
            <g id="noun_289145_cc" transform="translate(205.000000, 697.000000)">
                <g id="173---Databases-(Solid)">
                    <g id="Group">
                        <g id="Shape">
                            <path d="M0,29.2459833 L0,34.85 C0,34.9607 0.0293833333,35.06525 0.07995,35.1581833 C0.886966667,38.5031 8.10706667,41 17.0833333,41 C26.0391,41 33.2475833,38.51335 34.08125,35.1807333 C34.1359167,35.0830167 34.1666667,34.9702667 34.1666667,34.85 L34.1666667,29.24735 C31.3410833,31.23585 25.5190833,32.8 17.0833333,32.8 C8.6469,32.8 2.8249,31.2351667 0,29.2459833" fill="#2A3240"></path>
                            <path d="M36.2166667,34.1352333 C36.2166667,34.2691667 36.1838667,34.3949 36.1264667,34.5042333 C36.0308,34.90535 35.8531333,35.2941667 35.6071333,35.6706833 C38.5482,34.6361167 40.5045833,33.2045333 40.9145833,31.5659 C40.96925,31.4681833 41,31.35475 41,31.2351667 L41,25.6318333 L36.2166667,27.8806833 L36.2166667,34.1352333" fill="#FF4F00"></path>
                            <path d="M18.8641,24.5713 C18.2702833,24.5904333 17.6757833,24.6 17.0833333,24.6 C16.4895167,24.6 15.8929667,24.5904333 15.2971,24.5713 C10.28075,24.43395 6.28325,23.7253333 3.40505,22.7146833 C2.05273333,22.2589 0.894483333,21.7218 0,21.1074833 L0,27.5308167 C1.94476667,29.561 8.46923333,31.4333333 17.0833333,31.4333333 C25.6974333,31.4333333 32.2219,29.561 34.1666667,27.5308167 L34.1666667,21.1074833 C33.2660333,21.7259 32.0975333,22.2671 30.7329167,22.7249333 C27.8560833,23.7308 23.8667833,24.4353167 18.8641,24.5713" fill="#2A3240"></path>
                            <path d="M35.5333333,19.8166667 L35.5333333,26.4764333 C38.1798833,25.7719167 40.0932167,24.8624 41,23.9159833 L41,17.49265 C40.0993667,18.1110667 38.9308667,18.6515833 37.56625,19.1101 L35.5333333,19.8166667" fill="#FF4F00"></path>
                            <path d="M0,12.9689833 L0,19.3916333 C1.80263333,21.2735333 7.53921667,23.0201333 15.2287667,23.26545 C15.3080333,23.2675 15.3886667,23.2688667 15.4679333,23.2709167 C15.6900167,23.2770667 15.9127833,23.2832167 16.1382833,23.2873167 C16.4505667,23.2921 16.7655833,23.2948333 17.0833333,23.2948333 C17.4010833,23.2948333 17.7161,23.2921 18.0283833,23.2873167 C18.2538833,23.2832167 18.47665,23.2770667 18.6987333,23.2709167 C18.778,23.2688667 18.8586333,23.2675 18.9379,23.26545 C26.62745,23.0201333 32.3640333,21.2735333 34.1666667,19.3916333 L34.1666667,12.9689833 C30.8402,15.2533667 23.8100667,16.4615 17.0833333,16.4615 C10.3566,16.4615 3.32578333,15.2533667 0,12.9689833" fill="#2A3240"></path>
                            <path d="M17.0833333,3.61483333 C6.78071667,3.61483333 0.891066667,6.4985 0.0997666667,9.43 C0.0423666667,9.53045 0,9.64046667 0,9.76483333 L0,11.3406 C1.93793333,13.36395 8.41593333,15.2315 17.0833333,15.2315 C25.7507333,15.2315 32.2287333,13.36395 34.1666667,11.3406 L34.1666667,9.76483333 C34.1666667,9.65003333 34.1284,9.54685 34.0744167,9.45186667 C33.3077167,6.51285 27.4119167,3.61483333 17.0833333,3.61483333" fill="#2A3240"></path>
                            <path d="M35.5333333,16.74235 L35.5333333,18.3420333 C38.1839833,17.6375167 40.09185,16.7245833 41,15.7768 L41,9.35346667 C39.6798,10.26025 37.7705667,10.9948333 35.5333333,11.5538 L35.5333333,16.74235" fill="#FF4F00"></path>
                            <path d="M40.90775,5.83703333 C40.14105,2.89801667 34.24525,0 23.9166667,0 C16.99655,0 12.0786,1.30311667 9.348,3.04561667 C11.726,2.54541667 14.5331333,2.24816667 17.7666667,2.24816667 C28.5086667,2.24816667 34.6395333,5.48716667 35.4376667,8.77195 C35.4937,8.87786667 35.5333333,8.99335 35.5333333,9.12181667 L35.5333333,10.2841667 C38.1846667,9.58101667 40.0939,8.67218333 41,7.72576667 L41,6.15 C41,6.0352 40.9617333,5.93201667 40.90775,5.83703333" fill="#FF4F00"></path>
                        </g>
                    </g>
                </g>
            </g>
        </g>
    </g>
</svg>