<?xml version="1.0" encoding="UTF-8"?>
<svg width="41px" height="45px" viewBox="0 0 41 45" version="1.1" xmlns="http://www.w3.org/2000/svg" xmlns:xlink="http://www.w3.org/1999/xlink">
    <!-- Generator: Sketch 46.2 (44496) - http://www.bohemiancoding.com/sketch -->
    <title>noun_437491_cc</title>
    <desc>Created with Sketch.</desc>
    <defs></defs>
    <g id="Strata" stroke="none" stroke-width="1" fill="none" fill-rule="evenodd">
        <g id="Strata-Landing" transform="translate(-973.000000, -697.000000)" fill-rule="nonzero">
            <g id="noun_437491_cc" transform="translate(973.000000, 697.000000)">
                <g id="Group">
                    <path d="M11.4730704,17.4910763 C11.6572447,17.9555713 11.9882674,18.318212 12.4322503,18.5366821 C12.4322503,18.5366821 12.591377,18.6272192 12.7524681,18.6621548 C12.7652375,18.6655991 12.781936,18.6754401 12.7917586,18.684789 L12.7956877,18.6897095 C12.8050192,18.6990585 12.8128773,18.7177564 12.8128773,18.7315338 C12.8541323,21.4540451 15.7699804,26.5595533 20.3276813,26.5595533 C24.8853821,26.5595533 27.8046681,21.453061 27.8444498,18.7300576 C27.8444498,18.7162802 27.8513256,18.6990585 27.8606571,18.6887254 C27.8626217,18.6877413 27.8636039,18.6867572 27.8650773,18.6857731 C27.8734266,18.6754401 27.8915984,18.6655991 27.9033856,18.6621548 C28.0649679,18.6272192 28.2270413,18.5366821 28.2270413,18.5366821 C28.6695508,18.318704 29.0005735,17.9560634 29.1847478,17.4905843 C29.4563436,16.7992544 29.6518139,15.2045211 29.6984714,14.7011542 C29.8615271,12.9814404 29.7338329,12.0731165 29.2593998,11.563353 L29.0496866,11.3384862 L29.0555802,11.0329233 C29.0609827,10.6471563 29.0717876,10.2820554 29.0816102,9.94598543 C29.1542977,7.40159616 29.2186359,5.20410196 26.5768392,3.79831582 L26.3312735,3.66743058 L26.228627,3.40959651 C25.2075645,0.876524384 21.9022491,0.673799885 20.8143927,0.607865219 L20.6032061,0.593103726 C20.4583223,0.576374034 20.0605057,0.573421736 20.0605057,0.573421736 C16.9712882,0.661498642 14.7739656,1.43155651 13.3654003,2.929848 C11.4033297,5.0176151 11.4922245,7.90053461 11.5732612,10.4449239 L11.5978178,11.3434067 L11.3900692,11.5707337 C10.9279144,12.0755768 10.7987468,13.0104713 10.9598379,14.6972178 C10.9961817,15.1070953 11.1882141,16.7662871 11.4730704,17.4910763 Z M12.2087855,12.6266725 C12.2544607,12.4642961 12.4263568,12.1360989 12.6969702,12.1513524 C13.0996981,12.1803834 13.3875012,13.1531657 13.4965324,13.4090316 C13.562344,13.5635352 13.7047722,13.4902198 13.6924939,13.3883655 C13.6924939,13.3883655 13.4429991,9.67338987 13.644363,8.84969858 C13.8702835,7.93547014 14.0195875,7.53690984 14.7351662,6.8244218 C15.335329,6.13801239 16.4492154,5.89395571 17.2198008,6.27923067 L18.6146144,6.97744927 C19.505527,7.5078789 20.9469982,7.50443456 21.8359463,6.96859238 C21.8359463,6.96859238 22.4444583,6.65712488 23.1958896,6.27480222 C23.9492854,5.88952727 25.0774146,6.13653624 25.7188324,6.82294565 C25.7188324,6.82294565 26.4358845,7.51821195 26.8779029,8.84969858 C27.2688436,9.94647748 26.9658154,13.3883655 26.9658154,13.3883655 C26.9535371,13.4907119 27.0930185,13.5640273 27.1603035,13.4090316 C27.2698259,13.1531657 27.557629,12.1803834 27.9588834,12.1513524 C28.2314615,12.1360989 28.4028664,12.4642961 28.4480505,12.6266725 C28.524667,12.899268 28.5850762,13.4449512 28.4770272,14.5815862 C28.38273,15.5681459 28.1882419,16.6698453 28.0438492,17.0388826 C27.9549544,17.2671937 27.7864963,17.4212053 27.5438773,17.4896002 C26.8582576,17.6874042 26.7050246,18.1336933 26.6735922,18.3787341 C26.6676986,18.4240027 26.6588582,18.4978101 26.6500178,18.5603005 C26.6416686,18.624759 26.6338105,18.7305497 26.6313548,18.7964843 C26.5404955,21.1101023 23.9070481,25.3466506 20.3276813,25.3466506 C16.7483145,25.3466506 14.1163404,21.1101023 14.0240077,18.7964843 C14.0215521,18.7305497 14.0146762,18.6242669 14.0068181,18.5603005 C13.9984689,18.4923976 13.9871728,18.4136696 13.9817704,18.3787341 C13.9527936,18.1336933 13.7995606,17.6874042 13.1129587,17.4896002 C12.8718131,17.4212053 12.7048283,17.2671937 12.6124956,17.0388826 C12.4671207,16.6698453 12.274106,15.5681459 12.1798087,14.5815862 C12.0737243,13.4449512 12.1321689,12.899268 12.2087855,12.6266725 Z" id="Shape" fill="#2A3240"></path>
                    <path d="M40.3668312,41.7235426 C40.3668312,41.7235426 38.6296988,29.553184 36.1612716,28.1375568 C34.7797185,27.2464547 31.3280459,27.4304814 27.647506,25.0696266 C27.6337544,25.0612618 27.6091978,25.0420719 27.6091978,25.0420719 C27.2374112,24.7581591 26.6347928,24.6956688 26.6745744,25.2251144 C26.8612044,26.5511884 25.3553951,31.6714582 23.3771171,35.9370375 C22.8776363,34.2074826 21.9420307,31.2310736 21.7549096,30.8044665 C21.7180747,30.7237703 21.7357555,30.601742 21.7932179,30.5333471 C22.0633402,30.2105625 22.7671317,29.3366821 22.8786186,28.8830122 C23.0249758,28.2935366 22.7185097,27.8925161 22.2514436,27.5180662 C22.0569555,27.3635626 21.7426313,27.3000882 21.521131,27.4107994 L20.7225511,27.7680275 C20.5015419,27.8797228 20.1415424,27.8797228 19.9180776,27.7680275 L19.1204799,27.4107994 C18.8979973,27.2995961 18.5841642,27.3630705 18.3911495,27.5180662 C17.9221189,27.8930081 17.6156528,28.2935366 17.7605366,28.8830122 C17.873988,29.3366821 18.5792529,30.2110545 18.8488842,30.5338391 C18.9053643,30.6022341 18.9225539,30.7247544 18.8871924,30.8064347 C18.7035092,31.2261531 17.7816553,34.2089587 17.2831567,35.9370375 C15.3038966,31.6714582 13.7975961,26.5511884 13.9837349,25.2251144 C14.0235166,24.6956688 13.4218804,24.7581591 13.050585,25.0420719 C13.050585,25.0420719 13.0260284,25.0612618 13.0137501,25.0696266 C9.33124566,27.4309734 5.87957306,27.2469468 4.49851112,28.1375568 C2.02910164,29.553184 0.292951577,41.7235426 0.292951577,41.7235426 C0.135298346,42.8872402 0.667684957,44.8578995 3.38560701,44.8578995 L37.2731935,44.8578995 C39.989151,44.8578995 40.5239933,42.8872402 40.3668312,41.7235426 Z" id="Shape" fill="#2A3240"></path>
                    <path d="M16.9614656,17.8118928 C18.4770976,17.8118928 19.7103289,16.5768479 19.7103289,15.0588744 C19.7103289,14.9324176 19.7009974,14.807929 19.6842989,14.6859007 C19.8886097,14.6450606 20.102743,14.6239024 20.3203143,14.6239024 C20.5447614,14.6239024 20.7647884,14.6465367 20.9745015,14.689345 C20.9582942,14.8103893 20.9489627,14.9338938 20.9489627,15.0588744 C20.9489627,16.5763559 22.1817029,17.8118928 23.6968438,17.8118928 C25.2124758,17.8118928 26.4457071,16.5768479 26.4457071,15.0588744 C26.4457071,13.5399168 25.2124758,12.305364 23.6968438,12.305364 C22.6507336,12.305364 21.7396845,12.8938555 21.2750741,13.7583869 C20.9690991,13.6865477 20.6469168,13.6491519 20.3203143,13.6491519 C19.9991143,13.6491519 19.6823344,13.6855636 19.3812708,13.7544505 C18.9161692,12.8923794 18.0061024,12.305364 16.9609744,12.305364 C15.4458336,12.305364 14.2130934,13.5399168 14.2130934,15.0588744 C14.2135845,16.5768479 15.4463247,17.8118928 16.9614656,17.8118928 Z M23.6968438,13.2801146 C24.6761601,13.2801146 25.4727755,14.0782193 25.4727755,15.0588744 C25.4727755,16.0395296 24.6761601,16.8371422 23.6968438,16.8371422 C22.7185097,16.8371422 21.9214032,16.0390375 21.9214032,15.0588744 C21.9214032,14.0782193 22.7185097,13.2801146 23.6968438,13.2801146 Z M16.9614656,13.2801146 C17.9407819,13.2801146 18.7369062,14.0782193 18.7369062,15.0588744 C18.7369062,16.0395296 17.9402908,16.8371422 16.9614656,16.8371422 C15.9831315,16.8371422 15.1855339,16.0390375 15.1855339,15.0588744 C15.1855339,14.0782193 15.9831315,13.2801146 16.9614656,13.2801146 Z" id="Shape" fill="#FF4F00"></path>
                </g>
            </g>
        </g>
    </g>
</svg>