<?xml version="1.0" encoding="UTF-8"?>
<svg width="117px" height="111px" viewBox="0 0 117 111" version="1.1" xmlns="http://www.w3.org/2000/svg" xmlns:xlink="http://www.w3.org/1999/xlink">
    <!-- Generator: Sketch 51.3 (57544) - http://www.bohemiancoding.com/sketch -->
    <title>Group 45</title>
    <desc>Created with Sketch.</desc>
    <defs>
        <polygon id="path-1" points="0 119.563636 119.908905 119.563636 119.908905 0.0907636364 0 0.0907636364"></polygon>
    </defs>
    <g id="Page-1" stroke="none" stroke-width="1" fill="none" fill-rule="evenodd">
        <g id="Insight-Webpage-Update_v4" transform="translate(-361.000000, -4270.000000)">
            <g id="Group-45" transform="translate(360.000000, 4266.000000)">
                <polygon id="Fill-1" fill="#FFFFFF" points="49.4119708 108.765382 62.0951825 108.765382 62.0951825 72.0375273 49.4119708 72.0375273"></polygon>
                <polygon id="Fill-2" fill="#EA7924" points="49.4120584 108.765556 62.0952701 108.765556 62.0952701 72.0377018"></polygon>
                <polygon id="Fill-3" fill="#FFFFFF" points="71.330365 108.765382 84.0135766 108.765382 84.0135766 72.0375273 71.330365 72.0375273"></polygon>
                <polygon id="Fill-4" fill="#EA7924" points="71.3301898 108.765556 84.0134015 108.765556 84.0134015 72.0377018"></polygon>
                <polygon id="Fill-5" fill="#FFFFFF" points="95.1262774 108.765818 107.809489 108.765818 107.809489 41.5597091 95.1262774 41.5597091"></polygon>
                <polygon id="Fill-6" fill="#EA7924" points="95.1261022 108.765556 107.809314 108.765556 107.809314 41.5594473"></polygon>
                <polygon id="Fill-7" fill="#EA7924" points="103.346102 89.2472291 87.5240584 99.5109382 77.6236204 84.6195927 93.4456642 74.3554473"></polygon>
                <polygon id="Fill-8" fill="#EA7924" points="67.7617664 17.3503418 76.1972409 21.9509236 81.6274599 28.9349236 83.5032263 32.2792145 83.0670219 33.6053236 67.6203066 33.6053236"></polygon>
                <g id="Group-44" transform="translate(0.000000, 0.345600)">
                    <path d="M78.4290219,40.0834473 C78.4290219,50.0015564 70.247562,58.1532655 60.3055182,58.1532655 C50.3503358,58.1532655 42.1693139,50.0015564 42.1693139,40.0834473 C42.1693139,30.1766836 50.3503358,22.0249745 60.3055182,22.0249745 L60.3055182,40.0834473 L78.4290219,40.0834473 Z" id="Fill-9" fill="#FFFFFF"></path>
                    <path d="M73.8824234,41.6388655 C73.3954161,43.33152 72.9084088,44.7501382 72.9084088,44.7501382 C70.9722044,49.9149382 65.9510365,53.4861382 60.3053431,53.4861382 C52.885927,53.4861382 46.8530803,47.4756655 46.8530803,40.0836655 C46.8530803,34.4580655 50.4377518,29.4551564 55.6214015,27.5259927 C55.6214015,27.5259927 56.8831533,27.1402473 58.7440292,26.6667927 L58.7440292,23.53152 L56.8577518,23.9417018 C49.2513285,25.5470836 43.7304526,32.3421382 43.7304526,40.0836655 C43.7304526,49.1931927 51.1621314,56.5974109 60.3053431,56.5974109 C68.0742482,56.5974109 74.8941022,51.0970473 76.5180438,43.5178473 L76.9178978,41.6388655 L73.8824234,41.6388655 Z M60.3053431,40.0836655 L60.3053431,26.28192 C59.755708,26.4185018 59.2310365,26.5428655 58.7440292,26.6667927 L58.7440292,41.6388655 L73.8824234,41.6388655 C74.0322044,41.12832 74.1824234,40.6059927 74.3195036,40.0836655 L60.3053431,40.0836655 Z" id="Fill-11" fill="#EA7924"></path>
                    <path d="M91.4201606,26.3840291 C91.0023504,26.3840291 90.5854161,26.2177745 90.2779708,25.8891927 C89.6897956,25.2608291 89.7243942,24.2763927 90.3550511,23.6903564 L106.134175,9.03202909 C106.764832,8.44642909 107.752861,8.48090182 108.340599,9.10926545 C108.928774,9.73762909 108.893737,10.7216291 108.26308,11.3076655 L92.4843942,25.9659927 C92.1835182,26.2457018 91.8011825,26.3840291 91.4201606,26.3840291" id="Fill-13" fill="#192330"></path>
                    <path d="M13.231708,82.4132945 C12.8502482,82.4132945 12.4679124,82.2749673 12.1670365,81.9952582 C11.5363796,81.4087855 11.502219,80.4243491 12.0908321,79.7964218 L22.7594453,68.4029673 L33.872146,76.0930036 L41.5486423,68.7930764 C42.171854,68.1996218 43.1611971,68.2227491 43.7559416,68.8445673 C44.351562,69.4659491 44.3283504,70.4508218 43.7042628,71.04384 L34.1844088,80.09664 L23.1982774,72.4947491 L14.3734599,81.9188945 C14.0660146,82.24704 13.6495182,82.4132945 13.231708,82.4132945" id="Fill-15" fill="#192330"></path>
                    <path d="M3.78762044,83.0554473 C2.40105109,86.1204655 3.7709781,89.7257018 6.84762044,91.1072291 C9.92426277,92.4891927 13.542219,91.1238109 14.9287883,88.0587927 C16.3157956,84.9929018 14.9458686,81.3885382 11.8692263,80.0065745 C8.79258394,78.6250473 5.17418978,79.9899927 3.78762044,83.0554473" id="Fill-17" fill="#EA7924"></path>
                    <path d="M9.36026277,81.0219491 C8.81675912,81.0219491 8.27194161,81.1210036 7.74770803,81.31824 C6.61164964,81.7467491 5.71033577,82.5911127 5.21106569,83.6946764 C4.71179562,84.79824 4.67369343,86.0300945 5.10376642,87.1620218 C5.53427737,88.2943855 6.38128467,89.1919855 7.48931387,89.6890036 C9.77413139,90.7162036 12.4741314,89.6981673 13.5059562,87.4194764 C14.5364672,85.1407855 13.5142774,82.4514764 11.227708,81.4247127 C10.6303358,81.1567855 9.99617518,81.0219491 9.36026277,81.0219491 M9.34712409,93.2004218 C8.29427737,93.2004218 7.22610219,92.9839855 6.20610219,92.5258036 C4.33778102,91.6866764 2.90960584,90.1733673 2.18347445,88.26384 C1.45821898,86.3543127 1.52259854,84.2776582 2.36435036,82.4156945 C3.20610219,80.55504 4.72537226,79.1316218 6.64186861,78.4085673 C8.55967883,77.6855127 10.6443504,77.7496582 12.5104818,78.5883491 C16.3671241,80.3202764 18.0909197,84.8554036 16.3526715,88.6980218 C15.0738394,91.5239127 12.2731095,93.2004218 9.34712409,93.2004218" id="Fill-19" fill="#192330"></path>
                    <path d="M63.6116496,109.982182 L47.8154453,109.982182 L47.8154453,72.9440727 C47.8154453,72.0844364 48.5144234,71.3884364 49.3767591,71.3884364 C50.2390949,71.3884364 50.9385109,72.0844364 50.9385109,72.9440727 L50.9385109,106.870909 L60.4885839,106.870909 L60.4885839,74.8248 C60.4885839,73.9651636 61.188,73.2687273 62.0503358,73.2687273 C62.9122336,73.2687273 63.6116496,73.9651636 63.6116496,74.8248 L63.6116496,109.982182 Z" id="Fill-21" fill="#192330"></path>
                    <mask id="mask-2" fill="white">
                        <use xlink:href="#path-1"></use>
                    </mask>
                    <g id="Clip-24"></g>
                    <polygon id="Fill-23" fill="#EA7924" mask="url(#mask-2)" points="26.6579562 108.419782 39.3411679 108.419782 39.3411679 91.5312 26.6579562 91.5312"></polygon>
                    <polygon id="Fill-25" fill="#FFFFFF" mask="url(#mask-2)" points="26.6576058 108.419956 39.3408175 108.419956 39.3408175 91.5313745"></polygon>
                    <path d="M28.2192701,106.864582 L37.7794161,106.864582 L37.7794161,93.0872727 L28.2192701,93.0872727 L28.2192701,106.864582 Z M25.0962044,109.975855 L40.9024818,109.975855 L40.9024818,89.976 L25.0962044,89.976 L25.0962044,109.975855 Z" id="Fill-26" fill="#192330" mask="url(#mask-2)"></path>
                    <path d="M84.385927,109.98432 L70.1370219,109.98432 L70.1370219,72.9462109 C70.1370219,72.0870109 70.836438,71.3905745 71.6983358,71.3905745 C72.5606715,71.3905745 73.2600876,72.0870109 73.2600876,72.9462109 L73.2600876,106.873047 L82.8246131,106.873047 L82.8246131,94.7233745 C82.8246131,93.8646109 83.5235912,93.1681745 84.385927,93.1681745 C85.2482628,93.1681745 85.9472409,93.8646109 85.9472409,94.7233745 L85.9472409,109.970356 L84.385927,109.98432 Z" id="Fill-27" fill="#192330" mask="url(#mask-2)"></path>
                    <path d="M107.562526,96.5448 C106.70019,96.5448 106.001212,95.8483636 106.001212,94.9896 L106.001212,42.5635636 L96.4362482,42.5635636 L96.4362482,75.1402909 C96.4362482,75.9994909 95.7368321,76.6959273 94.8744964,76.6959273 C94.0125985,76.6959273 93.3131825,75.9994909 93.3131825,75.1402909 L93.3131825,39.4522909 L109.123839,39.4522909 L109.123839,94.9896 C109.123839,95.8483636 108.424861,96.5448 107.562526,96.5448" id="Fill-28" fill="#192330" mask="url(#mask-2)"></path>
                    <path d="M116.426847,109.970225 L109.893854,109.970225 C109.031518,109.970225 108.33254,109.273789 108.33254,108.415025 C108.33254,107.555389 109.031518,106.858953 109.893854,106.858953 L116.426847,106.858953 C117.289182,106.858953 117.988161,107.555389 117.988161,108.415025 C117.988161,109.273789 117.289182,109.970225 116.426847,109.970225" id="Fill-29" fill="#192330" mask="url(#mask-2)"></path>
                    <path d="M92.812292,109.970225 L5.11594161,109.970225 C4.25360584,109.970225 3.55418978,109.273789 3.55418978,108.415025 C3.55418978,107.555389 4.25360584,106.858953 5.11594161,106.858953 L92.812292,106.858953 C93.6746277,106.858953 94.3736058,107.555389 94.3736058,108.415025 C94.3736058,109.273789 93.6746277,109.970225 92.812292,109.970225" id="Fill-30" fill="#192330" mask="url(#mask-2)"></path>
                    <path d="M106.472759,21.5034764 C106.369401,21.5034764 106.264292,21.49344 106.159182,21.4720582 C105.314365,21.3005673 104.768672,20.4788945 104.941226,19.6371491 L106.703562,11.0167855 L97.6168467,11.5735855 C96.7518832,11.6272582 96.0156788,10.9735855 95.9626861,10.1161309 C95.9101314,9.25867636 96.5648759,8.52078545 97.4254599,8.46798545 L110.575971,7.66202182 L108.000788,20.2580945 C107.850569,20.9955491 107.199328,21.5034764 106.472759,21.5034764" id="Fill-31" fill="#192330" mask="url(#mask-2)"></path>
                    <path d="M58.7406569,23.6495127 C50.3336496,24.43584 43.7318978,31.5079855 43.7318978,40.0868945 C43.7318978,49.1907491 51.1653285,56.5971491 60.3019708,56.5971491 C68.9126277,56.5971491 76.010146,50.01984 76.7993431,41.6425309 L58.7406569,41.6425309 L58.7406569,23.6495127 Z M60.3019708,59.7084218 C49.4432847,59.7084218 40.6092701,50.9065309 40.6092701,40.0868945 C40.6092701,29.2676945 49.4432847,20.4653673 60.3019708,20.4653673 L61.8637226,20.4653673 L61.8637226,38.5312582 L79.9951095,38.5312582 L79.9951095,40.0868945 C79.9951095,50.9065309 71.1606569,59.7084218 60.3019708,59.7084218 Z" id="Fill-32" fill="#192330" mask="url(#mask-2)"></path>
                    <polygon id="Fill-33" fill="#192330" mask="url(#mask-2)" points="83.0668905 34.8151418 66.0457226 34.8151418 66.2003212 16.9909964 69.3225109 17.0180509 69.1950657 31.7038691 83.0668905 31.7038691"></polygon>
                    <path d="M67.3391825,46.95744 C67.3391825,46.1602036 66.6905693,45.5135127 65.8899854,45.5135127 C65.0898394,45.5135127 64.4407883,46.1602036 64.4407883,46.95744 C64.4407883,47.7551127 65.0898394,48.4013673 65.8899854,48.4013673 C66.6905693,48.4013673 67.3391825,47.7551127 67.3391825,46.95744" id="Fill-34" fill="#192330" mask="url(#mask-2)"></path>
                    <path d="M110.682307,105.198807 C110.181285,107.560407 108.781139,109.733498 106.619387,111.149498 C102.266102,113.959244 96.3974891,112.723462 93.5573431,108.399098 L87.5240584,99.1652073 L103.346102,88.9014982 L109.379825,98.1353891 C110.781723,100.301935 111.179825,102.853353 110.682307,105.198807" id="Fill-35" fill="#FFFFFF" mask="url(#mask-2)"></path>
                    <path d="M110.682526,105.198807 L110.686905,105.198807 L110.682526,105.198807 Z M89.6842774,99.6203345 L94.8661752,107.550371 C97.2385839,111.162589 102.130555,112.19328 105.770409,109.844335 C107.513036,108.702371 108.717854,106.936407 109.154934,104.877207 C109.589387,102.828044 109.203109,100.733498 108.067489,98.9780073 L102.889533,91.05408 L89.6842774,99.6203345 Z M101.495518,114.211898 C97.8937664,114.211898 94.3603358,112.462516 92.2511387,109.25088 L85.3634015,98.7105164 L103.802234,86.7489164 L110.688219,97.2862255 C112.277124,99.7416436 112.81581,102.663535 112.210117,105.520407 C111.601796,108.388189 109.92092,110.848407 107.477562,112.449425 C105.629387,113.642444 103.551285,114.211898 101.495518,114.211898 Z" id="Fill-36" fill="#192330" mask="url(#mask-2)"></path>
                    <path d="M79.794219,84.7216582 L87.9699854,97.0196945 L101.175241,88.45344 L92.9994745,76.1554036 L79.794219,84.7216582 Z M87.0778686,101.311331 L75.4523212,83.8253673 L93.8915912,71.8642036 L105.516263,89.3492945 L87.0778686,101.311331 Z" id="Fill-37" fill="#192330" mask="url(#mask-2)"></path>
                    <path d="M90.2226131,76.0335709 L80.9313723,82.0606255 L74.1031971,71.5398982 C75.8580876,70.8041891 77.5354599,69.9013527 79.1931241,68.8261527 C80.7198394,67.8360436 82.1497664,66.7691345 83.4369197,65.5782982 L90.2226131,76.0335709 Z" id="Fill-38" fill="#FFFFFF" mask="url(#mask-2)"></path>
                    <path d="M76.3957664,72.2077527 L81.3919708,79.9056436 L88.0659854,75.5760436 L83.1017518,67.9261527 C82.1820438,68.6710255 81.1708029,69.3993164 80.0452555,70.1297891 C78.8237956,70.9222255 77.6185401,71.6086255 76.3957664,72.2077527 Z M80.4709489,84.2156073 L71.7810219,70.8262255 L73.4978102,70.1066618 C75.1362044,69.4185164 76.7207299,68.5737164 78.3411679,67.5225164 C79.9164964,66.5005527 81.2360584,65.49168 82.3743066,64.4382982 L83.7376642,63.1772073 L92.3789781,76.4906618 L80.4709489,84.2156073 Z" id="Fill-39" fill="#192330" mask="url(#mask-2)"></path>
                    <path d="M101.290642,99.3121309 C99.7494745,98.9879127 98.2354599,99.9697309 97.9100584,101.505295 C97.584219,103.041295 98.5696204,104.549367 100.110788,104.873585 C101.652394,105.19824 103.165971,104.216422 103.49181,102.680858 C103.81765,101.144858 102.832248,99.6367855 101.290642,99.3121309" id="Fill-40" fill="#192330" mask="url(#mask-2)"></path>
                    <path d="M60.3053869,64.33872 C46.8658248,64.33872 35.9615912,53.4741382 35.9615912,40.0834473 C35.9615912,26.69232 46.8658248,15.8399564 60.3053869,15.8399564 C73.7449489,15.8399564 84.6369197,26.69232 84.6369197,40.0834473 C84.6369197,53.4741382 73.7449489,64.33872 60.3053869,64.33872 M60.3053869,5.88388364 C41.3449489,5.88388364 25.9691825,21.19152 25.9691825,40.0834473 C25.9691825,58.9749382 41.3449489,74.2943564 60.3053869,74.2943564 C79.2658248,74.2943564 94.6293285,58.9749382 94.6293285,40.0834473 C94.6293285,21.19152 79.2658248,5.88388364 60.3053869,5.88388364" id="Fill-41" fill="#EA7924" mask="url(#mask-2)"></path>
                    <path d="M60.3051679,17.3955055 C47.7428321,17.3955055 37.5226861,27.5732509 37.5226861,40.08336 C37.5226861,52.6000145 47.7428321,62.7829964 60.3051679,62.7829964 C72.8609343,62.7829964 83.0753869,52.6000145 83.0753869,40.08336 C83.0753869,27.5732509 72.8609343,17.3955055 60.3051679,17.3955055 M60.3051679,65.8942691 C46.0212263,65.8942691 34.4000584,54.31536 34.4000584,40.08336 C34.4000584,25.8579055 46.0212263,14.2842327 60.3051679,14.2842327 C74.5829781,14.2842327 86.1984526,25.8579055 86.1984526,40.08336 C86.1984526,54.31536 74.5829781,65.8942691 60.3051679,65.8942691 M60.3051679,7.43986909 C42.2329051,7.43986909 27.5302774,22.08336 27.5302774,40.08336 C27.5302774,58.0899055 42.2329051,72.7390691 60.3051679,72.7390691 C78.3704234,72.7390691 93.0677956,58.0899055 93.0677956,40.08336 C93.0677956,22.08336 78.3704234,7.43986909 60.3051679,7.43986909 M60.3051679,75.8503418 C40.5112993,75.8503418 24.4072117,59.8048145 24.4072117,40.08336 C24.4072117,20.3680145 40.5112993,4.32859636 60.3051679,4.32859636 C80.0924672,4.32859636 96.1904234,20.3680145 96.1904234,40.08336 C96.1904234,59.8048145 80.0924672,75.8503418 60.3051679,75.8503418" id="Fill-42" fill="#192330" mask="url(#mask-2)"></path>
                    <path d="M72.2223504,14.86512 C71.9902336,14.86512 71.7541752,14.81712 71.5290657,14.7150109 C66.2547591,12.3285382 60.2175328,11.63952 54.7474599,12.8081018 C53.8422044,13.0014109 52.9483358,12.42672 52.7538832,11.5234473 C52.5598686,10.6201745 53.1370949,9.73086545 54.0432263,9.53712 C60.2096496,8.21973818 66.9953431,8.98904727 72.9173869,11.6691927 C73.7617664,12.0510109 74.1349051,13.0424291 73.7516934,13.8837382 C73.4705255,14.50032 72.8604526,14.86512 72.2223504,14.86512 M46.2471679,15.9123927 C45.6585547,15.9123927 45.0874599,15.6034473 44.7800146,15.0553745 C44.3280438,14.2485382 44.6179708,13.2296291 45.4268759,12.7793018 C46.2007445,12.3486109 46.9925693,11.9497745 47.7808905,11.5937018 C48.625708,11.21232 49.6207445,11.5841018 50.0035182,12.4254109 C50.3867299,13.26672 50.0127153,14.2581382 49.1683358,14.63952 C48.4645401,14.9580655 47.756365,15.3145745 47.0643942,15.6998836 C46.8051241,15.8438836 46.5239562,15.9123927 46.2471679,15.9123927" id="Fill-43" fill="#FFFFFF" mask="url(#mask-2)"></path>
                </g>
            </g>
        </g>
    </g>
</svg>