<svg width="48" height="48" xmlns="http://www.w3.org/2000/svg"><g fill="none" fill-rule="evenodd"><path d="M42.1594603 25.4747046H6.41948707c-.3945693 0-.71479946.3163625-.71479946.7061662v7.9846206c0 .3905099.3202302.7061662.7147995.7061662h35.7399732c.3945693 0 .7147995-.3156563.7147995-.7061662v-7.9846206c0-.3898037-.3202302-.7061662-.7147995-.7061662zm-11.7934764 5.5398735c0 .3905099-.3195153.7061661-.7147994.7061661H9.75617097c-.3952841 0-.71479946-.3156562-.71479946-.7061661v-1.6820878c0-.3905099.3195154-.7061661.7147995-.7061661h19.8950135c.3952841 0 .7147994.3156562.7147994.7061661v1.6820878zm6.0943803.7082846c-.8641926 0-1.5675553-.6948675-1.5675553-1.5486223 0-.8544611.7033627-1.5493286 1.5675553-1.5493286.8649073 0 1.56827.6948675 1.56827 1.5493286.0007148.8530487-.7033627 1.5486223-1.56827 1.5486223zm0-1.6863247c-.0757688 0-.1379563.0614364-.1379563.1369962 0 .1511195.2773422.1497072.2773422 0 0-.0755598-.0621876-.1369962-.1393859-.1369962zm0-21.61786442c-.0757688 0-.1379563.06143646-.1379563.13699624 0 .15111955.2773422.14970722.2773422 0 0-.07555978-.0621876-.13699624-.1393859-.13699624zm5.6990961-4.56183333H6.41948707c-.3945693 0-.71479946.31636243-.71479946.70616615v7.98462067c0 .39050988.3202302.70616613.7147995.70616613h35.7399732c.3945693 0 .7147995-.31565625.7147995-.70616613V4.5630064c0-.38980372-.3202302-.70616615-.7147995-.70616615zm-11.7934764 5.5391673c0 .39050987-.3195153.70616614-.7147994.70616614H9.75617097c-.3952841 0-.71479946-.3156563-.71479946-.7061662V7.7146259c0-.3905099.3195154-.70616615.7147995-.70616615h19.8950135c.3952841 0 .7147994.31565627.7147994.70616615v1.6813816zm6.0943803.70828464c-.8641926 0-1.5675553-.6948675-1.5675553-1.5486224 0-.85446107.7033627-1.54932856 1.5675553-1.54932856.8649073 0 1.56827.6948675 1.56827 1.54932854.0007148.85375487-.7033627 1.54862237-1.56827 1.54862237z" fill="#FF4F00" fill-rule="nonzero"/><path d="M42.1594603 14.6654194H6.41948707c-.3945693 0-.71479946.3163624-.71479946.7061661v7.9846207c0 .3905099.3202302.7061661.7147995.7061661h35.7399732c.3945693 0 .7147995-.3156562.7147995-.7061661v-7.9846207c0-.3890975-.3202302-.7061661-.7147995-.7061661z" fill="#2A3240"/><path d="M30.3659839 20.2052928c0 .3905099-.3195153.7061662-.7147994.7061662H9.75617097c-.3952841 0-.71479946-.3156563-.71479946-.7061662V18.523205c0-.3905098.3195154-.7061661.7147995-.7061661h19.8950135c.3952841 0 .7147994.3156563.7147994.7061661v1.6820878zm6.0943803.7082847c-.8641926 0-1.5675553-.6948675-1.5675553-1.5486224 0-.8544611.7033627-1.5493285 1.5675553-1.5493285.8649073 0 1.56827.6948674 1.56827 1.5493285.0007148.8537549-.7033627 1.5486224-1.56827 1.5486224z" fill="#FFF"/><path d="M36.4603642 19.2272527c-.0757688 0-.1379563.0614364-.1379563.1369962 0 .1511196.2773422.1497072.2773422 0 0-.0755598-.0621876-.1369962-.1393859-.1369962zm5.6990961 17.0567372H6.41948707c-.3945693 0-.71479946.3163624-.71479946.7061661v7.9846207c0 .3905099.3202302.7061662.7147995.7061662h35.7399732c.3945693 0 .7147995-.3156563.7147995-.7061662V36.990156c0-.3898037-.3202302-.7061661-.7147995-.7061661z" fill="#2A3240"/><path d="M30.3659839 41.8231572c0 .3905099-.3195153.7061661-.7147994.7061661H9.75617097c-.3952841 0-.71479946-.3156562-.71479946-.7061661v-1.6813816c0-.3905099.3195154-.7061662.7147995-.7061662h19.8950135c.3952841 0 .7147994.3156563.7147994.7061662v1.6813816zm6.0943803.7082846c-.8641926 0-1.5675553-.6948675-1.5675553-1.5486223 0-.8544611.7033627-1.5493286 1.5675553-1.5493286.8649073 0 1.56827.6948675 1.56827 1.5493286.0007148.8537548-.7033627 1.5486223-1.56827 1.5486223z" fill="#FFF"/><path d="M36.4603642 40.8458232c-.0757688 0-.1379563.0614365-.1379563.1369963 0 .1511195.2773422.1497072.2773422 0 0-.0755598-.0621876-.1369963-.1393859-.1369963z" fill="#2A3240"/></g></svg>