<?xml version="1.0" encoding="UTF-8"?>
<svg width="246px" height="170px" viewBox="0 0 246 170" version="1.1" xmlns="http://www.w3.org/2000/svg" xmlns:xlink="http://www.w3.org/1999/xlink">
    <!-- Generator: Sketch 51.3 (57544) - http://www.bohemiancoding.com/sketch -->
    <title>Group 5</title>
    <desc>Created with Sketch.</desc>
    <defs>
        <path d="M109.946026,0.919141484 L25.1450338,50.2225549 L0.245361039,51.8443063 L0.245361039,65.5439217 L0.25814026,65.543283 C0.286254545,66.1928777 0.759085714,66.8705769 1.68366234,67.4039217 L74.7073247,109.549657 C76.4497714,110.555027 79.0848468,110.664251 80.5940727,109.793654 L189.278151,46.7050343 C189.963117,46.3102953 190.280042,45.7795055 190.278764,45.2250824 L190.297294,45.2244437 L190.297294,31.5235508 L170.653714,32.8029396 L115.832135,1.1625 C114.878805,0.613186813 113.659029,0.330865385 112.50187,0.330865385 C111.544068,0.330865385 110.629075,0.524402473 109.946026,0.919141484" id="path-1"></path>
        <linearGradient x1="89.8161393%" y1="50.0000578%" x2="38.1228931%" y2="50.0000578%" id="linearGradient-3">
            <stop stop-color="#B1B3B5" offset="0%"></stop>
            <stop stop-color="#E6E7E7" offset="100%"></stop>
        </linearGradient>
        <path d="M109.946026,1.16122253 L1.26067013,64.2492033 C-0.247916883,65.1198008 -0.0587844156,66.6419093 1.68366234,67.6472802 L74.7073247,109.792376 C76.4497714,110.797747 79.0848468,110.906971 80.5940727,110.036374 L189.278151,46.9477541 C190.787377,46.0771566 190.598244,44.5563255 188.855797,43.5509547 L115.832135,1.40585852 C114.878805,0.855906593 113.65839,0.573585165 112.50187,0.573585165 C111.543429,0.573585165 110.629075,0.767122253 109.946026,1.16122253" id="path-4"></path>
        <linearGradient x1="80.1125614%" y1="19.9852645%" x2="19.887482%" y2="80.0146178%" id="linearGradient-6">
            <stop stop-color="#B1B3B5" offset="0%"></stop>
            <stop stop-color="#E6E7E7" offset="100%"></stop>
        </linearGradient>
        <polygon id="path-7" points="0.42657039 0.205034341 38.3776613 0.205034341 38.3776613 22.1083228 0.42657039 22.1083228"></polygon>
        <polygon id="path-9" points="0.23385974 11.2500618 0.23385974 53.288489 19.2090857 42.3373558 19.2090857 0.298289835"></polygon>
        <linearGradient x1="49.9992565%" y1="77.6633331%" x2="49.9992565%" y2="2.12083184%" id="linearGradient-11">
            <stop stop-color="#B1B3B5" offset="0%"></stop>
            <stop stop-color="#E6E7E7" offset="100%"></stop>
        </linearGradient>
        <polygon id="path-12" points="19.4026909 17.3142239 14.4156 17.3142239 0.426825974 9.23995879 15.6487948 0.45478022 19.4020519 0.45478022"></polygon>
        <linearGradient x1="-0.000413495858%" y1="49.9998269%" x2="99.998912%" y2="49.9998269%" id="linearGradient-14">
            <stop stop-color="#B1B3B5" offset="0%"></stop>
            <stop stop-color="#E6E7E7" offset="100%"></stop>
        </linearGradient>
        <polygon id="path-15" points="0.222358442 11.2225962 0.222358442 53.2610234 19.1969455 42.3092514 19.1969455 0.270824176"></polygon>
        <linearGradient x1="49.9995861%" y1="77.6634261%" x2="49.9995861%" y2="2.1208328%" id="linearGradient-17">
            <stop stop-color="#B1B3B5" offset="0%"></stop>
            <stop stop-color="#E6E7E7" offset="100%"></stop>
        </linearGradient>
        <polygon id="path-18" points="19.3905506 17.2867582 14.4040987 17.2867582 0.414685714 9.21249313 15.6372935 0.42731456 19.3905506 0.42731456"></polygon>
        <linearGradient x1="0.00162536198%" y1="50.000061%" x2="100.000951%" y2="50.000061%" id="linearGradient-20">
            <stop stop-color="#B1B3B5" offset="0%"></stop>
            <stop stop-color="#E6E7E7" offset="100%"></stop>
        </linearGradient>
        <polygon id="path-21" points="0.210218182 11.1944918 0.210218182 53.2335577 19.1860831 42.2824245 19.1860831 0.243358516"></polygon>
        <linearGradient x1="49.9984376%" y1="77.6634545%" x2="49.9984376%" y2="2.12095322%" id="linearGradient-23">
            <stop stop-color="#B1B3B5" offset="0%"></stop>
            <stop stop-color="#E6E7E7" offset="100%"></stop>
        </linearGradient>
        <polygon id="path-24" points="19.3790494 17.2592926 14.3925974 17.2592926 0.403184416 9.18502747 15.6251532 0.399848901 19.3790494 0.399848901"></polygon>
        <linearGradient x1="0.000284194222%" y1="50.0000636%" x2="99.9996097%" y2="50.0000636%" id="linearGradient-26">
            <stop stop-color="#B1B3B5" offset="0%"></stop>
            <stop stop-color="#E6E7E7" offset="100%"></stop>
        </linearGradient>
        <polygon id="path-27" points="0.263890909 11.0871841 0.263890909 53.1256113 19.2384779 42.1738393 19.2384779 0.135412088"></polygon>
        <linearGradient x1="49.9998%" y1="77.6635664%" x2="49.9998%" y2="2.12106508%" id="linearGradient-29">
            <stop stop-color="#B1B3B5" offset="0%"></stop>
            <stop stop-color="#E6E7E7" offset="100%"></stop>
        </linearGradient>
        <polygon id="path-30" points="19.4327221 17.1513462 14.4456312 17.1513462 0.456218182 9.07708104 15.678826 0.291902473 19.4320831 0.291902473"></polygon>
        <linearGradient x1="0.00160779824%" y1="50.0006179%" x2="99.9975662%" y2="50.0006179%" id="linearGradient-32">
            <stop stop-color="#B1B3B5" offset="0%"></stop>
            <stop stop-color="#E6E7E7" offset="100%"></stop>
        </linearGradient>
        <polygon id="path-33" points="0.251750649 11.0590797 0.251750649 53.0981456 19.2269766 42.1463736 19.2269766 0.107946429"></polygon>
        <linearGradient x1="50.0001296%" y1="77.6636685%" x2="50.0001296%" y2="2.1210752%" id="linearGradient-35">
            <stop stop-color="#B1B3B5" offset="0%"></stop>
            <stop stop-color="#E6E7E7" offset="100%"></stop>
        </linearGradient>
        <polygon id="path-36" points="19.4205818 17.1238805 14.4341299 17.1238805 0.444716883 9.04961538 15.6666857 0.264436813 19.4199429 0.264436813"></polygon>
        <linearGradient x1="0.000305407772%" y1="50.0007941%" x2="99.999631%" y2="50.0007941%" id="linearGradient-38">
            <stop stop-color="#B1B3B5" offset="0%"></stop>
            <stop stop-color="#E6E7E7" offset="100%"></stop>
        </linearGradient>
        <polygon id="path-39" points="0.240249351 11.0322527 0.240249351 53.0706799 19.2154753 42.1195467 19.2154753 0.0811195055"></polygon>
        <linearGradient x1="49.9989295%" y1="77.6634277%" x2="49.9989295%" y2="2.12001579%" id="linearGradient-41">
            <stop stop-color="#B1B3B5" offset="0%"></stop>
            <stop stop-color="#E6E7E7" offset="100%"></stop>
        </linearGradient>
        <polygon id="path-42" points="19.4084416 17.0964148 14.4226286 17.0964148 0.433215584 9.02214973 15.6545455 0.236971154 19.4084416 0.236971154"></polygon>
        <linearGradient x1="-0.000714550291%" y1="50.0007967%" x2="100.001978%" y2="50.0007967%" id="linearGradient-44">
            <stop stop-color="#B1B3B5" offset="0%"></stop>
            <stop stop-color="#E6E7E7" offset="100%"></stop>
        </linearGradient>
    </defs>
    <g id="Page-1" stroke="none" stroke-width="1" fill="none" fill-rule="evenodd">
        <g id="Insight-Webpage-Update_v4" transform="translate(-597.000000, -1108.000000)">
            <g id="Group-5" transform="translate(597.000000, 1108.000000)">
                <g id="Group-576">
                    <g id="Group-15" transform="translate(0.000000, 52.810076)">
                        <path d="M118.134439,1.39493613 C117.237338,1.39493613 116.38752,1.56931113 115.767728,1.92700343 L2.03266286,67.9301765 C1.6876239,68.1294622 1.27804987,68.46416 1.27804987,68.9323537 C1.27804987,69.420987 1.72596156,69.9709389 2.47737974,70.4046408 L79.4300135,114.817251 C81.0587252,115.758109 83.6062629,115.875637 84.9940862,115.075939 L198.72979,49.0721271 C199.074829,48.8728413 199.485042,48.5381435 199.484403,48.0693111 C199.484403,47.5813166 199.036491,47.030726 198.285073,46.5976628 L121.332439,2.18377541 C120.430865,1.66320536 119.246871,1.39493613 118.134439,1.39493613 M82.6139564,116.888672 C81.2874732,116.888672 79.8983719,116.562917 78.7910525,115.924181 L1.8384187,71.510932 C0.669758961,70.8370652 0.000127792208,69.8968455 0.000127792208,68.9323537 C0.000127792208,68.091138 0.494683636,67.3425391 1.3924239,66.824524 L115.127489,0.821350962 C116.92233,-0.215317995 119.928642,-0.102261676 121.971401,1.0774842 L198.924034,45.4907328 C200.092694,46.1652383 200.762325,47.1048194 200.762325,48.0686724 C200.762964,48.9105268 200.267769,49.6591257 199.370029,50.1777795 L85.6336862,116.181591 C84.8119823,116.655534 83.7359719,116.888672 82.6139564,116.888672" id="Fill-1" fill="#E87925"></path>
                        <path d="M192.042679,81.8781964 C190.908524,81.8781964 189.773729,81.586294 188.762254,81.002489 L167.004991,68.4455728 L167.643952,67.3386429 L189.401215,79.8955591 C191.031204,80.8364176 193.055433,80.8364176 194.684783,79.8955591 L216.696352,67.1917335 L217.335313,68.2980247 L195.323744,81.002489 C194.31163,81.586294 193.177474,81.8781964 192.042679,81.8781964" id="Fill-3" fill="#E87925"></path>
                        <path d="M237.14745,66.4268468 C232.545014,69.083351 225.082588,69.083351 220.479513,66.4268468 C215.876437,63.7703427 215.876437,59.4639828 220.479513,56.80684 C225.081949,54.1503359 232.544375,54.1503359 237.14745,56.80684 C241.749887,59.4639828 241.750526,63.7709815 237.14745,66.4268468" id="Fill-5" fill="#E87925"></path>
                        <path d="M233.319307,64.2174581 C230.830554,65.653976 226.796154,65.653976 224.307401,64.2174581 C221.819286,62.7809402 221.819286,60.4521078 224.307401,59.0162287 C226.796154,57.5803496 230.830554,57.5803496 233.319307,59.0162287 C235.80806,60.4527466 235.80806,62.781579 233.319307,64.2174581" id="Fill-7" fill="#FEFEFE"></path>
                        <path d="M228.813226,52.9853448 C224.817803,52.9853448 220.823018,53.8629684 217.780925,55.6188544 C214.955439,57.2501868 213.398291,59.3803723 213.39893,61.6178654 C213.39893,63.8547198 214.955439,65.9849052 217.781564,67.6149602 C223.864473,71.1254547 233.762618,71.1260934 239.845527,67.6155989 C242.671652,65.9849052 244.228161,63.8547198 244.228161,61.6178654 C244.228161,59.3803723 242.671013,57.2501868 239.845527,55.6188544 C236.803434,53.8629684 232.80801,52.9853448 228.813226,52.9853448 M228.813865,71.507419 C224.587138,71.507419 220.36041,70.5786964 217.142603,68.7218901 C213.904348,66.8529478 212.121008,64.3299396 212.121008,61.6178654 C212.120369,58.9051525 213.904348,56.3815055 217.141964,54.5125632 C223.577579,50.7989505 234.048873,50.7983118 240.484488,54.5125632 C243.722104,56.3808668 245.506083,58.9051525 245.506083,61.6178654 C245.506083,64.3299396 243.722743,66.8535865 240.484488,68.7225288 C237.267319,70.5786964 233.040592,71.507419 228.813865,71.507419" id="Fill-9" fill="#E87925"></path>
                        <path d="M6.6338213,63.8001717 L30.8076343,62.2250481 L113.567146,14.0994643 C115.031645,13.2537775 117.590684,13.3598077 119.282014,14.3364354 L172.505551,45.0539011 L191.575343,43.8115591 L191.575343,46.9509478 L191.55873,46.9522253 C191.559369,47.4906799 191.252029,48.0048626 190.586871,48.3893819 L84.6401018,109.897129 C83.1749642,110.742816 80.6165642,110.636786 78.9245953,109.660797 L8.03059013,68.7439904 C7.13284987,68.226614 6.67343688,67.5680769 6.64660052,66.9376442 L6.6338213,66.938283 L6.6338213,63.8001717 Z" id="Fill-11" fill="#272F43"></path>
                        <path d="M84.6398462,106.796384 L190.587254,45.2886367 C192.051753,44.4429499 191.867732,42.9661916 190.176402,41.9902026 L119.282397,1.07339629 C117.590428,0.0974072802 115.032028,-0.00862293956 113.56689,0.836425137 L7.62012156,62.3448111 C6.1549839,63.1904979 6.33900468,64.6672562 8.03097351,65.6432452 L78.9249787,106.560052 C80.6163086,107.536041 83.1753475,107.642071 84.6398462,106.796384" id="Fill-13" fill="#374256"></path>
                    </g>
                    <g id="Group-18" transform="translate(3.833766, 50.255130)">
                        <mask id="mask-2" fill="white">
                            <use xlink:href="#path-1"></use>
                        </mask>
                        <g id="Clip-17"></g>
                        <path d="M109.946026,0.919141484 L25.1450338,50.2225549 L0.245361039,51.8443063 L0.245361039,65.5439217 L0.25814026,65.543283 C0.286254545,66.1928777 0.759085714,66.8705769 1.68366234,67.4039217 L74.7073247,109.549657 C76.4497714,110.555027 79.0848468,110.664251 80.5940727,109.793654 L189.278151,46.7050343 C189.963117,46.3102953 190.280042,45.7795055 190.278764,45.2250824 L190.297294,45.2244437 L190.297294,31.5235508 L170.653714,32.8029396 L115.832135,1.1625 C114.878805,0.613186813 113.659029,0.330865385 112.50187,0.330865385 C111.544068,0.330865385 110.629075,0.524402473 109.946026,0.919141484" id="Fill-16" fill="url(#linearGradient-3)" mask="url(#mask-2)"></path>
                    </g>
                    <g id="Group-21" transform="translate(3.833766, 36.202933)">
                        <mask id="mask-5" fill="white">
                            <use xlink:href="#path-4"></use>
                        </mask>
                        <g id="Clip-20"></g>
                        <path d="M109.946026,1.16122253 L1.26067013,64.2492033 C-0.247916883,65.1198008 -0.0587844156,66.6419093 1.68366234,67.6472802 L74.7073247,109.792376 C76.4497714,110.797747 79.0848468,110.906971 80.5940727,110.036374 L189.278151,46.9477541 C190.787377,46.0771566 190.598244,44.5563255 188.855797,43.5509547 L115.832135,1.40585852 C114.878805,0.855906593 113.65839,0.573585165 112.50187,0.573585165 C111.543429,0.573585165 110.629075,0.767122253 109.946026,1.16122253" id="Fill-19" fill="url(#linearGradient-6)" mask="url(#mask-5)"></path>
                    </g>
                    <g id="Group-31" transform="translate(92.010390, 0.433702)">
                        <g id="Group-24" transform="translate(2.555844, 0.000000)">
                            <mask id="mask-8" fill="white">
                                <use xlink:href="#path-7"></use>
                            </mask>
                            <g id="Clip-23"></g>
                            <polygon id="Fill-22" fill="#D4D6D7" mask="url(#mask-8)" points="19.4024353 22.1083228 0.42657039 11.1565508 19.4017964 0.204778846 38.3776613 11.1565508"></polygon>
                        </g>
                        <path d="M21.9577044,48.5472136 C21.7909356,48.5472136 21.6241668,48.5893702 21.4752888,48.6755996 L0.716722597,60.655737 C0.62599013,60.7087521 0.615766753,60.7962589 0.615766753,60.8307507 C0.615766753,60.8658812 0.62599013,60.953388 0.716722597,61.0064032 L21.4759278,72.987818 C21.7736836,73.159638 22.144281,73.1589993 22.4413979,72.987818 L43.1993252,61.0070419 C43.2906966,60.9540268 43.300281,60.8665199 43.300281,60.8313894 C43.300281,60.7968977 43.2906966,60.7093908 43.1993252,60.6563757 L22.44012,48.6755996 C22.291881,48.5893702 22.1244732,48.5472136 21.9577044,48.5472136 M21.9583434,73.6642397 C21.6963694,73.6642397 21.4350343,73.5971724 21.2011745,73.4617603 L0.442608312,61.4809842 C0.207470649,61.3455721 0.0668992208,61.1022136 0.0668992208,60.8307507 C0.0668992208,60.5599265 0.207470649,60.3172067 0.442608312,60.1817946 L21.2005356,48.2010185 C21.6676161,47.9308331 22.2484317,47.9308331 22.7148732,48.2010185 L43.4740784,60.1817946 C43.7092161,60.3178455 43.8491486,60.5605652 43.8491486,60.8313894 C43.8491486,61.1028523 43.7092161,61.3455721 43.4740784,61.4816229 L22.7161512,73.4617603 C22.4816525,73.5971724 22.2203174,73.6642397 21.9583434,73.6642397" id="Fill-25" fill="#E87925"></path>
                        <polygon id="Fill-27" fill="#374256" points="21.9582795 70.1114609 5.87882494 60.8312617 21.9582795 51.5517012 38.0370951 60.8319004"></polygon>
                        <polygon id="Fill-29" fill="#FEFEFE" points="21.9582795 64.1470055 2.98241455 53.1952335 21.9576405 42.2434615 40.9335055 53.1952335"></polygon>
                    </g>
                    <g id="Group-34" transform="translate(113.735065, 11.292218)">
                        <mask id="mask-10" fill="white">
                            <use xlink:href="#path-9"></use>
                        </mask>
                        <g id="Clip-33"></g>
                        <polygon id="Fill-32" fill="url(#linearGradient-11)" mask="url(#mask-10)" points="0.23385974 11.2500618 0.23385974 53.288489 19.2090857 42.3373558 19.2090857 0.298289835"></polygon>
                    </g>
                    <g id="Group-110" transform="translate(58.145455, 2.349911)">
                        <polygon id="Fill-35" fill="#374256" points="36.8475413 9.24002266 36.8475413 51.2784499 55.8234062 62.2308606 55.8234062 20.1917946"></polygon>
                        <polygon id="Fill-37" fill="#272F43" points="38.1329392 12.0295117 38.1329392 49.8152328 54.5376249 59.2832205 54.5376249 21.4974993"></polygon>
                        <polygon id="Fill-39" fill="#272F43" points="71.9523164 19.3973984 71.9523164 20.5081607 58.6695943 28.1742734 58.6695943 27.063511"></polygon>
                        <polygon id="Fill-41" fill="#272F43" points="71.9523164 24.0956229 71.9523164 25.2063853 58.6695943 32.8724979 58.6695943 31.7617356"></polygon>
                        <polygon id="Fill-43" fill="#272F43" points="71.9523164 28.7938475 71.9523164 29.9046099 58.6695943 37.5707225 58.6695943 36.4599602"></polygon>
                        <polygon id="Fill-45" fill="#272F43" points="71.9523164 33.4920082 71.9523164 34.6027706 58.6695943 42.2688832 58.6695943 41.1581209"></polygon>
                        <polygon id="Fill-47" fill="#272F43" points="71.9523164 38.1902328 71.9523164 39.3009952 58.6695943 46.9671078 58.6695943 45.8563455"></polygon>
                        <polygon id="Fill-49" fill="#272F43" points="71.9523164 42.8884574 71.9523164 43.9992198 58.6695943 51.6653324 58.6695943 50.5545701"></polygon>
                        <g id="Group-53" transform="translate(36.420779, 0.000000)">
                            <mask id="mask-13" fill="white">
                                <use xlink:href="#path-12"></use>
                            </mask>
                            <g id="Clip-52"></g>
                            <polygon id="Fill-51" fill="url(#linearGradient-14)" mask="url(#mask-13)" points="19.4026909 17.3142239 14.4156 17.3142239 0.426825974 9.23995879 15.6487948 0.45478022 19.4020519 0.45478022"></polygon>
                        </g>
                        <polygon id="Fill-54" fill="#E5E6E7" points="55.8232145 16.3478159 42.0548821 8.40129808 55.8232145 0.45478022 69.591547 8.40193681"></polygon>
                        <polygon id="Fill-56" fill="#374256" points="69.5914831 8.40168132 69.5914831 9.36808929 55.8231506 17.3139684 55.8231506 16.3475604"></polygon>
                        <polygon id="Fill-58" fill="#272F43" points="42.0546904 8.40104258 42.0546904 9.36745055 55.8230229 17.3139684 55.8230229 16.3475604"></polygon>
                        <polygon id="Fill-60" fill="#374256" points="50.4831616 8.52827885 49.8729538 8.17633516 49.9240706 7.89082005 55.5801538 4.60068956 56.3654369 4.97435027 56.2191148 5.21770879"></polygon>
                        <polygon id="Fill-62" fill="#272F43" points="55.610121 4.86678709 56.2190509 5.21809203 56.6120119 4.99134066 55.610121 4.41328434 49.4812068 7.94996703 49.8741678 8.17735714"></polygon>
                        <polygon id="Fill-64" fill="#374256" points="52.3342317 9.59369093 51.7240239 9.24110852 51.7745018 8.95559341 57.4312239 5.66546291 58.216507 6.03976236 58.0701849 6.28248214"></polygon>
                        <polygon id="Fill-66" fill="#272F43" points="57.4608717 5.93156044 58.0698016 6.28286538 58.4627626 6.05611401 57.4608717 5.47805769 51.3325964 9.01537912 51.7249184 9.24213049"></polygon>
                        <polygon id="Fill-68" fill="#374256" points="54.1849823 10.6584643 53.5747745 10.3058819 53.6258914 10.0210055 59.2819745 6.73023626 60.0672577 7.10453571 59.9209356 7.34789423"></polygon>
                        <polygon id="Fill-70" fill="#272F43" points="59.3119418 6.99633379 59.9208717 7.34827747 60.3138327 7.12088736 59.3119418 6.54283104 53.1830275 10.0801525 53.5759886 10.3069038"></polygon>
                        <polygon id="Fill-72" fill="#374256" points="56.0359886 11.7232376 55.4257808 11.3706552 55.4762587 11.0857788 61.1329808 7.79500962 61.9182639 8.16930907 61.7719418 8.41266758"></polygon>
                        <polygon id="Fill-74" fill="#272F43" points="61.1626925 8.06110714 61.7716223 8.41305082 62.1645834 8.18566071 61.1626925 7.6076044 55.0344171 11.1449258 55.4267392 11.3723159"></polygon>
                        <polygon id="Fill-76" fill="#374256" points="36.8475413 44.6355927 55.8227673 33.1824128 55.8234062 20.1917946 36.8475413 9.24002266"></polygon>
                        <path d="M55.0716686,22.0827095 C55.0716686,21.6011023 54.7336582,21.0160199 54.3164166,20.7752163 C54.1068374,20.6544952 53.917066,20.6436367 53.7803283,20.7241174 L53.7803283,20.7234787 L53.2455179,21.0364595 L53.5764997,21.0479567 C53.5669153,21.0977782 53.5618036,21.1520707 53.5618036,21.2108345 C53.5618036,21.6924416 53.899814,22.277524 54.3164166,22.5183276 C54.3720062,22.5496257 54.4263179,22.5745364 54.4780738,22.5911435 L54.3240842,22.8785749 L54.8473932,22.5732589 L54.8473932,22.5726202 C54.9860478,22.4946944 55.0716686,22.3247905 55.0716686,22.0827095" id="Fill-78" fill="#374256"></path>
                        <path d="M54.5334717,22.3970955 C54.5334717,22.8787026 54.1954613,23.0741559 53.7782197,22.8333523 C53.3616171,22.5925488 53.0236068,22.0074663 53.0236068,21.5258592 C53.0236068,21.0442521 53.3616171,20.8494375 53.7782197,21.0902411 C54.1954613,21.3304059 54.5334717,21.9161271 54.5334717,22.3970955" id="Fill-80" fill="#272F43"></path>
                        <path d="M54.2127132,22.211862 C54.2127132,22.4890735 54.0184691,22.6008523 53.7782197,22.4628853 C53.5386094,22.3242795 53.3443652,21.9876655 53.3443652,21.7110927 C53.3443652,21.4338812 53.5386094,21.3214636 53.7782197,21.4600694 C54.0184691,21.5986751 54.2127132,21.9352891 54.2127132,22.211862" id="Fill-82" fill="#374256"></path>
                        <path d="M39.1568743,12.3076813 C39.1568743,11.8260742 38.8188639,11.2409918 38.4016223,11.0001882 C38.1920431,10.879467 38.0022717,10.8686085 37.865534,10.9490893 L37.3313626,11.2614313 L37.6617055,11.2729286 C37.652121,11.32275 37.6470094,11.3770426 37.6470094,11.4364451 C37.6470094,11.9174135 37.9850197,12.5031346 38.4016223,12.7439382 C38.4572119,12.7752363 38.5115236,12.7995082 38.5632795,12.8161154 L38.4099288,13.1035467 L38.932599,12.7982308 C39.0712535,12.7196662 39.1568743,12.5497624 39.1568743,12.3076813" id="Fill-84" fill="#374256"></path>
                        <path d="M38.6186774,12.6220673 C38.6186774,13.1036745 38.280667,13.2991277 37.8640644,13.0583242 C37.4468229,12.8175206 37.1088125,12.2324382 37.1088125,11.750831 C37.1088125,11.2698626 37.4468229,11.0744093 37.8640644,11.3152129 C38.280667,11.5560165 38.6186774,12.1410989 38.6186774,12.6220673" id="Fill-86" fill="#272F43"></path>
                        <path d="M38.2983023,12.4374087 C38.2983023,12.7146202 38.1034192,12.826399 37.8638088,12.688432 C37.6241984,12.5498262 37.4293153,12.2125735 37.4293153,11.9360007 C37.4293153,11.6587891 37.6241984,11.5463716 37.8638088,11.6849773 C38.1034192,11.8235831 38.2983023,12.1601971 38.2983023,12.4374087" id="Fill-88" fill="#374256"></path>
                        <path d="M55.0716686,59.7313578 C55.0716686,59.2497507 54.7336582,58.6646683 54.3164166,58.4238647 C54.1068374,58.3031435 53.917066,58.292285 53.7803283,58.3727658 L53.7803283,58.3721271 L53.2455179,58.6851078 L53.5764997,58.6966051 C53.5669153,58.7464265 53.5618036,58.8007191 53.5618036,58.8601216 C53.5618036,59.34109 53.899814,59.9261724 54.3164166,60.166976 C54.3720062,60.1989128 54.4263179,60.2231848 54.4780738,60.2397919 L54.3240842,60.5272232 L54.8473932,60.2219073 L54.8473932,60.2212685 C54.9860478,60.1433427 55.0716686,59.9734389 55.0716686,59.7313578" id="Fill-90" fill="#374256"></path>
                        <path d="M54.5334717,60.0457438 C54.5334717,60.527351 54.1954613,60.7228043 53.7782197,60.4820007 C53.3616171,60.2411971 53.0236068,59.6561147 53.0236068,59.1745076 C53.0236068,58.6935391 53.3616171,58.4980859 53.7782197,58.7388894 C54.1954613,58.9790543 54.5334717,59.5647754 54.5334717,60.0457438" id="Fill-92" fill="#272F43"></path>
                        <path d="M54.2127132,59.8610852 C54.2127132,60.137658 54.0184691,60.2494368 53.7782197,60.1114698 C53.5386094,59.972864 53.3443652,59.63625 53.3443652,59.3596772 C53.3443652,59.0824657 53.5386094,58.9700481 53.7782197,59.1086538 C54.0184691,59.2472596 54.2127132,59.5838736 54.2127132,59.8610852" id="Fill-94" fill="#374256"></path>
                        <path d="M39.1568743,49.9563297 C39.1568743,49.4747225 38.8188639,48.8896401 38.4016223,48.6488365 C38.1920431,48.5281154 38.0022717,48.5172569 37.865534,48.5977376 L37.3313626,48.9100797 L37.6617055,48.9215769 C37.652121,48.9713984 37.6470094,49.0263297 37.6470094,49.0850934 C37.6470094,49.5667005 37.9850197,50.151783 38.4016223,50.3925865 C38.4572119,50.4238846 38.5115236,50.4481566 38.5632795,50.4647637 L38.4099288,50.7521951 L38.932599,50.4468791 C39.0712535,50.3683146 39.1568743,50.1990495 39.1568743,49.9563297" id="Fill-96" fill="#374256"></path>
                        <path d="M38.6186774,50.2713544 C38.6186774,50.7523228 38.280667,50.9477761 37.8640644,50.7069725 C37.4468229,50.466169 37.1088125,49.8810865 37.1088125,49.3994794 C37.1088125,48.918511 37.4468229,48.7230577 37.8640644,48.9638613 C38.280667,49.2046648 38.6186774,49.7897473 38.6186774,50.2713544" id="Fill-98" fill="#272F43"></path>
                        <path d="M38.2983023,50.086057 C38.2983023,50.3632685 38.1034192,50.4750474 37.8638088,50.3370804 C37.6241984,50.1984746 37.4293153,49.8612218 37.4293153,49.584649 C37.4293153,49.3074375 37.6241984,49.1950199 37.8638088,49.3336257 C38.1034192,49.4722315 38.2983023,49.8088455 38.2983023,50.086057" id="Fill-100" fill="#374256"></path>
                        <polygon id="Fill-102" fill="#D4D6D7" points="21.9467782 39.9654725 2.97091325 29.0137005 21.9461392 18.0619286 40.9220042 29.0137005"></polygon>
                        <path d="M21.9461392,66.4044272 C21.7793704,66.4044272 21.6126016,66.4465838 21.4637236,66.5328132 L0.705157403,78.5129505 C0.613785974,78.5659657 0.604201558,78.6534725 0.604201558,78.6879643 C0.604201558,78.7230948 0.613785974,78.8112404 0.705157403,78.8636168 L21.4637236,90.8450316 C21.7621184,91.0168516 22.1327158,91.0162129 22.4291938,90.8450316 L43.18776,78.8642555 C43.2791314,78.8112404 43.2887158,78.7237335 43.2887158,78.688603 C43.2887158,78.6541113 43.2791314,78.5666044 43.18776,78.5135893 L22.4285548,66.5328132 C22.2796769,66.4465838 22.1129081,66.4044272 21.9461392,66.4044272 M21.9467782,91.5214533 C21.6848042,91.5214533 21.4234691,91.454386 21.1889704,91.3189739 L0.431043117,79.3381978 C0.195266494,79.2027857 0.055334026,78.9594272 0.055334026,78.6879643 C0.055334026,78.4171401 0.195266494,78.1744203 0.431043117,78.0390082 L21.1889704,66.0582321 C21.6554119,65.7880467 22.2362275,65.7880467 22.7033081,66.0582321 L43.4618743,78.0390082 C43.6976509,78.1750591 43.8375834,78.4177788 43.8375834,78.688603 C43.8375834,78.9600659 43.6976509,79.2027857 43.4618743,79.3388365 L22.703947,91.3189739 C22.4700873,91.454386 22.2087522,91.5214533 21.9467782,91.5214533" id="Fill-104" fill="#E87925"></path>
                        <polygon id="Fill-106" fill="#374256" points="21.9464587 87.9686106 5.86764312 78.6884114 21.9464587 69.4082122 38.0252743 78.6890501"></polygon>
                        <polygon id="Fill-108" fill="#FEFEFE" points="21.9467782 82.0041552 2.97091325 71.0523832 21.9461392 60.1006113 40.9220042 71.0523832"></polygon>
                    </g>
                    <g id="Group-113" transform="translate(79.870130, 31.093043)">
                        <mask id="mask-16" fill="white">
                            <use xlink:href="#path-15"></use>
                        </mask>
                        <g id="Clip-112"></g>
                        <polygon id="Fill-111" fill="url(#linearGradient-17)" mask="url(#mask-16)" points="0.222358442 11.2225962 0.222358442 53.2610234 19.1969455 42.3092514 19.1969455 0.270824176"></polygon>
                    </g>
                    <g id="Group-189" transform="translate(24.280519, 22.150735)">
                        <polygon id="Fill-114" fill="#374256" points="36.8356566 9.21255701 36.8356566 51.2509842 55.8115216 62.2033949 55.8115216 20.164329"></polygon>
                        <polygon id="Fill-116" fill="#272F43" points="38.1210545 12.002046 38.1210545 49.7877672 54.5263792 59.2551161 54.5263792 21.4700337"></polygon>
                        <polygon id="Fill-118" fill="#272F43" points="71.9404956 19.3699966 71.9404956 20.4807589 58.6577735 28.1468716 58.6577735 27.0361092"></polygon>
                        <polygon id="Fill-120" fill="#272F43" points="71.9404956 24.0681573 71.9404956 25.1789196 58.6577735 32.8450323 58.6577735 31.7342699"></polygon>
                        <polygon id="Fill-122" fill="#272F43" points="71.9404956 28.7663819 71.9404956 29.8771442 58.6577735 37.5432569 58.6577735 36.4324945"></polygon>
                        <polygon id="Fill-124" fill="#272F43" points="71.9404956 33.4646065 71.9404956 34.5753688 58.6577735 42.2414815 58.6577735 41.1307191"></polygon>
                        <polygon id="Fill-126" fill="#272F43" points="71.9404956 38.1627672 71.9404956 39.2735295 58.6577735 46.9396422 58.6577735 45.8288798"></polygon>
                        <polygon id="Fill-128" fill="#272F43" points="71.9404956 42.8609918 71.9404956 43.9717541 58.6577735 51.6378668 58.6577735 50.5271044"></polygon>
                        <g id="Group-132" transform="translate(36.420779, 0.000000)">
                            <mask id="mask-19" fill="white">
                                <use xlink:href="#path-18"></use>
                            </mask>
                            <g id="Clip-131"></g>
                            <polygon id="Fill-130" fill="url(#linearGradient-20)" mask="url(#mask-19)" points="19.3905506 17.2867582 14.4040987 17.2867582 0.414685714 9.21249313 15.6372935 0.42731456 19.3905506 0.42731456"></polygon>
                        </g>
                        <polygon id="Fill-133" fill="#E5E6E7" points="55.8113938 16.3203503 42.0430613 8.37383242 55.8113938 0.42731456 69.5797262 8.37447115"></polygon>
                        <polygon id="Fill-135" fill="#374256" points="69.5795984 8.37421566 69.5795984 9.34062363 55.811266 17.2865027 55.811266 16.3200948"></polygon>
                        <polygon id="Fill-137" fill="#272F43" points="42.0431252 8.37357692 42.0431252 9.34062363 55.8114577 17.2865027 55.8114577 16.3200948"></polygon>
                        <polygon id="Fill-139" fill="#374256" points="50.4715964 8.50087706 49.8613886 8.14893338 49.9118665 7.86341827 55.5685886 4.57328777 56.3538717 4.94694849 56.2075496 5.19030701"></polygon>
                        <polygon id="Fill-141" fill="#272F43" points="55.5983003 4.83932143 56.2072301 5.19062637 56.6001912 4.963875 55.5983003 4.38581868 49.4700249 7.92250137 49.862347 8.14989148"></polygon>
                        <polygon id="Fill-143" fill="#374256" points="52.322347 9.56622527 51.7121392 9.21364286 51.7626171 8.92812775 57.4193392 5.63799725 58.2046223 6.0122967 58.0583003 6.25501648"></polygon>
                        <polygon id="Fill-145" fill="#272F43" points="57.4493704 5.90409478 58.0583003 6.25539973 58.4512613 6.02864835 57.4493704 5.45059203 51.3204561 8.98791346 51.7134171 9.21466484"></polygon>
                        <polygon id="Fill-147" fill="#374256" points="54.1734171 10.6309986 53.5632094 10.2784162 53.6136873 9.9929011 59.2704094 6.7027706 60.0556925 7.07707005 59.9093704 7.32042857"></polygon>
                        <polygon id="Fill-149" fill="#272F43" points="59.3000571 6.96886813 59.908987 7.32081181 60.3019481 7.0934217 59.3000571 6.51536538 53.1717818 10.0526868 53.5641039 10.2794382"></polygon>
                        <polygon id="Fill-151" fill="#374256" points="56.0241678 11.695772 55.41396 11.3431896 55.4650769 11.0583132 61.12116 7.76754396 61.9064431 8.14184341 61.760121 8.38520192"></polygon>
                        <polygon id="Fill-153" fill="#272F43" points="61.1511273 8.03364148 61.7600571 8.38558516 62.1530182 8.15819505 61.1511273 7.58013874 55.022213 11.1174602 55.415174 11.3448503"></polygon>
                        <polygon id="Fill-155" fill="#374256" points="36.8356566 44.6081909 55.8115216 33.155011 55.8115216 20.1643929 36.8356566 9.21262088"></polygon>
                        <path d="M55.0597839,22.0553077 C55.0597839,21.5737005 54.7217735,20.9886181 54.3045319,20.7478146 C54.0949527,20.6270934 53.9051813,20.6162349 53.7684436,20.6967157 L53.7684436,20.6960769 L53.2342722,21.0090577 L53.5646151,21.0205549 C53.5550306,21.0703764 53.549919,21.124669 53.549919,21.1840714 C53.549919,21.6650398 53.8879294,22.2501223 54.3045319,22.4909258 C54.3601216,22.5228626 54.4144332,22.5471346 54.4661891,22.5637418 L54.3121995,22.8511731 L54.8355086,22.5458571 L54.8355086,22.5452184 C54.9741631,22.4672926 55.0597839,22.2973887 55.0597839,22.0553077" id="Fill-157" fill="#374256"></path>
                        <path d="M54.521587,22.3696298 C54.521587,22.851237 54.1835766,23.0466902 53.7663351,22.8058867 C53.3497325,22.5650831 53.0117221,21.9800007 53.0117221,21.4983935 C53.0117221,21.0167864 53.3497325,20.8219718 53.7663351,21.0627754 C54.1835766,21.3029402 54.521587,21.8886614 54.521587,22.3696298" id="Fill-159" fill="#272F43"></path>
                        <path d="M54.2008925,22.1843963 C54.2008925,22.4616078 54.0066483,22.5733867 53.766399,22.4354196 C53.5267886,22.2968139 53.3325444,21.9601999 53.3325444,21.6836271 C53.3325444,21.4064155 53.5267886,21.2939979 53.766399,21.4326037 C54.0066483,21.5712095 54.2008925,21.9078235 54.2008925,22.1843963" id="Fill-161" fill="#374256"></path>
                        <path d="M39.145373,12.2802157 C39.145373,11.7986085 38.8073626,11.2135261 38.390121,10.9727225 C38.1805418,10.8520014 37.9907704,10.8411429 37.8540327,10.9216236 L37.3192223,11.2339657 L37.6502042,11.2454629 C37.6406197,11.2952843 37.6355081,11.3502157 37.6355081,11.4089794 C37.6355081,11.8899478 37.9735184,12.475669 38.390121,12.7158338 C38.4457106,12.7477706 38.5000223,12.7720426 38.5517782,12.7886497 L38.3977886,13.076081 L38.9210977,12.7707651 C39.0597522,12.6922005 39.145373,12.5229354 39.145373,12.2802157" id="Fill-163" fill="#374256"></path>
                        <path d="M38.6071761,12.5952404 C38.6071761,13.0762088 38.2691657,13.2716621 37.8519242,13.0308585 C37.4353216,12.7900549 37.0973112,12.2049725 37.0973112,11.7233654 C37.0973112,11.242397 37.4353216,11.0469437 37.8519242,11.2877473 C38.2691657,11.5285508 38.6071761,12.1136332 38.6071761,12.5952404" id="Fill-165" fill="#272F43"></path>
                        <path d="M38.2864177,12.4100069 C38.2864177,12.6872184 38.0921735,12.7989973 37.8519242,12.6610302 C37.6123138,12.5224245 37.4180696,12.1851717 37.4180696,11.9085989 C37.4180696,11.6313874 37.6123138,11.5189698 37.8519242,11.6575755 C38.0921735,11.7961813 38.2864177,12.1327953 38.2864177,12.4100069" id="Fill-167" fill="#374256"></path>
                        <path d="M55.0597839,59.7038922 C55.0597839,59.222285 54.7217735,58.6372026 54.3045319,58.396399 C54.0949527,58.2756779 53.9051813,58.2648194 53.7684436,58.3453001 L53.7684436,58.3446614 L53.2342722,58.6576422 L53.5646151,58.6691394 C53.5550306,58.7189609 53.549919,58.7732534 53.549919,58.8326559 C53.549919,59.3136243 53.8879294,59.8987067 54.3045319,60.1395103 C54.3601216,60.1714471 54.4144332,60.1957191 54.4661891,60.2123262 L54.3121995,60.4997576 L54.8355086,60.1944416 L54.8355086,60.1938029 C54.9741631,60.1158771 55.0597839,59.9459732 55.0597839,59.7038922" id="Fill-169" fill="#374256"></path>
                        <path d="M54.521587,60.0182782 C54.521587,60.4998853 54.1835766,60.6953386 53.7663351,60.454535 C53.3497325,60.2137315 53.0117221,59.628649 53.0117221,59.1470419 C53.0117221,58.6660735 53.3497325,58.4706202 53.7663351,58.7114238 C54.1835766,58.9515886 54.521587,59.5373098 54.521587,60.0182782" id="Fill-171" fill="#272F43"></path>
                        <path d="M54.2008925,59.8336834 C54.2008925,60.1102562 54.0066483,60.222035 53.766399,60.084068 C53.5267886,59.946101 53.3325444,59.6088482 53.3325444,59.3322754 C53.3325444,59.0550639 53.5267886,58.9426463 53.766399,59.0812521 C54.0066483,59.2198578 54.2008925,59.5564718 54.2008925,59.8336834" id="Fill-173" fill="#374256"></path>
                        <path d="M39.145373,49.928864 C39.145373,49.4472569 38.8073626,48.8621745 38.390121,48.6213709 C38.1805418,48.5006497 37.9907704,48.4897912 37.8540327,48.570272 L37.3192223,48.882614 L37.6502042,48.8941113 C37.6406197,48.9439327 37.6355081,48.998864 37.6355081,49.0576277 C37.6355081,49.5385962 37.9735184,50.1243173 38.390121,50.3651209 C38.4457106,50.396419 38.5000223,50.4206909 38.5517782,50.4372981 L38.3977886,50.7247294 L38.9210977,50.4194135 C39.0597522,50.3408489 39.145373,50.1715838 39.145373,49.928864" id="Fill-175" fill="#374256"></path>
                        <path d="M38.6071761,50.2438887 C38.6071761,50.7248571 38.2691657,50.9203104 37.8519242,50.6795069 C37.4353216,50.4387033 37.0973112,49.8536209 37.0973112,49.3720137 C37.0973112,48.8910453 37.4353216,48.695592 37.8519242,48.9363956 C38.2691657,49.1771992 38.6071761,49.7622816 38.6071761,50.2438887" id="Fill-177" fill="#272F43"></path>
                        <path d="M38.2864177,50.0586552 C38.2864177,50.3358668 38.0921735,50.4476456 37.8519242,50.3096786 C37.6123138,50.1710728 37.4180696,49.8338201 37.4180696,49.5572473 C37.4180696,49.2800357 37.6123138,49.1676181 37.8519242,49.3062239 C38.0921735,49.4448297 38.2864177,49.7814437 38.2864177,50.0586552" id="Fill-179" fill="#374256"></path>
                        <polygon id="Fill-181" fill="#D4D6D7" points="21.9348935 39.9380069 2.95902857 28.9862349 21.9342545 18.0344629 40.9101195 28.9862349"></polygon>
                        <path d="M21.9342545,66.3769615 C21.7674857,66.3769615 21.6007169,66.4191181 21.451839,66.5053475 L0.693272727,78.4854849 C0.601901299,78.5385 0.592316883,78.6260069 0.592316883,78.6604986 C0.592316883,78.6956291 0.601901299,78.7837747 0.693272727,78.8361511 L21.4524779,90.8175659 C21.7502338,90.989386 22.1208312,90.9887473 22.4173091,90.8175659 L43.1758753,78.8367898 C43.2672468,78.7837747 43.2768312,78.6962679 43.2768312,78.6611374 C43.2768312,78.6266456 43.2672468,78.5391387 43.1758753,78.4861236 L22.4166701,66.5053475 C22.2677922,66.4191181 22.1010234,66.3769615 21.9342545,66.3769615 M21.9348935,91.4939876 C21.6729195,91.4939876 21.4115844,91.4269203 21.1777247,91.2915082 L0.419158442,79.3107321 C0.184020779,79.1753201 0.0434493506,78.9319615 0.0434493506,78.6604986 C0.0434493506,78.3896745 0.184020779,78.1469547 0.419158442,78.0115426 L21.1770857,66.0307665 C21.6441662,65.760581 22.2249818,65.760581 22.6914234,66.0307665 L43.4506286,78.0115426 C43.6857662,78.1475934 43.8256987,78.3903132 43.8256987,78.6611374 C43.8256987,78.9326003 43.6857662,79.1753201 43.4506286,79.3113709 L22.6920623,91.2915082 C22.4582026,91.4269203 22.1968675,91.4939876 21.9348935,91.4939876" id="Fill-183" fill="#E87925"></path>
                        <polygon id="Fill-185" fill="#374256" points="21.9348935 87.9411449 5.85543896 78.6615845 21.9342545 69.3813853 38.0137091 78.6615845"></polygon>
                        <polygon id="Fill-187" fill="#FEFEFE" points="21.9348935 81.9767534 2.95902857 71.0249815 21.9342545 60.0732095 40.9101195 71.0249815"></polygon>
                    </g>
                    <g id="Group-192" transform="translate(46.005195, 50.893867)">
                        <mask id="mask-22" fill="white">
                            <use xlink:href="#path-21"></use>
                        </mask>
                        <g id="Clip-191"></g>
                        <polygon id="Fill-190" fill="url(#linearGradient-23)" mask="url(#mask-22)" points="0.210218182 11.1944918 0.210218182 53.2335577 19.1860831 42.2824245 19.1860831 0.243358516"></polygon>
                    </g>
                    <g id="Group-268" transform="translate(26.836364, 23.428207)">
                        <polygon id="Fill-193" fill="#374256" points="0.403376104 27.708443 0.403376104 69.7468702 19.379241 80.6992809 19.379241 38.660215"></polygon>
                        <polygon id="Fill-195" fill="#272F43" points="1.68877403 30.497932 1.68877403 68.2836532 18.0934597 77.7516408 18.0934597 39.9659196"></polygon>
                        <polygon id="Fill-197" fill="#272F43" points="35.5081512 37.8658826 35.5081512 38.9766449 22.2254291 46.6427576 22.2254291 45.5319952"></polygon>
                        <polygon id="Fill-199" fill="#272F43" points="35.5081512 42.5641071 35.5081512 43.6748695 22.2254291 51.3409821 22.2254291 50.2302198"></polygon>
                        <polygon id="Fill-201" fill="#272F43" points="35.5081512 47.2622679 35.5081512 48.3730302 22.2254291 56.0391429 22.2254291 54.9283805"></polygon>
                        <polygon id="Fill-203" fill="#272F43" points="35.5081512 51.9604924 35.5081512 53.0712548 22.2254291 60.7373674 22.2254291 59.6266051"></polygon>
                        <polygon id="Fill-205" fill="#272F43" points="35.5081512 56.658717 35.5081512 57.7694794 22.2254291 65.435592 22.2254291 64.3248297"></polygon>
                        <polygon id="Fill-207" fill="#272F43" points="35.5081512 61.3568777 35.5081512 62.4676401 22.2254291 70.1337527 22.2254291 69.0229904"></polygon>
                        <g id="Group-211" transform="translate(0.000000, 18.523352)">
                            <mask id="mask-25" fill="white">
                                <use xlink:href="#path-24"></use>
                            </mask>
                            <g id="Clip-210"></g>
                            <polygon id="Fill-209" fill="url(#linearGradient-26)" mask="url(#mask-25)" points="19.3790494 17.2592926 14.3925974 17.2592926 0.403184416 9.18502747 15.6251532 0.399848901 19.3790494 0.399848901"></polygon>
                        </g>
                        <polygon id="Fill-212" fill="#E5E6E7" points="19.3790494 34.8163001 5.61071688 26.8697823 19.3790494 18.9232644 33.1467429 26.870421"></polygon>
                        <polygon id="Fill-214" fill="#374256" points="33.1469984 26.8701016 33.1469984 27.8365096 19.3793049 35.7823887 19.3793049 34.8159808"></polygon>
                        <polygon id="Fill-216" fill="#272F43" points="5.61052519 26.8695268 5.61052519 27.8365735 19.3788577 35.7824526 19.3788577 34.8160446"></polygon>
                        <polygon id="Fill-218" fill="#374256" points="14.0389964 26.996763 13.4287886 26.6448194 13.4792665 26.3593043 19.1359886 23.0691738 19.9212717 23.4428345 19.7749496 23.686193"></polygon>
                        <polygon id="Fill-220" fill="#272F43" points="19.1659558 23.3352713 19.7748857 23.6865762 20.1678468 23.4598249 19.1659558 22.8817685 13.0370416 26.4184512 13.4300026 26.6458413"></polygon>
                        <polygon id="Fill-222" fill="#374256" points="15.8900665 28.0621751 15.2798587 27.7095927 15.3303366 27.4240776 20.9870587 24.1339471 21.7723418 24.5082466 21.6260197 24.7509663"></polygon>
                        <polygon id="Fill-224" fill="#272F43" points="21.0167065 24.4000446 21.6256364 24.7513496 22.0185974 24.5245982 21.0167065 23.9465419 14.8884312 27.4838633 15.2807532 27.7106147"></polygon>
                        <polygon id="Fill-226" fill="#374256" points="17.7407532 29.1268846 17.1305455 28.7743022 17.1810234 28.4887871 22.8377455 25.1986566 23.6230286 25.572956 23.4767065 25.8163146"></polygon>
                        <polygon id="Fill-228" fill="#272F43" points="22.8677766 25.4647541 23.4767065 25.8166978 23.8696675 25.5893077 22.8677766 25.0112514 16.7388623 28.5485728 17.1318234 28.7753242"></polygon>
                        <polygon id="Fill-230" fill="#374256" points="19.5918234 30.191658 18.9816156 29.8390755 19.0320935 29.5541992 24.6888156 26.2634299 25.4740987 26.6377294 25.3277766 26.8810879"></polygon>
                        <polygon id="Fill-232" fill="#272F43" points="24.7185273 26.5295275 25.3274571 26.8814712 25.7204182 26.654081 24.7185273 26.0760247 18.589613 29.6133462 18.982574 29.8407363"></polygon>
                        <polygon id="Fill-234" fill="#374256" points="0.403376104 63.1040769 19.3786021 51.650897 19.379241 38.6602788 0.403376104 27.7085069"></polygon>
                        <path d="M18.6271839,40.5511937 C18.6271839,40.0695865 18.2891735,39.4845041 17.8719319,39.2437005 C17.6623527,39.1229794 17.4725813,39.1121209 17.3358436,39.1926016 L17.3358436,39.1919629 L16.8016722,39.5049437 L17.1320151,39.5164409 C17.1224306,39.5662624 17.117319,39.6205549 17.117319,39.6799574 C17.117319,40.1609258 17.4553294,40.7460082 17.8719319,40.9868118 C17.9275216,41.0187486 17.9818332,41.0430206 18.0335891,41.0596277 L17.8802384,41.3470591 L18.4029086,41.0417431 L18.4029086,41.0411044 C18.5415631,40.9631786 18.6271839,40.7932747 18.6271839,40.5511937" id="Fill-236" fill="#374256"></path>
                        <path d="M18.088987,40.8655797 C18.088987,41.3471868 17.7509766,41.5426401 17.334374,41.3018365 C16.9171325,41.061033 16.5791221,40.4759505 16.5791221,39.9943434 C16.5791221,39.5127363 16.9171325,39.3179217 17.334374,39.5580865 C17.7509766,39.7988901 18.088987,40.3846113 18.088987,40.8655797" id="Fill-238" fill="#272F43"></path>
                        <path d="M17.7685481,40.6802823 C17.7685481,40.9574938 17.5736649,41.0692727 17.3340545,40.9313056 C17.0944442,40.7926999 16.9002,40.4560859 16.9002,40.179513 C16.9002,39.9023015 17.0944442,39.7898839 17.3340545,39.9284897 C17.5736649,40.0670955 17.7685481,40.4037095 17.7685481,40.6802823" id="Fill-240" fill="#374256"></path>
                        <path d="M2.71270909,30.7761655 C2.71270909,30.2945584 2.3746987,29.709476 1.95745714,29.4686724 C1.74787792,29.3479512 1.55810649,29.3370927 1.42136883,29.4175735 L0.887197403,29.7299155 L1.21754026,29.7414128 C1.20795584,29.7912342 1.20284416,29.8461655 1.20284416,29.9049293 C1.20284416,30.3858977 1.54085455,30.9716188 1.95745714,31.2117837 C2.01304675,31.2437205 2.06735844,31.2679924 2.11911429,31.2845996 L1.96512468,31.5720309 L2.48843377,31.266715 L2.48843377,31.2660762 C2.62708831,31.1881504 2.71270909,31.0182466 2.71270909,30.7761655" id="Fill-242" fill="#374256"></path>
                        <path d="M2.17451221,31.0911264 C2.17451221,31.5720948 1.83650182,31.7675481 1.41926026,31.5267445 C1.00265766,31.2859409 0.664647273,30.7008585 0.664647273,30.2192514 C0.664647273,29.738283 1.00265766,29.5428297 1.41926026,29.7836332 C1.83650182,30.0244368 2.17451221,30.6095192 2.17451221,31.0911264" id="Fill-244" fill="#272F43"></path>
                        <path d="M1.85381766,30.9058929 C1.85381766,31.1831044 1.65957351,31.2948832 1.41932416,31.1569162 C1.17971377,31.0183104 0.98546961,30.6810577 0.98546961,30.4044849 C0.98546961,30.1272734 1.17971377,30.0148558 1.41932416,30.1534615 C1.65957351,30.2920673 1.85381766,30.6286813 1.85381766,30.9058929" id="Fill-246" fill="#374256"></path>
                        <path d="M18.6271839,78.199842 C18.6271839,77.7182349 18.2891735,77.1331525 17.8719319,76.8923489 C17.6623527,76.7716277 17.4725813,76.7607692 17.3358436,76.84125 L17.3358436,76.8406113 L16.8016722,77.153592 L17.1320151,77.1650893 C17.1224306,77.2149107 17.117319,77.2692033 17.117319,77.3286058 C17.117319,77.8095742 17.4553294,78.3952953 17.8719319,78.6354602 C17.9275216,78.667397 17.9818332,78.691669 18.0335891,78.7082761 L17.8802384,78.9957074 L18.4029086,78.6903915 L18.4029086,78.6897527 C18.5415631,78.6118269 18.6271839,78.4419231 18.6271839,78.199842" id="Fill-248" fill="#374256"></path>
                        <path d="M18.088987,78.514228 C18.088987,78.9958352 17.7509766,79.1912885 17.334374,78.9504849 C16.9171325,78.7096813 16.5791221,78.1245989 16.5791221,77.6429918 C16.5791221,77.1613846 16.9171325,76.9665701 17.334374,77.2073736 C17.7509766,77.4475385 18.088987,78.0332596 18.088987,78.514228" id="Fill-250" fill="#272F43"></path>
                        <path d="M17.7685481,78.3295694 C17.7685481,78.6061422 17.5736649,78.717921 17.3340545,78.579954 C17.0944442,78.4413482 16.9002,78.1047342 16.9002,77.8281614 C16.9002,77.5509499 17.0944442,77.4385323 17.3340545,77.577138 C17.5736649,77.7157438 17.7685481,78.0523578 17.7685481,78.3295694" id="Fill-252" fill="#374256"></path>
                        <path d="M2.71270909,68.4248139 C2.71270909,67.9432067 2.3746987,67.3581243 1.95745714,67.1173207 C1.74787792,66.9965996 1.55810649,66.9857411 1.42136883,67.0662218 L0.887197403,67.3785639 L1.21754026,67.3900611 C1.20795584,67.4405213 1.20284416,67.4948139 1.20284416,67.5535776 C1.20284416,68.0351848 1.54085455,68.6202672 1.95745714,68.8610707 C2.01304675,68.8923688 2.06735844,68.9166408 2.11911429,68.9332479 L1.96512468,69.221318 L2.48843377,68.9153633 C2.62708831,68.8367988 2.71270909,68.6675337 2.71270909,68.4248139" id="Fill-254" fill="#374256"></path>
                        <path d="M2.17451221,68.7397747 C2.17451221,69.2207431 1.83650182,69.4161964 1.41926026,69.1753929 C1.00265766,68.9345893 0.664647273,68.3495069 0.664647273,67.8678997 C0.664647273,67.3869313 1.00265766,67.191478 1.41926026,67.4322816 C1.83650182,67.6730852 2.17451221,68.2581676 2.17451221,68.7397747" id="Fill-256" fill="#272F43"></path>
                        <path d="M1.85381766,68.5545412 C1.85381766,68.8317527 1.65957351,68.9435316 1.41932416,68.8055646 C1.17971377,68.6669588 0.98546961,68.329706 0.98546961,68.0531332 C0.98546961,67.7759217 1.17971377,67.6635041 1.41932416,67.8021099 C1.65957351,67.9407157 1.85381766,68.2773297 1.85381766,68.5545412" id="Fill-258" fill="#374256"></path>
                        <polygon id="Fill-260" fill="#D4D6D7" points="125.499935 21.9455089 106.52407 10.993737 125.499296 0.0419649725 144.475161 10.993737"></polygon>
                        <path d="M125.499296,48.3844636 C125.332527,48.3844636 125.165758,48.4266202 125.016881,48.5128496 L104.258314,60.492987 C104.166943,60.5460021 104.157358,60.6335089 104.157358,60.6680007 C104.157358,60.7031312 104.166943,60.7912768 104.258314,60.8436532 L125.016881,72.825068 C125.315275,72.996888 125.685873,72.9962493 125.982351,72.825068 L146.740917,60.8442919 C146.832288,60.7912768 146.841873,60.7037699 146.841873,60.6686394 C146.841873,60.6341477 146.832288,60.5466408 146.740917,60.4936257 L125.981712,48.5128496 C125.832834,48.4266202 125.666065,48.3844636 125.499296,48.3844636 M125.499935,73.5014897 C125.237961,73.5014897 124.976626,73.4344224 124.742127,73.2990103 L103.9842,61.3182342 C103.749062,61.1828221 103.608491,60.9394636 103.608491,60.6680007 C103.608491,60.3971765 103.749062,60.1544567 103.9842,60.0190446 L124.742127,48.0382685 C125.209208,47.7687218 125.790023,47.7687218 126.256465,48.0382685 L147.01567,60.0190446 C147.250808,60.1550955 147.39074,60.3978152 147.39074,60.6686394 C147.39074,60.9401023 147.250808,61.1828221 147.01567,61.3188729 L126.257104,73.2990103 C126.023244,73.4344224 125.761909,73.5014897 125.499935,73.5014897" id="Fill-262" fill="#E87925"></path>
                        <polygon id="Fill-264" fill="#374256" points="125.499935 69.948647 109.420481 60.6690865 125.499296 51.3888874 141.578751 60.6690865"></polygon>
                        <polygon id="Fill-266" fill="#FEFEFE" points="125.499935 63.9841916 106.52407 53.0324196 125.499296 42.0806477 144.475161 53.0324196"></polygon>
                    </g>
                    <g id="Group-271" transform="translate(152.072727, 34.286724)">
                        <mask id="mask-28" fill="white">
                            <use xlink:href="#path-27"></use>
                        </mask>
                        <g id="Clip-270"></g>
                        <polygon id="Fill-269" fill="url(#linearGradient-29)" mask="url(#mask-28)" points="0.263890909 11.0871841 0.263890909 53.1256113 19.2384779 42.1738393 19.2384779 0.135412088"></polygon>
                    </g>
                    <g id="Group-347" transform="translate(96.483117, 25.344416)">
                        <polygon id="Fill-272" fill="#374256" points="36.8771891 9.07720879 36.8771891 51.115636 55.853054 62.0680467 55.853054 20.0289808"></polygon>
                        <polygon id="Fill-274" fill="#272F43" points="38.162587 11.8666978 38.162587 49.652419 54.5679117 59.1204066 54.5679117 21.3346854"></polygon>
                        <polygon id="Fill-276" fill="#272F43" points="71.9819642 19.2345845 71.9819642 20.3453468 58.6992421 28.0114595 58.6992421 26.9006971"></polygon>
                        <polygon id="Fill-278" fill="#272F43" points="71.9819642 23.9328091 71.9819642 25.0435714 58.6992421 32.7096841 58.6992421 31.5989217"></polygon>
                        <polygon id="Fill-280" fill="#272F43" points="71.9819642 28.6310337 71.9819642 29.741796 58.6992421 37.4079087 58.6992421 36.2971463"></polygon>
                        <polygon id="Fill-282" fill="#272F43" points="71.9819642 33.3291944 71.9819642 34.4399567 58.6992421 42.1060694 58.6992421 40.995307"></polygon>
                        <polygon id="Fill-284" fill="#272F43" points="71.9819642 38.027419 71.9819642 39.1381813 58.6992421 46.804294 58.6992421 45.6935316"></polygon>
                        <polygon id="Fill-286" fill="#272F43" points="71.9819642 42.7256435 71.9819642 43.8364059 58.6992421 51.5025185 58.6992421 50.3917562"></polygon>
                        <g id="Group-290" transform="translate(36.420779, 0.000000)">
                            <mask id="mask-31" fill="white">
                                <use xlink:href="#path-30"></use>
                            </mask>
                            <g id="Clip-289"></g>
                            <polygon id="Fill-288" fill="url(#linearGradient-32)" mask="url(#mask-31)" points="19.4327221 17.1513462 14.4456312 17.1513462 0.456218182 9.07708104 15.678826 0.291902473 19.4320831 0.291902473"></polygon>
                        </g>
                        <polygon id="Fill-291" fill="#E5E6E7" points="55.8531818 16.1850021 42.0848494 8.2384842 55.8525429 0.291966346 69.6208753 8.23912294"></polygon>
                        <polygon id="Fill-293" fill="#374256" points="69.6211309 8.23886745 69.6211309 9.20527541 55.8534374 17.1511545 55.8534374 16.1847466"></polygon>
                        <polygon id="Fill-295" fill="#272F43" points="42.0846577 8.23822871 42.0846577 9.20527541 55.8529901 17.1511545 55.8529901 16.1847466"></polygon>
                        <polygon id="Fill-297" fill="#374256" points="50.5131288 8.36546497 49.902921 8.01352129 49.953399 7.72800618 55.610121 4.43787569 56.3954042 4.8115364 56.2490821 5.05489492"></polygon>
                        <polygon id="Fill-299" fill="#272F43" points="55.6397688 4.70397321 56.2486987 5.05527816 56.6416597 4.82852679 55.6397688 4.25047047 49.5114935 7.78715316 49.9038156 8.01454327"></polygon>
                        <polygon id="Fill-301" fill="#374256" points="52.3638795 9.43087706 51.7536717 9.07829464 51.8047886 8.79277953 57.4608717 5.50264904 58.2461548 5.87694849 58.0998327 6.11966827"></polygon>
                        <polygon id="Fill-303" fill="#272F43" points="57.490839 5.76874657 58.0997688 6.12005151 58.4927299 5.89330014 57.490839 5.31524382 51.3619247 8.85256525 51.7548857 9.07931662"></polygon>
                        <polygon id="Fill-305" fill="#374256" points="54.2148857 10.4956504 53.6046779 10.143068 53.6551558 9.85819162 59.3118779 6.56742239 60.097161 6.94172184 59.950839 7.18508036"></polygon>
                        <polygon id="Fill-307" fill="#272F43" points="59.3415896 6.83351992 59.9505195 7.1854636 60.3434805 6.95807349 59.3415896 6.38001717 53.2133143 9.9173386 53.6056364 10.14409"></polygon>
                        <polygon id="Fill-309" fill="#374256" points="56.0656364 11.5604238 55.4554286 11.2078413 55.5065455 10.922965 61.1626286 7.63219574 61.9479117 8.00649519 61.8015896 8.24985371"></polygon>
                        <polygon id="Fill-311" fill="#272F43" points="61.1926597 7.89829327 61.8015896 8.25023695 62.1945506 8.02284684 61.1926597 7.44542926 55.0637455 10.982112 55.4567065 11.2095021"></polygon>
                        <polygon id="Fill-313" fill="#374256" points="36.8771891 44.4727788 55.853054 33.0195989 55.853054 20.0289808 36.8771891 9.07720879"></polygon>
                        <path d="M55.1012525,21.9198956 C55.1012525,21.4382885 54.7632421,20.853206 54.3460005,20.6124025 C54.1364213,20.4916813 53.9466499,20.4808228 53.8099122,20.5613036 L53.8099122,20.5606648 L53.2757408,20.8736456 L53.6060836,20.8851429 C53.5964992,20.9349643 53.5913875,20.9892569 53.5913875,21.0486593 C53.5913875,21.5296277 53.9293979,22.1147102 54.3460005,22.3555137 C54.4015901,22.3874505 54.4559018,22.4117225 54.5076577,22.4283297 L54.3536681,22.715761 L54.8769771,22.4104451 L54.8769771,22.4098063 C55.0156317,22.3318805 55.1012525,22.1619766 55.1012525,21.9198956" id="Fill-315" fill="#374256"></path>
                        <path d="M54.5631195,22.2342816 C54.5631195,22.7158887 54.2251091,22.911342 53.8078675,22.6705385 C53.3912649,22.4297349 53.0532545,21.8446525 53.0532545,21.3630453 C53.0532545,20.8820769 53.3912649,20.6866236 53.8078675,20.9274272 C54.2251091,21.167592 54.5631195,21.7533132 54.5631195,22.2342816" id="Fill-317" fill="#272F43"></path>
                        <path d="M54.242361,22.0496868 C54.242361,22.3262596 54.0481169,22.4380385 53.8078675,22.3000714 C53.5682571,22.1614657 53.374013,21.8248516 53.374013,21.5482788 C53.374013,21.2710673 53.5682571,21.1586497 53.8078675,21.2972555 C54.0481169,21.4358613 54.242361,21.7724753 54.242361,22.0496868" id="Fill-319" fill="#374256"></path>
                        <path d="M39.1868416,12.1448674 C39.1868416,11.6632603 38.8488312,11.0781779 38.4315896,10.8373743 C38.2220104,10.7166532 38.032239,10.7057946 37.8955013,10.7862754 L37.3613299,11.0986174 L37.6916727,11.1101147 C37.6820883,11.1599361 37.6769766,11.2148674 37.6769766,11.2736312 C37.6769766,11.7545996 38.014987,12.3403207 38.4315896,12.5811243 C38.4871792,12.6124224 38.5414909,12.6366944 38.5932468,12.6533015 L38.4392571,12.9407328 L38.9625662,12.6354169 C39.1012208,12.5568523 39.1868416,12.3875872 39.1868416,12.1448674" id="Fill-321" fill="#374256"></path>
                        <path d="M38.6486447,12.4598922 C38.6486447,12.9408606 38.3106343,13.1363139 37.8933927,12.8955103 C37.4767901,12.6547067 37.1387797,12.0696243 37.1387797,11.5880172 C37.1387797,11.1070488 37.4767901,10.9115955 37.8933927,11.152399 C38.3106343,11.3932026 38.6486447,11.978285 38.6486447,12.4598922" id="Fill-323" fill="#272F43"></path>
                        <path d="M38.3279501,12.2746587 C38.3279501,12.5518702 38.133706,12.663649 37.8934566,12.525682 C37.6538462,12.3870762 37.4596021,12.0498235 37.4596021,11.7732507 C37.4596021,11.4960391 37.6538462,11.3836216 37.8934566,11.5222273 C38.133706,11.6608331 38.3279501,11.9974471 38.3279501,12.2746587" id="Fill-325" fill="#374256"></path>
                        <path d="M55.1012525,59.568544 C55.1012525,59.0869368 54.7632421,58.5018544 54.3460005,58.2610508 C54.1364213,58.1403297 53.9466499,58.1294712 53.8099122,58.2099519 L53.8099122,58.2093132 L53.2757408,58.522294 L53.6060836,58.5337912 C53.5964992,58.5836126 53.5913875,58.6379052 53.5913875,58.6973077 C53.5913875,59.1782761 53.9293979,59.7639973 54.3460005,60.0041621 C54.4015901,60.0360989 54.4559018,60.0603709 54.5076577,60.076978 L54.3536681,60.3644093 L54.8769771,60.0590934 L54.8769771,60.0584547 C55.0156317,59.9805288 55.1012525,59.810625 55.1012525,59.568544" id="Fill-327" fill="#374256"></path>
                        <path d="M54.5631195,59.8829299 C54.5631195,60.3645371 54.2251091,60.5599904 53.8078675,60.3191868 C53.3912649,60.0783832 53.0532545,59.4933008 53.0532545,59.0116937 C53.0532545,58.5307253 53.3912649,58.335272 53.8078675,58.5760755 C54.2251091,58.8162404 54.5631195,59.4019615 54.5631195,59.8829299" id="Fill-329" fill="#272F43"></path>
                        <path d="M54.242361,59.6983352 C54.242361,59.9755467 54.0481169,60.0866868 53.8078675,59.9493585 C53.5682571,59.8107527 53.374013,59.4735 53.374013,59.1969272 C53.374013,58.9197157 53.5682571,58.8072981 53.8078675,58.9459038 C54.0481169,59.0845096 54.242361,59.4211236 54.242361,59.6983352" id="Fill-331" fill="#374256"></path>
                        <path d="M39.1868416,49.7935158 C39.1868416,49.3119087 38.8488312,48.7268262 38.4315896,48.4860227 C38.2220104,48.3653015 38.032239,48.354443 37.8955013,48.4349238 L37.3613299,48.7472658 L37.6916727,48.758763 C37.6820883,48.8092232 37.6769766,48.8635158 37.6769766,48.9222795 C37.6769766,49.4038867 38.014987,49.9889691 38.4315896,50.2297727 C38.4871792,50.2610707 38.5414909,50.2853427 38.5932468,50.3019499 L38.4392571,50.5900199 L38.9625662,50.2840652 C39.1012208,50.2055007 39.1868416,50.0362356 39.1868416,49.7935158" id="Fill-333" fill="#374256"></path>
                        <path d="M38.6486447,50.1085405 C38.6486447,50.5895089 38.3106343,50.7849622 37.8933927,50.5441587 C37.4767901,50.3033551 37.1387797,49.7182727 37.1387797,49.2373043 C37.1387797,48.7556971 37.4767901,48.5602438 37.8933927,48.8010474 C38.3106343,49.041851 38.6486447,49.6269334 38.6486447,50.1085405" id="Fill-335" fill="#272F43"></path>
                        <path d="M38.3279501,49.9232431 C38.3279501,50.2004547 38.133706,50.3122335 37.8934566,50.1742665 C37.6538462,50.0356607 37.4596021,49.698408 37.4596021,49.4218352 C37.4596021,49.1446236 37.6538462,49.032206 37.8934566,49.1708118 C38.133706,49.3094176 38.3279501,49.6460316 38.3279501,49.9232431" id="Fill-337" fill="#374256"></path>
                        <polygon id="Fill-339" fill="#D4D6D7" points="21.976426 39.8026587 3.00056104 28.8508867 21.975787 17.8991147 40.9516519 28.8508867"></polygon>
                        <path d="M21.975787,66.2416133 C21.8090182,66.2416133 21.6422494,66.2837699 21.4933714,66.3699993 L0.734805195,78.3501367 C0.644072727,78.4031518 0.633849351,78.4912974 0.633849351,78.5251504 C0.633849351,78.5602809 0.644072727,78.6484265 0.734805195,78.7014416 L21.4940104,90.6822177 C21.7917662,90.8540378 22.1623636,90.853399 22.4594805,90.6822177 L43.2174078,78.7014416 C43.3087792,78.6484265 43.3183636,78.5609196 43.3183636,78.5257891 C43.3183636,78.4912974 43.3087792,78.4037905 43.2174078,78.3507754 L22.4582026,66.3699993 C22.3093247,66.2837699 22.1425558,66.2416133 21.975787,66.2416133 M21.976426,91.3586394 C21.7144519,91.3586394 21.4531169,91.2915721 21.2192571,91.15616 L0.460690909,79.1753839 C0.225553247,79.0399718 0.0849818182,78.7972521 0.0849818182,78.5251504 C0.0849818182,78.2543262 0.225553247,78.0116065 0.460690909,77.8761944 L21.2186182,65.8954183 C21.6856987,65.6258716 22.2665143,65.6258716 22.7329558,65.8954183 L43.492161,77.8761944 C43.7272987,78.0122452 43.8672312,78.254965 43.8672312,78.5257891 C43.8672312,78.7972521 43.7272987,79.0399718 43.492161,79.1760227 L22.7342338,91.15616 C22.4997351,91.2915721 22.2384,91.3586394 21.976426,91.3586394" id="Fill-341" fill="#E87925"></path>
                        <polygon id="Fill-343" fill="#374256" points="21.976426 87.8057967 5.89697143 78.5262363 21.975787 69.2460371 38.0552416 78.5262363"></polygon>
                        <polygon id="Fill-345" fill="#FEFEFE" points="21.976426 81.8413413 3.00056104 70.8895694 21.975787 59.9377974 40.9516519 70.8895694"></polygon>
                    </g>
                    <g id="Group-350" transform="translate(118.207792, 54.087548)">
                        <mask id="mask-34" fill="white">
                            <use xlink:href="#path-33"></use>
                        </mask>
                        <g id="Clip-349"></g>
                        <polygon id="Fill-348" fill="url(#linearGradient-35)" mask="url(#mask-34)" points="0.251750649 11.0590797 0.251750649 53.0981456 19.2269766 42.1463736 19.2269766 0.107946429"></polygon>
                    </g>
                    <g id="Group-426" transform="translate(62.618182, 45.145240)">
                        <polygon id="Fill-351" fill="#374256" points="36.8656239 9.04974313 36.8656239 51.0881703 55.8414888 62.040581 55.8414888 20.0015151"></polygon>
                        <polygon id="Fill-353" fill="#272F43" points="38.1510218 11.8392321 38.1510218 49.6249533 54.5557075 59.0929409 54.5557075 21.3072198"></polygon>
                        <polygon id="Fill-355" fill="#272F43" points="71.970399 19.2071827 71.970399 20.3179451 58.6876769 27.9840577 58.6876769 26.8732953"></polygon>
                        <polygon id="Fill-357" fill="#272F43" points="71.970399 23.9053434 71.970399 25.0161058 58.6876769 32.6822184 58.6876769 31.571456"></polygon>
                        <polygon id="Fill-359" fill="#272F43" points="71.970399 28.603568 71.970399 29.7143304 58.6876769 37.380443 58.6876769 36.2696806"></polygon>
                        <polygon id="Fill-361" fill="#272F43" points="71.970399 33.3017926 71.970399 34.4125549 58.6876769 42.0786676 58.6876769 40.9679052"></polygon>
                        <polygon id="Fill-363" fill="#272F43" points="71.970399 37.9999533 71.970399 39.1107157 58.6876769 46.7768283 58.6876769 45.6660659"></polygon>
                        <polygon id="Fill-365" fill="#272F43" points="71.970399 42.6981779 71.970399 43.8089402 58.6876769 51.4750529 58.6876769 50.3642905"></polygon>
                        <g id="Group-369" transform="translate(36.420779, 0.000000)">
                            <mask id="mask-37" fill="white">
                                <use xlink:href="#path-36"></use>
                            </mask>
                            <g id="Clip-368"></g>
                            <polygon id="Fill-367" fill="url(#linearGradient-38)" mask="url(#mask-37)" points="19.4205818 17.1238805 14.4341299 17.1238805 0.444716883 9.04961538 15.6666857 0.264436813 19.4199429 0.264436813"></polygon>
                        </g>
                        <polygon id="Fill-370" fill="#E5E6E7" points="55.841361 16.1576003 42.0730286 8.21108242 55.841361 0.26456456 69.6096935 8.21172115"></polygon>
                        <polygon id="Fill-372" fill="#374256" points="69.6095657 8.21140179 69.6095657 9.17780975 55.8412332 17.1236889 55.8412332 16.1572809"></polygon>
                        <polygon id="Fill-374" fill="#272F43" points="42.072773 8.21082692 42.072773 9.17787363 55.8411055 17.1237527 55.8411055 16.1573448"></polygon>
                        <polygon id="Fill-376" fill="#374256" points="50.5012442 8.33806319 49.8910364 7.98611951 49.9415143 7.7006044 55.5982364 4.4104739 56.3835195 4.78413462 56.2371974 5.02749313"></polygon>
                        <polygon id="Fill-378" fill="#272F43" points="55.6282675 4.67650755 56.2371974 5.0278125 56.6301584 4.80106113 55.6282675 4.22300481 49.4993532 7.7596875 49.8923143 7.98707761"></polygon>
                        <polygon id="Fill-380" fill="#374256" points="52.3523143 9.4034114 51.7421065 9.05082898 51.7925844 8.76531387 57.4493065 5.47518338 58.2345896 5.84948283 58.0882675 6.09284135"></polygon>
                        <polygon id="Fill-382" fill="#272F43" points="57.4789543 5.74128091 58.0878842 6.09322459 58.4808452 5.86583448 57.4789543 5.28777816 51.350679 8.82509959 51.743001 9.05185096"></polygon>
                        <polygon id="Fill-384" fill="#374256" points="54.2030649 10.4681848 53.5928571 10.1156023 53.643974 9.83072596 59.3000571 6.53995673 60.0853403 6.91425618 59.9390182 7.1576147"></polygon>
                        <polygon id="Fill-386" fill="#272F43" points="59.3300244 6.80605426 59.9389543 7.15799794 60.3319153 6.93060783 59.3300244 6.35255151 53.2011101 9.88987294 53.5940712 10.1166243"></polygon>
                        <polygon id="Fill-388" fill="#374256" points="56.0541351 11.5329581 55.4439273 11.1810144 55.4944052 10.8954993 61.1511273 7.60473008 61.9364104 7.97902953 61.7900883 8.22238805"></polygon>
                        <polygon id="Fill-390" fill="#272F43" points="61.1807751 7.87146635 61.7897049 8.22277129 62.182666 7.99538118 61.1807751 7.4179636 55.0524997 10.9546463 55.4448218 11.1820364"></polygon>
                        <polygon id="Fill-392" fill="#374256" points="36.8656239 44.4453771 55.8408499 32.9921971 55.8414888 20.001579 36.8656239 9.04980701"></polygon>
                        <path d="M55.0897512,21.8924938 C55.0897512,21.4108867 54.7517408,20.8258043 54.3344992,20.5850007 C54.12492,20.4642795 53.9351486,20.453421 53.7984109,20.5339018 L53.7984109,20.533263 L53.2636005,20.8462438 L53.5945823,20.8577411 C53.5849979,20.9075625 53.5798862,20.9618551 53.5798862,21.0212576 C53.5798862,21.502226 53.9178966,22.0873084 54.3344992,22.328112 C54.3900888,22.3600488 54.4444005,22.3843207 54.4961564,22.4009279 L54.3421668,22.6883592 L54.8654758,22.3830433 L54.8654758,22.3824045 C55.0034914,22.3044787 55.0897512,22.1345749 55.0897512,21.8924938" id="Fill-394" fill="#374256"></path>
                        <path d="M54.5515543,22.2068798 C54.5515543,22.688487 54.2135439,22.8839402 53.7963023,22.6431367 C53.3796997,22.4023331 53.0416894,21.8172507 53.0416894,21.3356435 C53.0416894,20.8540364 53.3796997,20.6592218 53.7963023,20.9000254 C54.2135439,21.1401902 54.5515543,21.7259114 54.5515543,22.2068798" id="Fill-396" fill="#272F43"></path>
                        <path d="M54.2307958,22.0222212 C54.2307958,22.298794 54.0359127,22.4105728 53.7963023,22.2726058 C53.5566919,22.134 53.3624478,21.797386 53.3624478,21.5208132 C53.3624478,21.2436016 53.5566919,21.1311841 53.7963023,21.2697898 C54.0359127,21.4083956 54.2307958,21.7450096 54.2307958,22.0222212" id="Fill-398" fill="#374256"></path>
                        <path d="M39.1750208,12.1174657 C39.1750208,11.6358585 38.8370104,11.0507761 38.4197688,10.8099725 C38.2101896,10.6892514 38.0204182,10.6783929 37.8836805,10.7588736 L37.3495091,11.0712157 L37.6798519,11.0827129 C37.6702675,11.1325343 37.6651558,11.1874657 37.6651558,11.2462294 C37.6651558,11.7271978 38.0031662,12.312919 38.4197688,12.5537225 C38.4753584,12.5850206 38.5296701,12.6092926 38.581426,12.6258997 L38.4274364,12.9139698 L38.9507455,12.6080151 C39.0894,12.5294505 39.1750208,12.3601854 39.1750208,12.1174657" id="Fill-400" fill="#374256"></path>
                        <path d="M38.6368239,12.4324265 C38.6368239,12.9133949 38.2988135,13.1088482 37.8822109,12.8680446 C37.4649694,12.6272411 37.126959,12.0421587 37.126959,11.5605515 C37.126959,11.0795831 37.4649694,10.8841298 37.8822109,11.1249334 C38.2988135,11.365737 38.6368239,11.9508194 38.6368239,12.4324265" id="Fill-402" fill="#272F43"></path>
                        <path d="M38.3163849,12.247193 C38.3163849,12.5244045 38.1215018,12.6361834 37.8818914,12.4982163 C37.642281,12.3596106 37.4473979,12.0223578 37.4473979,11.745785 C37.4473979,11.4685735 37.642281,11.3561559 37.8818914,11.4947617 C38.1215018,11.6333674 38.3163849,11.9699815 38.3163849,12.247193" id="Fill-404" fill="#374256"></path>
                        <path d="M55.0897512,59.5411422 C55.0897512,59.059535 54.7517408,58.4744526 54.3344992,58.233649 C54.12492,58.1129279 53.9351486,58.1020694 53.7984109,58.1825501 L53.7984109,58.1819114 L53.2636005,58.4948922 L53.5945823,58.5063894 C53.5849979,58.5562109 53.5798862,58.6105034 53.5798862,58.6699059 C53.5798862,59.1508743 53.9178966,59.7365955 54.3344992,59.9767603 C54.3900888,60.0086971 54.4444005,60.0329691 54.4961564,60.0495762 L54.3421668,60.3370076 L54.8654758,60.0316916 L54.8654758,60.0310529 C55.0034914,59.9531271 55.0897512,59.7832232 55.0897512,59.5411422" id="Fill-406" fill="#374256"></path>
                        <path d="M54.5515543,59.8554643 C54.5515543,60.3370714 54.2135439,60.5325247 53.7963023,60.2917212 C53.3796997,60.0509176 53.0416894,59.4658352 53.0416894,58.984228 C53.0416894,58.5032596 53.3796997,58.3078063 53.7963023,58.5486099 C54.2135439,58.7887747 54.5515543,59.3744959 54.5515543,59.8554643" id="Fill-408" fill="#272F43"></path>
                        <path d="M54.2307958,59.6708695 C54.2307958,59.9474423 54.0359127,60.0592212 53.7963023,59.9212541 C53.5566919,59.7832871 53.3624478,59.4460343 53.3624478,59.1694615 C53.3624478,58.89225 53.5566919,58.7798324 53.7963023,58.9184382 C54.0359127,59.057044 54.2307958,59.393658 54.2307958,59.6708695" id="Fill-410" fill="#374256"></path>
                        <path d="M39.1750208,49.7660501 C39.1750208,49.2850817 38.8370104,48.6993606 38.4197688,48.458557 C38.2101896,48.3378359 38.0204182,48.3269773 37.8836805,48.4074581 L37.3495091,48.7198001 L37.6798519,48.7312974 C37.6702675,48.7817576 37.6651558,48.8360501 37.6651558,48.8948139 C37.6651558,49.376421 38.0031662,49.9615034 38.4197688,50.202307 C38.4753584,50.2336051 38.5296701,50.2578771 38.581426,50.2744842 L38.4274364,50.5625543 L38.9507455,50.2565996 C39.0894,50.178035 39.1750208,50.0087699 39.1750208,49.7660501" id="Fill-412" fill="#374256"></path>
                        <path d="M38.6368239,50.0810749 C38.6368239,50.5620433 38.2988135,50.7574966 37.8822109,50.516693 C37.4649694,50.2758894 37.126959,49.690807 37.126959,49.2091999 C37.126959,48.7282315 37.4649694,48.5327782 37.8822109,48.7735817 C38.2988135,49.0143853 38.6368239,49.5994677 38.6368239,50.0810749" id="Fill-414" fill="#272F43"></path>
                        <path d="M38.3163849,49.8958413 C38.3163849,50.1730529 38.1215018,50.2848317 37.8818914,50.1468647 C37.642281,50.0082589 37.4473979,49.6710062 37.4473979,49.3944334 C37.4473979,49.1172218 37.642281,49.0048043 37.8818914,49.14341 C38.1215018,49.2820158 38.3163849,49.6186298 38.3163849,49.8958413" id="Fill-416" fill="#374256"></path>
                        <polygon id="Fill-418" fill="#D4D6D7" points="21.9648608 39.775193 2.98899584 28.823421 21.9642218 17.871649 40.9400868 28.823421"></polygon>
                        <path d="M21.9642218,66.2141477 C21.797453,66.2141477 21.6306842,66.2563043 21.4818062,66.3425337 L0.72324,78.322671 C0.631868571,78.3756861 0.622284156,78.463193 0.622284156,78.4976848 C0.622284156,78.5328152 0.631868571,78.6209609 0.72324,78.6733372 L21.4818062,90.6547521 C21.780201,90.8265721 22.1507984,90.8259334 22.4472764,90.6547521 L43.2058426,78.673976 C43.297214,78.6209609 43.3067984,78.533454 43.3067984,78.4983235 C43.3067984,78.4638317 43.297214,78.3763249 43.2058426,78.3233098 L22.4466374,66.3425337 C22.2977595,66.2563043 22.1309906,66.2141477 21.9642218,66.2141477 M21.9648608,91.3311738 C21.7028868,91.3311738 21.4409127,91.2641065 21.207053,91.1286944 L0.449125714,79.1479183 C0.213349091,79.0125062 0.0734166234,78.7691477 0.0734166234,78.4976848 C0.0734166234,78.2268606 0.213349091,77.9841408 0.449125714,77.8487287 L21.207053,65.8679526 C21.6734945,65.5977672 22.2543101,65.5977672 22.7213906,65.8679526 L43.4799569,77.8487287 C43.7157335,77.9847795 43.855666,78.2274993 43.855666,78.4983235 C43.855666,78.7697864 43.7157335,79.0125062 43.4799569,79.148557 L22.7220296,91.1286944 C22.4881699,91.2641065 22.2268348,91.3311738 21.9648608,91.3311738" id="Fill-420" fill="#E87925"></path>
                        <polygon id="Fill-422" fill="#374256" points="21.9645413 87.7783949 5.88508675 78.4988345 21.9645413 69.2186353 38.0433569 78.4988345"></polygon>
                        <polygon id="Fill-424" fill="#FEFEFE" points="21.9648608 81.8139396 2.98899584 70.8621676 21.9642218 59.9103956 40.9400868 70.8621676"></polygon>
                    </g>
                    <g id="Group-429" transform="translate(84.342857, 73.888372)">
                        <mask id="mask-40" fill="white">
                            <use xlink:href="#path-39"></use>
                        </mask>
                        <g id="Clip-428"></g>
                        <polygon id="Fill-427" fill="url(#linearGradient-41)" mask="url(#mask-40)" points="0.240249351 11.0322527 0.240249351 53.0706799 19.2154753 42.1195467 19.2154753 0.0811195055"></polygon>
                    </g>
                    <g id="Group-575" transform="translate(65.174026, 64.946065)">
                        <polygon id="Fill-430" fill="#374256" points="0.43296 9.02234135 0.43296 51.0607685 19.4088249 62.0131793 19.4088249 19.9741133"></polygon>
                        <polygon id="Fill-432" fill="#272F43" points="1.71842182 11.8117665 1.71842182 49.5974876 18.1231075 59.0654753 18.1231075 21.2797541"></polygon>
                        <polygon id="Fill-434" fill="#272F43" points="35.537799 19.179717 35.537799 20.2911181 22.2550769 27.956592 22.2550769 26.8458297"></polygon>
                        <polygon id="Fill-436" fill="#272F43" points="35.537799 23.8779416 35.537799 24.988704 22.2550769 32.6548166 22.2550769 31.5440543"></polygon>
                        <polygon id="Fill-438" fill="#272F43" points="35.537799 28.5761023 35.537799 29.6868647 22.2550769 37.3529773 22.2550769 36.242215"></polygon>
                        <polygon id="Fill-440" fill="#272F43" points="35.537799 33.2743269 35.537799 34.3850893 22.2550769 42.0512019 22.2550769 40.9404396"></polygon>
                        <polygon id="Fill-442" fill="#272F43" points="35.537799 37.9725515 35.537799 39.0833139 22.2550769 46.7494265 22.2550769 45.6386641"></polygon>
                        <polygon id="Fill-444" fill="#272F43" points="35.537799 42.6707122 35.537799 43.7814746 22.2550769 51.4475872 22.2550769 50.3368249"></polygon>
                        <g id="Group-448">
                            <mask id="mask-43" fill="white">
                                <use xlink:href="#path-42"></use>
                            </mask>
                            <g id="Clip-447"></g>
                            <polygon id="Fill-446" fill="url(#linearGradient-44)" mask="url(#mask-43)" points="19.4084416 17.0964148 14.4226286 17.0964148 0.433215584 9.02214973 15.6545455 0.236971154 19.4084416 0.236971154"></polygon>
                        </g>
                        <polygon id="Fill-449" fill="#E5E6E7" points="19.4086971 16.1301346 5.64036468 8.18361676 19.4086971 0.237098901 33.1770296 8.18425549"></polygon>
                        <polygon id="Fill-451" fill="#374256" points="33.1769018 8.184 33.1769018 9.15040797 19.4085694 17.0962871 19.4085694 16.1298791"></polygon>
                        <polygon id="Fill-453" fill="#272F43" points="5.64017299 8.18336126 5.64017299 9.15040797 19.4085055 17.0962871 19.4085055 16.1298791"></polygon>
                        <polygon id="Fill-455" fill="#374256" points="14.0689636 8.31059753 13.4587558 7.95865385 13.5092338 7.67313874 19.1659558 4.38300824 19.951239 4.75666896 19.8049169 5.00002747"></polygon>
                        <polygon id="Fill-457" fill="#272F43" points="19.1956036 4.64910577 19.8045335 5.00041071 20.1974945 4.77365934 19.1956036 4.19560302 13.0673283 7.73228571 13.4596504 7.95967582"></polygon>
                        <polygon id="Fill-459" fill="#374256" points="15.9196504 9.37600962 15.3094426 9.0234272 15.3599205 8.73791209 21.0166426 5.44778159 21.8019257 5.82208104 21.6556036 6.06480082"></polygon>
                        <polygon id="Fill-461" fill="#272F43" points="21.0466738 5.71387912 21.6556036 6.06518407 22.0485647 5.83843269 21.0466738 5.26037637 14.9177595 8.7976978 15.3107205 9.02444918"></polygon>
                        <polygon id="Fill-463" fill="#374256" points="17.7707205 10.440783 17.1605127 10.0882005 17.2109906 9.80332418 22.8677127 6.51255495 23.6529958 6.8868544 23.5066738 7.13021291"></polygon>
                        <polygon id="Fill-465" fill="#272F43" points="22.8974244 6.77865247 23.5063543 7.13059615 23.8993153 6.90320604 22.8974244 6.32514973 16.7685101 9.86247115 17.1614712 10.0892225"></polygon>
                        <polygon id="Fill-467" fill="#374256" points="19.6214712 11.5055563 19.0112634 11.1529739 19.0623803 10.8680975 24.7184634 7.5773283 25.5037465 7.95162775 25.3574244 8.19498626"></polygon>
                        <polygon id="Fill-469" fill="#272F43" points="24.7484306 7.84400069 25.3573605 8.19530563 25.7503216 7.96855426 24.7484306 7.39049794 18.6195164 10.9271806 19.0124774 11.1545707"></polygon>
                        <polygon id="Fill-471" fill="#374256" points="0.43296 44.4179114 19.4088249 32.9647315 19.4088249 19.9741133 0.43296 9.02234135"></polygon>
                        <path d="M18.6570873,21.8650282 C18.6570873,21.383421 18.3190769,20.7983386 17.9018353,20.557535 C17.6922561,20.4368139 17.5024847,20.4259554 17.365747,20.5064361 L17.365747,20.5057974 L16.8315756,20.8187782 L17.1619184,20.8302754 C17.152334,20.8800968 17.1472223,20.9343894 17.1472223,20.9937919 C17.1472223,21.4747603 17.4852327,22.0598427 17.9018353,22.3006463 C17.9574249,22.3325831 18.0117366,22.3568551 18.0634925,22.3734622 L17.9095029,22.6608935 L18.4328119,22.3555776 L18.4328119,22.3549389 C18.5714665,22.277013 18.6570873,22.1071092 18.6570873,21.8650282" id="Fill-473" fill="#374256"></path>
                        <path d="M18.1188904,22.1794141 C18.1188904,22.6610213 17.78088,22.8564746 17.3636384,22.615671 C16.9470358,22.3748674 16.6090255,21.789785 16.6090255,21.3081779 C16.6090255,20.8272095 16.9470358,20.6317562 17.3636384,20.8725598 C17.78088,21.1127246 18.1188904,21.6984457 18.1188904,22.1794141" id="Fill-475" fill="#272F43"></path>
                        <path d="M17.7981958,21.9947555 C17.7981958,22.2713283 17.6039517,22.3831071 17.3637023,22.2451401 C17.1240919,22.1065343 16.9298478,21.7699203 16.9298478,21.4933475 C16.9298478,21.216136 17.1240919,21.1037184 17.3637023,21.2423242 C17.6039517,21.3809299 17.7981958,21.717544 17.7981958,21.9947555" id="Fill-477" fill="#374256"></path>
                        <path d="M2.74267636,12.09 C2.74267636,11.6083929 2.40466597,11.0233104 1.98742442,10.7825069 C1.77784519,10.6617857 1.58807377,10.6509272 1.4513361,10.731408 L0.916525714,11.04375 L1.24750753,11.0552473 C1.23792312,11.1050687 1.23281143,11.16 1.23281143,11.2187637 C1.23281143,11.7003709 1.57082182,12.2854533 1.98742442,12.5262569 C2.04301403,12.5575549 2.09732571,12.5818269 2.14908156,12.5984341 L1.99509195,12.8858654 L2.51840104,12.5805495 C2.65705558,12.5019849 2.74267636,12.3327198 2.74267636,12.09" id="Fill-479" fill="#374256"></path>
                        <path d="M2.20447948,12.4050247 C2.20447948,12.8859931 1.86646909,13.0814464 1.44922753,12.8406429 C1.03262494,12.5998393 0.694614545,12.0147569 0.694614545,11.5331497 C0.694614545,11.0521813 1.03262494,10.856728 1.44922753,11.0975316 C1.86646909,11.3383352 2.20447948,11.9234176 2.20447948,12.4050247" id="Fill-481" fill="#272F43"></path>
                        <path d="M1.88378494,12.2197273 C1.88378494,12.4969389 1.68954078,12.6087177 1.44929143,12.4707507 C1.20968104,12.3321449 1.01543688,11.9948922 1.01543688,11.7183194 C1.01543688,11.4411078 1.20968104,11.3286902 1.44929143,11.467296 C1.68954078,11.6059018 1.88378494,11.9425158 1.88378494,12.2197273" id="Fill-483" fill="#374256"></path>
                        <path d="M18.6570873,59.5136765 C18.6570873,59.0320694 18.3190769,58.446987 17.9018353,58.2061834 C17.6922561,58.0854622 17.5024847,58.0746037 17.365747,58.1550845 L16.8315756,58.4674265 L17.1619184,58.4789238 C17.152334,58.5287452 17.1472223,58.5830378 17.1472223,58.6424402 C17.1472223,59.1234087 17.4852327,59.7091298 17.9018353,59.9492946 C17.9574249,59.9812315 18.0117366,60.0055034 18.0634925,60.0221106 L17.9095029,60.3095419 L18.4328119,60.004226 L18.4328119,60.0035872 C18.5714665,59.9256614 18.6570873,59.7557576 18.6570873,59.5136765" id="Fill-485" fill="#374256"></path>
                        <path d="M18.1188904,59.8280625 C18.1188904,60.3096696 17.78088,60.5051229 17.3636384,60.2643194 C16.9470358,60.0235158 16.6090255,59.4384334 16.6090255,58.9568262 C16.6090255,58.4758578 16.9470358,58.2804045 17.3636384,58.5212081 C17.78088,58.7620117 18.1188904,59.3470941 18.1188904,59.8280625" id="Fill-487" fill="#272F43"></path>
                        <path d="M17.7981958,59.6434038 C17.7981958,59.9206154 17.6039517,60.0317555 17.3637023,59.8937885 C17.1240919,59.7558214 16.9298478,59.4185687 16.9298478,59.1419959 C16.9298478,58.8647843 17.1240919,58.7523668 17.3637023,58.8909725 C17.6039517,59.0295783 17.7981958,59.3661923 17.7981958,59.6434038" id="Fill-489" fill="#374256"></path>
                        <path d="M2.74267636,49.7386484 C2.74267636,49.2570412 2.40466597,48.6719588 1.98742442,48.4311552 C1.77784519,48.3104341 1.58807377,48.2995755 1.4513361,48.3800563 L0.916525714,48.6923984 L1.24750753,48.7038956 C1.23792312,48.753717 1.23281143,48.8086484 1.23281143,48.8674121 C1.23281143,49.3490192 1.57082182,49.9341016 1.98742442,50.1749052 C2.04301403,50.2062033 2.09732571,50.2304753 2.14908156,50.2470824 L1.99509195,50.5351525 L2.51840104,50.2291978 C2.65705558,50.1506332 2.74267636,49.9813681 2.74267636,49.7386484" id="Fill-491" fill="#374256"></path>
                        <path d="M2.20447948,50.0536092 C2.20447948,50.5345776 1.86646909,50.7300309 1.44922753,50.4892273 C1.03262494,50.2484238 0.694614545,49.6633413 0.694614545,49.1817342 C0.694614545,48.7007658 1.03262494,48.5053125 1.44922753,48.7461161 C1.86646909,48.9869196 2.20447948,49.5720021 2.20447948,50.0536092" id="Fill-493" fill="#272F43"></path>
                        <path d="M1.88378494,49.8683757 C1.88378494,50.1455872 1.68954078,50.2573661 1.44929143,50.119399 C1.20968104,49.9807933 1.01543688,49.6435405 1.01543688,49.3669677 C1.01543688,49.0897562 1.20968104,48.9773386 1.44929143,49.1159444 C1.68954078,49.2545501 1.88378494,49.5911641 1.88378494,49.8683757" id="Fill-495" fill="#374256"></path>
                        <polygon id="Fill-497" fill="#E87925" points="6.9913839 23.765013 2.8093839 21.3512287 2.8093839 20.432726 6.9913839 22.847149"></polygon>
                        <polygon id="Fill-499" fill="#E87925" points="9.13631221 25.0025646 7.63028104 24.1338832 7.63028104 23.2153805 9.13631221 24.0847005"></polygon>
                        <polygon id="Fill-501" fill="#E87925" points="10.7983138 25.9619464 9.77533714 25.3717541 9.77533714 24.4538901 10.7983138 25.0440824"></polygon>
                        <polygon id="Fill-503" fill="#E87925" points="5.08791896 24.7636772 2.8093839 23.4485192 2.8093839 22.5306552 5.08791896 23.8458132"></polygon>
                        <polygon id="Fill-505" fill="#E87925" points="8.51952312 26.7441429 5.72662442 25.1326113 5.72662442 24.2141085 8.51952312 25.8262788"></polygon>
                        <polygon id="Fill-507" fill="#E87925" points="10.1818442 27.7034609 9.15822857 27.1132685 9.15822857 26.1954045 10.1818442 26.7855968"></polygon>
                        <polygon id="Fill-509" fill="#E87925" points="11.7636561 28.6166621 10.7400405 28.025831 10.7400405 27.107967 11.7636561 27.6987981"></polygon>
                        <polygon id="Fill-511" fill="#E87925" points="4.45803117 26.4977184 2.80887273 25.5460014 2.80887273 24.6274986 4.45803117 25.5798544"></polygon>
                        <polygon id="Fill-513" fill="#E87925" points="5.66042805 27.191386 5.09686442 26.8662692 5.09686442 25.9484052 5.66042805 26.273522"></polygon>
                        <polygon id="Fill-515" fill="#E87925" points="7.32274909 28.150704 6.29913351 27.5605117 6.29913351 26.6426477 7.32274909 27.23284"></polygon>
                        <polygon id="Fill-517" fill="#E87925" points="8.89484883 31.156022 2.8093839 27.6436113 2.8093839 26.7251085 8.89484883 30.238158"></polygon>
                        <polygon id="Fill-519" fill="#E87925" points="11.0397771 32.3935735 9.53374597 31.5248922 9.53374597 30.6063894 11.0397771 31.4757095"></polygon>
                        <polygon id="Fill-521" fill="#E87925" points="4.45803117 30.6925549 2.80887273 29.7408379 2.80887273 28.8223352 4.45803117 29.7746909"></polygon>
                        <polygon id="Fill-523" fill="#E87925" points="8.32764312 32.9256408 5.0970561 31.0611696 5.0970561 30.1433056 8.32764312 32.0077768"></polygon>
                        <polygon id="Fill-525" fill="#E87925" points="9.98964468 33.8850227 8.96666805 33.2941916 8.96666805 32.3763276 9.98964468 32.9671587"></polygon>
                        <polygon id="Fill-527" fill="#E87925" points="6.18271481 33.7851882 2.80900052 31.8376813 2.80900052 30.9198173 6.18271481 32.8673242"></polygon>
                        <polygon id="Fill-529" fill="#E87925" points="9.26142078 35.5617054 6.82186753 34.1539306 6.82186753 33.2354279 9.26142078 34.6438413"></polygon>
                        <polygon id="Fill-531" fill="#E87925" points="11.5492847 36.8821648 9.90012623 35.9310865 9.90012623 35.0125838 11.5492847 35.9643008"></polygon>
                        <polygon id="Fill-533" fill="#E87925" points="3.94852364 34.5929979 2.8092561 33.9357383 2.8092561 33.0172356 3.94852364 33.6751339"></polygon>
                        <polygon id="Fill-535" fill="#E87925" points="6.09345195 35.8311243 4.58742078 34.9618043 4.58742078 34.0433015 6.09345195 34.9132603"></polygon>
                        <polygon id="Fill-537" fill="#E87925" points="9.15848416 37.6001683 6.73234909 36.2000584 6.73234909 35.2815556 9.15848416 36.6823043"></polygon>
                        <polygon id="Fill-539" fill="#E87925" points="6.29938909 38.0474114 2.8093839 36.0328372 2.8093839 35.1143345 6.29938909 37.1295474"></polygon>
                        <polygon id="Fill-541" fill="#E87925" points="10.2086805 40.3035556 6.93847792 38.41609 6.93847792 37.4975872 10.2086805 39.3856916"></polygon>
                        <polygon id="Fill-543" fill="#E87925" points="11.8709377 41.2628736 10.8473221 40.6720426 10.8473221 39.7541786 11.8709377 40.3450096"></polygon>
                        <polygon id="Fill-545" fill="#E87925" points="13.4661678 42.183612 12.4425522 41.5927809 12.4425522 40.6749169 13.4661678 41.2657479"></polygon>
                        <polygon id="Fill-547" fill="#E87925" points="4.9003839 39.3373393 2.80906442 38.1301277 2.80906442 37.2122637 4.9003839 38.4194753"></polygon>
                        <polygon id="Fill-549" fill="#E87925" points="13.6459075 27.6055426 16.5461517 29.2790316 16.5461517 28.3611676 13.6459075 26.6876786"></polygon>
                        <polygon id="Fill-551" fill="#E87925" points="14.2670416 30.0612919 16.5455766 31.3770886 16.5455766 30.4585859 14.2670416 29.1434279"></polygon>
                        <polygon id="Fill-553" fill="#E87925" points="14.8969932 32.522726 16.5461517 33.4738043 16.5461517 32.5559402 14.8969932 31.604862"></polygon>
                        <polygon id="Fill-555" fill="#E87925" points="14.1475558 34.1875282 16.5455766 35.5716696 16.5455766 34.6531669 14.1475558 33.2696641"></polygon>
                        <polygon id="Fill-557" fill="#E87925" points="14.8969932 36.7174986 16.5461517 37.6685769 16.5461517 36.7507129 14.8969932 35.7996346"></polygon>
                        <polygon id="Fill-559" fill="#E87925" points="14.4548961 38.5594863 16.5455766 39.7660591 16.5455766 38.8481951 14.4548961 37.6416223"></polygon>
                        <polygon id="Fill-561" fill="#E87925" points="15.4064369 41.2061538 16.5457044 41.8634135 16.5457044 40.9455495 15.4064369 40.2882898"></polygon>
                        <polygon id="Fill-563" fill="#E87925" points="14.3379023 42.6869361 16.5461517 43.9605762 16.5461517 43.0427122 14.3379023 41.7690721"></polygon>
                        <polygon id="Fill-565" fill="#E87925" points="14.4548961 44.8514217 16.5455766 46.0586332 16.5455766 45.1401305 14.4548961 43.9335577"></polygon>
                        <polygon id="Fill-567" fill="#E87925" points="6.42852312 40.2187315 5.53908935 39.7058262 5.53908935 38.7879622 6.42852312 39.3008674"></polygon>
                        <polygon id="Fill-569" fill="#E87925" points="9.06928519 41.7432033 7.06742026 40.5877294 7.06742026 39.6698654 9.06928519 40.8253393"></polygon>
                        <polygon id="Fill-571" fill="#E87925" points="10.7253444 48.7979815 7.3471574 46.8485584 7.3471574 45.9306944 10.7253444 47.8801174"></polygon>
                        <polygon id="Fill-573" fill="#E87925" points="13.0387668 50.1334512 11.7078109 49.3656902 11.7078109 48.4471875 13.0387668 49.2155872"></polygon>
                    </g>
                </g>
            </g>
        </g>
    </g>
</svg>