<svg viewBox="0 0 48 48" xmlns="http://www.w3.org/2000/svg"><g fill="none" fill-rule="evenodd"><path d="M43 8.83666667V6h-2.8366667c0 1.60333333-1.2333333 2.83666667-2.8366666 2.83666667C35.7233333 8.83666667 34.49 7.60333333 34.49 6h-2.8366667c0 1.60333333-1.2333333 2.83666667-2.8366666 2.83666667C27.2133333 8.83666667 25.98 7.60333333 25.98 6h-2.8366667c0 1.60333333-1.2333333 2.83666667-2.8366666 2.83666667C18.7033333 8.83666667 17.47 7.60333333 17.47 6h-2.83666667c0 1.60333333-1.23333333 2.83666667-2.83666666 2.83666667C10.19333333 8.83666667 8.96 7.60333333 8.96 6H6v2.83666667c1.60333333 0 2.83666667 1.23333333 2.83666667 2.83666666C8.83666667 13.27666667 7.60333333 14.51 6 14.51v2.8366667c1.60333333 0 2.83666667 1.2333333 2.83666667 2.8366666C8.83666667 21.7866667 7.60333333 23.02 6 23.02v2.8366667c1.60333333 0 2.83666667 1.2333333 2.83666667 2.8366666C8.83666667 30.2966667 7.60333333 31.53 6 31.53v2.8366667c1.60333333 0 2.83666667 1.2333333 2.83666667 2.8366666C8.83666667 38.8066667 7.60333333 40.04 6 40.04V43h2.83666667c0-1.6033333 1.23333333-2.8366667 2.83666666-2.8366667C13.27666667 40.1633333 14.51 41.3966667 14.51 43h2.8366667c0-1.6033333 1.2333333-2.8366667 2.8366666-2.8366667C21.7866667 40.1633333 23.02 41.3966667 23.02 43h2.8366667c0-1.6033333 1.2333333-2.8366667 2.8366666-2.8366667C30.2966667 40.1633333 31.53 41.3966667 31.53 43h2.8366667c0-1.6033333 1.2333333-2.8366667 2.8366666-2.8366667C38.8066667 40.1633333 40.04 41.3966667 40.04 43H43v-2.8366667c-1.6033333 0-2.8366667-1.2333333-2.8366667-2.8366666C40.1633333 35.7233333 41.3966667 34.49 43 34.49v-2.8366667c-1.6033333 0-2.8366667-1.2333333-2.8366667-2.8366666C40.1633333 27.2133333 41.3966667 25.98 43 25.98v-2.8366667c-1.6033333 0-2.8366667-1.2333333-2.8366667-2.8366666C40.1633333 18.7033333 41.3966667 17.47 43 17.47v-2.83666667c-1.6033333 0-2.8366667-1.23333333-2.8366667-2.83666666 0-1.72666667 1.2333334-2.96 2.8366667-2.96" fill="#2A3240"/><path fill="#FFF" d="M15 34h18V16H15"/><path d="M24 32c3.9 0 7-3.1 7-7s-3.1-7-7-7-7 3.1-7 7 3.1 7 7 7" fill="#FF4F00"/><path d="M19.4 27h2.3c.3 1 .7 2 1.4 2.9-1.6-.3-3-1.4-3.7-2.9m3.2-3h2.9c.1.7.1 1.3 0 2h-2.9c-.1-.7-.1-1.3 0-2m.2 3h2.5c-.2.9-.7 1.7-1.2 2.5-.7-.8-1.1-1.6-1.3-2.5m2.1 2.9c.7-.9 1.1-1.9 1.4-2.9h2.3c-.7 1.5-2 2.6-3.7 2.9M29 25c0 .3 0 .7-.1 1h-2.4c.1-.7.1-1.3 0-2h2.4c.1.3.1.7.1 1m-.4-2h-2.3c-.2-1-.7-2-1.3-2.9 1.6.3 2.9 1.4 3.6 2.9M24 20.5c.6.7 1 1.6 1.2 2.5h-2.5c.3-.9.7-1.7 1.3-2.5m-.9-.4c-.6.9-1.1 1.9-1.4 2.9h-2.3c.7-1.5 2.1-2.6 3.7-2.9m-4 3.9h2.4c-.1.7-.1 1.3 0 2h-2.4c-.1-.3-.1-.6-.1-1 0-.3 0-.7.1-1" fill="#FFF"/></g></svg>