<svg viewBox="0 0 48 48" xmlns="http://www.w3.org/2000/svg"><g fill="none"><path d="M33.08375 2.66341935c-2.19825-.92074193-4.77-1.4133871-7.43775-1.4133871-5.8695 0-11.58525 2.3482258-14.904 6.118C7.27625 11.3114194 6.35225 15.7904839 7.994 20.676129c.16875.4859678.066 1.3406775-.249 2.2324839-.249.6885161-.61575 1.3555161-1.011 2.0662903-.27825.4926452-.5565 1.0001291-.813 1.5513871-.315.6810968-.6225 1.5729032-.2565 2.4135162.3735.8339354 1.25325 1.2175161 1.971 1.4497419l.102.0652903.11025.138c.117.4421936.1905.9207419.2715 1.4497419l.35925 1.8555807c.1245.4347742.264.7975806.432 1.1232903.498.9786129.66675 1.863.564 2.9721936-.10275 1.1091935.27075 1.8125483.60075 2.2035483.46875.5579355 1.17225.8918065 2.0295.9637742.777.0652904 1.69275.138 2.601.138.6375 0 1.2165-.0363548 1.76625-.1016451.54225-.0727097.98925-.1090645 1.3485-.1090645 1.224 0 1.7805.3116129 2.70375 2.1746129.33.6595806.6525 1.3265806.97425 1.9935806l.71775 1.4935161 16.3695-8.3868387-.29325-1.2902258c-.08025-.333129-.1395-.6595806-.183-.9786129-.432-3.1020322 1.0185-5.9006129 2.5575-8.8653871.513-.9927097 1.09875-2.1093226 1.56075-3.197.396-.9207419.7035-1.8919355.92325-2.8994838 1.6275-7.6901613-2.5125-15.28683875-10.06725-18.46900005zM25.9655 30.3524516c-1.39425 0-2.709-.2344516-3.93525-.6647742h-.0495c-.22725.0192903-.435.0682581-.61275.1661936-.42525.1958709-.8505.3620645-1.29525.5089677-.2175.0682581-.435.1172258-.6525.1758387-1.07775.2641291-2.2245.3420323-3.42075.2248065-.0195 0-.0495-.0096452-.0795-.0096452-.08925-.0289355-.1185-.0489677-.13875-.0489677l-.10875-.1172258c-.0195-.0682581-.0195-.1075807-.0195-.1372581l.00975-.0682581c.00975-.0296774.03975-.0882903.099-.1758387.34575-.4496129.69225-.9096129 1.04775-1.3696129l.366-.4985806c.20775-.2641291.34575-.46.42525-.6848065.08925-.2930645.0495-.5379032-.03975-.7434193h-.00975c-2.14575-2.1323226-3.48-5.0763226-3.48-8.3133871 0-6.5038065 5.319-11.76635487 11.89425-11.76635487 6.56475 0 11.8845 5.26180647 11.8845 11.76635487 0 6.4934193-5.31975 11.7559677-11.8845 11.7559677z" fill="#303948"/><path d="M31.7495 22.3862905c.33375.334613.6555.6514194.972.9741613.3735.3806129.255.9407742-.23325 1.1143871-.27975.0994194-.50925.0044516-.714-.1869677-.32925-.3079032-.66-.6135807-1.01175-.9392903-.34125.3398064-.66.6588387-.9795.9763871-.198.1966129-.42825.2960322-.7095.2055161-.48225-.1558065-.62625-.7063226-.27525-1.0899032.24075-.2626452.49875-.5104516.75825-.7552904.0765-.0719677.23625-.2144193.22425-.2262903-.39-.379129-.68475-.6595806-.99375-.9682258-.29625-.29603224-.30675-.70780643-.033-.9726774.2715-.26412903.65175-.26709677.96.02967742.3255.31235484.624.65290323.957 1.00532258.4095-.40509677.735-.7441613 1.07925-1.06319355.417-.3865484.987-.2218387 1.1325.31903226.0705.2611613-.05025.4651936-.2265.6432581-.291.2952903-.58575.5876129-.8775.8814193-.01275.0133549-.01875.0333871-.02925.0526774zm-9.0765-8.49070963c.33375.3346129.6555.65141936.972.9741613.3735.3806129.255.94077418-.23325 1.1143871-.27975.09941934-.50925.0044516-.714-.18696775-.32925-.30790323-.66-.61358065-1.01175-.93929033-.34125.3398064-.66.6588387-.9795.9763871-.198.1966129-.42825.2960322-.7095.2055161-.48225-.1558065-.62625-.7063226-.27525-1.08990328.24075-.26264517.49875-.51045162.75825-.75529033.0765-.07196774.23625-.21441935.22425-.2262903-.39-.37912904-.68475-.65958066-.99375-.9682258-.29625-.29603228-.30675-.70780647-.033-.97267744.2715-.26412904.65175-.26709678.96.0296774.3255.31235485.624.65290324.957 1.0053226.4095-.40509678.735-.7441613 1.07925-1.06319356.417-.38654836.987-.2218387 1.1325.31903228.0705.2611613-.05025.46519356-.2265.64325808-.291.29529032-.58575.5876129-.8775.88141935-.0135.01335488-.0195.0333871-.02925.05267746z" fill="#F40"/><path d="M31.82375 14.4564841l-1.61325-2.74887097c-.16275-.27674194-.56625-.27674194-.729 0l-1.61325 2.74887097c-.11325.19290322.06.42735484.27975.37912903l.99225-.3368387c-.2445 1.15074192-.918 2.0262258-2.00775 2.61012902-.48.2552258-1.02975.46667742-1.728.667-.10125.02819355-.204.05564516-.31575.08532258l-.02775.0081613c-.024.0066774-.04725.0126129-.06975.01780644-.0285.00667742-.05475.0148387-.084.023-.65325.1862258-1.2045.42809678-1.68225.74045162-.5835.3798709-1.0305.8302258-1.3425 1.3466129-1.0035.0267096-1.809.8376451-1.809 1.8370322 0 1.0157097.8325 1.8392581 1.85925 1.8392581s1.85925-.8235484 1.85925-1.8392581c0-.5141613-.21375-.9786129-.55725-1.3117419.1485-.2018065.33-.3872903.546-.5557097.498-.38951616 1.10475-.6017097 1.63275-.75751616.62475-.1862258 1.29375-.39619355 1.962-.6647742.78675-.31458064 1.46625-.79609677 2.01825-1.43193548.6195-.7107742 1.00125-1.5699355 1.1655-2.6093871l.98325.33387096c.222.04674193.39525-.1877097.28125-.3806129z" fill="#303948"/></g></svg>