<svg viewBox="0 0 48 48" xmlns="http://www.w3.org/2000/svg"><g fill="none" fill-rule="evenodd"><path d="M11.34208642 46.3778L2 37.275979l6.6897442-6.64734436c2.77247495-2.75363062 6.8744188-3.68124374 10.5622581-2.38852134l1.4651482.51350853h9.0452879c1.5612544-.0009422 2.8275947 1.26351366 2.8285369 2.82476804 0 .03674648-.0004711.07349296-.0018845.11023945-.0880973 1.5673788-1.3982507 2.78613712-2.9679851 2.76069725h-5.4083284c-.6114991.0004711-1.1066344.49701972-1.1056922 1.10851883.0004711.6100859.4951353 1.1052212 1.1056922 1.1056923h5.4271728c2.7498617.0018844 5.0224903-2.14448704 5.1774851-4.8901088v-.07066632l5.0220192-5.65330495c1.061408-1.22582495 2.8987321-1.40201962 4.1740235-.40044243 1.2625715 1.03691035 1.4453617 2.90155876.4084513 4.1641302-.0211999.02543987-.0423998.05087975-.0645419.0758485L34.3321932 41.3510697c-1.3351222 1.5320456-3.2676103 2.4116057-5.2999734 2.4120768H13.95674L11.34208642 46.3778z" fill="#2A3240"/><path d="M14.17857143 16.5089286l1.84821428.3258928c.2169643.8049107.53794645 1.5776786.95535717 2.2991072L15.90625 20.6696429c-.39776786.5642857-.33169643 1.3330357.15625 1.8214285l1.10714286 1.1071429c.48839285.4879464 1.25714285.5540178 1.82142857.15625l1.53571428-1.0758929c.7214286.4169643 1.49464288.7383929 2.29910717.9553572l.32589284 1.8482143c.1191964.6785714.7084822 1.1736607 1.3973214 1.1741071h1.5848215c.6888393-.0004464 1.278125-.4955357 1.3973214-1.1741071l.3258929-1.8482143c.803125-.2174107 1.5745535-.5383929 2.2946428-.9553572L31.6875 23.7544643c.5642857.3977678 1.3330357.3316964 1.8214286-.15625l1.1071428-1.1071429c.4879465-.4883928.5540179-1.2571428.15625-1.8214285l-1.09375-1.5357143c.4111607-.7223215.7263393-1.4950893.9375-2.2991072l1.8482143-.3258928c.6785714-.1191965 1.1736607-.7084822 1.1741072-1.3973215v-1.5669642c-.0004465-.6888393-.4955358-1.278125-1.1741072-1.3973215l-1.8482143-.32589283c-.2169643-.8049107-.5379464-1.57767857-.9553571-2.29910714l1.0758928-1.5357143c.4071429-.55580356.35625-1.32410713-.1205357-1.82142856l-1.125-1.10714286c-.4870535-.4892857-1.2558035-.55714283-1.8214285-.16071426L30.1517857 5.9732143c-.7214286-.41741073-1.4941964-.73839287-2.2991071-.95535716l-.3258929-1.84821428c-.1209821-.675-.7071428-1.16741072-1.3928571-1.16964286h-1.5892857c-.6888393.00044643-1.278125.4955357-1.3973215 1.17410714l-.32589283 1.8482143c-.80446428.215625-1.57723214.53526785-2.29910714.95089285l-1.53125-1.07589288c-.565625-.39642857-1.334375-.32857143-1.82142857.16071428L16.0625 6.16517858c-.48794643.48839286-.55401786 1.25714286-.15625 1.82142857l1.07589286 1.5357143c-.41875.72142856-.74151786 1.49419642-.95982143 2.29910713l-1.8482143.32589283c-.67857142.1191965-1.1736607.7084822-1.17410713 1.3973215v1.5669642c.00089286.6901786.4982143 1.2799108 1.17857143 1.3973215" fill="#FF4F00"/><path d="M25.3392857 9.05357143c2.9116072.00758928 5.2665179 2.37410714 5.2589286 5.28571427-.0075893 2.9116072-2.3741072 5.2665179-5.2857143 5.2589286-2.90669643-.0075893-5.25892857-2.365625-5.25892857-5.2723214.0049107-2.9116072 2.36517857-5.2696429 5.27678567-5.27232147h.0089286z" fill="#FFF"/><path d="M22.52232143 14.3258929c0-1.5508929 1.25714287-2.80803576 2.80803567-2.80803576 1.5508929 0 2.8080358 1.25714286 2.8080358 2.80803576 0 1.5508928-1.2571429 2.8080357-2.8080358 2.8080357-1.5508928 0-2.80803567-1.2571429-2.80803567-2.8080357z" fill="#FF4F00"/></g></svg>