<?xml version="1.0" encoding="UTF-8"?>
<svg width="1440px" height="430px" viewBox="0 0 1440 430" version="1.1" xmlns="http://www.w3.org/2000/svg" xmlns:xlink="http://www.w3.org/1999/xlink">
    <!-- Generator: Sketch 50.2 (55047) - http://www.bohemiancoding.com/sketch -->
    <title>Group 2</title>
    <desc>Created with Sketch.</desc>
    <defs>
        <rect id="path-1" x="0" y="0" width="1440" height="430"></rect>
        <linearGradient x1="-10.6729396%" y1="24.3826952%" x2="100%" y2="24.3826956%" id="linearGradient-3">
            <stop stop-color="#EA7924" offset="0%"></stop>
            <stop stop-color="#FFFFFF" stop-opacity="0" offset="100%"></stop>
        </linearGradient>
    </defs>
    <g id="Confluence-meeting" stroke="none" stroke-width="1" fill="none" fill-rule="evenodd">
        <g id="Confluence-of-digital-marketing">
            <g id="Group-2">
                <mask id="mask-2" fill="white">
                    <use xlink:href="#path-1"></use>
                </mask>
                <g id="Mask"></g>
                <g mask="url(#mask-2)">
                    <g transform="translate(-16.000000, -385.000000)">
                        <rect id="Rectangle-3" fill="#FFFFFF" opacity="0.100000001" transform="translate(1330.407728, 476.788193) rotate(-30.000000) translate(-1330.407728, -476.788193) " x="839.189195" y="376.788193" width="982.437066" height="200" rx="100"></rect>
                        <rect id="Rectangle-3-Copy-4" fill="url(#linearGradient-3)" transform="translate(1079.711524, 428.495191) rotate(-30.000000) translate(-1079.711524, -428.495191) " x="1019.71152" y="420.995191" width="120" height="15" rx="7.5"></rect>
                        <rect id="Rectangle-3-Copy-5" fill="url(#linearGradient-3)" transform="translate(871.390655, 589.815073) rotate(-30.000000) translate(-871.390655, -589.815073) " x="821.390655" y="579.636304" width="100" height="20.3575381" rx="10.1787691"></rect>
                        <rect id="Rectangle-3-Copy-6" fill="url(#linearGradient-3)" transform="translate(1361.390655, 781.815073) rotate(-30.000000) translate(-1361.390655, -781.815073) " x="1311.39065" y="771.636304" width="100" height="20.3575381" rx="10.1787691"></rect>
                        <rect id="Rectangle-3-Copy-7" fill="url(#linearGradient-3)" transform="translate(48.390655, 757.815073) rotate(-30.000000) translate(-48.390655, -757.815073) " x="-1.60934528" y="747.636304" width="100" height="20.3575381" rx="10.1787691"></rect>
                        <rect id="Rectangle-3-Copy" fill="#FFFFFF" opacity="0.0399999991" transform="translate(491.407728, 332.211807) rotate(-30.000000) translate(-491.407728, -332.211807) " x="0.189195416" y="232.211807" width="982.437066" height="200" rx="100"></rect>
                        <rect id="Rectangle-3-Copy-3" fill="#FFFFFF" opacity="0.049999997" transform="translate(1539.407728, 535.788193) rotate(-30.000000) translate(-1539.407728, -535.788193) " x="1048.1892" y="435.788193" width="982.437066" height="200" rx="100"></rect>
                    </g>
                </g>
            </g>
        </g>
    </g>
</svg>