<svg viewBox="0 0 218 196" xmlns="http://www.w3.org/2000/svg" xmlns:xlink="http://www.w3.org/1999/xlink"><defs><path id="a" d="M218 19.0122515V0H0v38.0245029h218V19.0122515z"/></defs><g fill="none" fill-rule="evenodd"><path d="M218 186.087338c0 2.287965-.490658 4.57593-1.471975 6.318716-.981317 1.745765-2.265737 2.618648-3.551831 2.618648H38.0600007c-1.2860944 0 0-156.999702 0-156.999702H218v148.062338z" fill="#FFF"/><mask id="b" fill="#fff"><use xlink:href="#a"/></mask><path d="M218 38.0245029H0V7.4553853c0-1.9062206.75145882-3.8149265 2.25437647-5.27130884C3.75729412.72769412 5.72442353-.00049706 7.69411765-.00049706H210.305882c1.969694 0 3.936824.72819118 5.439742 2.18457353C217.248541 3.64045882 218 5.5491647 218 7.4553853v30.5691176z" fill="#CFCFCF" mask="url(#b)"/><path d="M2.25412 192.406352c1.50291765 1.745765 3.47261176 2.618648 5.43974118 2.618648H44.8820965V38.0252979H-.00025647V186.087636c0 2.284986.75145882 4.57593 2.25437647 6.318716" fill="#3F4A5A"/><path fill="#FFF" d="M9.61764706 109.462294H35.2647059v-5.549662H9.61764706m0-5.5496614H35.2647059v-5.5496618H9.61764706m0-5.5496617H35.2647059v-5.5471765H9.61764706m0-5.5496618H35.2647059v-5.552147H9.61764706m0-5.5496618H35.2647059v-5.5471765H9.61764706"/><path fill="#DCDCDC" d="M60 133.858191h142.341176V95.8133088H60m0-8.5496617h142.341176V49.2187647H60"/><path fill="#FD5C22" d="M60 181.044882h39.2605176V143H60m52 38.044882h39.263082V143H112m51 38.044882h39.260518V143H163M25.6470588 19.0134941c0 3.4297059-2.8699059 6.2132353-6.4117647 6.2132353s-6.4117647-2.7835294-6.4117647-6.2132353c0-3.4321912 2.8699059-6.2132353 6.4117647-6.2132353s6.4117647 2.7810441 6.4117647 6.2132353m19.2352941 0c0 3.4297059-2.8699058 6.2132353-6.4117647 6.2132353-3.5418588 0-6.4117647-2.7835294-6.4117647-6.2132353 0-3.4321912 2.8699059-6.2132353 6.4117647-6.2132353 3.5418589 0 6.4117647 2.7810441 6.4117647 6.2132353m19.2352942 0c0 3.4297059-2.8699059 6.2132353-6.4117647 6.2132353-3.5418589 0-6.4117648-2.7835294-6.4117648-6.2132353 0-3.4321912 2.8699059-6.2132353 6.4117648-6.2132353 3.5418588 0 6.4117647 2.7810441 6.4117647 6.2132353"/></g></svg>