<svg viewBox="0 0 48 48" xmlns="http://www.w3.org/2000/svg" xmlns:xlink="http://www.w3.org/1999/xlink"><defs><path id="a" d="M.24448614.4639482H15.0625133v32.0030161H.24448614V.4639482z"/><path id="c" d="M21.197.0581626v29.1150517H.2410563V.0581626H21.197z"/></defs><g fill="none" fill-rule="evenodd"><path d="M21.098488 27.5032644c2.89708 1.5085375 5.63671 3.3022196 8.178 5.3546964.69748.5801705 1.09651 1.4445446 1.0857 2.3526786v4.2630535h-11.4539l2.1902-11.9704285z" fill="#2A3240"/><g transform="translate(7.52 7.007)"><mask id="b" fill="#fff"><use xlink:href="#a"/></mask><path d="M14.184788 9.88125c.10857-.30631875.19176-.62110714.2491-.94107143.9776-5.86758036-1.9082-6.0699107-1.9082-6.0699107-.42206-.68792323-1.02319-1.2473902-1.739-1.61864287-1.08006-.62534196-2.33167-.88884196-3.572-.75285714-.48034.0249384-.95504.11669285-1.41.2729107-.55648.19150805-1.08335.461125-1.5651.79991073-.59737.3736053-1.14539.8206142-1.6309 1.331616-.84929.83849462-1.45089 1.89531783-1.739 3.0537768-.22607.9815375-.22607 2.0016589 0 2.9831964.05734.3199643.14053.6347527.2491.94107143-.5781-.0564643-1.2549.2823214-.6157 2.5455982.47 1.6562857.9024 2.1221161 1.2314 2.1456429.14429.8356714.44086 1.6379348.8742 2.3667946v2.108l4.5543 3.29375-1.7108 2.1785804 1.1515 1.8492053-.8836 6.0981429h3.8869l-.8883-6.0840268 1.1515-1.8492054-1.7108-2.1785803 4.5543-3.29375v-2.1597589c.43146-.723684.72474-1.5217125.8648-2.3526786.329-.0282322.7661-.4705357 1.2314-2.1456429.6298-2.2491607-.047-2.58324105-.6251-2.5220714" fill="#2A3240" mask="url(#b)"/></g><path d="M9.268588 27.5035357c-2.89849 1.508067-5.64 3.3017491-8.1827 5.3546964-.69701.5806411-1.09604 1.4450152-1.0857 2.3526786v4.2630536h11.4586l-2.1902-11.9704286z" fill="#2A3240"/><g transform="translate(25.38 10.3)"><mask id="d" fill="#fff"><use xlink:href="#c"/></mask><path d="M20.181988 23.0280179c-2.55304-2.0590643-5.31993-3.8372188-8.2532-5.3029375-.08836-.0428188-.14476-.1322206-.1457-.2305625v-2.6773483c.39762-.6761598.66834-1.4191357.799-2.1926964.3055-.0235268.7097-.4705357 1.1421-1.9903661.5734-2.0280089 0-2.38561603-.517-2.35267853 1.2972-5.94757143-2.0445-5.96639286-2.0445-5.96639286-.2773-1.2469196-2.0492-2.5408928-3.6989-2.2021071-1.6497.3387857-5.0478-.0470536-5.0478-.0470536.00235.4700652.21009.9156625.5687 1.2186875-2.9845 1.8256786-2.303 5.8393482-2.0304 6.9921607-.5076 0-1.034.3905447-.47 2.3526786.4324 1.5339464.8366 1.9668393 1.1421 1.9903661.13066.7735607.40138 1.5165366.799 2.1926964v2.6773482c-.00094.098342-.05734.1877437-.1457.2305625l-.5029.2540893c-.09447.0432893-.13583.1548062-.09259.2493839.01504.0329375.03901.0606991.06909.0799911 1.1327.7622678 2.3265 1.6280536 3.4968 2.5926518 1.19286.9763616 1.88329 2.438316 1.88 3.9807321v4.2959911h14.0671v-3.9760268c0-.8380241-.37177-1.6327589-1.0152-2.1691696" fill="#FF4F00" mask="url(#d)"/></g></g></svg>