<?xml version="1.0" encoding="UTF-8"?>
<svg width="175px" height="19px" viewBox="0 0 175 19" version="1.1" xmlns="http://www.w3.org/2000/svg" xmlns:xlink="http://www.w3.org/1999/xlink">
    <!-- Generator: Sketch 49.2 (51160) - http://www.bohemiancoding.com/sketch -->
    <title>CLAIRVOYANT</title>
    <desc>Created with Sketch.</desc>
    <defs></defs>
    <g id="Homepage" stroke="none" stroke-width="1" fill="none" fill-rule="evenodd">
        <g id="Homepage-V4" transform="translate(-135.000000, -34.000000)" fill="#EA7924">
            <g id="Group-16" transform="translate(135.000000, 25.000000)">
                <path d="M0,18.5263889 C0,23.8041667 4.19208458,28 9.39964267,28 C11.7170066,28 13.9562562,27.1819444 15.7268264,25.4402777 C15.9090907,25.2555556 15.9611669,24.9125 15.7528645,24.7277778 L14.1385213,23.0388889 C13.9822943,22.8805556 13.6958784,22.8541667 13.487576,23.0388889 C12.3939893,23.9361111 11.0660612,24.5430555 9.50379429,24.5430555 C6.17095636,24.5430555 3.67132893,21.7458334 3.67132893,18.4472222 C3.67132893,15.1222222 6.14491907,12.2986111 9.47775618,12.2986111 C10.9358723,12.2986111 12.3939893,12.8791667 13.487576,13.8555556 C13.6958784,14.0666667 13.9562562,14.0666667 14.1385213,13.8555556 L15.7268264,12.1930556 C15.9351288,11.9819445 15.9351288,11.6652778 15.7007883,11.4541667 C13.9302189,9.84444446 12.0294598,9 9.39964267,9 C4.19208458,9 0,13.2486111 0,18.5263889 Z M19.137777,27.2347222 C19.137777,27.4986111 19.3460794,27.7361111 19.6324953,27.7361111 L29.1623273,27.7361111 C29.4487424,27.7361111 29.6570448,27.4986111 29.6570448,27.2347222 L29.6570448,25.0708334 C29.6570448,24.8069444 29.4487424,24.5694444 29.1623273,24.5694444 L22.5226903,24.5694444 L22.5226903,9.76527782 C22.5226903,9.50138887 22.2883498,9.26388887 22.027972,9.26388887 L19.6324953,9.26388887 C19.3460794,9.26388887 19.137777,9.50138887 19.137777,9.76527782 L19.137777,27.2347222 Z M31.1932744,27.7361111 L33.458563,27.7361111 C33.8751678,27.7361111 34.1095075,27.4722223 34.2136583,27.2083333 L35.4895101,24.3583333 L43.27481,24.3583333 L44.5506618,27.2083333 C44.7329269,27.5777778 44.9151912,27.7361111 45.305758,27.7361111 L47.5710457,27.7361111 C47.9616132,27.7361111 48.1699148,27.3930555 48.0136886,27.05 L39.9940483,9.29027775 C39.9159348,9.13194448 39.811784,9 39.5514061,9 L39.2910283,9 C39.0566878,9 38.9264989,9.13194448 38.8483854,9.29027775 L30.7506323,27.05 C30.5944053,27.3930555 30.8027077,27.7361111 31.1932744,27.7361111 Z M36.765362,21.4291666 L39.3170656,15.6236111 L39.3951791,15.6236111 L41.9989582,21.4291666 L36.765362,21.4291666 Z M50.3831272,27.2347222 C50.3831272,27.4986111 50.6174677,27.7361111 50.8778455,27.7361111 L53.2993602,27.7361111 C53.5597381,27.7361111 53.7940786,27.4986111 53.7940786,27.2347222 L53.7940786,9.76527782 C53.7940786,9.50138887 53.5597381,9.26388887 53.2993602,9.26388887 L50.8778455,9.26388887 C50.6174677,9.26388887 50.3831272,9.50138887 50.3831272,9.76527782 L50.3831272,27.2347222 Z M58.5329564,27.2347222 C58.5329564,27.4986111 58.7412589,27.7361111 59.0276748,27.7361111 L61.4231514,27.7361111 C61.6835292,27.7361111 61.9178698,27.4986111 61.9178698,27.2347222 L61.9178698,20.5055555 L64.8080639,20.5055555 L68.2710908,27.4986111 C68.3231662,27.6041666 68.4533551,27.7361111 68.6876956,27.7361111 L71.4216636,27.7361111 C71.8643057,27.7361111 72.0465708,27.3138889 71.8643057,26.9708333 L68.2971281,20.2680556 C70.5624166,19.3444445 72.1507216,17.3652778 72.1507216,14.9375 C72.1507216,11.7972223 69.599018,9.26388887 66.4744833,9.26388887 L59.0276748,9.26388887 C58.7412589,9.26388887 58.5329564,9.50138887 58.5329564,9.76527782 L58.5329564,27.2347222 Z M61.9439071,17.6819444 L61.9439071,12.4305556 L66.1880674,12.4305556 C67.56807,12.4305556 68.7658091,13.5916667 68.7658091,14.9902778 C68.7658091,16.4680556 67.56807,17.6819444 66.1880674,17.6819444 L61.9439071,17.6819444 Z M81.5503646,27.7097222 C81.6284781,27.8680555 81.758667,28 81.9930068,28 L82.2533846,28 C82.4877251,28 82.617914,27.8680555 82.6960275,27.7097222 L90.7677433,9.94999998 C90.9239695,9.60694447 90.7156671,9.26388887 90.3251004,9.26388887 L87.6692459,9.26388887 C87.4349054,9.26388887 87.2786792,9.42222223 87.226603,9.55416671 L82.2273473,20.9013889 L82.045083,20.9013889 L77.0458265,9.55416671 C76.9937511,9.42222223 76.8375241,9.26388887 76.6031844,9.26388887 L73.9473291,9.26388887 C73.5567624,9.26388887 73.3484599,9.60694447 73.504687,9.94999998 L81.5503646,27.7097222 Z M91.7051038,18.5263889 C91.7051038,23.8041667 95.8451125,28 101.052671,28 C106.260229,28 110.426276,23.8041667 110.426276,18.5263889 C110.426276,13.2486111 106.260229,9 101.052671,9 C95.8451125,9 91.7051038,13.2486111 91.7051038,18.5263889 Z M95.0900163,18.5263889 C95.0900163,15.2013889 97.7719089,12.4305556 101.052671,12.4305556 C104.333432,12.4305556 107.041363,15.2013889 107.041363,18.5263889 C107.041363,21.8513889 104.333432,24.5694444 101.052671,24.5694444 C97.7719089,24.5694444 95.0900163,21.8513889 95.0900163,18.5263889 Z M117.013837,27.2347222 C117.013837,27.4986111 117.222139,27.7361111 117.508555,27.7361111 L119.904032,27.7361111 C120.16441,27.7361111 120.39875,27.4986111 120.39875,27.2347222 L120.39875,18.8166666 L126.41348,10.0291667 C126.621782,9.6861111 126.41348,9.26388887 125.996876,9.26388887 L123.314983,9.26388887 C123.106681,9.26388887 122.976492,9.39583335 122.898379,9.50138887 L118.732332,15.5708334 L114.566285,9.50138887 C114.488171,9.39583335 114.357983,9.26388887 114.14968,9.26388887 L111.493826,9.26388887 C111.077221,9.26388887 110.868918,9.6861111 111.077221,10.0291667 L117.013837,18.8430556 L117.013837,27.2347222 Z M125.345931,27.7361111 L127.611218,27.7361111 C128.027823,27.7361111 128.262164,27.4722223 128.366314,27.2083333 L129.642166,24.3583333 L137.427466,24.3583333 L138.703318,27.2083333 C138.885582,27.5777778 139.067847,27.7361111 139.458414,27.7361111 L141.723702,27.7361111 C142.114269,27.7361111 142.322571,27.3930555 142.166345,27.05 L134.146704,9.29027775 C134.068591,9.13194448 133.96444,9 133.704062,9 L133.443684,9 C133.209344,9 133.079155,9.13194448 133.001042,9.29027775 L124.903288,27.05 C124.747061,27.3930555 124.955364,27.7361111 125.345931,27.7361111 Z M130.918018,21.4291666 L133.469722,15.6236111 L133.547835,15.6236111 L136.151614,21.4291666 L130.918018,21.4291666 Z M144.535783,27.2347222 C144.535783,27.4986111 144.770124,27.7361111 145.030502,27.7361111 L147.399941,27.7361111 C147.686356,27.7361111 147.894659,27.4986111 147.894659,27.2347222 L147.894659,15.8875 L147.920697,15.8875 L158.804494,28 L159.4294,28 C159.689778,28 159.924119,27.7888889 159.924119,27.525 L159.924119,9.76527782 C159.924119,9.50138887 159.689778,9.26388887 159.4294,9.26388887 L157.033924,9.26388887 C156.747508,9.26388887 156.539205,9.50138887 156.539205,9.76527782 L156.539205,20.6638889 L156.513168,20.6638889 L145.681446,9 L145.030502,9 C144.770124,9 144.535783,9.21111111 144.535783,9.47499999 L144.535783,27.2347222 Z M167.110549,27.2347222 C167.110549,27.4986111 167.344889,27.7361111 167.605267,27.7361111 L170.026782,27.7361111 C170.287159,27.7361111 170.5215,27.4986111 170.5215,27.2347222 L170.5215,12.4305556 L174.505282,12.4305556 C174.791698,12.4305556 175,12.1930556 175,11.9291666 L175,9.76527782 C175,9.50138887 174.791698,9.26388887 174.505282,9.26388887 L163.126767,9.26388887 C162.840351,9.26388887 162.632049,9.50138887 162.632049,9.76527782 L162.632049,11.9291666 C162.632049,12.1930556 162.840351,12.4305556 163.126767,12.4305556 L167.110549,12.4305556 L167.110549,27.2347222 Z" id="CLAIRVOYANT"></path>
            </g>
        </g>
    </g>
</svg>