<?xml version="1.0" encoding="UTF-8"?>
<svg width="994px" height="616px" viewBox="0 0 994 616" version="1.1" xmlns="http://www.w3.org/2000/svg" xmlns:xlink="http://www.w3.org/1999/xlink">
    <!-- Generator: Sketch 49.3 (51167) - http://www.bohemiancoding.com/sketch -->
    <title>Fill 4</title>
    <desc>Created with Sketch.</desc>
    <defs></defs>
    <g id="Service" stroke="none" stroke-width="1" fill="none" fill-rule="evenodd" opacity="0.25">
        <g id="Artboard" transform="translate(0.000000, -5.000000)" fill="#FFFFFF">
            <path d="M176.797328,8 C176.833106,8.15129602 176.874389,8.30313627 176.938514,8.45198326 C177.48702,9.74371385 178.901082,10.4068585 180.23533,10.0781434 L194,55 L7.53130366,50.8586796 L6.0236686,50.6197625 C6.01486168,50.5443866 6.01486168,50.4646569 6,50.3900973 L176.797328,8 Z M180.113588,10.648637 C180.872037,10.3301252 181.411305,9.71575377 181.673496,9 L260.251417,39.2213284 L310,58.356899 C309.934108,58.5657411 309.89165,58.7803843 309.872903,59 L193.817504,56.3880927 L180,10.6831678 C180.038047,10.6685267 180.076093,10.664383 180.113588,10.648637 Z M309.498521,58.6106099 C309.509507,58.9484698 309.572947,59.2879872 309.711087,59.618112 C309.791005,59.8070704 309.88795,59.9811111 310,60.1416152 L286.984168,79.5007381 C285.492366,77.870281 283.238184,77.1058834 281.040577,77.5553503 L280.734637,77.6327017 C280.432266,77.7089481 280.129896,77.8039798 279.834941,77.9274658 C279.647642,78.007856 279.467209,78.0951526 279.291719,78.1901843 L279.020931,78.3515172 C277.049621,79.5432814 275.902757,81.6906116 275.937909,83.9338024 L206.370536,88 C206.342249,87.7381102 206.288695,87.4742867 206.181863,87.2209608 C205.917118,86.5855743 205.444476,86.1109682 204.882304,85.8148228 L204.598883,85.6747615 C204.069941,85.4656365 203.48113,85.4236457 202.903578,85.5670221 L194,56 L309.498521,58.6106099 Z M313.20225,61.7421756 C313.2382,61.7269514 313.268112,61.7024841 313.302689,61.6864444 L326,85 L288.472832,84.0525708 C288.470637,83.2446053 288.312294,82.4244062 287.977223,81.6343834 C287.725302,81.0400992 287.392151,80.5083427 287,80.0402012 L309.991218,61 C310.771405,61.8794644 312.051317,62.2206477 313.20225,61.7421756 Z M341.204345,48.6223603 L341.50071,48.5138235 L381.253007,34 C381.281193,34.0847857 381.309653,34.1690191 381.341944,34.2513192 C381.697418,35.1013858 382.284948,35.7791192 383,36.2436455 L368.67132,62 L346.040867,60.7033585 L345.698802,60.6840262 L315.125606,58.9319722 C315.120407,58.6831385 315.07197,58.4354096 315,58.1893377 L341.204345,48.6223603 Z M387.194792,36.7676668 C387.657821,36.5764302 388.068114,36.3122897 388.421529,36 L405,53.6952365 L390.396786,63 L369,61.803615 L383.377083,36.5715336 C384.512152,37.1835997 385.908693,37.2997562 387.194792,36.7676668 Z M455.708102,19 C455.743053,19.144975 455.778824,19.2902282 455.83835,19.4332553 C455.882585,19.5423343 455.943477,19.6369437 456,19.7351705 L413.120218,48 L389,34.2067877 C389.363712,33.3839644 389.483857,32.4512272 389.303639,31.5312902 L455.708102,19 Z M459.343907,21.139397 L468,68 L448.98329,66.4903818 C448.993116,66.1016496 448.927883,65.7057341 448.770122,65.3241852 C448.16883,63.875626 446.51944,63.193756 445.08813,63.801858 C444.537605,64.0344895 444.104719,64.4262608 443.806666,64.8989835 L414,47.9688259 L456.714927,20 C457.320586,20.8396284 458.330472,21.2717373 459.343907,21.139397 Z M460.333061,21 L482,69 L468.92884,67.9942731 L460,21.0985303 C460.111863,21.0728628 460.222603,21.0400193 460.333061,21 Z M489,84 L470.579615,76.2385435 L469,68 L482.188528,69.0096874 L489,84 Z M516.250234,71.6705218 C516.221858,72.0897837 516.278882,72.5220712 516.4535,72.9356344 C516.586919,73.2517768 516.777908,73.5234151 517,73.7597757 L502.728524,90 L488.666589,83.9585584 L482,69 L516.250234,71.6705218 Z M520.028977,74.4661294 C520.244657,74.3736763 520.436705,74.2494855 520.617073,74.1137036 L546,108.110794 C545.710706,108.360555 545.479814,108.662753 545.313571,109 L503,90.4320972 L517.135762,74 C517.913461,74.673666 519.020929,74.8972095 520.028977,74.4661294 Z M588.056798,38 C588.279345,38.451083 588.60433,38.8208455 589,39.0896396 L549.646722,107.820986 C548.932693,107.472781 548.083094,107.409199 547.290097,107.738847 C547.11587,107.810616 546.953516,107.899577 546.803034,108 L521,74.3816292 C521.838555,73.5992609 522.151115,72.3625349 521.677857,71.2505185 C521.662119,71.2131329 521.637821,71.1836611 521.621254,71.1476399 L588.056798,38 Z M590,39.3008747 L584.272195,111.854108 L557.531374,118 L550.689882,112.046569 C551.297747,111.268511 551.489487,110.198612 551.079398,109.223165 C550.849529,108.676718 550.463579,108.241421 550,107.943284 L589.086558,39 C589.37266,39.1505742 589.679335,39.253786 590,39.3008747 Z M591.609433,39 L615,105.040748 L585,112 L590.698975,39.1283243 C591.000273,39.1390639 591.305947,39.0936272 591.609433,39 Z M614.289908,105 L616,109.733436 L583,127 L584.207846,111.845128 L614.289908,105 Z M632.901988,101 C632.930031,101.087996 632.947246,101.176273 632.982785,101.263989 C632.987506,101.275759 632.99528,101.282485 633,101.294255 L616.709513,110 L615,105.159925 L632.901988,101 Z M633,102.155498 L618.021898,113 L617,110.208424 L632.915856,102 C632.945077,102.050339 632.968886,102.105422 633,102.155498 Z M634,102.319888 L620.275206,120 L618,113.634575 L633.691115,102 C633.786937,102.115531 633.889523,102.221504 634,102.319888 Z M635.407781,103.483936 L647,175.955956 L644.358627,176 C644.314801,175.576521 644.208408,175.149486 644.032555,174.734762 C643.145298,172.639254 640.801607,171.592047 638.657197,172.268847 L620,120.362624 L633.545341,103 C634.08613,103.370954 634.740202,103.541659 635.407781,103.483936 Z M636.330229,103 L661,175.76757 L647.538251,176 L636,103.101224 C636.109985,103.079494 636.21997,103.037134 636.330229,103 Z M637.422676,103 L695,175.43775 L661.947598,176 L637,103.229075 C637.146524,103.161781 637.290278,103.088993 637.422676,103 Z M694.945236,175 L707,189.91945 C705.99901,190.728879 705.292187,191.809995 704.942211,193 L664.279375,182.092559 L662,175.55142 L694.945236,175 Z M797.934734,174 C797.947402,174.177919 797.966128,174.355837 798,174.534568 L716.909937,194 C716.83641,193.733799 716.750766,193.467869 716.639512,193.20573 C715.274443,190.010507 711.5298,188.505375 708.278641,189.848566 C707.784881,190.052753 707.337936,190.316787 706.927617,190.617109 L695,175.734774 L797.934734,174 Z M798.486703,174 C798.538364,174.190639 798.598037,174.381001 798.675943,174.566936 C798.766281,174.786073 798.879549,174.98944 799,175.183952 L737.225035,216 L716,199.102052 C717.097042,197.637537 717.542378,195.737514 717.137929,193.887572 L798.486703,174 Z M799,176.617751 L752.983416,229 L737,216.354053 L798.453972,176 C798.618551,176.224637 798.799918,176.432289 799,176.617751 Z M800,177.557576 L771.883266,244 L753,229.147846 L799.08986,177 C799.369437,177.223412 799.677136,177.408362 800,177.557576 Z M802.788844,177.043624 L829,244.761674 L774.073733,246 L772,244.330124 L799.817338,177 C800.744265,177.357831 801.792166,177.395105 802.788844,177.043624 Z M806.345166,175 L989,240.768146 C988.931526,240.998664 988.886702,241.235784 988.876802,241.477856 L830.495867,245 L804,177.427595 C805.117859,176.946477 805.934322,176.053012 806.345166,175 Z M855,308.312105 C854.633659,308.47955 854.323382,308.715893 854.068345,309 L775,246.22454 L830.139387,245 L855,308.312105 Z M853.897076,309 L765,261.379016 L771.460461,246.063793 L774.312522,246 L854,308.848321 C853.963853,308.898972 853.929361,308.948254 853.897076,309 Z M724.444599,357 C724.298856,356.949037 724.153385,356.904134 724,356.876035 L736.590424,251.258368 C737.280658,251.324482 737.99682,251.224208 738.679958,250.935232 C739.622377,250.534687 740.348092,249.838555 740.804973,249 L764,261.639476 L724.444599,357 Z M723.934378,356.990137 L717,272.597367 L734.900803,251 C735.504541,251.492325 736.230192,251.818898 737,251.946568 L724.185426,357 C724.102669,356.993699 724.020467,356.986028 723.934378,356.990137 Z M723.622234,357 L701,292.113546 L717.02268,273 L724,356.921782 C723.874358,356.939012 723.747034,356.96554 723.622234,357 Z M722.961178,356.823822 C722.843336,356.872867 722.741463,356.938625 722.635735,357 L689,306.429375 L700.856098,292 L723,356.810944 C722.986509,356.81752 722.973568,356.81889 722.961178,356.823822 Z M688.164167,306 L663,268.131505 C663.963919,267.369205 664.354135,266.042603 663.853171,264.856531 C663.805864,264.74269 663.739962,264.642739 663.678708,264.53843 L685.807009,250 L700,291.58113 L688.164167,306 Z M618.960271,392 C618.381569,391.575518 617.709625,391.299111 617,391.192717 L627.517855,296.865594 L660.135034,268 C660.926073,268.790282 662.146188,269.074093 663.242257,268.615608 C663.385282,268.555007 663.51538,268.477679 663.642727,268.398432 L689,306.595772 L618.960271,392 Z M615.87289,391 L606,315.750522 L627,297 L616.611789,390.997806 C616.367216,390.977784 616.121825,390.976962 615.87289,391 Z M614.297498,391 L590,329.452711 L605.138206,316 L615,390.815975 C614.764285,390.858358 614.530755,390.917968 614.297498,391 Z M614.797041,392 L584,335.478538 L590.244328,330 L615,391.903566 C614.92863,391.933047 614.863393,391.966661 614.797041,392 Z M612.608666,392 L574,343.007175 L582.890988,335 L613,391.73722 C612.864097,391.817798 612.733925,391.906684 612.608666,392 Z M612.851495,393 L568,349.66786 L574.320895,344 L613,392.861052 C612.948857,392.906079 612.899903,392.954144 612.851495,393 Z M567.65679,349 L524,306.711267 L528.878069,289.455036 C529.432277,289.582556 530.026364,289.547703 530.591224,289.308152 C530.78461,289.22572 530.963246,289.120052 531.129317,289 L574,343.2967 L567.65679,349 Z M495.963617,412 C495.433208,411.394956 494.751412,410.955397 494,410.71223 L523.985762,307 L568,348.683747 L495.963617,412 Z M492.114215,410.873016 L483,272.271481 C483.418158,272.229518 483.836044,272.12475 484.242997,271.953062 C484.788516,271.723779 485.259969,271.395486 485.651617,271 L523,306.848568 L493.289158,411 C492.907896,410.904557 492.513515,410.861497 492.114215,410.873016 Z M490.792361,412 L451,327.820523 L480.852315,272 C481.4849,272.316854 482.18947,272.473903 482.906309,272.454065 L492,411.691137 C491.592909,411.733843 491.188,411.835787 490.792361,412 Z M488.631939,413 L430,365.482091 L450.138376,328 L490,411.93035 C489.461921,412.198864 489.003254,412.565145 488.631939,413 Z M424.821689,384.302813 C425.268211,383.252814 425.307399,382.030152 424.828588,380.894921 C424.446643,379.988441 423.791211,379.281843 423,378.819667 L429.953382,366 L489,413.403378 C488.859254,413.593362 488.732032,413.792145 488.624679,414 L424.821689,384.302813 Z M340.726172,508 C340.184945,507.706992 339.602886,507.495146 339,507.368314 L362.560514,394.158344 L397.74248,357 L417.452744,379.188533 C416.186683,380.409812 415.726023,382.330182 416.446198,384.050537 C416.782444,384.856378 417.332167,385.504296 418,385.963204 L340.726172,508 Z M338,506.930498 L341.210476,416.150276 L362,394 L338.687356,507 C338.460507,506.966076 338.231479,506.940978 338,506.930498 Z M342,416 L343.823817,364.915288 C344.668993,364.926003 345.526502,364.766927 346.35551,364.417455 C349.590147,363.056108 351.11141,359.319617 349.752386,356.078485 C348.773198,353.741804 346.562419,352.303254 344.192691,352.188137 L345.364538,299.616521 C345.701348,299.606356 346.03761,299.541791 346.364554,299.403596 C346.60983,299.301942 346.822769,299.158526 347.021183,299 L376,331.575615 L363.026373,393.824196 L342,416 Z M157.34189,610 C157.231311,609.899536 157.118262,609.799347 157,609.707941 L339.718025,364 C340.680309,364.678816 341.816557,365.080122 343,365.152863 L341.160217,416.55461 L157.34189,610 Z M156,608.832548 L305.494071,361.5666 L336.5731,359 C336.608778,359.715579 336.760819,360.438831 337.054748,361.137417 C337.490838,362.173376 338.171456,363.030371 339,363.677159 L156.245627,609 C156.16494,608.943269 156.08398,608.884619 156,608.832548 Z M155,609.519967 L248.109022,366.780795 L306,362 L156.060026,610 C155.72257,609.808812 155.366381,609.64871 155,609.519967 Z M263.907682,324.403752 L341.973283,298 C341.979311,298.015094 341.980955,298.031011 341.987257,298.044733 C342.205643,298.56671 342.565419,298.984127 343,299.280518 L305.659763,361.224267 L248,366 L263.907682,324.403752 Z M111.261577,378 C111.218073,377.573294 111.132716,377.146588 111,376.724017 L264,325 L248.053437,366.676861 L111.261577,378 Z M111.090202,375.718244 C111.063059,375.652547 111.029336,375.592622 111,375.528299 L275,295 L263.792696,324.333122 L111.192194,376 C111.158471,375.905165 111.128586,375.81143 111.090202,375.718244 Z M110,373.630143 L269.432113,220 C270.657734,221.165638 272.508835,221.569423 274.172375,220.874092 C274.595145,220.697795 274.975225,220.46401 275.307383,220.183962 L296,242.807137 L276.020171,294.653385 L110.968929,375 C110.702047,374.491094 110.375123,374.034749 110,373.630143 Z M108,373.136468 L208.306058,206 L266.913288,216.050605 C266.813648,216.798834 266.899289,217.58504 267.212484,218.332169 C267.409294,218.798058 267.678296,219.210836 268,219.567202 L109.106475,374 C108.769674,373.669777 108.396091,373.382759 108,373.136468 Z M107,371.551636 L165.807011,198 L208,205.240854 L108.007848,372 C107.68641,371.821699 107.347449,371.672793 107,371.551636 Z M183.253286,147.4767 L226.659706,132 L239,154.91183 L208.596741,205 L166,197.776045 L183.253286,147.4767 Z M85.1681116,184.304806 C85.219288,183.865376 85.1711382,183.409843 85,182.971505 L183,148 L165.863069,198 L85.1681116,184.304806 Z M204.484211,91 L218,115.756185 L189,130 L202.508541,91.1545456 C203.10902,91.3191761 203.766926,91.3060929 204.387476,91.0504249 C204.422323,91.036524 204.451037,91.0160815 204.484211,91 Z M218.23573,115 L205,90.3723321 C205.850714,89.8576125 206.357105,88.9493316 206.356559,87.9903647 L275.452138,84 C275.497975,84.6803298 275.647764,85.362828 275.92797,86.0258107 C275.948979,86.0764967 275.976263,86.1220327 276,86.1724476 L218.23573,115 Z M183.362893,147.498924 L87,182 L189,131 L183.362893,147.498924 Z M188.672833,130.426167 L217.592837,116 L226,131.639233 L183,147 L188.672833,130.426167 Z M259.694016,119.955265 L226.376336,132 L218,116.232571 L275.903385,87 C276.405927,87.9888146 277.133888,88.7978448 278,89.3828316 L259.694016,119.955265 Z M280.226144,112.191774 L261,119 L279.338801,89 C280.147719,89.4797753 281.055847,89.7877151 282,89.886725 L280.226144,112.191774 Z M286.090864,89 L300,105.620558 L280,113 L281.719043,90.5001903 C282.632808,90.5505657 283.572749,90.4033145 284.4741,90.013874 C285.076439,89.7559077 285.61671,89.4107532 286.090864,89 Z M326.075889,84.9631184 L331,94.0392285 L300.357331,105 L286,88.3659713 C287.225352,87.2263639 287.951262,85.654482 288.029057,84 L326.075889,84.9631184 Z M314.824019,60 L353,83.8797414 C352.811435,84.2258642 352.698078,84.6044701 352.665651,85 L326.691629,84.3396917 L314,60.7727709 C314.330261,60.5683183 314.609022,60.3057236 314.824019,60 Z M357.086913,83.0981395 C356.438093,82.7818601 355.678432,82.7160368 354.950951,82.9582992 L354.655558,83.0702807 C354.189915,83.2833186 353.80926,83.6069723 353.533945,84 L315,60.1045197 C315.187302,59.7625665 315.301994,59.3897501 315.337474,59 L346.2033,60.7406291 L346.549851,60.760021 L369,62.0265041 L357.086913,83.0981395 Z M357.759164,84 C357.547797,83.7139545 357.290802,83.4709666 357,83.2858461 L368.975388,62 L390,63.1919021 L357.759164,84 Z M415.647507,64.4196866 L422,71.3427091 L358.274705,85 C358.242647,84.880743 358.216945,84.7584281 358.166647,84.640283 C358.121047,84.5304776 358.058036,84.4342937 358,84.3333839 L390.788051,63 L415.647507,64.4196866 Z M405.23942,54 L415,65 L391,63.5826218 L405.23942,54 Z M415.049668,64.3701609 L405,53.4817562 L413.473871,48 L444,65.1320877 C443.865949,65.4058139 443.77584,65.695118 443.734679,66 L415.049668,64.3701609 Z M422.212801,72 L416,65 L443.962955,66.6520285 C443.958565,66.8232824 443.97448,66.9976758 444,67.1700714 L422.212801,72 Z M438.662504,90 L422,71.6071386 L443.218312,67 C443.250378,67.1199833 443.278133,67.2388683 443.325019,67.3566551 C443.647027,68.1347618 444.27272,68.6792169 445,68.9304405 L438.662504,90 Z M448,100 L439,90.2470244 L445.509651,69 C445.709725,69.0436504 445.915561,69.0702798 446.121398,69.0678091 L448,100 Z M475,123.118837 L472.470495,126 L448.917399,100.61736 L447,69.2034377 C447.260118,69.1731561 447.520235,69.1191996 447.773988,69.0129385 C447.782843,69.0096351 447.789761,69.0033035 447.799723,69 L475,123.118837 Z M495,99.6989132 L477.940682,119 L470,77 L488.333649,84.8305645 L495,99.6989132 Z M495.488773,99 L489,85 L503,90.7804864 L495.488773,99 Z M506.639824,126 L495,99.6013723 L502.477743,91 L545,109.46406 C544.791596,110.036116 544.771709,110.671703 544.967037,111.28593 L506.639824,126 Z M544.998706,121.402198 L508.350356,130 L507,126.899508 L545.295578,112 C545.63412,112.768602 546.26572,113.305791 547,113.545529 L544.998706,121.402198 Z M546,120 L547.932516,112.758605 C548.458979,112.861374 549.019893,112.819534 549.553084,112.602491 C549.905674,112.457883 550.213047,112.250253 550.463628,112 L557,117.540091 L546,120 Z M574,132.145232 L538,151 L545.959136,120.654377 L557.60596,118 L574,132.145232 Z M573.988932,132 L558,118.008398 L584,112 L582.797409,127.318434 L573.988932,132 Z M582.274612,137.127096 C581.872757,137.117215 581.464922,137.184687 581.070757,137.348992 C580.696244,137.504263 580.371571,137.727006 580.106421,138 L574,132.723336 L583,128 L582.274612,137.127096 Z M584.779239,138 C584.3256,137.447255 583.690177,137.096139 583,137.00101 L583.713174,127.827057 L616.947076,110 L618,112.985875 L584.779239,138 Z M598.011978,150 L585.110585,141.941505 C585.517827,141.201414 585.606128,140.296024 585.253203,139.457587 C585.182451,139.290067 585.094429,139.137548 585,138.992252 L618.713092,114 L621,120.391067 L598.011978,150 Z M638.921263,172.404227 C638.108105,172.749978 637.455988,173.314594 636.995912,174 L598,149.339497 L620.497093,120 L639,172.374584 C638.973114,172.386497 638.945954,172.393146 638.921263,172.404227 Z M593.601867,223 L586,165.162247 L597.693694,150 L636.419576,174.345359 C635.766735,175.484502 635.628435,176.903238 636.174012,178.207459 C636.376834,178.693125 636.661601,179.118664 637,179.482162 L593.601867,223 Z M633.080178,233.596521 L596.836108,252 L593,222.807235 L636.673937,179 C637.31911,179.603227 638.135129,179.991857 639,180.120669 L633.080178,233.596521 Z M652,225.112155 L634,234 L640.025191,181.070806 C640.424528,181.098857 640.828327,181.080338 641.230731,181 L652,225.112155 Z M643.20639,179 L647.657561,182.349731 L654,223.581653 L651.27907,225 L641,180.512977 C641.170358,180.462636 641.342316,180.407344 641.513474,180.332245 C642.202371,180.033776 642.77503,179.567229 643.20639,179 Z M648,178 L645,177.151928 C645.084873,176.792206 645.123331,176.421311 645.115374,176.044965 L647.689948,176 L648,178 Z M648.340674,178.489855 L648,176.246156 L661.726423,176 L664,183 L648.340674,178.489855 Z M648,182 L644,179.05944 C644.218698,178.731944 644.389446,178.374792 644.506914,178 L647.500698,178.828838 L648,182 Z M668,197 L648.564699,182.609698 L648,179 L663.412811,183.303209 L668,197 Z M684.781648,208 L668.704421,196.531734 L664,183 L704.540824,193.901828 C704.247193,195.13894 704.32735,196.472478 704.868059,197.731407 C704.907449,197.825409 704.95703,197.912678 705,198.002909 L684.781648,208 Z M713,230 L685,209.231305 L704.897274,199 C706.074079,201.221468 708.402565,202.488854 710.797415,202.362754 L713,230 Z M725,223.365355 L714.745267,230 L713.260482,228.937912 L711,201.593648 C711.617227,201.531316 712.238061,201.381067 712.839746,201.133373 C712.936604,201.092817 713.027357,201.043823 713.121439,201 L725,223.365355 Z M725.797796,224 L714,201.52524 C714.733376,201.131807 715.360997,200.609055 715.870716,200 L737,216.666956 L725.797796,224 Z M715,230.502357 L724.988229,224 L735,242.961741 C734.511387,243.23454 734.092029,243.58837 733.755064,244 L715,230.502357 Z M714,231.843423 L715.289844,231 L734.432357,244.843988 C733.598684,246.03801 733.375463,247.613226 733.984248,249.050077 C734.226371,249.620352 734.575241,250.112624 735,250.51642 L717.283543,272 L714,231.843423 Z M713.74392,232 L717,271.855821 L701.22176,291 L687,249.503141 L713.74392,232 Z M714,230 L715,231.107343 L714.107652,232 L714,230 Z M675,214.078391 L685.201371,209 L713.838047,229.56072 L714,231.506739 L687.061759,249 L675,214.078391 Z M661.245551,262.873226 L655,223.582652 L673.976772,214 L686,249.310514 L663.703056,264 C663.128585,263.225772 662.199706,262.807656 661.245551,262.873226 Z M654.782743,224 L661,263 L652,225.400621 L654.782743,224 Z M669,197 L685,208.073104 L674.732952,213 L669,197 Z M674,214.37412 L655.369664,224 L649,183 L668.361573,197.430117 L674,214.37412 Z M633.933983,234.03846 L651.927222,225 L661,262.80955 C660.900856,262.837888 660.802266,262.857422 660.706722,262.897316 C659.251411,263.505896 658.57042,265.167661 659.180792,266.610425 C659.283536,266.853637 659.426713,267.067135 659.584845,267.265226 L627,296 L633.933983,234.03846 Z M597,253.429874 L633,235 L626.181376,297.100514 L605.154906,316 L597,253.429874 Z M566,268.61942 L596.786727,253 L605,315.448622 L589.78382,329 L566,268.61942 Z M552,276.07624 L566.026462,269 L590,329.517629 L583.808862,335 L552,276.07624 Z M547.322552,269 L551,275.92281 L531.337773,286 C531.239336,285.828111 531.12794,285.670475 531,285.524859 L547.322552,269 Z M485,264.520469 L494.891426,246 L527,285.141968 C526.735598,285.388762 526.525599,285.679059 526.372996,286 L486.879923,269.780567 C487.244156,268.782448 487.253949,267.649988 486.811374,266.591676 C486.432724,265.685489 485.783959,264.979582 485,264.520469 Z M442,310.121434 L479.193381,271 C479.438743,271.233529 479.710726,271.434677 480,271.605638 L450.06207,327 L442,310.121434 Z M425,361.849067 L431.960673,321.825341 L442.008817,311 L450,328.140954 L430.0284,366 L425,361.849067 Z M424.960408,361 L430,365.067986 L423.021934,378 C422.696648,377.839193 422.35398,377.719278 422,377.641084 L424.960408,361 Z M418,356 L425,361.570529 L422.03577,378 C421.695993,377.951136 421.348563,377.938717 421.000586,377.972463 L418,356 Z M406,348.532355 L407.414953,347 L417.013055,354.958155 L420,377.73312 C419.692623,377.787433 419.387925,377.874831 419.088856,378 L406,348.532355 Z M405.379211,349 L419,378.455048 C418.691518,378.608299 418.405431,378.789212 418.149855,379 L398,356.671369 L405.379211,349 Z M347.15906,299 L378,323.8282 L376.291288,332 L347,299.186735 C347.059056,299.127737 347.107247,299.062059 347.15906,299 Z M343.301852,294.577806 C343.050213,294.683767 342.833245,294.835691 342.632529,295 L322,271.943634 L346,260 L344.331433,294.360929 C343.986344,294.367259 343.639628,294.433864 343.301852,294.577806 Z M321.949562,272 L343,295.002807 C342.302812,295.707497 342.024654,296.744403 342.300055,297.728997 L264,324 L275.296702,294.699897 L321.949562,272 Z M322,272.229776 L276,295 L295.705436,243 L322,272.229776 Z M300.446956,228 L347,246.336278 L346.365419,259.050071 L321.658743,271 L295,242.042441 L300.446956,228 Z M275.950338,218 L301,227.972017 L295.616496,242 L275,219.370155 C275.405673,218.974357 275.725578,218.507546 275.950338,218 Z M324.693144,134 L333,143.653686 L300.616603,228 L275.629184,218.060049 C275.985722,217.064846 275.989024,215.943665 275.548302,214.893844 C275.211296,214.095706 274.663558,213.452365 274,212.99456 L324.693144,134 Z M343.395888,116 L340,109.664295 L353.775968,88 C353.848663,88.0419096 353.92244,88.0840914 354,88.1183812 L343.395888,116 Z M352.84905,133 L344,116.12058 L354.466953,88 C354.640583,88.0582021 354.81897,88.0965502 355,88.1169481 L352.84905,133 Z M396,212.001716 L395.126653,213 L357.091632,142.439254 L355,88.0740591 C355.162566,88.0619454 355.323482,88.0407463 355.485498,88 L396,212.001716 Z M431.243633,116 L358,86.877961 C358.143066,86.4555557 358.18571,86.0040001 358.115278,85.5513444 L421.73416,72 L439,90.6963837 L431.243633,116 Z M449,123 L431,115.839915 L438.610089,91 L447.652586,100.795996 L449,123 Z M468.246569,130 L450.342968,122.928766 L449,101 L472,125.736713 L468.246569,130 Z M478,132.851109 C477.661962,133.1893 477.382496,133.57874 477.171362,134 L468,130.31679 L471.736822,126 L478,132.851109 Z M479,132.450591 C478.724774,132.607152 478.471975,132.793177 478.241051,133 L472,125.946648 L474.469562,123 L479,132.450591 Z M480,131.70282 C479.771423,131.760676 479.542592,131.836876 479.318586,131.941298 C479.280998,131.95936 479.247473,131.981656 479.210139,132 L475,122.642642 L477.863819,119 L480,131.70282 Z M485.14589,135 C484.338389,133.098888 482.353807,132.055113 480.394887,132.349518 L478,119.575724 L495.149131,100 L507,126.673451 L485.14589,135 Z M485.025397,134 C485.017391,133.979069 485.008834,133.958137 485,133.936411 L506.650648,126 L508,128.920845 L485.025397,134 Z M522,160.446175 L457.086479,195 C456.814245,194.564203 456.435138,194.228425 456,194.001733 L479.916213,140.376149 C480.94666,140.796009 482.13591,140.823487 483.242889,140.356091 C485.246658,139.510051 486.285578,137.333263 485.781834,135.276553 L508.575215,130 L522,160.446175 Z M522.551333,160 L509,129.500983 L546,121 L537.974754,151.852212 L522.551333,160 Z M531.637198,172.688796 C530.392252,172.396187 529.04923,172.473851 527.778603,173 L522,159.950477 L537,152 L531.637198,172.688796 Z M562.438341,194.767655 L545.326832,217 L533,185.623251 C536.22268,184.247605 537.735607,180.507878 536.378386,177.25906 C536.203491,176.836548 535.98446,176.446028 535.734179,176.082259 L579.966253,142 C580.254091,142.335086 580.603881,142.601776 581,142.770836 L562.438341,194.767655 Z M585,165.246957 L563,194 L581.098218,143 C581.424704,143.09884 581.76697,143.135182 582.113318,143.10765 L585,165.246957 Z M585.781492,165 L583,143.15306 C583.183217,143.116941 583.363509,143.061797 583.542737,142.983493 C584.03362,142.770361 584.424518,142.421024 584.711974,142 L597,149.979333 L585.781492,165 Z M560.523942,255 L550,228.631728 L562.519061,194.116713 L585.284434,165 L593,222.877993 L560.523942,255 Z M561,256.280888 L593.159129,224 L597,253.248193 L566.00186,269 L561,256.280888 Z M560.965047,256 L566,268.779027 L551.763821,276 L548,268.988533 L560.965047,256 Z M541,255.117617 L550.503384,229 L561,255.212553 L548.027673,268 L541,255.117617 Z M540.186403,256 L547,268.713734 L530.774601,285 C530.543067,284.791223 530.28423,284.620031 530,284.499593 L540.186403,256 Z M529.786996,239.266222 C530.120572,239.253216 530.455253,239.190673 530.780821,239.055071 C530.815614,239.03985 530.845714,239.016051 530.880507,239 L540,255.972639 L529.597841,285 C529.403991,284.942715 529.204067,284.903972 529,284.889581 L529.786996,239.266222 Z M506.585929,224 L527.632496,235.076845 C527.312488,235.772761 527.266418,236.590627 527.586977,237.35206 C528.015677,238.36813 528.969355,238.99495 530,239.070102 L529.213223,284.452462 C528.882732,284.466226 528.547276,284.528165 528.222303,284.664155 C528.012091,284.752796 527.821466,284.86924 527.644082,285 L495,245.520813 L506.585929,224 Z M480.66733,263.80429 L455,198.287776 C455.173827,198.206736 455.334849,198.110535 455.481976,198 L494,245.228111 L484.032716,264 C483.013728,263.493635 481.807562,263.394126 480.66733,263.80429 Z M436,297.483641 L442.171304,263 L477.914921,267.74643 C477.81016,268.493386 477.894953,269.277105 478.210603,270.024607 C478.407542,270.489446 478.678333,270.899823 479,271.253559 L442.004726,310 L436,297.483641 Z M432,321 L436.08188,298 L442,310.439626 L432,321 Z M415,339.119937 L431,322 L424.168063,361 L417.13729,355.236644 L415,339.119937 Z M415.807794,339 L418,355 L408,347.075456 L415.807794,339 Z M395.833574,214 L398,217.845845 C397.91832,217.894553 397.839614,217.944556 397.764966,218 L395,214.91379 L395.833574,214 Z M418,156.721822 L403.800377,203.278142 L396.213172,212 L356,88.4439639 C356.040741,88.4302274 356.083397,88.4247328 356.124138,88.4071501 C356.371048,88.3024779 356.583232,88.1585193 356.783384,88 L418,156.721822 Z M451,149.255375 L432.099705,171 L419,156.282014 L431.27587,116 L449.430169,123.261435 L451,149.255375 Z M451.576937,150 L450,124 L468,131.173538 L451.576937,150 Z M454.685536,193.808101 L452,149.921695 L468.665695,131 L477.879154,134.635611 C477.432397,135.685684 477.393548,136.906181 477.874714,138.038851 C478.303434,139.053133 479.075685,139.821553 480,140.271427 L455.720014,194 C455.392022,193.87528 455.042941,193.806449 454.685536,193.808101 Z M445.52584,246 L402,221.020066 C402.340674,220.339794 402.410076,219.533759 402.128338,218.771204 L452.128084,197 C452.516127,197.768884 453.209042,198.292848 454,198.481354 L445.52584,246 Z M445.755422,247 L479,265.893202 C478.814762,266.241469 478.679374,266.612917 478.596017,267 L443,262.302712 L445.755422,247 Z M418,260 L442,263.246117 L435.895011,298 L418,260 Z M417.549497,259.784389 L436,297.947224 L431.720142,321.682901 L415.057946,339 L404,258 L417.549497,259.784389 Z M401,222.933258 C401.425052,222.70278 401.780697,222.384315 402.031675,222 L446,247.165876 L443.169836,263 L418.642023,259.740375 L401,222.933258 Z M400,223.160802 C400.181229,223.125431 400.362182,223.072102 400.538163,223 L418,259 L404.668038,257.250499 L400,223.160802 Z M399.412597,223.019569 L404,257 L392,255.402126 L398.777037,223 C398.98626,223.032072 399.198476,223.036692 399.412597,223.019569 Z M432,171.57879 L451.302451,150 L454,193.404383 C453.736167,193.435096 453.473177,193.488021 453.215519,193.592775 C452.963194,193.697529 452.742304,193.840949 452.537693,194 L432,171.57879 Z M404.362866,203.445909 L431.927959,172 L452,194.360135 C451.239019,195.118858 450.962099,196.272281 451.354402,197.330111 L401.476633,219 C401.154109,218.362618 400.626367,217.889033 400,217.641421 L404.362866,203.445909 Z M405,203 L418.939144,157 L432,171.757112 L405,203 Z M398,216.912078 C397.968861,216.924945 397.937722,216.92977 397.908141,216.945853 C397.878559,216.960596 397.85387,216.983649 397.824733,217 L396,212.920763 L396.667037,212 L398,216.912078 Z M397,212.599858 L404,204 L400.003547,218 C399.565337,217.872714 399.099657,217.859957 398.639787,217.982424 L397,212.599858 Z M454.814998,199 L481,264.306955 C480.152274,264.675403 479.477707,265.274095 479.021324,266 L445,246.684125 L453.572315,199.126662 C453.980613,199.174745 454.402809,199.136828 454.814998,199 Z M507.033381,224 L457,197.641457 C457.231614,197.13625 457.316189,196.56948 457.223323,196.001881 L524.956124,181 C525.034619,181.316928 525.131355,181.631094 525.260152,181.940292 C525.829514,183.294136 526.815672,184.343751 528,185.016808 L507.033381,224 Z M494.578319,246 L456,198.623452 C456.199339,198.438356 456.367506,198.229985 456.504501,198 L506,224.455155 L494.578319,246 Z M530.71261,233.632448 C530.384565,233.649535 530.055959,233.709617 529.737728,233.840529 C529.148648,234.08444 528.692469,234.500328 528.387135,235 L507,223.911305 L528.267413,185 C529.111077,185.417266 530.044744,185.653184 531,185.682398 L530.71261,233.632448 Z M531.44832,234 C531.021326,233.708791 530.520146,233.542583 530,233.509121 L530.285592,185.395746 C530.987022,185.381641 531.695145,185.251939 532.387371,185 L545,216.647205 L531.44832,234 Z M545,216.285223 L562,195 L549.77569,228 L545,216.285223 Z M550,228.936186 L540.765901,255 L532,238.499062 C533.150019,237.784693 533.65189,236.315267 533.114191,235.018152 C532.94286,234.605806 532.680206,234.266918 532.366368,233.991657 L545.347122,217 L550,228.936186 Z M524.471173,180.06978 L457.173558,195 C457.141977,194.888462 457.11836,194.775275 457.072224,194.664835 C457.052726,194.618956 457.022519,194.580769 457,194.535714 L522.19762,160 L528,173.09533 C525.33347,174.355769 523.917545,177.257692 524.471173,180.06978 Z M357.560675,87 L431,115.9419 L418.609441,156 L357,87.8092159 C357.236901,87.574811 357.423333,87.2980603 357.560675,87 Z M394.979855,215 L397.768229,218.252429 C396.944842,219.045024 396.644,220.286544 397.112222,221.403746 C397.465732,222.245792 398.18075,222.817654 399,223.038387 L392.125576,256 L364.836623,252.354174 C364.81539,252.0478 364.75831,251.743083 364.63312,251.445273 C364.482837,251.084199 364.263892,250.769813 364,250.511785 L394.979855,215 Z M359,173 L394,214.501488 L363.517265,250 C363.051448,249.632071 362.484012,249.41501 361.892188,249.397082 L359,173 Z M358.918436,251.72958 C358.709631,252.384256 358.706369,253.113638 358.980425,253.797684 C358.986134,253.811656 358.995922,253.823631 359,253.836177 L347,260 L347.611732,247 L358.918436,251.72958 Z M352.065654,165 L359.022056,173.005652 L362,249.384112 C361.707593,249.406879 361.411298,249.46311 361.124167,249.581881 C360.441328,249.865505 359.936766,250.384476 359.64658,251 L348,246.411 L352.065654,165 Z M351,165.0016 L346.985403,247 L301,228.516939 L333.115406,144 L351,165.0016 Z M353,134.24061 L355.086374,90 L357,142 L353,134.24061 Z M358,143 L396,212.975392 L395.097906,214 L359.138061,172.377225 L358,143 Z M359,172 L352,164.133021 L353.490983,135 L357.832349,142.765261 L359,172 Z M333.110541,143 L325,133.31242 L339.558919,110 L343,116.534947 L333.110541,143 Z M342.843162,117 L352,134.282234 L350.560123,164 L333,143.167624 L342.843162,117 Z M364.525964,252 L392,255.636603 L383.081934,298 L363,254.380106 C363.919977,253.899664 364.481427,252.984366 364.525964,252 Z M403,343 L378,322.792909 L382.95485,299 L403,343 Z M407,347.569365 L405.719923,349 L404,345 L407,347.569365 Z M403.708365,344.043352 L383,298.590078 L391.873878,256 L404.067069,257.631282 L415,338.942537 L407.364458,347 L403.708365,344.043352 Z M579.612003,140.959656 C579.68717,141.135076 579.779195,141.298549 579.884762,141.449259 L535.304885,175 C534.457039,173.924121 533.294429,173.161882 532,172.797191 L537.495244,151.981573 L573.975543,133 L580,138.164326 C579.389264,138.937427 579.20024,139.993754 579.612003,140.959656 Z M331.546551,94 L340,109.663161 L325.053006,133 L301,104.987166 L331.546551,94 Z M352.024631,87 C352.036067,87.0280287 352.039879,87.0568817 352.049954,87.0829869 C352.257173,87.5817324 352.594549,87.9815532 353,88.2736559 L339.216303,110 L331,94.633417 L352.024631,87 Z M330.805487,94 L326,85 L351.906381,85.6647712 C351.913225,85.8747426 351.947716,86.0838841 352,86.2935788 L330.805487,94 Z M279.704895,112.40264 L300.154683,105 L324,132.957024 L273.710442,212 C273.187004,211.690802 272.605225,211.489426 272,211.420563 L279.704895,112.40264 Z M239.157057,155 L227,131.993879 L260,120 L239.157057,155 Z M239,154.936188 L259.92878,119.907047 L279,113 L271.334035,211.562156 C270.716749,211.534808 270.083984,211.636817 269.475389,211.895257 C269.399348,211.926433 269.328196,211.965815 269.2546,212 L239,154.936188 Z M267.89985,215 L209,204.994876 L239.293911,155 L270,212.110101 C268.89201,212.747756 268.148374,213.812528 267.89985,215 Z M345,294.331167 L346.680807,259.995325 L358.824459,254 C359.507202,255.188504 360.953825,255.724207 362.250385,255.214496 L382,298.791614 L376.982816,323 L347.064239,298.691478 C347.567884,297.930332 347.696238,296.939091 347.318232,296.033759 C346.905493,295.041424 345.992908,294.426379 345,294.331167 Z M336.551934,358.438203 L306,361 L342.913478,299 C343.250384,299.181293 343.617177,299.289848 344,299.320982 L342.837675,352.040324 C342.028285,352.041701 341.205039,352.201504 340.413039,352.538742 C337.999814,353.566712 336.550847,355.94143 336.551934,358.438203 Z M398,356.555714 L363,393 L375.875718,332 L398,356.555714 Z M376,331.123288 L377.727673,323 L403.84313,343.682322 L406,348.321302 L398.572486,356 L376,331.123288 Z M486.660262,270 L526.272407,286.350627 C526.054957,286.989757 526.050046,287.703915 526.329702,288.373939 C526.650284,289.147957 527.274258,289.691092 528,289.948179 L523.172451,307 L486,271.052343 C486.270925,270.732916 486.491922,270.379561 486.660262,270 Z M531.727614,285.933408 C531.721857,285.919958 531.713084,285.908978 531.707326,285.896901 L551.255578,276 L583,335.023738 L574.024906,343 L531,289.12578 C531.872095,288.343471 532.206567,287.073659 531.727614,285.933408 Z M740.459013,243 C739.264427,242.079016 737.625608,241.807433 736.136045,242.43477 C736.074603,242.461466 736.01887,242.492519 735.958787,242.520849 L726,223.365147 L737.143858,216 L753,228.629002 L740.459013,243 Z M741.460519,246 C741.415695,245.592026 741.313242,245.179465 741.138959,244.781204 C740.874195,244.170592 740.477745,243.654689 740,243.240509 L752.848721,229 L772,243.754524 L771.307882,245.356739 L741.460519,246 Z M772.513289,245 L774,245.964624 L772,246 L772.513289,245 Z M771,246 L764.568079,261 L741,248.577761 C741.281398,247.975182 741.42404,247.315162 741.401284,246.641866 L771,246 Z M449.146351,67 L468.47574,68.5679273 L470,77 L449,67.6187157 C449.07069,67.4196184 449.117633,67.2110946 449.146351,67 Z M449.11878,68 L470.116838,77.0943435 L478,119.371314 L474.836778,123 L448,69.1814006 C448.495108,68.8988739 448.875603,68.4849585 449.11878,68 Z M389.7106,34 L414,47.6132196 L405.658547,53 L389,34.9727283 C389.282911,34.6804674 389.51987,34.352538 389.7106,34 Z M85,181.774669 L200.953933,90 C201.246635,90.3284259 201.600613,90.5895806 202,90.7501018 L188.644867,130.01491 L85.1307583,182 C85.0867163,181.923431 85.0486924,181.844675 85,181.774669 Z M0.2212577,52.8692381 C0.82753982,54.31003 2.48650571,54.9869028 3.92845172,54.3814243 C4.93800623,53.9582757 5.55994675,53.0139488 5.64126052,51.9924611 L193.360435,56.2093929 L202.297808,85.6966116 C202.254404,85.7114397 202.210176,85.7191283 202.167871,85.7358785 C200.727848,86.3419063 200.049592,87.9999016 200.654775,89.4398697 C200.736364,89.6326343 200.837731,89.8080995 200.953658,89.9728556 L84.5079331,182.125322 C84.1461418,181.718924 83.679137,181.431425 83.1626846,181.284243 L82.8569338,181.210926 C82.3489974,181.127999 81.8135901,181.174131 81.3042802,181.387764 C79.8628836,181.992694 79.186276,183.651788 79.7920087,185.092305 C80.3960932,186.533097 82.0558832,187.210793 83.496181,186.605315 C84.3692052,186.238733 84.955983,185.484424 85.1534986,184.627418 L165.666775,198.391415 L106.678849,371.812563 C105.326458,371.419619 103.838086,371.46685 102.439269,372.055303 C99.1946848,373.416463 97.6727986,377.150385 99.0342549,380.390588 C100.396535,383.63134 104.129827,385.156706 107.374411,383.794723 C109.908324,382.729026 111.386257,380.217319 111.263463,377.624059 L247.600845,366.353645 L154.801222,608.52613 C153.442512,608.124399 151.943427,608.170531 150.536094,608.76228 C147.291235,610.124813 145.769349,613.858185 147.131354,617.098663 C148.492811,620.338866 152.226377,621.864232 155.471236,620.500601 C158.713348,619.139991 160.237982,615.406069 158.875701,612.165317 C158.546875,611.37943 158.074376,610.696242 157.504905,610.128108 L341.286679,416.872251 L338.060775,506.898815 C337.248461,506.902385 336.422412,507.059727 335.626856,507.393907 C332.383645,508.755891 330.860385,512.490911 332.221841,515.73029 C333.584396,518.971042 337.317962,520.496409 340.561998,519.134151 C343.804934,517.772716 345.329018,514.037971 343.966737,510.797219 C343.423638,509.507453 342.500617,508.493105 341.384475,507.8209 L418.842991,386.029364 C419.992098,386.700196 421.429374,386.846555 422.752096,386.291601 C423.742146,385.875318 424.497321,385.136112 424.951689,384.249999 L488.463243,413.911035 C488.011622,414.963552 487.971515,416.187415 488.450057,417.325056 C489.385166,419.552283 491.952319,420.600956 494.181855,419.664317 C496.412215,418.728778 497.460778,416.161054 496.523197,413.933552 C496.382271,413.596626 496.199315,413.28963 495.989987,413.010643 L567.656819,349.420564 L612.722508,392.508672 C611.606642,393.730338 611.229741,395.532495 611.913216,397.15699 C612.849698,399.385041 615.415753,400.433714 617.646387,399.497075 C619.877022,398.560437 620.924212,395.994087 619.98718,393.76631 C619.712746,393.115523 619.299035,392.569632 618.797417,392.139618 L688.686609,306.697117 L722.18761,357.29261 C721.168166,358.051037 720.750334,359.427025 721.265963,360.649515 C721.870322,362.090581 723.529013,362.768827 724.971509,362.163348 C726.41263,361.558419 727.089787,359.898776 726.484879,358.458259 C726.207148,357.798685 725.704431,357.309909 725.10639,357.019938 L764.909759,261.991105 L853.389589,309.739338 C853.060762,310.439277 853.009666,311.264979 853.333273,312.034116 C853.938457,313.474084 855.596873,314.15178 857.039918,313.545753 C858.479666,312.940823 859.157922,311.282004 858.552739,309.842311 C857.9764,308.472089 856.449844,307.805925 855.063389,308.2623 L830.251698,245.030565 L988.357274,241.517142 C988.381448,241.811781 988.437763,242.107243 988.559185,242.392821 C989.163544,243.832789 990.822784,244.511858 992.264456,243.90638 C993.706127,243.300901 994.383009,241.640434 993.779199,240.200466 C993.172917,238.760773 991.512853,238.082252 990.072005,238.68828 C989.362708,238.986214 988.84186,239.538971 988.564953,240.192229 L806.108649,174.54517 C806.403411,173.5959 806.380336,172.540912 805.965251,171.5532 C805.028769,169.324325 802.463264,168.275652 800.232904,169.211741 C798.567345,169.91168 797.56301,171.519425 797.549,173.215039 L694.633228,174.979577 L637.370198,102.365258 C638.268495,101.585138 638.618749,100.298119 638.133064,99.1418058 C637.527331,97.7018377 635.867266,97.0244157 634.426145,97.6301688 C633.169627,98.1571137 632.495492,99.4844985 632.74273,100.770145 L615.01248,104.852526 L591.503184,38.9723376 C592.9259,38.3583467 593.595365,36.7113351 592.993204,35.2785064 C592.387471,33.8390875 590.727406,33.1622146 589.286284,33.7665948 C587.896258,34.3509297 587.227342,35.9158378 587.725939,37.3187358 L521.598883,70.6876077 C520.880519,69.5192125 519.404509,69.0084687 518.099918,69.5571064 C517.182116,69.9423611 516.579954,70.7557069 516.415129,71.6662588 L481.752384,68.9510787 L460.503666,21.0339707 C461.809356,20.3661594 462.407122,18.8042718 461.829959,17.4291077 C461.224776,15.9905126 459.564162,15.3122667 458.122491,15.9171961 C457.128045,16.3362257 456.509126,17.2596835 456.414077,18.2635972 L456.394023,18.5799289 C456.396221,18.6809793 456.409957,18.7801075 456.423417,18.8844531 L389.596403,31.2554376 C389.546956,31.0739313 389.488992,30.8940726 389.414821,30.7158615 C388.478339,28.4880847 385.911461,27.4385885 383.681375,28.3755014 C383.36601,28.5081301 383.076192,28.6756321 382.811373,28.8678475 L382.559465,29.0592391 C382.192729,29.367333 381.888901,29.7319931 381.643861,30.1309774 L381.487277,30.4044725 C381.179878,30.9997911 381.012031,31.6629343 381.000493,32.340631 L381.009009,32.6555897 C381.02714,32.9576425 381.07384,33.2596953 381.155154,33.558453 L314.645429,57.6059753 C314.160568,56.4672362 313.012835,55.8213924 311.839829,55.9059671 L311.525836,55.936447 C311.375571,55.9636318 311.228602,56.0119602 311.081907,56.0652314 L310.789617,56.1912697 C310.762696,56.2071962 310.734401,56.222848 310.706106,56.2384998 L310.430848,56.3911738 C310.365467,56.4364817 310.311075,56.4927734 310.250913,56.5413764 L310.010269,56.7459485 C309.780612,56.9851194 309.602326,57.2619097 309.468818,57.5587452 L181.585046,8.48861924 C181.632845,8.29063736 181.665536,8.08661442 181.668557,7.87874717 L181.64768,7.56214091 C181.621308,7.28233017 181.567739,7.00087187 181.452911,6.72765138 C181.131227,5.96345778 180.512583,5.42333244 179.788451,5.16713675 L179.257989,5.03286054 C178.761041,4.95872031 178.241566,5.00622498 177.746816,5.21436682 C176.557877,5.71467611 175.901598,6.93057595 176.043622,8.14922172 L118.344354,22.6252398 L118.001243,22.7133843 L5.52093811,50.9347271 C5.49456607,50.8493286 5.47671001,50.762557 5.44209671,50.6771585 C5.40748341,50.5936821 5.35638759,50.5198164 5.31325833,50.4429303 L6.16045998,49.556268 L5.01794646,49.9942445 C5.00833166,49.9846338 4.99926627,49.9725517 4.99047559,49.9640393 L4.7825211,49.7262413 C4.68966956,49.6369984 4.58747792,49.5606615 4.48253919,49.4867958 L4.21634645,49.3190192 C3.4798524,48.9054815 2.57331366,48.8121197 1.73627623,49.1635993 C0.293506091,49.7696271 -0.383376168,51.4295446 0.2212577,52.8692381 Z" id="Fill-4"></path>
        </g>
    </g>
</svg>