<?xml version="1.0" encoding="UTF-8"?>
<svg width="270px" height="270px" viewBox="-153 -54 270 270" version="1.1" xmlns="http://www.w3.org/2000/svg" xmlns:xlink="http://www.w3.org/1999/xlink">
    <!-- Generator: sketchtool 49 (51002) - http://www.bohemiancoding.com/sketch -->
    <title>Big-Data-and-Analytics</title>
    <desc>Created with sketchtool.</desc>
    <defs></defs>
    <g id="Homepage" stroke="none" stroke-width="1" fill="none" fill-rule="evenodd" opacity="0.05">
        <g id="Homepage-V1-Copy-2" transform="translate(-291.000000, -913.000000)" fill="#000000" fill-rule="nonzero">
            <g id="Group-8" transform="translate(135.000000, 860.000000)">
                <g id="Shape">
                    <path d="M271.752519,94.8133614 C270.825729,82.8227889 265.730186,71.6508209 257.517095,63.8253946 C249.927874,56.5841707 240.257883,52.7363689 230.3012,53.0140453 C215.681717,53.4089228 202.405538,62.7237044 195.541161,77.0943605 C192.21806,75.8303919 188.822834,75.2317648 185.404169,75.3291319 C168.806692,75.7690867 155.620669,91.2955258 156.008334,109.94312 C156.204871,119.582458 160.076113,128.695293 166.628555,134.946619 C172.08111,140.150347 178.981549,142.988417 186.033448,142.988417 C186.267851,142.988417 186.502253,142.98481 186.736655,142.981204 L189.30426,142.981204 C189.426871,142.981204 189.529647,142.918096 189.648651,142.907277 L189.65406,152.218453 C189.655864,153.563561 190.369889,154.813104 191.53649,155.489265 L221.498497,172.999107 L221.498497,177.761077 L181.280494,177.761077 C179.185299,177.761077 177.486785,179.457788 177.486785,181.554786 L177.486785,191.309522 C172.088322,192.950337 168.12332,197.916057 168.12332,203.83922 C168.12332,211.096672 174.024845,217 181.280494,217 C188.536142,217 194.437668,211.098475 194.437668,203.83922 C194.437668,197.916057 190.472665,192.950337 185.076006,191.309522 L185.076006,185.346692 L221.498497,185.346692 L221.498497,191.228383 C215.968409,192.784453 211.877189,197.820493 211.877189,203.83922 C211.877189,211.096672 217.778715,217 225.030757,217 C232.284603,217 238.187931,211.098475 238.187931,203.83922 C238.187931,198.011621 234.349145,193.112616 229.084112,191.390661 L229.084112,172.743067 L259.031693,155.821034 C260.225341,155.14848 260.961003,153.884511 260.961003,152.51416 L260.953791,142.847775 C261.076401,142.858594 261.179178,142.918096 261.301788,142.918096 L267.132993,142.918096 C279.208311,142.593539 288.806178,131.381903 288.523092,117.934431 C288.301312,106.715582 281.299899,97.3449049 271.752519,94.8133614 Z M186.848447,203.842826 C186.848447,206.917101 184.351162,209.414385 181.280494,209.414385 C178.209825,209.414385 175.712541,206.917101 175.712541,203.842826 C175.712541,200.775764 178.209825,198.278479 181.280494,198.278479 C184.351162,198.278479 186.848447,200.773961 186.848447,203.842826 Z M225.041576,134.775325 L223.426004,133.832307 L216.765376,129.941231 L241.016985,115.970862 L249.532996,120.9474 L225.041576,134.775325 Z M209.217626,125.532667 L201.053218,120.761682 L225.539229,106.931954 L233.469235,111.562298 L209.217626,125.532667 Z M197.241478,150.038513 L197.23066,127.314124 L207.324378,133.215649 C207.327984,133.215649 207.33159,133.215649 207.335196,133.219255 L208.18806,133.715106 L221.222623,141.327767 L221.22623,147.568274 L221.237048,164.057565 L197.241478,150.038513 Z M225.030757,209.414385 C221.963695,209.414385 219.46641,206.917101 219.46641,203.842826 C219.46641,200.775764 221.963695,198.278479 225.030757,198.278479 C228.101425,198.278479 230.602316,200.775764 230.602316,203.842826 C230.602316,206.917101 228.101425,209.414385 225.030757,209.414385 Z M228.824466,164.17116 L228.810041,143.801612 L228.810041,141.363829 L236.913144,136.789381 L253.359161,127.501646 L253.373586,150.303567 L228.824466,164.17116 Z M267.033823,135.332481 L261.303591,135.332481 C261.180981,135.332481 261.074598,135.391983 260.951988,135.402802 L260.944776,120.99969 C260.944776,120.803153 260.919532,120.660708 260.885274,120.548917 C260.741026,119.380512 260.095519,118.331111 259.064149,117.728878 L227.481161,99.2778212 C226.316363,98.5980549 224.875691,98.5836302 223.701877,99.2489717 L191.567143,117.400715 C190.384313,118.069663 189.648651,119.319207 189.639636,120.678739 C189.639636,120.685952 189.641439,120.693164 189.641439,120.69677 C189.641439,120.700376 189.639636,120.700376 189.639636,120.703983 L189.646848,135.462304 C189.526041,135.451485 189.425068,135.395589 189.30426,135.395589 L186.635682,135.395589 C181.280494,135.525412 176.028082,133.426611 171.868345,129.459805 C166.769196,124.596862 163.754424,117.422352 163.601161,109.79166 C163.298241,95.3038029 173.171982,83.2447128 185.611525,82.9183529 C188.9779,82.8263951 192.365913,83.6972893 195.678196,85.5039891 C195.679999,85.5039891 195.679999,85.5039891 195.683605,85.5039891 C195.683605,85.5075953 195.683605,85.5075953 195.683605,85.5075953 C200.173309,87.9543933 202.84369,93.6810187 203.305282,96.9644521 C203.568534,98.8631097 205.196727,100.229855 207.055717,100.229855 C207.23242,100.229855 207.40732,100.219036 207.587629,100.193793 C209.66299,99.9016916 211.109071,97.9850031 210.818773,95.9078393 C210.254405,91.8833343 207.50649,85.1487797 202.189167,80.8177488 C207.769742,68.7604619 218.613547,60.9206108 230.503146,60.5996602 C238.429546,60.3959106 246.164817,63.4810038 252.280911,69.3122085 C258.820731,75.5527155 262.99309,84.3914804 264.046097,94.1786725 C263.584505,94.1822787 263.1157,94.1894911 262.587394,94.2039158 C260.492199,94.2598117 258.840565,95.999797 258.896461,98.0949918 C258.948751,100.190187 260.681524,101.814774 262.791143,101.785924 C265.676093,101.711998 267.295271,101.789531 268.088632,101.852639 C275.263142,102.72173 280.766184,109.611351 280.935674,118.087694 C281.134015,127.384444 274.852037,135.117913 267.033823,135.332481 Z"></path>
                </g>
            </g>
        </g>
    </g>
</svg>