<?xml version="1.0" encoding="UTF-8"?>
<svg width="270px" height="270px" viewBox="-166 -69 270 270" version="1.1" xmlns="http://www.w3.org/2000/svg" xmlns:xlink="http://www.w3.org/1999/xlink">
    <!-- Generator: Sketch 48.2 (47327) - http://www.bohemiancoding.com/sketch -->
    <title>Enterprise</title>
    <desc>Created with Sketch.</desc>
    <defs></defs>
    <g id="Homepage-V1-Copy-3" stroke="none" stroke-width="1" fill="none" fill-rule="evenodd" transform="translate(-901.000000, -929.000000)" opacity="0.05">
        <g id="Group-8-Copy-2" transform="translate(735.000000, 860.000000)" fill="#000000" fill-rule="nonzero">
            <g id="Shape">
                <path d="M292.291093,107.622014 C290.840452,104.456412 289.121328,101.378222 287.183672,98.472778 C274.837614,80.0182111 254.264321,69 232.152973,69 C210.037463,69 189.464169,80.0182111 177.120193,98.4748593 C175.182536,101.378222 173.463412,104.456412 172.012771,107.622014 C168.755593,114.700393 166.801287,122.230405 166.206045,130.001845 L166.141526,130.855163 L166,130.855163 L166,139.355045 L166.206045,139.998155 C166.801287,147.767513 168.755593,155.297526 172.012771,162.377986 C173.463412,165.537344 175.180455,168.617615 177.120193,171.527222 C189.464169,189.981789 210.039544,201 232.152973,201 C254.262239,201 274.837614,189.981789 287.185753,171.525141 C289.125491,168.615534 290.842533,165.537344 292.293174,162.377986 C295.54619,155.307932 297.498415,147.77792 298.099901,139.998155 L298.174826,138.96793 C298.249752,137.665058 298.289296,136.407975 298.297621,135.14881 L298.297621,134.853271 C298.291377,133.592025 298.249752,132.334942 298.174826,131.088265 L298.099901,130.001845 C297.496334,122.219999 295.54619,114.689986 292.291093,107.622014 Z M186.092522,100.66643 C191.730666,93.1530675 199.185753,87.0716144 207.650253,83.0797502 L210.578591,81.697791 L208.817842,84.4138404 C205.240149,89.9458398 202.328461,96.6183719 200.168109,104.248285 L199.941252,105.055816 L199.11499,104.905965 C194.829667,104.123409 190.617189,103.182678 186.594106,102.110827 L185.274585,101.757012 L186.092522,100.66643 Z M174.837046,129.84575 C175.467669,122.983823 177.311669,116.35916 180.317014,110.15075 L180.65626,109.449364 L181.403434,109.665815 C186.344355,111.101887 191.632846,112.340239 197.121139,113.34549 L198.022326,113.511991 L197.86415,114.413178 C196.994182,119.401968 196.442647,124.636346 196.222033,129.968545 L196.186652,130.853082 L174.74339,130.853082 L174.837046,129.84575 Z M181.403434,160.332103 L180.65626,160.548555 L180.317014,159.847169 C177.311669,153.638759 175.469751,147.012015 174.837046,140.152169 L174.74339,139.144837 L196.18457,139.144837 L196.219952,140.029374 C196.440566,145.363654 196.992101,150.595951 197.862069,155.584741 L198.020245,156.485928 L197.119058,156.652429 C191.624521,157.659761 186.338111,158.898113 181.403434,160.332103 Z M207.648172,186.92025 C199.18159,182.924223 191.726503,176.84277 186.09044,169.331489 L185.272504,168.236744 L186.592025,167.88501 C190.621352,166.811078 194.83383,165.872428 199.112909,165.091954 L199.93917,164.942103 L200.166028,165.749633 C202.32638,173.379547 205.238068,180.052079 208.815761,185.584078 L210.57651,188.302209 L207.648172,186.92025 Z M227.857244,191.707157 L226.539804,191.089021 C221.72376,188.824606 217.226148,183.82541 213.531905,176.630481 C211.685824,173.011163 210.093657,168.998486 208.81368,164.709001 L208.499409,163.660044 L209.585828,163.528925 C215.213566,162.84627 221.043186,162.421692 226.908188,162.261435 L227.857244,162.23646 L227.857244,191.707157 Z M227.857244,153.632515 L226.956057,153.655409 C220.323069,153.819829 213.742112,154.302682 207.39842,155.093562 L206.528452,155.201788 L206.372357,154.340145 C205.560664,149.792583 205.044511,145.005676 204.832222,140.108462 L204.792678,139.144837 L227.857244,139.144837 L227.857244,153.632515 Z M227.857244,130.855163 L204.792678,130.855163 L204.832222,129.891538 C205.044511,124.994324 205.560664,120.205336 206.372357,115.659855 L206.528452,114.798212 L207.39842,114.906438 C213.744194,115.697318 220.323069,116.180171 226.956057,116.344591 L227.857244,116.367485 L227.857244,130.855163 Z M227.857244,107.765621 L226.908188,107.740646 C221.043186,107.580389 215.213566,107.15373 209.585828,106.473156 L208.499409,106.342037 L208.81368,105.29308 C210.093657,101.005676 211.681661,96.9950806 213.531905,93.3736815 C217.226148,86.1745897 221.72376,81.1753938 226.539804,78.9130599 L227.857244,78.2949246 L227.857244,107.765621 Z M256.653611,83.077669 C265.124356,87.0736957 272.57528,93.1551488 278.211343,100.664349 L279.02928,101.757012 L277.709758,102.110827 C273.680431,103.184759 269.467953,104.125491 265.188875,104.905965 L264.362613,105.055816 L264.135755,104.248285 C261.979566,96.6183719 259.067878,89.9458398 255.486022,84.4138404 L253.725273,81.6936285 L256.653611,83.077669 Z M236.448702,78.290762 L237.766142,78.9088974 C242.582186,81.1733125 247.079798,86.1725084 250.774041,93.3674377 C252.624285,96.9909181 254.212289,101.001514 255.492266,105.288917 L255.806537,106.337874 L254.720117,106.468994 C249.09238,107.151648 243.26276,107.576226 237.397758,107.736484 L236.448702,107.761459 L236.448702,78.290762 Z M236.448702,116.365404 L237.349889,116.34251 C243.982877,116.17809 250.563833,115.695237 256.907526,114.904356 L257.777494,114.796131 L257.933589,115.657774 C258.745282,120.205336 259.261435,124.992243 259.473724,129.889457 L259.513268,130.853082 L236.448702,130.853082 L236.448702,116.365404 Z M236.448702,139.142756 L259.513268,139.142756 L259.473724,140.106381 C259.261435,145.003595 258.745282,149.792583 257.933589,154.338063 L257.777494,155.199707 L256.907526,155.091481 C250.561752,154.300601 243.982877,153.817748 237.349889,153.653328 L236.448702,153.630434 L236.448702,139.142756 Z M237.766142,191.08694 L236.448702,191.705075 L236.448702,162.232297 L237.397758,162.257273 C243.26276,162.41753 249.09238,162.844189 254.720117,163.524762 L255.806537,163.655882 L255.492266,164.704839 C254.212289,168.996405 252.620122,173.007001 250.774041,176.624237 C247.079798,183.82541 242.580105,188.824606 237.766142,191.08694 Z M278.209262,169.331489 C272.577362,176.840689 265.126437,182.922142 256.65153,186.92025 L253.723192,188.30429 L255.483941,185.584078 C259.065796,180.052079 261.977485,173.379547 264.133674,165.749633 L264.360532,164.942103 L265.186793,165.091954 C269.457547,165.870347 273.670025,166.811078 277.707677,167.88501 L279.027198,168.236744 L278.209262,169.331489 Z M289.466818,140.152169 C288.836195,147.014096 286.992195,153.638759 283.98685,159.847169 L283.647604,160.548555 L282.90043,160.332103 C277.965754,158.898113 272.677262,157.659761 267.184807,156.650348 L266.28362,156.483847 L266.441796,155.582659 C267.307601,150.620926 267.859136,145.388629 268.083913,140.027293 L268.119294,139.142756 L289.560475,139.142756 L289.466818,140.152169 Z M268.119294,130.855163 L268.083913,129.970626 C267.861218,124.611371 267.307601,119.376993 266.441796,114.415259 L266.28362,113.514072 L267.184807,113.347571 C272.671018,112.342321 277.95951,111.103969 282.90043,109.667897 L283.647604,109.451445 L283.98685,110.152831 C286.992195,116.361241 288.834114,122.987985 289.466818,129.847831 L289.560475,130.855163 L268.119294,130.855163 Z"></path>
            </g>
        </g>
    </g>
</svg>