<?xml version="1.0" encoding="UTF-8"?>
<svg width="270px" height="270px" viewBox="-139 -59 270 270" version="1.1" xmlns="http://www.w3.org/2000/svg" xmlns:xlink="http://www.w3.org/1999/xlink">
    <!-- Generator: Sketch 48.2 (47327) - http://www.bohemiancoding.com/sketch -->
    <title>Managed-Services</title>
    <desc>Created with Sketch.</desc>
    <defs></defs>
    <g id="Homepage-V1-Copy-3" stroke="none" stroke-width="1" fill="none" fill-rule="evenodd" transform="translate(-574.000000, -919.000000)" opacity="0.05">
        <g id="Group-8-Copy" transform="translate(435.000000, 860.000000)" fill="#000000" fill-rule="nonzero">
            <g id="Shape">
                <path d="M143.077369,176.691799 L149.466531,177.816541 C150.208782,180.603589 151.311594,183.281848 152.74703,185.783467 L149.044753,191.094751 C147.703875,193.038928 147.933355,195.661557 149.591503,197.34332 L153.434373,201.18619 C155.116135,202.844337 157.738764,203.073817 159.682942,201.732939 L165.009847,197.999419 C167.531491,199.473016 170.2365,200.607544 173.05488,201.373647 L174.179622,207.762809 C174.589371,210.117634 176.632056,211.837443 179.022263,211.84 L184.458518,211.84 C186.848725,211.837443 188.891411,210.117634 189.301159,207.762809 L190.425902,201.373647 C193.214305,200.621016 195.892563,199.507701 198.392827,198.061905 L203.719732,201.795425 C205.66391,203.136303 208.286539,202.906823 209.968301,201.248675 L213.811171,197.405805 C215.469319,195.724043 215.698799,193.101414 214.357921,191.157236 L210.624401,185.830331 C212.07116,183.330543 213.184529,180.652156 213.936143,177.863406 L220.325305,176.738663 C222.68013,176.328915 224.399939,174.286229 224.402496,171.896022 L224.402496,166.412903 C224.399939,164.022696 222.68013,161.98001 220.325305,161.570262 L213.951764,160.414276 C213.200321,157.625468 212.086943,154.947059 210.640023,152.447351 L214.373543,147.120446 C215.71442,145.176268 215.48494,142.553639 213.826793,140.871877 L209.999544,136.982142 C208.317782,135.323995 205.695153,135.094515 203.750975,136.435392 L198.361584,140.200155 C195.86132,138.754359 193.183062,137.641044 190.394659,136.888414 L189.269916,130.499252 C188.860168,128.144427 186.817482,126.424617 184.427275,126.422061 L179.006642,126.422061 C176.616435,126.424617 174.573749,128.144427 174.164001,130.499252 L173.05488,136.888414 C170.266476,137.641044 167.588218,138.754359 165.087954,140.200155 L159.761049,136.466635 C157.816871,135.125758 155.194242,135.355238 153.51248,137.013385 L149.622745,140.840634 C147.964598,142.522396 147.735118,145.145025 149.075996,147.089203 L152.74703,152.478594 C151.319031,154.970959 150.221519,157.638596 149.482153,160.414276 L143.077369,161.539019 C140.722544,161.948767 139.002735,163.991453 139.000178,166.38166 L139.000178,171.802294 C138.979835,174.210181 140.705028,176.279089 143.077369,176.691799 Z M181.709148,153.4315 C190.336621,153.4315 197.330571,160.42545 197.330571,169.052923 C197.330571,177.680397 190.336621,184.674346 181.709148,184.674346 C173.081674,184.674346 166.087725,177.680397 166.087725,169.052923 C166.087725,160.42545 173.081674,153.4315 181.709148,153.4315 Z M259.207026,189.798173 L259.207026,169.177895 L252.724136,169.177895 C252.017527,169.160767 251.376343,168.760124 251.051173,168.132547 C250.726004,167.50497 250.768477,166.7501 251.161993,166.16296 L263.877831,147.27666 C264.227976,146.753419 264.810575,146.432989 265.439974,146.417482 C266.069372,146.432989 266.651971,146.753419 267.002116,147.27666 L279.749197,166.16296 C280.142713,166.7501 280.185186,167.50497 279.860017,168.132547 C279.534847,168.760124 278.893663,169.160767 278.187055,169.177895 L271.641678,169.177895 L271.641678,196.015499 C271.641678,199.466488 268.844099,202.264068 265.393109,202.264068 L227.854831,202.264068 C226.310513,202.264068 225.058596,201.012151 225.058596,199.467833 L225.058596,192.594407 C225.058596,191.050089 226.310513,189.798173 227.854831,189.798173 L259.207026,189.798173 Z M287.325587,109.269738 C289.680412,108.85999 291.400221,106.817304 291.402778,104.427097 L291.402778,99.0064636 C291.400221,96.616257 289.680412,94.5735711 287.325587,94.1638226 L280.936425,93.0390801 C280.215214,90.2496909 279.133427,87.5662286 277.718412,85.0565331 L281.451932,79.729628 C282.792809,77.7854506 282.563329,75.1628216 280.905182,73.4810589 L277.031069,69.5913246 C275.349307,67.9331773 272.726678,67.7036973 270.7825,69.0445748 L265.408731,72.7780948 C262.898819,71.3294747 260.209861,70.2160782 257.410562,69.4663532 L256.317063,63.0771913 C255.907314,60.7223665 253.864628,59.0025567 251.474422,59 L246.038167,59 C243.64796,59.0025567 241.605274,60.7223665 241.195526,63.0771913 L240.070783,69.4663532 C237.282264,70.2186454 234.603963,71.3319783 232.103858,72.7780948 L226.776952,69.0445748 C224.832775,67.7036973 222.210146,67.9331773 220.528383,69.5913246 L216.638649,73.4341946 C214.980502,75.1159573 214.751022,77.7385863 216.091899,79.6827637 L219.825419,85.0096688 C218.378821,87.5095364 217.265461,90.1879019 216.513678,92.9765944 L210.124516,94.1013369 C207.769691,94.5110854 206.049881,96.5537713 206.047324,98.9439779 L206.047324,104.364612 C206.049881,106.754818 207.769691,108.797504 210.124516,109.207253 L216.529299,110.331995 C217.280573,113.120861 218.393959,115.799292 219.841041,118.298921 L216.107521,123.625826 C214.766643,125.570003 214.996123,128.192632 216.65427,129.874395 L220.465898,133.857858 C222.14766,135.516005 224.770289,135.745485 226.714467,134.404608 L232.041372,130.671087 C234.541319,132.117525 237.219663,133.230876 240.008297,133.982829 L241.13304,140.371991 C241.542788,142.726816 243.585474,144.446626 245.975681,144.449182 L251.411936,144.449182 C253.802143,144.446626 255.844828,142.726816 256.254577,140.371991 L257.410562,133.951586 C260.199197,133.199633 262.877541,132.086282 265.377488,130.639845 L270.704393,134.373365 C272.64857,135.714242 275.271199,135.484762 276.952962,133.826615 L280.842696,129.999366 C282.500844,128.317604 282.730324,125.694975 281.389446,123.750797 L277.718412,118.361406 C279.14673,115.869197 280.24426,113.201518 280.983289,110.425724 L287.325587,109.269738 Z M248.756294,117.4085 C242.438018,117.4085 236.741881,113.602462 234.323981,107.765137 C231.906082,101.927811 233.242585,95.2087585 237.71028,90.7410629 C242.177976,86.2733673 248.897028,84.9368647 254.734354,87.3547641 C260.571679,89.7726636 264.377717,95.4688012 264.377717,101.787077 C264.377717,110.41455 257.383768,117.4085 248.756294,117.4085 Z M171.258416,81.0418275 L171.258416,101.662105 L177.741306,101.662105 C178.447914,101.679233 179.089099,102.079876 179.414269,102.707453 C179.739438,103.33503 179.696965,104.0899 179.303449,104.67704 L166.634475,123.56334 C166.28433,124.086581 165.701731,124.407011 165.072333,124.422518 C164.442934,124.407011 163.860335,124.086581 163.51019,123.56334 L150.716245,104.67704 C150.322729,104.0899 150.280256,103.33503 150.605425,102.707453 C150.930595,102.079876 151.571779,101.679233 152.278387,101.662105 L158.776899,101.662105 L158.776899,74.8245012 C158.776899,71.3735118 161.574479,68.5759321 165.025468,68.5759321 L202.610611,68.5759321 C204.154929,68.5759321 205.406846,69.827849 205.406846,71.3721668 L205.406846,78.2455928 C205.406846,78.9872003 205.112244,79.6984336 204.587848,80.2228293 C204.063452,80.747225 203.352219,81.0418275 202.610611,81.0418275 L171.258416,81.0418275 Z"></path>
            </g>
        </g>
    </g>
</svg>