<svg width="48" height="48" xmlns="http://www.w3.org/2000/svg"><g fill="none" fill-rule="evenodd"><path d="M38.2098 24.8684194v-.7899678c0-7.16632257-5.8201-12.9621774-12.8986-12.9621774h-.1048667c-6.0822666 0-11.32516663 4.21504838-12.58356663 10.1694193-4.19423334.3165968-7.5504 3.8466291-7.5504 8.1675v.2634678c0 4.5312097 3.67076666 8.1670645 8.12716666 8.1670645H37.6326c3.4610333 0 6.2924333-2.8450161 6.2924333-6.3232258v-.3692903c.104-3.3188226-2.4652333-6.0588871-5.7152333-6.3227903z" stroke="#2A3240" stroke-width="2.5"/><path d="M24.5771333 31.8766613c-.6812 0-1.2579666-.5791936-1.2579666-1.2646452 0-.6850161.5767666-1.2642096 1.2579666-1.2642096.6816334 0 1.2584.5791935 1.2584 1.2642096 0 .6854516-.5767666 1.2646452-1.2584 1.2646452z" fill="#FF4F00"/><path d="M28.2470333 29.5058871c-.2093.2107742-.4714666.3165968-.7856333.3165968-.2621667 0-.5247667-.1053871-.7345-.3165968-1.1535333-1.1065645-3.146-1.1065645-4.2995333 0-.4190334.4211129-1.1011.3688548-1.5201334-.0526936-.4194666-.4215483-.3674666-1.107.052-1.5285483.9962334-.9484839 2.2546334-1.4749839 3.6179-1.4749839 1.3632667 0 2.6745334.5265 3.6707667 1.4749839.3666.4746774.4190333 1.1596935-.0008667 1.5812419z" fill="#FF4F00"/><path d="M30.2399333 27.5030968c-.2097333.2107742-.4719.3161613-.7860666.3161613-.2621667 0-.5247667-.1049516-.7345-.3161613-1.1006667-1.1065645-2.5688-1.6861936-4.1422334-1.6861936-1.5725666 0-3.0411333.5796291-4.1422333 1.6861936-.4199.4215484-1.1011.4215484-1.5205667-.0522581-.4190333-.4215484-.4190333-1.107.0524334-1.5285484 1.521-1.4749838 3.5130333-2.2653871 5.6628-2.2653871 2.0969 0 4.1413666.7904033 5.6619333 2.3185162.3679.4211129.3679 1.1065645-.0515667 1.5276774z" fill="#FF4F00"/><path d="M32.1799667 25.3953548c-.4194667.4215484-1.1011.4215484-1.5205667 0-1.6254333-1.5808064-3.7752-2.4761613-6.0822667-2.4761613-2.2542 0-4.4564.8953549-6.0814 2.4761613-.2097333.2107742-.4727666.3165968-.7345.3165968-.2617333 0-.5763333-.1053871-.7860666-.3165968-.4194667-.4215483-.4194667-1.106129 0-1.5276774 2.0453333-2.0023548 4.719-3.10935482 7.6024-3.10935482 2.8314 0 5.5050666 1.10700002 7.5504 3.05622582.4190333.4746774.4190333 1.1592581.052 1.5808064z" fill="#FF4F00"/></g></svg>