<svg width="48" height="48" xmlns="http://www.w3.org/2000/svg"><g fill="none"><path d="M4 33.2459833V38.85c0 .1107.02938333.21525.07995.3081833C4.88696667 42.5031 12.10706667 45 21.0833333 45c8.9557667 0 16.16425-2.48665 16.9979167-5.8192667.0546667-.0977166.0854167-.2104666.0854167-.3307333v-5.60265C35.3410833 35.23585 29.5190833 36.8 21.0833333 36.8 12.6469 36.8 6.8249 35.2351667 4 33.2459833" fill="#2A3240"/><path d="M40.2166667 38.1352333c0 .1339334-.0328.2596667-.0902.369-.0956667.4011167-.2733334.7899334-.5193334 1.16645 2.9410667-1.0345666 4.89745-2.46615 5.30745-4.1047833C44.96925 35.4681833 45 35.35475 45 35.2351667v-5.6033334l-4.7833333 2.24885v6.25455" fill="#FF4F00"/><path d="M22.8641 28.5713c-.5938167.0191333-1.1883167.0287-1.7807667.0287-.5938166 0-1.1903666-.0095667-1.7862333-.0287-5.01635-.13735-9.01385-.8459667-11.89205-1.8566167C6.05273333 26.2589 4.89448333 25.7218 4 25.1074833v6.4233334c1.94476667 2.0301833 8.46923333 3.9025166 17.0833333 3.9025166 8.6141 0 15.1385667-1.8723333 17.0833334-3.9025166v-6.4233334c-.9006334.6184167-2.0691334 1.1596167-3.43375 1.61745C31.8560833 27.7308 27.8667833 28.4353167 22.8641 28.5713" fill="#2A3240"/><path d="M39.5333333 23.8166667v6.6597666c2.64655-.7045166 4.5598834-1.6140333 5.4666667-2.56045V21.49265c-.9006333.6184167-2.0691333 1.1589333-3.43375 1.61745l-2.0329167.7065667" fill="#FF4F00"/><path d="M4 16.9689833v6.42265c1.80263333 1.8819 7.53921667 3.6285 15.2287667 3.8738167.0792666.00205.1599.0034167.2391666.0054667.2220834.00615.44485.0123.67035.0164.3122834.0047833.6273.0075166.94505.0075166s.6327667-.0027333.94505-.0075166c.2255-.0041.4482667-.01025.67035-.0164.0792667-.00205.1599-.0034167.2391667-.0054667 7.68955-.2453167 13.4261333-1.9919167 15.2287667-3.8738167v-6.42265C34.8402 19.2533667 27.8100667 20.4615 21.0833333 20.4615 14.3566 20.4615 7.32578333 19.2533667 4 16.9689833" fill="#2A3240"/><path d="M21.0833333 7.61483333C10.78071667 7.61483333 4.89106667 10.4985 4.09976667 13.43 4.04236667 13.53045 4 13.64046667 4 13.76483333V15.3406c1.93793333 2.02335 8.41593333 3.8909 17.0833333 3.8909 8.6674 0 15.1454-1.86755 17.0833334-3.8909v-1.57576667c0-.1148-.0382667-.21798333-.09225-.31296666-.7667-2.93901667-6.6625-5.83703334-16.9910834-5.83703334" fill="#2A3240"/><path d="M39.5333333 20.74235v1.5996833C42.1839833 21.6375167 44.09185 20.7245833 45 19.7768v-6.42333333C43.6798 14.26025 41.7705667 14.9948333 39.5333333 15.5538v5.18855M44.90775 9.83703333C44.14105 6.89801667 38.24525 4 27.9166667 4 20.99655 4 16.0786 5.30311667 13.348 7.04561667c2.378-.5002 5.1851333-.79745 8.4186667-.79745 10.742 0 16.8728666 3.239 17.671 6.52378333.0560333.10591667.0956666.2214.0956666.34986667v1.16235003C42.1846667 13.58101667 44.0939 12.67218333 45 11.72576667V10.15c0-.1148-.0382667-.21798333-.09225-.31296667" fill="#FF4F00"/></g></svg>