<?xml version="1.0" encoding="UTF-8"?>
<svg width="127px" height="134px" viewBox="0 0 127 134" version="1.1" xmlns="http://www.w3.org/2000/svg" xmlns:xlink="http://www.w3.org/1999/xlink">
    <!-- Generator: Sketch 51.3 (57544) - http://www.bohemiancoding.com/sketch -->
    <title>Group 50</title>
    <desc>Created with Sketch.</desc>
    <defs>
        <polygon id="path-1" points="0 139 139 139 139 0 0 0"></polygon>
    </defs>
    <g id="Page-1" stroke="none" stroke-width="1" fill="none" fill-rule="evenodd">
        <g id="Insight-Webpage-Update_v4" transform="translate(-660.000000, -3355.000000)">
            <g id="Group-50" transform="translate(654.000000, 3353.000000)">
                <path d="M70,9.6118425 C64.2940595,9.6118425 58.5483089,16.433874 54.2377362,28.3284904 C50.0773331,39.8082842 47.5934877,55.1997679 47.5934877,69.5002532 C47.5934877,83.8017516 50.0773331,99.1927288 54.2377362,110.672016 C58.5483089,122.567139 64.2935556,129.388664 70,129.388664 C75.7059405,129.388664 81.4511871,122.567139 85.7622638,110.672016 C89.9226669,99.1922223 92.4065123,83.8017516 92.4065123,69.5002532 C92.4065123,55.1997679 89.9226669,39.8082842 85.7622638,28.3284904 C81.4511871,16.433874 75.7059405,9.6118425 70,9.6118425 M70,133 C54.4478729,133 44,100.166219 44,69.5002532 C44,38.8342872 54.4478729,6 70,6 C85.5521271,6 96,38.8342872 96,69.5002532 C96,100.166219 85.5521271,133 70,133" id="Fill-1" fill="#EA7924"></path>
                <path d="M32.5452802,31.6046678 C28.1484183,31.6046678 22.394262,32.3770605 19.9513353,36.0595742 C16.7827917,40.8359738 19.2988387,49.3969966 26.8556119,59.5477937 C34.147832,69.3442405 45.6439579,79.8893218 57.606733,87.7552923 C75.3581934,99.4276221 94.0302579,106.395838 107.554962,106.395838 L107.556486,106.395838 C111.95284,106.395838 117.706488,105.62294 120.148907,101.940931 C122.916305,97.7706173 121.014164,89.9142512 115.061465,80.9235597 C108.053094,70.3410719 96.4868947,59.4456842 82.4935097,50.2457187 C64.7420493,38.5728834 46.0699848,31.6046678 32.5452802,31.6046678 M107.556486,110 L107.554962,110 C93.3493257,110 73.9313333,102.808357 55.6116677,90.7624678 C29.9586519,73.8951904 8.29373556,47.0909394 16.9305555,34.0734937 C20.2605729,29.0539521 27.2598043,28 32.5452802,28 C46.750917,28 66.1694172,35.1921488 84.4890828,47.2380377 C98.8815824,56.7008593 110.812367,67.9596962 118.084276,78.9400067 C124.961641,89.3258578 126.815035,98.4338236 123.170195,103.927012 C119.840178,108.946048 112.841454,110 107.556486,110" id="Fill-3" fill="#EA7924"></path>
                <path d="M107.559878,32.6209666 C94.0951274,32.6209666 75.6151553,39.0325658 58.1252908,49.7720581 C43.8018354,58.5669949 31.8584073,69.1394047 24.4947363,79.5432085 C18.2388247,88.3818203 16.0808586,96.2108274 18.7211457,100.485904 C21.2188246,104.530417 27.5603011,105.379033 32.4400446,105.379033 L32.4441191,105.379033 C45.9053049,105.379033 64.3847677,98.967942 81.8746321,88.2284497 C96.1965596,79.4345287 108.140497,68.861611 115.506205,58.4567915 C121.761098,49.6191954 123.919064,41.7896805 121.278777,37.5135881 C118.781608,33.4700908 112.440131,32.6209666 107.559878,32.6209666 M32.4441191,109 L32.4400446,109 C24.1147876,109 18.3014704,106.712646 15.6290965,102.384753 C12.1504776,96.7527027 14.3002947,87.6662604 21.5274693,77.4549315 C29.1682074,66.6605915 41.4890377,55.7347185 56.2214727,46.6889041 C74.2588504,35.6127077 93.4513537,29 107.559878,29 C115.885645,29 121.698962,31.2873539 124.371336,35.6152469 C127.849445,41.2478051 125.699119,50.3347553 118.472963,60.5445606 C110.830697,71.3404242 98.5093574,82.2668051 83.7789596,91.3116037 C65.7405632,102.3878 46.5495879,109 32.4441191,109" id="Fill-5" fill="#EA7924"></path>
                <path d="M83,55.0067168 C83,57.216307 77.4031504,59 70.5,59 C63.5973532,59 58,57.216307 58,55.0067168 C58,52.7841906 63.5973532,51 70.5,51 C77.4031504,51 83,52.7841906 83,55.0067168" id="Fill-7" fill="#EA7924"></path>
                <path d="M83,74 L83,83.8111301 C83,86.1208857 77.4031504,88 70.5,88 C63.5973532,88 58,86.1208857 58,83.8111301 L58,74 C58,76.3092355 63.5973532,78.1888699 70.5,78.1888699 C77.4031504,78.1888699 83,76.3092355 83,74" id="Fill-9" fill="#FFFFFF"></path>
                <path d="M83,64 L83,73.8111301 C83,76.1208857 77.4031504,78 70.5,78 C63.5973532,78 58,76.1208857 58,73.8111301 L58,64 C58,66.3092355 63.5973532,68.1883498 70.5,68.1883498 C77.4031504,68.1883498 83,66.3092355 83,64" id="Fill-11" fill="#EA7924"></path>
                <path d="M83,55 L83,64.8074449 C83,67.1189989 77.4031504,69 70.5,69 C63.5973532,69 58,67.1189989 58,64.8074449 L58,55 C58,57.3120747 63.5973532,59.1784984 70.5,59.1784984 C77.4031504,59.1784984 83,57.3120747 83,55" id="Fill-13" fill="#FFFFFF"></path>
                <path d="M70,5.60534489 C63.3461047,5.60534489 56.693742,12.1667692 51.7491699,23.6077977 C46.5215837,35.7026426 43.6429119,51.8230346 43.6429119,68.9997472 C43.6429119,86.1764597 46.5215837,102.297357 51.7491699,114.392202 C56.693742,125.833231 63.3461047,132.394149 70,132.394149 C76.6538953,132.394149 83.306258,125.833231 88.2508301,114.392202 C93.4784163,102.297357 96.3570881,86.1764597 96.3570881,68.9997472 C96.3570881,51.8230346 93.4784163,35.7026426 88.2508301,23.6077977 C83.306258,12.1667692 76.6538953,5.60534489 70,5.60534489 M70,136 C53.1775223,136 40,106.569666 40,68.9997472 C40,31.4298286 53.1775223,2 70,2 C86.8224777,2 100,31.4298286 100,68.9997472 C100,106.569666 86.8224777,136 70,136" id="Fill-15" fill="#273044"></path>
                <path d="M56.0849908,91.9541142 C70.4541222,101.50077 85.5142088,108.062726 98.4907841,110.430904 C110.765758,112.671087 119.892654,110.777156 123.531448,105.235088 C127.170749,99.6925099 125.319415,90.5048542 118.453459,80.0275509 C111.194627,68.9510637 99.2841406,57.5930876 84.9150092,48.0459216 C70.5458778,38.4997755 55.4857912,31.93782 42.5092159,29.5691315 C30.2347485,27.3294587 21.1073464,29.2228797 17.4685521,34.7654578 C13.8292508,40.3080359 15.680585,49.4951816 22.5465408,59.972485 C29.8053728,71.0494821 41.7158594,82.4069482 56.0849908,91.9541142 M107.954792,115 C104.862983,115 101.482727,114.672106 97.8454532,114.008669 C84.3989473,111.55482 68.860312,104.799086 54.0927281,94.9877693 C39.325651,85.1764525 27.0506767,73.4518269 19.5287444,61.974014 C11.7153232,50.0505103 9.91265496,39.6762156 14.4527834,32.761379 C18.9924049,25.8465424 29.1853887,23.4426678 43.1545468,25.9913664 C56.6015597,28.4457255 72.139688,35.2009497 86.9072719,45.0122666 C101.674349,54.8240933 113.949323,66.548719 121.471256,78.0265318 C129.284677,89.9495255 131.087345,100.32382 126.547217,107.239167 C123.189265,112.352882 116.737984,115 107.954792,115" id="Fill-17" fill="#273044"></path>
                <path d="M107.883877,29.6476637 C105.390349,29.6476637 102.690085,29.8576817 99.81153,30.2842965 C86.7404437,32.2220285 71.4501224,38.2533397 56.7581665,47.2669061 C42.0657027,56.2809785 29.7773679,67.1690185 22.1570967,77.925481 C14.9497892,88.100472 12.8052229,97.1545238 16.2740158,102.767823 C19.7438246,108.380617 28.8259769,110.548103 41.1879645,108.715633 C54.2595587,106.777901 69.5493721,100.74659 84.241836,91.7330238 L85.1911952,93.2694444 L84.241836,91.7330238 C98.9342998,82.7189514 111.222127,71.8309114 118.842398,61.0744489 C126.050213,50.8994579 128.194272,41.8454061 124.725479,36.2321066 C122.063819,31.9264852 116.099466,29.6476637 107.883877,29.6476637 M33.1486343,113 C23.801332,113 16.6676773,110.284948 13.1907572,104.660009 C4.42048648,90.4698796 22.7229534,63.9099445 54.8589401,44.194571 C86.9949268,24.4786913 119.037959,20.1502969 127.809245,34.3399206 C136.579516,48.5305564 118.277049,75.0899854 86.1405544,94.805359 C66.7444703,106.705534 47.3808951,113 33.1486343,113" id="Fill-19" fill="#273044"></path>
                <path d="M70.4997446,89 C63.2828181,89 56,87.1908839 56,83.1500881 L59.6424306,83.1500881 C59.6424306,83.0715185 59.6214883,83.0146059 59.6138265,83 C59.9867019,83.7086376 63.6485425,85.408965 70.4997446,85.408965 C77.3514575,85.408965 81.0132981,83.7086376 81.3861735,83 C81.3785117,83.0146059 81.3575694,83.0715185 81.3575694,83.1500881 L85,83.1500881 C85,87.1908839 77.7171819,89 70.4997446,89" id="Fill-21" fill="#273044"></path>
                <path d="M70.4997446,80 C63.2828181,80 56,78.1908839 56,74.1500881 L59.6424306,74.1500881 C59.6424306,74.0715185 59.6214883,74.0146059 59.6138265,74 C59.9867019,74.7086376 63.6485425,76.408965 70.4997446,76.408965 C77.3514575,76.408965 81.0132981,74.7086376 81.3861735,74 C81.3785117,74.0146059 81.3575694,74.0715185 81.3575694,74.1500881 L85,74.1500881 C85,78.1908839 77.7171819,80 70.4997446,80" id="Fill-23" fill="#273044"></path>
                <path d="M70.4997446,70 C63.2828181,70 56,68.1910358 56,64.1500755 L59.6424306,64.1500755 C59.6424306,64.0720161 59.6214883,64.0151083 59.6138265,64 C59.9867019,64.7090818 63.6485425,66.4092664 70.4997446,66.4092664 C77.3514575,66.4092664 81.0132981,64.7090818 81.3861735,64 C81.3785117,64.0151083 81.3575694,64.0720161 81.3575694,64.1500755 L85,64.1500755 C85,68.1910358 77.7171819,70 70.4997446,70" id="Fill-25" fill="#273044"></path>
                <path d="M59.7272215,55 C60.4724615,55.791907 64.0898635,57.3168317 70.4997446,57.3168317 C76.9096257,57.3168317 80.5270277,55.791907 81.2727785,55 C80.5270277,54.208093 76.9096257,52.6831683 70.4997446,52.6831683 C64.0898635,52.6831683 60.4724615,54.208093 59.7272215,55 M70.4997446,61 C63.2828181,61 56,59.1449849 56,55 C56,50.8555316 63.2828181,49 70.4997446,49 C77.7171819,49 85,50.8555316 85,55 C85,59.1449849 77.7171819,61 70.4997446,61" id="Fill-27" fill="#273044"></path>
                <mask id="mask-2" fill="white">
                    <use xlink:href="#path-1"></use>
                </mask>
                <g id="Clip-30"></g>
                <polygon id="Fill-29" fill="#273044" mask="url(#mask-2)" points="56 84 60 84 60 55 56 55"></polygon>
                <polygon id="Fill-31" fill="#273044" mask="url(#mask-2)" points="81 84 85 84 85 55 81 55"></polygon>
                <path d="M118,69.5 C118,66.4623368 115.537663,64 112.5,64 C109.462337,64 107,66.4623368 107,69.5 C107,72.5376632 109.462337,75 112.5,75 C115.537663,75 118,72.5376632 118,69.5" id="Fill-32" fill="#FFFFFF" mask="url(#mask-2)"></path>
                <path d="M52,108.500249 C52,105.462448 49.5376632,103 46.5,103 C43.4623368,103 41,105.462448 41,108.500249 C41,111.53805 43.4623368,114 46.5,114 C49.5376632,114 52,111.53805 52,108.500249" id="Fill-33" fill="#FFFFFF" mask="url(#mask-2)"></path>
                <path d="M97,110.5 C97,107.462337 94.5376632,105 91.5,105 C88.4623368,105 86,107.462337 86,110.5 C86,113.537663 88.4623368,116 91.5,116 C94.5376632,116 97,113.537663 97,110.5" id="Fill-34" fill="#FFFFFF" mask="url(#mask-2)"></path>
                <path d="M54,27.5 C54,24.4623368 51.5375516,22 48.4997507,22 C45.4619499,22 43,24.4623368 43,27.5 C43,30.5376632 45.4619499,33 48.4997507,33 C51.5375516,33 54,30.5376632 54,27.5" id="Fill-35" fill="#FFFFFF" mask="url(#mask-2)"></path>
                <path d="M31,69.5 C31,66.4623368 28.5376632,64 25.5,64 C22.4623368,64 20,66.4623368 20,69.5 C20,72.5376632 22.4623368,75 25.5,75 C28.5376632,75 31,72.5376632 31,69.5" id="Fill-36" fill="#FFFFFF" mask="url(#mask-2)"></path>
                <path d="M97,29.5 C97,26.4623368 94.5376632,24 91.5,24 C88.4623368,24 86,26.4623368 86,29.5 C86,32.5376632 88.4623368,35 91.5,35 C94.5376632,35 97,32.5376632 97,29.5" id="Fill-37" fill="#FFFFFF" mask="url(#mask-2)"></path>
                <path d="M112.499743,65.6635495 C110.384484,65.6635495 108.663812,67.3848525 108.663812,69.5002569 C108.663812,71.6156613 110.384484,73.3369643 112.499743,73.3369643 C114.615003,73.3369643 116.336188,71.6156613 116.336188,69.5002569 C116.336188,67.3848525 114.615003,65.6635495 112.499743,65.6635495 M112.499743,77 C108.364275,77 105,73.6360086 105,69.5002569 C105,65.3645052 108.364275,62 112.499743,62 C116.635212,62 120,65.3645052 120,69.5002569 C120,73.6360086 116.635212,77 112.499743,77" id="Fill-38" fill="#273044" mask="url(#mask-2)"></path>
                <path d="M47.4997431,105.663549 C45.3844836,105.663549 43.6638123,107.384853 43.6638123,109.500257 C43.6638123,111.615661 45.3844836,113.336964 47.4997431,113.336964 C49.6150026,113.336964 51.3361877,111.615661 51.3361877,109.500257 C51.3361877,107.384853 49.6150026,105.663549 47.4997431,105.663549 M47.4997431,117 C43.3642747,117 40,113.636009 40,109.500257 C40,105.364505 43.3642747,102 47.4997431,102 C51.6352115,102 55,105.364505 55,109.500257 C55,113.636009 51.6352115,117 47.4997431,117" id="Fill-39" fill="#273044" mask="url(#mask-2)"></path>
                <path d="M91.5002569,106.663549 C89.3849974,106.663549 87.6638123,108.384853 87.6638123,110.500257 C87.6638123,112.615661 89.3849974,114.336964 91.5002569,114.336964 C93.6155164,114.336964 95.3361877,112.615661 95.3361877,110.500257 C95.3361877,108.384853 93.6155164,106.663549 91.5002569,106.663549 M91.5002569,118 C87.3647885,118 84,114.636009 84,110.500257 C84,106.364505 87.3647885,103 91.5002569,103 C95.6357253,103 99,106.364505 99,110.500257 C99,114.636009 95.6357253,118 91.5002569,118" id="Fill-40" fill="#273044" mask="url(#mask-2)"></path>
                <path d="M48.4997431,23.6635495 C46.3844836,23.6635495 44.6638123,25.3848525 44.6638123,27.5002569 C44.6638123,29.6156613 46.3844836,31.3369643 48.4997431,31.3369643 C50.6150026,31.3369643 52.3361877,29.6156613 52.3361877,27.5002569 C52.3361877,25.3848525 50.6150026,23.6635495 48.4997431,23.6635495 M48.4997431,35 C44.3642747,35 41,31.6360086 41,27.5002569 C41,23.3645052 44.3642747,20 48.4997431,20 C52.6352115,20 56,23.3645052 56,27.5002569 C56,31.6360086 52.6352115,35 48.4997431,35" id="Fill-41" fill="#273044" mask="url(#mask-2)"></path>
                <path d="M26.5002569,65.6635495 C24.3849974,65.6635495 22.6638123,67.3848525 22.6638123,69.5002569 C22.6638123,71.6156613 24.3849974,73.3369643 26.5002569,73.3369643 C28.6155164,73.3369643 30.3361877,71.6156613 30.3361877,69.5002569 C30.3361877,67.3848525 28.6155164,65.6635495 26.5002569,65.6635495 M26.5002569,77 C22.3647885,77 19,73.6360086 19,69.5002569 C19,65.3645052 22.3647885,62 26.5002569,62 C30.6357253,62 34,65.3645052 34,69.5002569 C34,73.6360086 30.6357253,77 26.5002569,77" id="Fill-42" fill="#273044" mask="url(#mask-2)"></path>
                <path d="M91.5002569,25.6635495 C89.3849974,25.6635495 87.6638123,27.3848525 87.6638123,29.5002569 C87.6638123,31.6156613 89.3849974,33.3369643 91.5002569,33.3369643 C93.6155164,33.3369643 95.3361877,31.6156613 95.3361877,29.5002569 C95.3361877,27.3848525 93.6155164,25.6635495 91.5002569,25.6635495 M91.5002569,37 C87.3647885,37 84,33.6360086 84,29.5002569 C84,25.3645052 87.3647885,22 91.5002569,22 C95.6357253,22 99,25.3645052 99,29.5002569 C99,33.6360086 95.6357253,37 91.5002569,37" id="Fill-43" fill="#273044" mask="url(#mask-2)"></path>
                <path d="M42,13.4997462 C42,11.5668915 40.4329949,10 38.5,10 C36.5670051,10 35,11.5668915 35,13.4997462 C35,15.4331085 36.5670051,17 38.5,17 C40.4329949,17 42,15.4331085 42,13.4997462" id="Fill-44" fill="#273044" mask="url(#mask-2)"></path>
                <path d="M105,13.4997462 C105,11.5668915 103.432995,10 101.5,10 C99.5670051,10 98,11.5668915 98,13.4997462 C98,15.4331085 99.5670051,17 101.5,17 C103.432995,17 105,15.4331085 105,13.4997462" id="Fill-45" fill="#273044" mask="url(#mask-2)"></path>
                <path d="M42,124.500254 C42,122.566891 40.4329949,121 38.5,121 C36.5670051,121 35,122.566891 35,124.500254 C35,126.433109 36.5670051,128 38.5,128 C40.4329949,128 42,126.433109 42,124.500254" id="Fill-46" fill="#273044" mask="url(#mask-2)"></path>
                <path d="M105,124.500254 C105,122.566891 103.432995,121 101.5,121 C99.5670051,121 98,122.566891 98,124.500254 C98,126.433109 99.5670051,128 101.5,128 C103.432995,128 105,126.433109 105,124.500254" id="Fill-47" fill="#273044" mask="url(#mask-2)"></path>
                <path d="M133,69.5 C133,67.5670051 131.432995,66 129.5,66 C127.567005,66 126,67.5670051 126,69.5 C126,71.4329949 127.567005,73 129.5,73 C131.432995,73 133,71.4329949 133,69.5" id="Fill-48" fill="#273044" mask="url(#mask-2)"></path>
                <path d="M13,69.5 C13,67.5670051 11.4329949,66 9.5,66 C7.56700508,66 6,67.5670051 6,69.5 C6,71.4329949 7.56700508,73 9.5,73 C11.4329949,73 13,71.4329949 13,69.5" id="Fill-49" fill="#273044" mask="url(#mask-2)"></path>
            </g>
        </g>
    </g>
</svg>