<?xml version="1.0" encoding="UTF-8"?>
<svg width="117px" height="120px" viewBox="0 0 117 120" version="1.1" xmlns="http://www.w3.org/2000/svg" xmlns:xlink="http://www.w3.org/1999/xlink">
    <!-- Generator: Sketch 51.3 (57544) - http://www.bohemiancoding.com/sketch -->
    <title>Group 161</title>
    <desc>Created with Sketch.</desc>
    <defs>
        <polygon id="path-1" points="0 119.720618 116.792464 119.720618 116.792464 0 0 0"></polygon>
    </defs>
    <g id="Page-1" stroke="none" stroke-width="1" fill="none" fill-rule="evenodd">
        <g id="Insight-Webpage-Update_v4" transform="translate(-962.000000, -4266.000000)">
            <g id="Group-161" transform="translate(962.000000, 4266.000000)">
                <path d="M11.4983607,94.4519073 C11.4983607,91.7396293 9.29486071,89.5402471 6.57693214,89.5402471 C3.85853929,89.5402471 1.65550357,91.7396293 1.65550357,94.4519073 C1.65550357,97.1641853 3.85853929,99.3635676 6.57693214,99.3635676 C9.29486071,99.3635676 11.4983607,97.1641853 11.4983607,94.4519073" id="Fill-1" fill="#FFFFFF"></path>
                <path d="M11.4983607,50.5074903 C11.4983607,47.7952124 9.29486071,45.5958301 6.57693214,45.5958301 C3.85853929,45.5958301 1.65550357,47.7952124 1.65550357,50.5074903 C1.65550357,53.2197683 3.85853929,55.4186873 6.57693214,55.4186873 C9.29486071,55.4186873 11.4983607,53.2197683 11.4983607,50.5074903" id="Fill-3" fill="#FFFFFF"></path>
                <path d="M29.6075464,113.157544 C29.6075464,110.445266 27.4040464,108.246347 24.6861179,108.246347 C21.967725,108.246347 19.7646893,110.445266 19.7646893,113.157544 C19.7646893,115.869822 21.967725,118.069205 24.6861179,118.069205 C27.4040464,118.069205 29.6075464,115.869822 29.6075464,113.157544" id="Fill-5" fill="#FFFFFF"></path>
                <path d="M29.6075464,69.2131274 C29.6075464,66.5008494 27.4040464,64.3019305 24.6861179,64.3019305 C21.967725,64.3019305 19.7646893,66.5008494 19.7646893,69.2131274 C19.7646893,71.9254054 21.967725,74.1247876 24.6861179,74.1247876 C27.4040464,74.1247876 29.6075464,71.9254054 29.6075464,69.2131274" id="Fill-7" fill="#FFFFFF"></path>
                <path d="M29.6075464,25.2687104 C29.6075464,22.5564324 27.4040464,20.3570502 24.6861179,20.3570502 C21.967725,20.3570502 19.7646893,22.5564324 19.7646893,25.2687104 C19.7646893,27.9809884 21.967725,30.1803707 24.6861179,30.1803707 C27.4040464,30.1803707 29.6075464,27.9809884 29.6075464,25.2687104" id="Fill-9" fill="#FFFFFF"></path>
                <path d="M54.2631607,94.4519073 C54.2631607,91.7396293 52.0596607,89.5402471 49.3417321,89.5402471 C46.6233393,89.5402471 44.4198393,91.7396293 44.4198393,94.4519073 C44.4198393,97.1641853 46.6233393,99.3635676 49.3417321,99.3635676 C52.0596607,99.3635676 54.2631607,97.1641853 54.2631607,94.4519073" id="Fill-11" fill="#FFFFFF"></path>
                <path d="M54.2631607,6.56307336 C54.2631607,3.85079537 52.0596607,1.65141313 49.3417321,1.65141313 C46.6233393,1.65141313 44.4198393,3.85079537 44.4198393,6.56307336 C44.4198393,9.27535135 46.6233393,11.4742703 49.3417321,11.4742703 C52.0596607,11.4742703 54.2631607,9.27535135 54.2631607,6.56307336" id="Fill-13" fill="#FFFFFF"></path>
                <path d="M72.3723464,113.157544 C72.3723464,110.445266 70.1688464,108.246347 67.4504536,108.246347 C64.732525,108.246347 62.529025,110.445266 62.529025,113.157544 C62.529025,115.869822 64.732525,118.069205 67.4504536,118.069205 C70.1688464,118.069205 72.3723464,115.869822 72.3723464,113.157544" id="Fill-15" fill="#FFFFFF"></path>
                <path d="M72.3723464,25.2687104 C72.3723464,22.5564324 70.1688464,20.3570502 67.4504536,20.3570502 C64.732525,20.3570502 62.529025,22.5564324 62.529025,25.2687104 C62.529025,27.9809884 64.732525,30.1803707 67.4504536,30.1803707 C70.1688464,30.1803707 72.3723464,27.9809884 72.3723464,25.2687104" id="Fill-17" fill="#FFFFFF"></path>
                <path d="M97.027775,94.4519073 C97.027775,91.7396293 94.824275,89.5402471 92.1063464,89.5402471 C89.3884179,89.5402471 87.1849179,91.7396293 87.1849179,94.4519073 C87.1849179,97.1641853 89.3884179,99.3635676 92.1063464,99.3635676 C94.824275,99.3635676 97.027775,97.1641853 97.027775,94.4519073" id="Fill-19" fill="#FFFFFF"></path>
                <path d="M97.027775,50.5074903 C97.027775,47.7952124 94.824275,45.5958301 92.1063464,45.5958301 C89.3884179,45.5958301 87.1849179,47.7952124 87.1849179,50.5074903 C87.1849179,53.2197683 89.3884179,55.4186873 92.1063464,55.4186873 C94.824275,55.4186873 97.027775,53.2197683 97.027775,50.5074903" id="Fill-21" fill="#FFFFFF"></path>
                <path d="M97.027775,6.56307336 C97.027775,3.85079537 94.824275,1.65141313 92.1063464,1.65141313 C89.3884179,1.65141313 87.1849179,3.85079537 87.1849179,6.56307336 C87.1849179,9.27535135 89.3884179,11.4742703 92.1063464,11.4742703 C94.824275,11.4742703 97.027775,9.27535135 97.027775,6.56307336" id="Fill-23" fill="#FFFFFF"></path>
                <path d="M115.136961,69.2131274 C115.136961,66.5008494 112.933461,64.3019305 110.215532,64.3019305 C107.497139,64.3019305 105.294104,66.5008494 105.294104,69.2131274 C105.294104,71.9254054 107.497139,74.1247876 110.215532,74.1247876 C112.933461,74.1247876 115.136961,71.9254054 115.136961,69.2131274" id="Fill-25" fill="#FFFFFF"></path>
                <path d="M115.136961,25.2687104 C115.136961,22.5564324 112.933461,20.3570502 110.215532,20.3570502 C107.497139,20.3570502 105.294104,22.5564324 105.294104,25.2687104 C105.294104,27.9809884 107.497139,30.1803707 110.215532,30.1803707 C112.933461,30.1803707 115.136961,27.9809884 115.136961,25.2687104" id="Fill-27" fill="#FFFFFF"></path>
                <path d="M11.4983607,69.2131274 C11.4983607,66.5008494 9.29486071,64.3019305 6.57693214,64.3019305 C3.85853929,64.3019305 1.65550357,66.5008494 1.65550357,69.2131274 C1.65550357,71.9254054 3.85853929,74.1247876 6.57693214,74.1247876 C9.29486071,74.1247876 11.4983607,71.9254054 11.4983607,69.2131274" id="Fill-29" fill="#EA7924"></path>
                <path d="M11.4983607,25.2687104 C11.4983607,22.5564324 9.29486071,20.3570502 6.57693214,20.3570502 C3.85853929,20.3570502 1.65550357,22.5564324 1.65550357,25.2687104 C1.65550357,27.9809884 3.85853929,30.1803707 6.57693214,30.1803707 C9.29486071,30.1803707 11.4983607,27.9809884 11.4983607,25.2687104" id="Fill-31" fill="#EA7924"></path>
                <path d="M29.6075464,94.4519073 C29.6075464,91.7396293 27.4040464,89.5402471 24.6861179,89.5402471 C21.967725,89.5402471 19.7646893,91.7396293 19.7646893,94.4519073 C19.7646893,97.1641853 21.967725,99.3635676 24.6861179,99.3635676 C27.4040464,99.3635676 29.6075464,97.1641853 29.6075464,94.4519073" id="Fill-33" fill="#EA7924"></path>
                <path d="M29.6075464,50.5074903 C29.6075464,47.7952124 27.4040464,45.5958301 24.6861179,45.5958301 C21.967725,45.5958301 19.7646893,47.7952124 19.7646893,50.5074903 C19.7646893,53.2197683 21.967725,55.4186873 24.6861179,55.4186873 C27.4040464,55.4186873 29.6075464,53.2197683 29.6075464,50.5074903" id="Fill-35" fill="#EA7924"></path>
                <path d="M29.6075464,6.56307336 C29.6075464,3.85079537 27.4040464,1.65141313 24.6861179,1.65141313 C21.967725,1.65141313 19.7646893,3.85079537 19.7646893,6.56307336 C19.7646893,9.27535135 21.967725,11.4742703 24.6861179,11.4742703 C27.4040464,11.4742703 29.6075464,9.27535135 29.6075464,6.56307336" id="Fill-37" fill="#EA7924"></path>
                <path d="M54.2631607,113.157544 C54.2631607,110.445266 52.0596607,108.246347 49.3417321,108.246347 C46.6233393,108.246347 44.4198393,110.445266 44.4198393,113.157544 C44.4198393,115.869822 46.6233393,118.069205 49.3417321,118.069205 C52.0596607,118.069205 54.2631607,115.869822 54.2631607,113.157544" id="Fill-39" fill="#EA7924"></path>
                <path d="M54.2631607,25.2687104 C54.2631607,22.5564324 52.0596607,20.3570502 49.3417321,20.3570502 C46.6233393,20.3570502 44.4198393,22.5564324 44.4198393,25.2687104 C44.4198393,27.9809884 46.6233393,30.1803707 49.3417321,30.1803707 C52.0596607,30.1803707 54.2631607,27.9809884 54.2631607,25.2687104" id="Fill-41" fill="#EA7924"></path>
                <path d="M72.3723464,94.4519073 C72.3723464,91.7396293 70.1688464,89.5402471 67.4504536,89.5402471 C64.732525,89.5402471 62.529025,91.7396293 62.529025,94.4519073 C62.529025,97.1641853 64.732525,99.3635676 67.4504536,99.3635676 C70.1688464,99.3635676 72.3723464,97.1641853 72.3723464,94.4519073" id="Fill-43" fill="#EA7924"></path>
                <path d="M72.3723464,6.56307336 C72.3723464,3.85079537 70.1688464,1.65141313 67.4504536,1.65141313 C64.732525,1.65141313 62.529025,3.85079537 62.529025,6.56307336 C62.529025,9.27535135 64.732525,11.4742703 67.4504536,11.4742703 C70.1688464,11.4742703 72.3723464,9.27535135 72.3723464,6.56307336" id="Fill-45" fill="#EA7924"></path>
                <path d="M97.027775,113.157544 C97.027775,110.445266 94.824275,108.246347 92.1063464,108.246347 C89.3884179,108.246347 87.1849179,110.445266 87.1849179,113.157544 C87.1849179,115.869822 89.3884179,118.069205 92.1063464,118.069205 C94.824275,118.069205 97.027775,115.869822 97.027775,113.157544" id="Fill-47" fill="#EA7924"></path>
                <path d="M97.027775,69.2131274 C97.027775,66.5008494 94.824275,64.3019305 92.1063464,64.3019305 C89.3884179,64.3019305 87.1849179,66.5008494 87.1849179,69.2131274 C87.1849179,71.9254054 89.3884179,74.1247876 92.1063464,74.1247876 C94.824275,74.1247876 97.027775,71.9254054 97.027775,69.2131274" id="Fill-49" fill="#EA7924"></path>
                <path d="M97.027775,25.2687104 C97.027775,22.5564324 94.824275,20.3570502 92.1063464,20.3570502 C89.3884179,20.3570502 87.1849179,22.5564324 87.1849179,25.2687104 C87.1849179,27.9809884 89.3884179,30.1803707 92.1063464,30.1803707 C94.824275,30.1803707 97.027775,27.9809884 97.027775,25.2687104" id="Fill-51" fill="#EA7924"></path>
                <path d="M115.136961,94.4519073 C115.136961,91.7396293 112.933461,89.5402471 110.215532,89.5402471 C107.497139,89.5402471 105.294104,91.7396293 105.294104,94.4519073 C105.294104,97.1641853 107.497139,99.3635676 110.215532,99.3635676 C112.933461,99.3635676 115.136961,97.1641853 115.136961,94.4519073" id="Fill-53" fill="#EA7924"></path>
                <path d="M115.136961,50.5074903 C115.136961,47.7952124 112.933461,45.5958301 110.215532,45.5958301 C107.497139,45.5958301 105.294104,47.7952124 105.294104,50.5074903 C105.294104,53.2197683 107.497139,55.4186873 110.215532,55.4186873 C112.933461,55.4186873 115.136961,53.2197683 115.136961,50.5074903" id="Fill-55" fill="#EA7924"></path>
                <mask id="mask-2" fill="white">
                    <use xlink:href="#path-1"></use>
                </mask>
                <g id="Clip-58"></g>
                <polygon id="Fill-57" fill="#192330" mask="url(#mask-2)" points="96.5115357 95.9805405 106.360429 95.9805405 106.360429 92.677529 96.5115357 92.677529"></polygon>
                <polygon id="Fill-59" fill="#192330" mask="url(#mask-2)" points="96.5115357 70.7726641 106.360429 70.7726641 106.360429 67.4691892 96.5115357 67.4691892"></polygon>
                <polygon id="Fill-60" fill="#192330" mask="url(#mask-2)" points="96.5115357 52.0980695 106.360429 52.0980695 106.360429 48.7945946 96.5115357 48.7945946"></polygon>
                <polygon id="Fill-61" fill="#192330" mask="url(#mask-2)" points="96.5115357 26.8897297 106.360429 26.8897297 106.360429 23.5862548 96.5115357 23.5862548"></polygon>
                <polygon id="Fill-62" fill="#192330" mask="url(#mask-2)" points="71.3231071 114.656062 87.7184286 114.656062 87.7184286 111.352587 71.3231071 111.352587"></polygon>
                <polygon id="Fill-63" fill="#192330" mask="url(#mask-2)" points="71.3231071 95.9805405 87.7184286 95.9805405 87.7184286 92.677529 71.3231071 92.677529"></polygon>
                <polygon id="Fill-64" fill="#192330" mask="url(#mask-2)" points="71.3231071 70.7726641 87.7184286 70.7726641 87.7184286 67.4691892 71.3231071 67.4691892"></polygon>
                <polygon id="Fill-65" fill="#192330" mask="url(#mask-2)" points="71.3231071 52.0980695 87.7184286 52.0980695 87.7184286 48.7945946 71.3231071 48.7945946"></polygon>
                <polygon id="Fill-66" fill="#192330" mask="url(#mask-2)" points="71.3231071 26.8897297 87.7184286 26.8897297 87.7184286 23.5862548 71.3231071 23.5862548"></polygon>
                <polygon id="Fill-67" fill="#192330" mask="url(#mask-2)" points="71.3231071 8.21467181 87.7184286 8.21467181 87.7184286 4.91119691 71.3231071 4.91119691"></polygon>
                <polygon id="Fill-68" fill="#192330" mask="url(#mask-2)" points="52.6801786 114.656062 62.5295357 114.656062 62.5295357 111.352587 52.6801786 111.352587"></polygon>
                <polygon id="Fill-69" fill="#192330" mask="url(#mask-2)" points="52.6801786 95.9805405 62.5295357 95.9805405 62.5295357 92.677529 52.6801786 92.677529"></polygon>
                <polygon id="Fill-70" fill="#192330" mask="url(#mask-2)" points="52.6801786 26.8897297 62.5295357 26.8897297 62.5295357 23.5862548 52.6801786 23.5862548"></polygon>
                <polygon id="Fill-71" fill="#192330" mask="url(#mask-2)" points="52.6801786 8.21467181 62.5295357 8.21467181 62.5295357 4.91119691 52.6801786 4.91119691"></polygon>
                <polygon id="Fill-72" fill="#192330" mask="url(#mask-2)" points="28.8163571 114.656062 45.2116786 114.656062 45.2116786 111.352587 28.8163571 111.352587"></polygon>
                <polygon id="Fill-73" fill="#192330" mask="url(#mask-2)" points="28.8163571 95.9805405 45.2116786 95.9805405 45.2116786 92.677529 28.8163571 92.677529"></polygon>
                <polygon id="Fill-74" fill="#192330" mask="url(#mask-2)" points="28.8163571 70.7726641 45.2116786 70.7726641 45.2116786 67.4691892 28.8163571 67.4691892"></polygon>
                <polygon id="Fill-75" fill="#192330" mask="url(#mask-2)" points="28.8163571 52.0980695 45.2116786 52.0980695 45.2116786 48.7945946 28.8163571 48.7945946"></polygon>
                <polygon id="Fill-76" fill="#192330" mask="url(#mask-2)" points="28.8163571 26.8897297 45.2116786 26.8897297 45.2116786 23.5862548 28.8163571 23.5862548"></polygon>
                <polygon id="Fill-77" fill="#192330" mask="url(#mask-2)" points="28.8163571 8.21467181 45.2116786 8.21467181 45.2116786 4.91119691 28.8163571 4.91119691"></polygon>
                <polygon id="Fill-78" fill="#192330" mask="url(#mask-2)" points="11.4985 95.9805405 21.3478571 95.9805405 21.3478571 92.677529 11.4985 92.677529"></polygon>
                <polygon id="Fill-79" fill="#192330" mask="url(#mask-2)" points="11.4985 70.7726641 21.3478571 70.7726641 21.3478571 67.4691892 11.4985 67.4691892"></polygon>
                <polygon id="Fill-80" fill="#192330" mask="url(#mask-2)" points="11.4985 52.0980695 21.3478571 52.0980695 21.3478571 48.7945946 11.4985 48.7945946"></polygon>
                <polygon id="Fill-81" fill="#192330" mask="url(#mask-2)" points="11.4985 26.8897297 21.3478571 26.8897297 21.3478571 23.5862548 11.4985 23.5862548"></polygon>
                <polygon id="Fill-82" fill="#192330" mask="url(#mask-2)" points="23.0304286 21.7028571 26.34125 21.7028571 26.34125 11.8739768 23.0304286 11.8739768"></polygon>
                <polygon id="Fill-83" fill="#192330" mask="url(#mask-2)" points="47.6863214 21.7028571 50.9971429 21.7028571 50.9971429 11.8739768 47.6863214 11.8739768"></polygon>
                <polygon id="Fill-84" fill="#192330" mask="url(#mask-2)" points="65.7953214 21.7028571 69.1061429 21.7028571 69.1061429 11.8739768 65.7953214 11.8739768"></polygon>
                <polygon id="Fill-85" fill="#192330" mask="url(#mask-2)" points="90.45075 21.7028571 93.7615714 21.7028571 93.7615714 11.8739768 90.45075 11.8739768"></polygon>
                <polygon id="Fill-86" fill="#192330" mask="url(#mask-2)" points="4.92142857 47.0140541 8.23225 47.0140541 8.23225 30.6528185 4.92142857 30.6528185"></polygon>
                <polygon id="Fill-87" fill="#192330" mask="url(#mask-2)" points="23.0304286 47.0140541 26.34125 47.0140541 26.34125 30.6528185 23.0304286 30.6528185"></polygon>
                <polygon id="Fill-88" fill="#192330" mask="url(#mask-2)" points="47.6863214 47.0140541 50.9971429 47.0140541 50.9971429 30.6528185 47.6863214 30.6528185"></polygon>
                <polygon id="Fill-89" fill="#192330" mask="url(#mask-2)" points="65.7953214 47.0140541 69.1061429 47.0140541 69.1061429 30.6528185 65.7953214 30.6528185"></polygon>
                <polygon id="Fill-90" fill="#192330" mask="url(#mask-2)" points="90.45075 47.0140541 93.7615714 47.0140541 93.7615714 30.6528185 90.45075 30.6528185"></polygon>
                <polygon id="Fill-91" fill="#192330" mask="url(#mask-2)" points="108.55975 47.0140541 111.870571 47.0140541 111.870571 30.6528185 108.55975 30.6528185"></polygon>
                <polygon id="Fill-92" fill="#192330" mask="url(#mask-2)" points="4.92142857 65.2471042 8.23225 65.2471042 8.23225 55.4186873 4.92142857 55.4186873"></polygon>
                <polygon id="Fill-93" fill="#192330" mask="url(#mask-2)" points="23.0304286 65.2471042 26.34125 65.2471042 26.34125 55.4186873 23.0304286 55.4186873"></polygon>
                <polygon id="Fill-94" fill="#192330" mask="url(#mask-2)" points="90.45075 65.2471042 93.7615714 65.2471042 93.7615714 55.4186873 90.45075 55.4186873"></polygon>
                <polygon id="Fill-95" fill="#192330" mask="url(#mask-2)" points="108.55975 65.2471042 111.870571 65.2471042 111.870571 55.4186873 108.55975 55.4186873"></polygon>
                <polygon id="Fill-96" fill="#192330" mask="url(#mask-2)" points="4.92142857 90.0134363 8.23225 90.0134363 8.23225 73.6522008 4.92142857 73.6522008"></polygon>
                <polygon id="Fill-97" fill="#192330" mask="url(#mask-2)" points="23.0304286 90.0134363 26.34125 90.0134363 26.34125 73.6522008 23.0304286 73.6522008"></polygon>
                <polygon id="Fill-98" fill="#192330" mask="url(#mask-2)" points="47.6863214 90.0134363 50.9971429 90.0134363 50.9971429 73.6522008 47.6863214 73.6522008"></polygon>
                <polygon id="Fill-99" fill="#192330" mask="url(#mask-2)" points="65.7953214 90.0134363 69.1061429 90.0134363 69.1061429 73.6522008 65.7953214 73.6522008"></polygon>
                <polygon id="Fill-100" fill="#192330" mask="url(#mask-2)" points="90.45075 90.0134363 93.7615714 90.0134363 93.7615714 73.6522008 90.45075 73.6522008"></polygon>
                <polygon id="Fill-101" fill="#192330" mask="url(#mask-2)" points="108.55975 90.0134363 111.870571 90.0134363 111.870571 73.6522008 108.55975 73.6522008"></polygon>
                <polygon id="Fill-102" fill="#192330" mask="url(#mask-2)" points="23.0304286 108.246486 26.34125 108.246486 26.34125 98.4176062 23.0304286 98.4176062"></polygon>
                <polygon id="Fill-103" fill="#192330" mask="url(#mask-2)" points="47.6863214 108.246486 50.9971429 108.246486 50.9971429 98.4176062 47.6863214 98.4176062"></polygon>
                <polygon id="Fill-104" fill="#192330" mask="url(#mask-2)" points="65.7953214 108.246486 69.1061429 108.246486 69.1061429 98.4176062 65.7953214 98.4176062"></polygon>
                <polygon id="Fill-105" fill="#192330" mask="url(#mask-2)" points="90.45075 108.246486 93.7615714 108.246486 93.7615714 98.4176062 90.45075 98.4176062"></polygon>
                <path d="M6.57707143,91.1923552 C4.77564286,91.1923552 3.31082143,92.6545946 3.31082143,94.4518147 C3.31082143,96.2490347 4.77564286,97.7112741 6.57707143,97.7112741 C8.37803571,97.7112741 9.84285714,96.2490347 9.84285714,94.4518147 C9.84285714,92.6545946 8.37803571,91.1923552 6.57707143,91.1923552 M6.57707143,101.014749 C2.95053571,101.014749 0,98.0708108 0,94.4518147 C0,90.8332819 2.95053571,87.8888803 6.57707143,87.8888803 C10.2036071,87.8888803 13.1536786,90.8332819 13.1536786,94.4518147 C13.1536786,98.0708108 10.2036071,101.014749 6.57707143,101.014749" id="Fill-106" fill="#192330" mask="url(#mask-2)"></path>
                <path d="M6.57707143,65.9536216 C4.77564286,65.9536216 3.31082143,67.415861 3.31082143,69.2130811 C3.31082143,71.0103012 4.77564286,72.4725405 6.57707143,72.4725405 C8.37803571,72.4725405 9.84285714,71.0103012 9.84285714,69.2130811 C9.84285714,67.415861 8.37803571,65.9536216 6.57707143,65.9536216 M6.57707143,75.7760154 C2.95053571,75.7760154 0,72.8320772 0,69.2130811 C0,65.5945483 2.95053571,62.6501467 6.57707143,62.6501467 C10.2036071,62.6501467 13.1536786,65.5945483 13.1536786,69.2130811 C13.1536786,72.8320772 10.2036071,75.7760154 6.57707143,75.7760154" id="Fill-107" fill="#192330" mask="url(#mask-2)"></path>
                <path d="M6.57707143,47.2479382 C4.77564286,47.2479382 3.31082143,48.7101776 3.31082143,50.5073977 C3.31082143,52.3046178 4.77564286,53.7668571 6.57707143,53.7668571 C8.37803571,53.7668571 9.84285714,52.3046178 9.84285714,50.5073977 C9.84285714,48.7101776 8.37803571,47.2479382 6.57707143,47.2479382 M6.57707143,57.070332 C2.95053571,57.070332 0,54.1263938 0,50.5073977 C0,46.8888649 2.95053571,43.9444633 6.57707143,43.9444633 C10.2036071,43.9444633 13.1536786,46.8888649 13.1536786,50.5073977 C13.1536786,54.1263938 10.2036071,57.070332 6.57707143,57.070332" id="Fill-108" fill="#192330" mask="url(#mask-2)"></path>
                <path d="M6.57707143,22.0092046 C4.77564286,22.0092046 3.31082143,23.471444 3.31082143,25.2686641 C3.31082143,27.0658842 4.77564286,28.5281236 6.57707143,28.5281236 C8.37803571,28.5281236 9.84285714,27.0658842 9.84285714,25.2686641 C9.84285714,23.471444 8.37803571,22.0092046 6.57707143,22.0092046 M6.57707143,31.8315985 C2.95053571,31.8315985 0,28.8876602 0,25.2686641 C0,21.6501313 2.95053571,18.7057297 6.57707143,18.7057297 C10.2036071,18.7057297 13.1536786,21.6501313 13.1536786,25.2686641 C13.1536786,28.8876602 10.2036071,31.8315985 6.57707143,31.8315985" id="Fill-109" fill="#192330" mask="url(#mask-2)"></path>
                <path d="M24.6860714,109.897992 C22.8846429,109.897992 21.4198214,111.360232 21.4198214,113.157452 C21.4198214,114.955135 22.8846429,116.416911 24.6860714,116.416911 C26.4870357,116.416911 27.9518571,114.955135 27.9518571,113.157452 C27.9518571,111.360232 26.4870357,109.897992 24.6860714,109.897992 M24.6860714,119.720386 C21.0595357,119.720386 18.109,116.776448 18.109,113.157452 C18.109,109.538919 21.0595357,106.594517 24.6860714,106.594517 C28.3126071,106.594517 31.2626786,109.538919 31.2626786,113.157452 C31.2626786,116.776448 28.3126071,119.720386 24.6860714,119.720386" id="Fill-110" fill="#192330" mask="url(#mask-2)"></path>
                <path d="M24.6860714,91.1923552 C22.8846429,91.1923552 21.4198214,92.6545946 21.4198214,94.4518147 C21.4198214,96.2490347 22.8846429,97.7112741 24.6860714,97.7112741 C26.4870357,97.7112741 27.9518571,96.2490347 27.9518571,94.4518147 C27.9518571,92.6545946 26.4870357,91.1923552 24.6860714,91.1923552 M24.6860714,101.014749 C21.0595357,101.014749 18.109,98.0708108 18.109,94.4518147 C18.109,90.8332819 21.0595357,87.8888803 24.6860714,87.8888803 C28.3126071,87.8888803 31.2626786,90.8332819 31.2626786,94.4518147 C31.2626786,98.0708108 28.3126071,101.014749 24.6860714,101.014749" id="Fill-111" fill="#192330" mask="url(#mask-2)"></path>
                <path d="M24.6860714,65.9536216 C22.8846429,65.9536216 21.4198214,67.415861 21.4198214,69.2130811 C21.4198214,71.0103012 22.8846429,72.4725405 24.6860714,72.4725405 C26.4870357,72.4725405 27.9518571,71.0103012 27.9518571,69.2130811 C27.9518571,67.415861 26.4870357,65.9536216 24.6860714,65.9536216 M24.6860714,75.7760154 C21.0595357,75.7760154 18.109,72.8320772 18.109,69.2130811 C18.109,65.5945483 21.0595357,62.6501467 24.6860714,62.6501467 C28.3126071,62.6501467 31.2626786,65.5945483 31.2626786,69.2130811 C31.2626786,72.8320772 28.3126071,75.7760154 24.6860714,75.7760154" id="Fill-112" fill="#192330" mask="url(#mask-2)"></path>
                <path d="M24.6860714,47.2479382 C22.8846429,47.2479382 21.4198214,48.7101776 21.4198214,50.5073977 C21.4198214,52.3046178 22.8846429,53.7668571 24.6860714,53.7668571 C26.4870357,53.7668571 27.9518571,52.3046178 27.9518571,50.5073977 C27.9518571,48.7101776 26.4870357,47.2479382 24.6860714,47.2479382 M24.6860714,57.070332 C21.0595357,57.070332 18.109,54.1263938 18.109,50.5073977 C18.109,46.8888649 21.0595357,43.9444633 24.6860714,43.9444633 C28.3126071,43.9444633 31.2626786,46.8888649 31.2626786,50.5073977 C31.2626786,54.1263938 28.3126071,57.070332 24.6860714,57.070332" id="Fill-113" fill="#192330" mask="url(#mask-2)"></path>
                <path d="M24.6860714,22.0092046 C22.8846429,22.0092046 21.4198214,23.471444 21.4198214,25.2686641 C21.4198214,27.0658842 22.8846429,28.5281236 24.6860714,28.5281236 C26.4870357,28.5281236 27.9518571,27.0658842 27.9518571,25.2686641 C27.9518571,23.471444 26.4870357,22.0092046 24.6860714,22.0092046 M24.6860714,31.8315985 C21.0595357,31.8315985 18.109,28.8876602 18.109,25.2686641 C18.109,21.6501313 21.0595357,18.7057297 24.6860714,18.7057297 C28.3126071,18.7057297 31.2626786,21.6501313 31.2626786,25.2686641 C31.2626786,28.8876602 28.3126071,31.8315985 24.6860714,31.8315985" id="Fill-114" fill="#192330" mask="url(#mask-2)"></path>
                <path d="M24.6860714,3.30352124 C22.8846429,3.30352124 21.4198214,4.7652973 21.4198214,6.56298069 C21.4198214,8.36020077 22.8846429,9.82244015 24.6860714,9.82244015 C26.4870357,9.82244015 27.9518571,8.36020077 27.9518571,6.56298069 C27.9518571,4.7652973 26.4870357,3.30352124 24.6860714,3.30352124 M24.6860714,13.1259151 C21.0595357,13.1259151 18.109,10.1819768 18.109,6.56298069 C18.109,2.94444788 21.0595357,4.63320463e-05 24.6860714,4.63320463e-05 C28.3126071,4.63320463e-05 31.2626786,2.94444788 31.2626786,6.56298069 C31.2626786,10.1819768 28.3126071,13.1259151 24.6860714,13.1259151" id="Fill-115" fill="#192330" mask="url(#mask-2)"></path>
                <path d="M49.3416857,109.897992 C47.5402571,109.897992 46.0754357,111.360232 46.0754357,113.157452 C46.0754357,114.955135 47.5402571,116.416911 49.3416857,116.416911 C51.14265,116.416911 52.6074714,114.955135 52.6074714,113.157452 C52.6074714,111.360232 51.14265,109.897992 49.3416857,109.897992 M49.3416857,119.720386 C45.71515,119.720386 42.7646143,116.776448 42.7646143,113.157452 C42.7646143,109.538919 45.71515,106.594517 49.3416857,106.594517 C52.9682214,106.594517 55.9182929,109.538919 55.9182929,113.157452 C55.9182929,116.776448 52.9682214,119.720386 49.3416857,119.720386" id="Fill-116" fill="#192330" mask="url(#mask-2)"></path>
                <path d="M49.3416857,91.1923552 C47.5402571,91.1923552 46.0754357,92.6545946 46.0754357,94.4518147 C46.0754357,96.2490347 47.5402571,97.7112741 49.3416857,97.7112741 C51.14265,97.7112741 52.6074714,96.2490347 52.6074714,94.4518147 C52.6074714,92.6545946 51.14265,91.1923552 49.3416857,91.1923552 M49.3416857,101.014749 C45.71515,101.014749 42.7646143,98.0708108 42.7646143,94.4518147 C42.7646143,90.8332819 45.71515,87.8888803 49.3416857,87.8888803 C52.9682214,87.8888803 55.9182929,90.8332819 55.9182929,94.4518147 C55.9182929,98.0708108 52.9682214,101.014749 49.3416857,101.014749" id="Fill-117" fill="#192330" mask="url(#mask-2)"></path>
                <path d="M49.3416857,22.0092046 C47.5402571,22.0092046 46.0754357,23.471444 46.0754357,25.2686641 C46.0754357,27.0658842 47.5402571,28.5281236 49.3416857,28.5281236 C51.14265,28.5281236 52.6074714,27.0658842 52.6074714,25.2686641 C52.6074714,23.471444 51.14265,22.0092046 49.3416857,22.0092046 M49.3416857,31.8315985 C45.71515,31.8315985 42.7646143,28.8876602 42.7646143,25.2686641 C42.7646143,21.6501313 45.71515,18.7057297 49.3416857,18.7057297 C52.9682214,18.7057297 55.9182929,21.6501313 55.9182929,25.2686641 C55.9182929,28.8876602 52.9682214,31.8315985 49.3416857,31.8315985" id="Fill-118" fill="#192330" mask="url(#mask-2)"></path>
                <path d="M49.3416857,3.30352124 C47.5402571,3.30352124 46.0754357,4.7652973 46.0754357,6.56298069 C46.0754357,8.36020077 47.5402571,9.82244015 49.3416857,9.82244015 C51.14265,9.82244015 52.6074714,8.36020077 52.6074714,6.56298069 C52.6074714,4.7652973 51.14265,3.30352124 49.3416857,3.30352124 M49.3416857,13.1259151 C45.71515,13.1259151 42.7646143,10.1819768 42.7646143,6.56298069 C42.7646143,2.94444788 45.71515,4.63320463e-05 49.3416857,4.63320463e-05 C52.9682214,4.63320463e-05 55.9182929,2.94444788 55.9182929,6.56298069 C55.9182929,10.1819768 52.9682214,13.1259151 49.3416857,13.1259151" id="Fill-119" fill="#192330" mask="url(#mask-2)"></path>
                <path d="M67.4506857,109.897992 C65.6497214,109.897992 64.1849,111.360232 64.1849,113.157452 C64.1849,114.955135 65.6497214,116.416911 67.4506857,116.416911 C69.2521143,116.416911 70.7169357,114.955135 70.7169357,113.157452 C70.7169357,111.360232 69.2521143,109.897992 67.4506857,109.897992 M67.4506857,119.720386 C63.82415,119.720386 60.8740786,116.776448 60.8740786,113.157452 C60.8740786,109.538919 63.82415,106.594517 67.4506857,106.594517 C71.0772214,106.594517 74.0277571,109.538919 74.0277571,113.157452 C74.0277571,116.776448 71.0772214,119.720386 67.4506857,119.720386" id="Fill-120" fill="#192330" mask="url(#mask-2)"></path>
                <path d="M67.4506857,91.1923552 C65.6497214,91.1923552 64.1849,92.6545946 64.1849,94.4518147 C64.1849,96.2490347 65.6497214,97.7112741 67.4506857,97.7112741 C69.2521143,97.7112741 70.7169357,96.2490347 70.7169357,94.4518147 C70.7169357,92.6545946 69.2521143,91.1923552 67.4506857,91.1923552 M67.4506857,101.014749 C63.82415,101.014749 60.8740786,98.0708108 60.8740786,94.4518147 C60.8740786,90.8332819 63.82415,87.8888803 67.4506857,87.8888803 C71.0772214,87.8888803 74.0277571,90.8332819 74.0277571,94.4518147 C74.0277571,98.0708108 71.0772214,101.014749 67.4506857,101.014749" id="Fill-121" fill="#192330" mask="url(#mask-2)"></path>
                <path d="M67.4506857,22.0092046 C65.6497214,22.0092046 64.1849,23.471444 64.1849,25.2686641 C64.1849,27.0658842 65.6497214,28.5281236 67.4506857,28.5281236 C69.2521143,28.5281236 70.7169357,27.0658842 70.7169357,25.2686641 C70.7169357,23.471444 69.2521143,22.0092046 67.4506857,22.0092046 M67.4506857,31.8315985 C63.82415,31.8315985 60.8740786,28.8876602 60.8740786,25.2686641 C60.8740786,21.6501313 63.82415,18.7057297 67.4506857,18.7057297 C71.0772214,18.7057297 74.0277571,21.6501313 74.0277571,25.2686641 C74.0277571,28.8876602 71.0772214,31.8315985 67.4506857,31.8315985" id="Fill-122" fill="#192330" mask="url(#mask-2)"></path>
                <path d="M67.4506857,3.30352124 C65.6497214,3.30352124 64.1849,4.7652973 64.1849,6.56298069 C64.1849,8.36020077 65.6497214,9.82244015 67.4506857,9.82244015 C69.2521143,9.82244015 70.7169357,8.36020077 70.7169357,6.56298069 C70.7169357,4.7652973 69.2521143,3.30352124 67.4506857,3.30352124 M67.4506857,13.1259151 C63.82415,13.1259151 60.8740786,10.1819768 60.8740786,6.56298069 C60.8740786,2.94444788 63.82415,4.63320463e-05 67.4506857,4.63320463e-05 C71.0772214,4.63320463e-05 74.0277571,2.94444788 74.0277571,6.56298069 C74.0277571,10.1819768 71.0772214,13.1259151 67.4506857,13.1259151" id="Fill-123" fill="#192330" mask="url(#mask-2)"></path>
                <path d="M92.1063,109.897992 C90.3053357,109.897992 88.8405143,111.360232 88.8405143,113.157452 C88.8405143,114.955135 90.3053357,116.416911 92.1063,116.416911 C93.9077286,116.416911 95.37255,114.955135 95.37255,113.157452 C95.37255,111.360232 93.9077286,109.897992 92.1063,109.897992 M92.1063,119.720386 C88.4797643,119.720386 85.5296929,116.776448 85.5296929,113.157452 C85.5296929,109.538919 88.4797643,106.594517 92.1063,106.594517 C95.7328357,106.594517 98.6833714,109.538919 98.6833714,113.157452 C98.6833714,116.776448 95.7328357,119.720386 92.1063,119.720386" id="Fill-124" fill="#192330" mask="url(#mask-2)"></path>
                <path d="M92.1063,91.1923552 C90.3053357,91.1923552 88.8405143,92.6545946 88.8405143,94.4518147 C88.8405143,96.2490347 90.3053357,97.7112741 92.1063,97.7112741 C93.9077286,97.7112741 95.37255,96.2490347 95.37255,94.4518147 C95.37255,92.6545946 93.9077286,91.1923552 92.1063,91.1923552 M92.1063,101.014749 C88.4797643,101.014749 85.5296929,98.0708108 85.5296929,94.4518147 C85.5296929,90.8332819 88.4797643,87.8888803 92.1063,87.8888803 C95.7328357,87.8888803 98.6833714,90.8332819 98.6833714,94.4518147 C98.6833714,98.0708108 95.7328357,101.014749 92.1063,101.014749" id="Fill-125" fill="#192330" mask="url(#mask-2)"></path>
                <path d="M92.1063,65.9536216 C90.3053357,65.9536216 88.8405143,67.415861 88.8405143,69.2130811 C88.8405143,71.0103012 90.3053357,72.4725405 92.1063,72.4725405 C93.9077286,72.4725405 95.37255,71.0103012 95.37255,69.2130811 C95.37255,67.415861 93.9077286,65.9536216 92.1063,65.9536216 M92.1063,75.7760154 C88.4797643,75.7760154 85.5296929,72.8320772 85.5296929,69.2130811 C85.5296929,65.5945483 88.4797643,62.6501467 92.1063,62.6501467 C95.7328357,62.6501467 98.6833714,65.5945483 98.6833714,69.2130811 C98.6833714,72.8320772 95.7328357,75.7760154 92.1063,75.7760154" id="Fill-126" fill="#192330" mask="url(#mask-2)"></path>
                <path d="M92.1063,47.2479382 C90.3053357,47.2479382 88.8405143,48.7101776 88.8405143,50.5073977 C88.8405143,52.3046178 90.3053357,53.7668571 92.1063,53.7668571 C93.9077286,53.7668571 95.37255,52.3046178 95.37255,50.5073977 C95.37255,48.7101776 93.9077286,47.2479382 92.1063,47.2479382 M92.1063,57.070332 C88.4797643,57.070332 85.5296929,54.1263938 85.5296929,50.5073977 C85.5296929,46.8888649 88.4797643,43.9444633 92.1063,43.9444633 C95.7328357,43.9444633 98.6833714,46.8888649 98.6833714,50.5073977 C98.6833714,54.1263938 95.7328357,57.070332 92.1063,57.070332" id="Fill-127" fill="#192330" mask="url(#mask-2)"></path>
                <path d="M92.1063,22.0092046 C90.3053357,22.0092046 88.8405143,23.471444 88.8405143,25.2686641 C88.8405143,27.0658842 90.3053357,28.5281236 92.1063,28.5281236 C93.9077286,28.5281236 95.37255,27.0658842 95.37255,25.2686641 C95.37255,23.471444 93.9077286,22.0092046 92.1063,22.0092046 M92.1063,31.8315985 C88.4797643,31.8315985 85.5296929,28.8876602 85.5296929,25.2686641 C85.5296929,21.6501313 88.4797643,18.7057297 92.1063,18.7057297 C95.7328357,18.7057297 98.6833714,21.6501313 98.6833714,25.2686641 C98.6833714,28.8876602 95.7328357,31.8315985 92.1063,31.8315985" id="Fill-128" fill="#192330" mask="url(#mask-2)"></path>
                <path d="M92.1063,3.30352124 C90.3053357,3.30352124 88.8405143,4.7652973 88.8405143,6.56298069 C88.8405143,8.36020077 90.3053357,9.82244015 92.1063,9.82244015 C93.9077286,9.82244015 95.37255,8.36020077 95.37255,6.56298069 C95.37255,4.7652973 93.9077286,3.30352124 92.1063,3.30352124 M92.1063,13.1259151 C88.4797643,13.1259151 85.5296929,10.1819768 85.5296929,6.56298069 C85.5296929,2.94444788 88.4797643,4.63320463e-05 92.1063,4.63320463e-05 C95.7328357,4.63320463e-05 98.6833714,2.94444788 98.6833714,6.56298069 C98.6833714,10.1819768 95.7328357,13.1259151 92.1063,13.1259151" id="Fill-129" fill="#192330" mask="url(#mask-2)"></path>
                <path d="M110.215254,91.1923552 C108.414289,91.1923552 106.949468,92.6545946 106.949468,94.4518147 C106.949468,96.2490347 108.414289,97.7112741 110.215254,97.7112741 C112.016682,97.7112741 113.481504,96.2490347 113.481504,94.4518147 C113.481504,92.6545946 112.016682,91.1923552 110.215254,91.1923552 M110.215254,101.014749 C106.588718,101.014749 103.638646,98.0708108 103.638646,94.4518147 C103.638646,90.8332819 106.588718,87.8888803 110.215254,87.8888803 C113.841789,87.8888803 116.792325,90.8332819 116.792325,94.4518147 C116.792325,98.0708108 113.841789,101.014749 110.215254,101.014749" id="Fill-130" fill="#192330" mask="url(#mask-2)"></path>
                <path d="M110.215254,65.9536216 C108.414289,65.9536216 106.949468,67.415861 106.949468,69.2130811 C106.949468,71.0103012 108.414289,72.4725405 110.215254,72.4725405 C112.016682,72.4725405 113.481504,71.0103012 113.481504,69.2130811 C113.481504,67.415861 112.016682,65.9536216 110.215254,65.9536216 M110.215254,75.7760154 C106.588718,75.7760154 103.638646,72.8320772 103.638646,69.2130811 C103.638646,65.5945483 106.588718,62.6501467 110.215254,62.6501467 C113.841789,62.6501467 116.792325,65.5945483 116.792325,69.2130811 C116.792325,72.8320772 113.841789,75.7760154 110.215254,75.7760154" id="Fill-131" fill="#192330" mask="url(#mask-2)"></path>
                <path d="M110.215254,47.2479382 C108.414289,47.2479382 106.949468,48.7101776 106.949468,50.5073977 C106.949468,52.3046178 108.414289,53.7668571 110.215254,53.7668571 C112.016682,53.7668571 113.481504,52.3046178 113.481504,50.5073977 C113.481504,48.7101776 112.016682,47.2479382 110.215254,47.2479382 M110.215254,57.070332 C106.588718,57.070332 103.638646,54.1263938 103.638646,50.5073977 C103.638646,46.8888649 106.588718,43.9444633 110.215254,43.9444633 C113.841789,43.9444633 116.792325,46.8888649 116.792325,50.5073977 C116.792325,54.1263938 113.841789,57.070332 110.215254,57.070332" id="Fill-132" fill="#192330" mask="url(#mask-2)"></path>
                <path d="M110.215254,22.0092046 C108.414289,22.0092046 106.949468,23.471444 106.949468,25.2686641 C106.949468,27.0658842 108.414289,28.5281236 110.215254,28.5281236 C112.016682,28.5281236 113.481504,27.0658842 113.481504,25.2686641 C113.481504,23.471444 112.016682,22.0092046 110.215254,22.0092046 M110.215254,31.8315985 C106.588718,31.8315985 103.638646,28.8876602 103.638646,25.2686641 C103.638646,21.6501313 106.588718,18.7057297 110.215254,18.7057297 C113.841789,18.7057297 116.792325,21.6501313 116.792325,25.2686641 C116.792325,28.8876602 113.841789,31.8315985 110.215254,31.8315985" id="Fill-133" fill="#192330" mask="url(#mask-2)"></path>
                <path d="M111.449464,112.722255 C112.674714,112.722255 113.668286,113.713761 113.668286,114.936 C113.668286,116.158703 112.674714,117.150208 111.449464,117.150208 C110.224214,117.150208 109.231107,116.158703 109.231107,114.936 C109.231107,113.713761 110.224214,112.722255 111.449464,112.722255" id="Fill-134" fill="#192330" mask="url(#mask-2)"></path>
                <path d="M106.360429,107.411305 C107.585679,107.411305 108.57925,108.402811 108.57925,109.62505 C108.57925,110.848216 107.585679,111.839722 106.360429,111.839722 C105.135179,111.839722 104.142071,110.848216 104.142071,109.62505 C104.142071,108.402811 105.135179,107.411305 106.360429,107.411305" id="Fill-135" fill="#192330" mask="url(#mask-2)"></path>
                <path d="M101.271439,102.100726 C102.496689,102.100726 103.490261,103.091768 103.490261,104.314471 C103.490261,105.537174 102.496689,106.52868 101.271439,106.52868 C100.046189,106.52868 99.0530821,105.537174 99.0530821,104.314471 C99.0530821,103.091768 100.046189,102.100726 101.271439,102.100726" id="Fill-136" fill="#192330" mask="url(#mask-2)"></path>
                <path d="M7.20617857,114.703598 C7.20617857,115.926764 6.21307143,116.917344 4.98782143,116.917344 C3.76257143,116.917344 2.769,115.926764 2.769,114.703598 C2.769,113.480896 3.76257143,112.489853 4.98782143,112.489853 C6.21307143,112.489853 7.20617857,113.480896 7.20617857,114.703598" id="Fill-137" fill="#192330" mask="url(#mask-2)"></path>
                <path d="M12.5282393,109.625189 C12.5282393,110.848355 11.5346679,111.839398 10.3094179,111.839398 C9.08416786,111.839398 8.09106071,110.848355 8.09106071,109.625189 C8.09106071,108.402486 9.08416786,107.411444 10.3094179,107.411444 C11.5346679,107.411444 12.5282393,108.402486 12.5282393,109.625189" id="Fill-138" fill="#192330" mask="url(#mask-2)"></path>
                <path d="M17.8500679,104.546734 C17.8500679,105.7699 16.8564964,106.760942 15.6312464,106.760942 C14.4064607,106.760942 13.4128893,105.7699 13.4128893,104.546734 C13.4128893,103.324031 14.4064607,102.332988 15.6312464,102.332988 C16.8564964,102.332988 17.8500679,103.324031 17.8500679,104.546734" id="Fill-139" fill="#192330" mask="url(#mask-2)"></path>
                <path d="M111.449464,7.45983012 C112.674714,7.45983012 113.668286,6.46832432 113.668286,5.24608494 C113.668286,4.02291892 112.674714,3.03141313 111.449464,3.03141313 C110.224214,3.03141313 109.231107,4.02291892 109.231107,5.24608494 C109.231107,6.46832432 110.224214,7.45983012 111.449464,7.45983012" id="Fill-140" fill="#192330" mask="url(#mask-2)"></path>
                <path d="M106.360429,12.7708263 C107.585679,12.7708263 108.57925,11.7793205 108.57925,10.5566178 C108.57925,9.33391506 107.585679,8.34240927 106.360429,8.34240927 C105.135179,8.34240927 104.142071,9.33391506 104.142071,10.5566178 C104.142071,11.7793205 105.135179,12.7708263 106.360429,12.7708263" id="Fill-141" fill="#192330" mask="url(#mask-2)"></path>
                <path d="M101.271439,18.0813591 C102.496689,18.0813591 103.490261,17.0898533 103.490261,15.8676139 C103.490261,14.6449112 102.496689,13.6534054 101.271439,13.6534054 C100.046189,13.6534054 99.0530821,14.6449112 99.0530821,15.8676139 C99.0530821,17.0898533 100.046189,18.0813591 101.271439,18.0813591" id="Fill-142" fill="#192330" mask="url(#mask-2)"></path>
                <path d="M7.20617857,5.4780695 C7.20617857,4.2553668 6.21307143,3.26432432 4.98782143,3.26432432 C3.76257143,3.26432432 2.769,4.2553668 2.769,5.4780695 C2.769,6.70123552 3.76257143,7.69227799 4.98782143,7.69227799 C6.21307143,7.69227799 7.20617857,6.70123552 7.20617857,5.4780695" id="Fill-143" fill="#192330" mask="url(#mask-2)"></path>
                <path d="M12.5282393,10.5564788 C12.5282393,9.33377606 11.5346679,8.34273359 10.3094179,8.34273359 C9.08416786,8.34273359 8.09106071,9.33377606 8.09106071,10.5564788 C8.09106071,11.7796448 9.08416786,12.7706873 10.3094179,12.7706873 C11.5346679,12.7706873 12.5282393,11.7796448 12.5282393,10.5564788" id="Fill-144" fill="#192330" mask="url(#mask-2)"></path>
                <path d="M17.8500679,15.6349344 C17.8500679,14.4122317 16.8564964,13.4211892 15.6312464,13.4211892 C14.4064607,13.4211892 13.4128893,14.4122317 13.4128893,15.6349344 C13.4128893,16.8581004 14.4064607,17.8486795 15.6312464,17.8486795 C16.8564964,17.8486795 17.8500679,16.8581004 17.8500679,15.6349344" id="Fill-145" fill="#192330" mask="url(#mask-2)"></path>
                <path d="M69.8169643,39.8483861 L46.9755,39.8483861 C45.0041429,39.8483861 43.3912143,41.4579614 43.3912143,43.4252201 L43.3912143,76.2764942 C43.3912143,78.2437529 45.0041429,79.8533282 46.9755,79.8533282 L69.8169643,79.8533282 C71.7883214,79.8533282 73.4007857,78.2437529 73.4007857,76.2764942 L73.4007857,43.4252201 C73.4007857,41.4579614 71.7883214,39.8483861 69.8169643,39.8483861" id="Fill-146" fill="#EA7924" mask="url(#mask-2)"></path>
                <polygon id="Fill-147" fill="#FFFFFF" mask="url(#mask-2)" points="43.3912143 59.8508108 73.4007857 59.8508108 73.4007857 49.8495753 43.3912143 49.8495753"></polygon>
                <path d="M73.400925,69.8709961 L43.3913536,69.8709961 L43.3913536,75.6643552 C43.3913536,77.9883707 45.2791393,79.8722317 47.6079964,79.8722317 L69.1842821,79.8722317 C71.5131393,79.8722317 73.400925,77.9883707 73.400925,75.6643552 L73.400925,69.8709961 Z" id="Fill-148" fill="#FFFFFF" mask="url(#mask-2)"></path>
                <path d="M46.9754071,41.5003089 C45.9117286,41.5003089 45.0467643,42.3634749 45.0467643,43.4249421 L45.0467643,76.2766795 C45.0467643,77.3381467 45.9117286,78.2013127 46.9754071,78.2013127 L69.8168714,78.2013127 C70.88055,78.2013127 71.7459786,77.3381467 71.7459786,76.2766795 L71.7459786,43.4249421 C71.7459786,42.3634749 70.88055,41.5003089 69.8168714,41.5003089 L46.9754071,41.5003089 Z M69.8168714,81.5047876 L46.9754071,81.5047876 C44.0861571,81.5047876 41.7359429,79.1589961 41.7359429,76.2766795 L41.7359429,43.4249421 C41.7359429,40.5426255 44.0861571,38.196834 46.9754071,38.196834 L69.8168714,38.196834 C72.7061214,38.196834 75.0563357,40.5426255 75.0563357,43.4249421 L75.0563357,76.2766795 C75.0563357,79.1589961 72.7061214,81.5047876 69.8168714,81.5047876 Z" id="Fill-149" fill="#192330" mask="url(#mask-2)"></path>
                <polygon id="Fill-150" fill="#192330" mask="url(#mask-2)" points="43.3912143 51.5013127 73.40125 51.5013127 73.40125 48.1978378 43.3912143 48.1978378"></polygon>
                <polygon id="Fill-151" fill="#192330" mask="url(#mask-2)" points="43.3912143 61.5020849 73.40125 61.5020849 73.40125 58.1990734 43.3912143 58.1990734"></polygon>
                <polygon id="Fill-152" fill="#192330" mask="url(#mask-2)" points="43.3912143 71.5037838 73.40125 71.5037838 73.40125 68.2003089 43.3912143 68.2003089"></polygon>
                <path d="M49.8760321,45.1331583 C49.8760321,44.4168649 49.2947464,43.8367876 48.5769607,43.8367876 C47.8596393,43.8367876 47.2778893,44.4168649 47.2778893,45.1331583 C47.2778893,45.8489884 47.8596393,46.429529 48.5769607,46.429529 C49.2947464,46.429529 49.8760321,45.8489884 49.8760321,45.1331583" id="Fill-153" fill="#192330" mask="url(#mask-2)"></path>
                <path d="M49.8760321,54.8501931 C49.8760321,54.1343629 49.2947464,53.5538224 48.5769607,53.5538224 C47.8596393,53.5538224 47.2778893,54.1343629 47.2778893,54.8501931 C47.2778893,55.5660232 47.8596393,56.1465637 48.5769607,56.1465637 C49.2947464,56.1465637 49.8760321,55.5660232 49.8760321,54.8501931" id="Fill-154" fill="#192330" mask="url(#mask-2)"></path>
                <path d="M49.8760321,64.9934826 C49.8760321,64.2771892 49.2947464,63.697112 48.5769607,63.697112 C47.8596393,63.697112 47.2778893,64.2771892 47.2778893,64.9934826 C47.2778893,65.7093127 47.8596393,66.2898533 48.5769607,66.2898533 C49.2947464,66.2898533 49.8760321,65.7093127 49.8760321,64.9934826" id="Fill-155" fill="#192330" mask="url(#mask-2)"></path>
                <path d="M49.8760321,74.8716139 C49.8760321,74.1553205 49.2947464,73.5752432 48.5769607,73.5752432 C47.8596393,73.5752432 47.2778893,74.1553205 47.2778893,74.8716139 C47.2778893,75.587444 47.8596393,76.1679846 48.5769607,76.1679846 C49.2947464,76.1679846 49.8760321,75.587444 49.8760321,74.8716139" id="Fill-156" fill="#192330" mask="url(#mask-2)"></path>
                <path d="M82.328675,37.0702703 C82.328675,35.6650193 81.1869964,34.5257143 79.7783536,34.5257143 C78.370175,34.5257143 77.2284964,35.6650193 77.2284964,37.0702703 C77.2284964,38.4755212 78.370175,39.6152896 79.7783536,39.6152896 C81.1869964,39.6152896 82.328675,38.4755212 82.328675,37.0702703" id="Fill-157" fill="#192330" mask="url(#mask-2)"></path>
                <path d="M38.5803786,37.0702703 C38.5803786,35.6650193 37.4387,34.5257143 36.0300571,34.5257143 C34.6218786,34.5257143 33.4802,35.6650193 33.4802,37.0702703 C33.4802,38.4755212 34.6218786,39.6152896 36.0300571,39.6152896 C37.4387,39.6152896 38.5803786,38.4755212 38.5803786,37.0702703" id="Fill-158" fill="#192330" mask="url(#mask-2)"></path>
                <path d="M82.328675,82.9032741 C82.328675,81.4980232 81.1869964,80.3587181 79.7783536,80.3587181 C78.370175,80.3587181 77.2284964,81.4980232 77.2284964,82.9032741 C77.2284964,84.3085251 78.370175,85.4482934 79.7783536,85.4482934 C81.1869964,85.4482934 82.328675,84.3085251 82.328675,82.9032741" id="Fill-159" fill="#192330" mask="url(#mask-2)"></path>
                <path d="M38.5803786,82.9032741 C38.5803786,81.4980232 37.4387,80.3587181 36.0300571,80.3587181 C34.6218786,80.3587181 33.4802,81.4980232 33.4802,82.9032741 C33.4802,84.3085251 34.6218786,85.4482934 36.0300571,85.4482934 C37.4387,85.4482934 38.5803786,84.3085251 38.5803786,82.9032741" id="Fill-160" fill="#192330" mask="url(#mask-2)"></path>
            </g>
        </g>
    </g>
</svg>