<?xml version="1.0" encoding="UTF-8"?>
<svg width="119px" height="120px" viewBox="0 0 119 120" version="1.1" xmlns="http://www.w3.org/2000/svg" xmlns:xlink="http://www.w3.org/1999/xlink">
    <!-- Generator: Sketch 51.3 (57544) - http://www.bohemiancoding.com/sketch -->
    <title>Group 79</title>
    <desc>Created with Sketch.</desc>
    <defs>
        <polygon id="path-1" points="0.429009055 0.03609375 6.19160748 0.03609375 6.19160748 5.80115625 0.429009055 5.80115625"></polygon>
        <polygon id="path-3" points="0 0.21065625 5.76245787 0.21065625 5.76245787 5.9758125 0 5.9758125"></polygon>
    </defs>
    <g id="Page-1" stroke="none" stroke-width="1" fill="none" fill-rule="evenodd">
        <g id="Insight-Webpage-Update_v4" transform="translate(-760.000000, -4266.000000)">
            <g id="Group-79" transform="translate(760.000000, 4266.000000)">
                <polygon id="Fill-1" fill="#FFFFFF" points="36.5345461 62.1855469 36.5345461 73.5367969 46.3628217 79.2091406 56.1910972 73.5367969 56.1910972 62.1855469 45.9449161 67.6460156"></polygon>
                <polygon id="Fill-2" fill="#FFFFFF" points="63.2129406 62.1855469 63.2129406 73.5367969 73.0412161 79.2091406 82.8690232 73.5367969 82.8690232 62.1855469 72.6233106 67.6460156"></polygon>
                <polygon id="Fill-3" fill="#FFFFFF" points="49.5540362 39.1554375 49.5540362 50.5062188 59.3823118 56.1785625 69.2105874 50.5062188 69.2105874 39.1554375 58.9648748 44.6159062"></polygon>
                <g id="Group-78" transform="translate(0.000000, 0.432656)">
                    <path d="M72.5645134,90.1525313 C55.678226,97.383 36.160352,89.5365937 28.9341472,72.6414375 C21.7444858,55.70925 29.5877102,36.1815937 46.4739976,28.9515937 C63.359348,21.7951875 82.8767535,29.641125 90.1034268,46.53675 C97.2940252,63.3944062 89.4508008,82.9220625 72.5645134,90.1525313 Z M88.3882339,97.4345625 C92.0926945,94.6239375 95.3216236,91.3225312 97.9527417,87.6475313 L111.090529,88.2025312 C113.461159,83.8890937 115.290198,79.3225312 116.549537,74.5970625 L106.692214,65.9326875 C107.312045,61.407375 107.269411,56.8108125 106.561033,52.2020625 L116.202376,43.2939375 C115.545533,41.014875 114.738301,38.703 113.749757,36.3878438 C112.761214,34.1340937 111.709891,31.9389375 110.475383,29.8614375 L97.3450921,30.6676875 C94.536411,26.9608125 91.2353323,23.7901875 87.5636669,21.0976875 L88.1179071,7.953 C83.8362496,5.613 79.2725528,3.78065625 74.5486276,2.5220625 L65.8297693,12.3840937 C61.3668008,11.7639375 56.7426669,11.7765938 52.165852,12.514875 L43.2628717,2.869875 C40.9241,3.52565625 38.6438913,4.36378125 36.3608717,5.3233125 C34.0773835,6.28190625 31.9133638,7.36425 29.8369543,8.5989375 L30.6427811,21.7365937 C26.9383205,24.54675 23.7093913,27.848625 21.0782732,31.5231562 L7.94048583,30.9681562 C5.60077717,35.2525312 3.74081654,39.7872188 2.51193071,44.5440938 L12.3388008,53.238 C11.7489543,57.7333125 11.7316197,62.329875 12.4699819,66.9076875 L2.82957638,75.81675 C3.48548189,78.1562812 4.29224567,80.4681562 5.28219449,82.722375 C6.24122205,85.0065937 7.35157638,87.2022188 8.58608425,89.2797187 L21.6559386,88.4725312 C24.4646197,92.1794062 27.7956827,95.3805 31.4373638,98.0425312 L30.9135764,111.157687 C35.1947654,113.558156 39.7575252,115.389562 44.4814504,116.648156 L53.2012457,106.787062 C57.6946669,107.377687 62.2583638,107.364094 66.8347102,106.624875 L75.7681433,116.301281 C78.0769307,115.614562 80.3875921,114.806906 82.6701433,113.847844 C84.9241157,112.858312 87.1185882,111.745969 89.2240449,110.54175 L88.3882339,97.4345625 Z" id="Fill-4" fill="#EA7924"></path>
                    <path d="M59.4061587,27.9882187 C55.3001902,27.9882187 51.1328476,28.7916562 47.1257335,30.4899375 C31.1366311,37.3360312 23.6630563,55.953375 30.470887,71.9879063 C37.3218201,88.0041563 55.9111193,95.46525 71.9072492,88.6163438 L72.5645602,90.1524375 L71.9072492,88.6163438 C87.9132177,81.76275 95.3867925,63.1800938 88.5672492,47.1929062 C83.4380681,35.2018125 71.7039185,27.9882187 59.4061587,27.9882187 Z M59.5504579,94.5019688 C45.9919539,94.5024375 33.0654618,86.5482188 27.3984382,73.2985313 C19.8700484,55.5685313 28.1335209,34.987125 45.817202,27.4149375 C63.5219657,19.9111875 84.074765,28.1949375 91.6392295,45.879 C99.1812059,63.562125 90.919139,84.1111875 73.2218713,91.689 C68.7626508,93.5982188 64.1197768,94.5019688 59.5504579,94.5019688 Z M32.6236626,110.190094 C36.181013,112.099313 39.9726154,113.633063 43.920698,114.760406 L52.538828,105.014625 L53.4186783,105.129938 C57.8793043,105.716344 62.303387,105.664313 66.5681783,104.974781 L67.4531823,104.831813 L76.2835445,114.396656 C78.2849933,113.769938 80.2114815,113.068688 82.0231862,112.306969 C83.8484776,111.505875 85.688761,110.594625 87.4901587,109.599469 L86.6646547,96.6455625 L87.3791232,96.1032188 C90.9598988,93.3868125 94.0604579,90.2143125 96.5950642,86.6743125 L97.1211941,85.9397813 L110.116088,86.4886875 C112.018214,82.8788438 113.543663,79.0768125 114.661044,75.1618125 L104.915694,66.5954063 L105.037037,65.7061875 C105.634379,61.3472813 105.591745,56.8894688 104.910541,52.4560313 L104.775143,51.577125 L114.304513,42.7725938 C113.701548,40.8085313 113.000198,38.8857188 112.214048,37.044 C111.256426,34.8619688 110.412651,33.134625 109.546856,31.5924375 L96.5543043,32.39025 L96.0141193,31.6772813 C93.3998673,28.2268125 90.2243476,25.120875 86.576576,22.4457188 L85.8574224,21.918375 L86.4051035,8.9311875 C82.7952807,7.0393125 79.0046154,5.5215 75.1094736,4.409625 L66.4871272,14.1624375 L65.5997807,14.0391562 C61.1822571,13.4255625 56.7516154,13.4672812 52.4320091,14.1647812 L51.5470051,14.3072812 L42.7377256,4.76446875 C40.944761,5.3105625 39.0599697,6.0015 37.0074539,6.864 C35.0833083,7.67165625 33.2950287,8.54634375 31.5671862,9.52603125 L32.3641114,22.5272813 L31.6515169,23.0682188 C28.0712098,25.784625 24.9706508,28.9566563 22.435576,32.4966563 L21.9099146,33.2311875 L8.91736339,32.6822813 C6.97307205,36.3849375 5.45511929,40.1761875 4.39348937,43.97775 L14.1107295,52.574625 L13.9950091,53.4554063 C13.3986035,57.9980625 13.4403004,62.4338438 14.1186941,66.6413438 L14.2615878,67.5268125 L4.72191063,76.3430625 C5.32019016,78.3357188 6.02154055,80.2515 6.81143819,82.0510313 C7.60602087,83.9429063 8.51023346,85.78275 9.51189488,87.5485313 L22.4463516,86.7493125 L22.9870051,87.4632188 C25.6162492,90.933375 28.7908319,94.038375 32.4226744,96.6929063 L33.141828,97.218375 L32.6236626,110.190094 Z M45.048387,118.528687 L44.0514106,118.263375 C39.1419579,116.954625 34.4470799,115.054312 30.0970209,112.615406 L29.2040524,112.114781 L29.7334618,98.8566562 C26.3836587,96.3174375 23.4100642,93.4093125 20.8759264,90.1950937 L7.67114291,91.01025 L7.15016654,90.1336875 C5.86506024,87.970875 4.7181626,85.694625 3.74180039,83.369625 C2.77199724,81.1599375 1.92025709,78.7618125 1.22171772,76.2675938 L0.945768898,75.2832187 L10.6864343,66.280875 C10.126572,62.2988437 10.0890917,58.14525 10.5739933,53.9072813 L0.638898819,45.11775 L0.894701969,44.1263437 C2.1118752,39.4144687 3.98917047,34.7180625 6.47458386,30.1669687 L6.97307205,29.2547812 L20.2570327,29.815875 C22.7087138,26.53275 25.6171862,23.5580625 28.921076,20.9555625 L28.1072846,7.683375 L28.983387,7.162125 C31.1178909,5.89321875 33.3198594,4.78790625 35.7143831,3.78196875 C38.2710091,2.7080625 40.5924461,1.8830625 42.8117492,1.2605625 L43.796076,0.9849375 L52.7918201,10.73025 C56.8640563,10.1532187 61.0178122,10.1138437 65.1654776,10.6130625 L73.9813161,0.64134375 L74.978761,0.907125 C79.8109106,2.19525 84.500635,4.072125 88.9186272,6.4861875 L89.8308043,6.98446875 L89.2700051,20.2861875 C92.6305839,22.8413437 95.6032413,25.7480625 98.125198,28.9454062 L111.390419,28.1311875 L111.911395,29.00775 C113.018938,30.8710312 114.089001,33.0029062 115.279001,35.7160312 C116.256769,38.0049375 117.104761,40.3936875 117.807048,42.8307187 L118.092367,43.8216562 L108.339989,52.833375 C108.904068,56.9897812 108.944828,61.1630625 108.461332,65.2636875 L118.430159,74.0260312 L118.16358,75.02775 C116.868635,79.8863437 114.981501,84.5897812 112.554182,89.00775 L112.055226,89.9157187 L98.774076,89.354625 C96.3228634,92.63775 93.4143909,95.6119688 90.1119067,98.214 L90.9570878,111.474937 L90.0533437,111.992437 C87.8630878,113.245406 85.6048988,114.384469 83.3410878,115.378219 C81.0964854,116.321344 78.7169539,117.167437 76.2441902,117.902906 L75.2472138,118.199625 L66.2088358,108.409312 C62.185324,108.979312 58.0432807,109.027594 53.8703161,108.55275 L45.048387,118.528687 Z" id="Fill-6" fill="#192330"></path>
                    <g id="Group-10" transform="translate(56.220472, 0.000000)">
                        <mask id="mask-2" fill="white">
                            <use xlink:href="#path-1"></use>
                        </mask>
                        <g id="Clip-9"></g>
                        <path d="M6.19160748,2.9188125 C6.19160748,1.3269375 4.90181614,0.036 3.31030827,0.036 C1.7192689,0.036 0.429009055,1.3269375 0.429009055,2.9188125 C0.429009055,4.5106875 1.7192689,5.80115625 3.31030827,5.80115625 C4.90181614,5.80115625 6.19160748,4.5106875 6.19160748,2.9188125" id="Fill-8" fill="#192330" mask="url(#mask-2)"></path>
                    </g>
                    <g id="Group-13" transform="translate(0.000000, 57.187500)">
                        <mask id="mask-4" fill="white">
                            <use xlink:href="#path-3"></use>
                        </mask>
                        <g id="Clip-12"></g>
                        <path d="M2.88115866,0.21065625 C1.29011929,0.21065625 -0.000140551181,1.501125 -0.000140551181,3.093 C-0.000140551181,4.68534375 1.29011929,5.9758125 2.88115866,5.9758125 C4.47219803,5.9758125 5.76245787,4.68534375 5.76245787,3.093 C5.76245787,1.501125 4.47219803,0.21065625 2.88115866,0.21065625" id="Fill-11" fill="#192330" mask="url(#mask-4)"></path>
                    </g>
                    <path d="M57.2187138,116.648344 C57.2187138,118.240219 58.5085051,119.531156 60.100013,119.531156 C61.6910524,119.531156 62.9813122,118.240219 62.9813122,116.648344 C62.9813122,115.056469 61.6910524,113.766 60.100013,113.766 C58.5085051,113.766 57.2187138,115.056469 57.2187138,116.648344" id="Fill-14" fill="#192330"></path>
                    <path d="M116.005651,61.156875 C117.59669,61.156875 118.88695,59.8664063 118.88695,58.2745313 C118.88695,56.6821875 117.59669,55.39125 116.005651,55.39125 C114.414611,55.39125 113.12482,56.6821875 113.12482,58.2745313 C113.12482,59.8664063 114.414611,61.156875 116.005651,61.156875" id="Fill-16" fill="#192330"></path>
                    <polygon id="Fill-18" fill="#192330" points="100.005164 10.0544062 97.0910693 21.2026875 108.4209 18.6165937"></polygon>
                    <polygon id="Fill-20" fill="#192330" points="109.598063 100.036125 98.4556339 97.1205 101.040839 108.45675"></polygon>
                    <polygon id="Fill-22" fill="#192330" points="19.4808154 10.0544062 22.3949098 21.2026875 11.0650791 18.6165937"></polygon>
                    <polygon id="Fill-24" fill="#192330" points="9.88815039 100.036125 21.0305795 97.1205 18.4453748 108.45675"></polygon>
                    <path d="M21.0295488,45.1786406 C20.8107575,45.1786406 20.5886866,45.1355156 20.3750488,45.0441094 L12.2910134,41.5936406 C11.4430213,41.2312969 11.0485409,40.2492656 11.410226,39.4003594 C11.7723795,38.5514531 12.7534268,38.1572344 13.6018874,38.5191094 L21.6859228,41.9700469 C22.5343835,42.3323906 22.9288638,43.3139531 22.5667102,44.1628594 C22.295915,44.7980156 21.6784268,45.1786406 21.0295488,45.1786406" id="Fill-26" fill="#FFFFFF"></path>
                    <path d="M42.4219539,22.5174844 C41.7599579,22.5174844 41.1335681,22.1209219 40.8716744,21.4693594 L37.5944894,13.3098281 C37.2506075,12.4534219 37.665702,11.4802969 38.5211902,11.1362344 C39.3776154,10.7917031 40.3502295,11.2070156 40.6941114,12.0634219 L43.9712965,20.2224844 C44.3151783,21.0793594 43.9000839,22.0524844 43.0441272,22.3965469 C42.840328,22.4785781 42.6290327,22.5174844 42.4219539,22.5174844" id="Fill-28" fill="#FFFFFF"></path>
                    <path d="M96.9783941,45.1786406 C96.3295161,45.1786406 95.712028,44.7980156 95.4412327,44.1628594 C95.0790791,43.3139531 95.4735594,42.3323906 96.3220201,41.9700469 L104.406056,38.5191094 C105.254516,38.1572344 106.235563,38.5514531 106.597717,39.4003594 C106.959402,40.2492656 106.564922,41.2312969 105.716461,41.5936406 L97.6328941,45.0441094 C97.4192563,45.1355156 97.1967169,45.1786406 96.9783941,45.1786406" id="Fill-30" fill="#FFFFFF"></path>
                    <path d="M75.5857547,22.5174844 C75.378676,22.5174844 75.1673807,22.4785781 74.9635815,22.3965469 C74.1076248,22.0524844 73.6925303,21.0793594 74.0364122,20.2224844 L77.3140657,12.0634219 C77.6579476,11.2074844 78.6310303,10.7921719 79.4865185,11.1362344 C80.3424752,11.4802969 80.7575697,12.4534219 80.4132193,13.3098281 L77.1360343,21.4693594 C76.8741406,22.1209219 76.2477508,22.5174844 75.5857547,22.5174844" id="Fill-32" fill="#FFFFFF"></path>
                    <path d="M14.0433587,81.4280156 C13.3944807,81.4280156 12.7769925,81.0473906 12.5061972,80.4122344 C12.1445122,79.5633281 12.5389925,78.5817656 13.3869846,78.2194219 L21.4710201,74.7684844 C22.3190122,74.4066094 23.300528,74.8008281 23.6626815,75.6497344 C24.024835,76.4986406 23.6303547,77.4802031 22.7818941,77.8430156 L14.6978587,81.2934844 C14.4842209,81.3844219 14.26215,81.4280156 14.0433587,81.4280156" id="Fill-34" fill="#FFFFFF"></path>
                    <path d="M40.2395689,108.79725 C40.0324902,108.79725 39.8216634,108.758344 39.6173957,108.676313 C38.761439,108.33225 38.3463445,107.359125 38.6902264,106.502719 L41.9674114,98.3436563 C42.3117618,97.48725 43.284376,97.0719375 44.1403327,97.4164688 C44.9962894,97.7605313 45.4113839,98.7331875 45.0670335,99.5895938 L41.7898484,107.749125 C41.5279547,108.401156 40.901565,108.79725 40.2395689,108.79725" id="Fill-36" fill="#FFFFFF"></path>
                    <path d="M106.156339,81.4280156 C105.938017,81.4280156 105.715477,81.3848906 105.501839,81.2934844 L97.4178039,77.8430156 C96.5698118,77.4802031 96.1753315,76.4986406 96.5370165,75.6497344 C96.8996386,74.8008281 97.8802173,74.4066094 98.728678,74.7684844 L106.812713,78.2194219 C107.661174,78.5817656 108.055654,79.5633281 107.693501,80.4122344 C107.422706,81.0473906 106.805217,81.4280156 106.156339,81.4280156" id="Fill-38" fill="#FFFFFF"></path>
                    <path d="M79.9601291,108.79725 C79.2981331,108.79725 78.6717433,108.401156 78.4098496,107.749125 L75.1326646,99.5895938 C74.7883142,98.7331875 75.2034087,97.7605313 76.0593654,97.4164688 C76.9148535,97.0719375 77.8879362,97.48725 78.2318181,98.3436563 L81.5094717,106.502719 C81.8533535,107.359125 81.4382591,108.33225 80.5823024,108.676313 C80.3785031,108.758344 80.1672079,108.79725 79.9601291,108.79725" id="Fill-40" fill="#FFFFFF"></path>
                    <polygon id="Fill-42" fill="#EA7924" points="82.1814 61.7510625 82.1814 61.7880937 72.7930496 67.213875 63.3826795 61.6845 72.726522 56.2887187"></polygon>
                    <polygon id="Fill-44" fill="#EA7924" points="55.3335008 61.7505938 55.3335008 61.787625 45.9451504 67.2134063 36.5347803 61.6840313 45.8786228 56.28825"></polygon>
                    <polygon id="Fill-46" fill="#EA7924" points="68.486374 38.2553906 68.486374 38.2924219 59.0980236 43.7182031 49.6876535 38.1888281 59.0314961 32.7930469"></polygon>
                    <polygon id="Fill-48" fill="#192330" points="45.5964898 68.8738594 35.7710252 63.1982344 37.4412417 60.3037031 47.2667063 65.9793281"></polygon>
                    <polygon id="Fill-50" fill="#192330" points="47.2668937 68.8743281 45.5966772 65.9797969 55.4226102 60.3041719 57.0928268 63.1987031"></polygon>
                    <polygon id="Fill-52" fill="#192330" points="48.1018614 78.7789219 44.7614283 78.7775156 44.7618969 67.4272031 48.1018614 67.4272031"></polygon>
                    <path d="M38.2047157,72.1386094 L46.3627748,76.8472031 L54.5208339,72.1386094 L54.5208339,62.7176719 L46.3627748,58.0043906 L38.2047157,62.7176719 L38.2047157,72.1386094 Z M46.3627748,80.7054844 L34.8642827,74.0689219 L34.8642827,60.7882969 L46.3627748,54.1451719 L57.8612669,60.7882969 L57.8612669,74.0689219 L46.3627748,80.7054844 Z" id="Fill-54" fill="#192330"></path>
                    <polygon id="Fill-56" fill="#192330" points="72.2057799 68.8738594 62.3803154 63.1982344 64.0505319 60.3037031 73.8759965 65.9793281"></polygon>
                    <polygon id="Fill-58" fill="#192330" points="73.8762307 68.8743281 72.2060142 65.9797969 82.0314787 60.3041719 83.7016953 63.1987031"></polygon>
                    <polygon id="Fill-60" fill="#192330" points="74.7111984 78.7789219 71.3707654 78.7775156 71.3707654 67.4272031 74.7111984 67.4272031"></polygon>
                    <path d="M64.8140528,72.1386094 L72.9716433,76.8472031 L81.1297024,72.1386094 L81.1297024,62.7176719 L72.9716433,58.0043906 L64.8140528,62.7176719 L64.8140528,72.1386094 Z M72.9716433,80.7054844 L61.4736197,74.0689219 L61.4736197,60.7882969 L72.9716433,54.1451719 L84.4701354,60.7882969 L84.4701354,74.0689219 L72.9716433,80.7054844 Z" id="Fill-62" fill="#192330"></path>
                    <polygon id="Fill-64" fill="#192330" points="58.5471567 45.6510469 48.7212236 39.9754219 50.3914402 37.0808906 60.2173732 42.7565156"></polygon>
                    <polygon id="Fill-66" fill="#192330" points="60.2173264 45.6515156 58.5471098 42.7569844 68.3725744 37.0813594 70.0427909 39.9758906"></polygon>
                    <polygon id="Fill-68" fill="#192330" points="61.0522941 55.5556875 57.711861 55.5552187 57.711861 44.2039688 61.0522941 44.2039688"></polygon>
                    <path d="M51.1551484,48.9157969 L59.3132075,53.6243906 L67.470798,48.9157969 L67.470798,39.4943906 L59.3132075,34.7815781 L51.1551484,39.4943906 L51.1551484,48.9157969 Z M59.3132075,57.4826719 L47.8147154,50.8461094 L47.8147154,37.5650156 L59.3132075,30.9218906 L70.8112311,37.5650156 L70.8112311,50.8461094 L59.3132075,57.4826719 Z" id="Fill-70" fill="#192330"></path>
                    <path d="M41.7468866,43.6606875 L39.1326346,41.3295938 C39.7946307,40.5856875 40.5053512,39.87225 41.2432449,39.2075625 L43.5852961,41.8124063 C42.9425087,42.3913125 42.3240835,43.0124063 41.7468866,43.6606875 M38.7311268,47.9075625 L35.6708591,46.2045938 C36.1543551,45.3331875 36.6921976,44.4814688 37.2665835,43.6714688 L40.1216465,45.701625 C39.6208157,46.4061563 39.1532488,47.1481875 38.7311268,47.9075625 M36.7254614,52.7094375 L33.3644142,51.7264688 C33.642237,50.7739688 33.9786228,49.8233437 34.3632646,48.90225 L37.5945362,50.2517813 C37.2600244,51.0538125 36.967678,51.8806875 36.7254614,52.7094375" id="Fill-72" fill="#192330"></path>
                    <path d="M77.8289984,44.7712031 C77.2920929,44.0887031 76.7125535,43.4301094 76.1072465,42.8146406 L78.6024984,40.3565156 C79.2991638,41.0638594 79.9644394,41.8204219 80.5814591,42.6046406 L77.8289984,44.7712031 Z M80.576774,49.1947969 C80.2043134,48.4138594 79.7840654,47.6441719 79.326337,46.9082344 L82.3004,45.0571406 C82.8265299,45.9041719 83.310026,46.7891719 83.7382386,47.6863594 L80.576774,49.1947969 Z M82.2811913,54.1124531 C82.0905102,53.2663594 81.8496992,52.4230781 81.5667228,51.6051094 L84.8743606,50.4571406 C85.2009079,51.3974531 85.4773252,52.3677656 85.6970535,53.3399531 L82.2811913,54.1124531 Z" id="Fill-74" fill="#192330"></path>
                    <path d="M54.657965,85.8079219 C53.6825398,85.6040156 52.7094571,85.3443281 51.7644846,85.0335469 L52.8560988,81.7044844 C53.6783232,81.9744844 54.5253783,82.2008906 55.3733705,82.3785469 L54.657965,85.8079219 Z M63.5928035,86.1660469 L63.1580319,82.6897969 C64.0182051,82.5819844 64.8811894,82.4244844 65.7216854,82.2224531 L66.5410988,85.6288594 C65.5736382,85.8613594 64.5822839,86.0422969 63.5928035,86.1660469 Z M60.199898,86.3774531 C59.3350398,86.3769844 58.4673705,86.3357344 57.6189098,86.2555781 L57.9487366,82.7671406 C58.6889728,82.8374531 59.4465437,82.8726094 60.2013035,82.8735469 L60.4393035,82.8721406 C60.4435201,82.8721406 60.5775122,82.8707344 60.5821972,82.8707344 L60.5821972,86.3746406 L60.199898,86.3774531 Z" id="Fill-76" fill="#192330"></path>
                </g>
            </g>
        </g>
    </g>
</svg>