<?xml version="1.0" encoding="UTF-8"?>
<svg width="422px" height="550px" viewBox="0 0 422 550" version="1.1" xmlns="http://www.w3.org/2000/svg" xmlns:xlink="http://www.w3.org/1999/xlink">
    <!-- Generator: Sketch 51.3 (57544) - http://www.bohemiancoding.com/sketch -->
    <title>Group 8</title>
    <desc>Created with Sketch.</desc>
    <defs>
        <polygon id="path-1" points="0.000101932367 0.390510204 421.888894 0.390510204 421.888894 112.482347 0.000101932367 112.482347"></polygon>
        <polygon id="path-3" points="0 550 421.888894 550 421.888894 0 0 0"></polygon>
    </defs>
    <g id="Page-1" stroke="none" stroke-width="1" fill="none" fill-rule="evenodd">
        <g id="Insight-Webpage-Update_v4" transform="translate(-383.000000, -2501.000000)">
            <g id="Group-8" transform="translate(383.000000, 2501.000000)">
                <path d="M0,249.72551 L421.887874,249.72551 L421.887874,137.630612 L0,137.630612 L0,249.72551 Z M9.38389372,240.331633 L412.505,240.331633 L412.505,147.02449 L9.38389372,147.02449 L9.38389372,240.331633 Z" id="Fill-1" fill="#273044"></path>
                <path d="M44.1071546,137.813265 L377.782758,137.813265 L377.782758,112.091837 L44.1071546,112.091837 L44.1071546,137.813265 Z M34.7222415,147.207143 L387.165633,147.207143 L387.165633,102.697959 L34.7222415,102.697959 L34.7222415,147.207143 Z" id="Fill-2" fill="#273044"></path>
                <g id="Group-17">
                    <g id="Group-5" transform="translate(0.000000, 413.265306)">
                        <mask id="mask-2" fill="white">
                            <use xlink:href="#path-1"></use>
                        </mask>
                        <g id="Clip-4"></g>
                        <path d="M9.38399565,64.4241837 C9.38399565,85.7435714 26.7114787,103.088469 48.0102469,103.088469 L373.881909,103.088469 C395.178638,103.088469 412.505102,85.7435714 412.505102,64.4241837 L412.505102,9.78438776 L9.38399565,9.78438776 L9.38399565,64.4241837 Z M48.0102469,112.482347 C21.5373918,112.482347 0.000101932367,90.9231633 0.000101932367,64.4241837 L0.000101932367,0.390510204 L421.888996,0.390510204 L421.888996,64.4241837 C421.888996,90.9231633 400.352725,112.482347 373.881909,112.482347 L48.0102469,112.482347 Z" id="Fill-3" fill="#273044" mask="url(#mask-2)"></path>
                    </g>
                    <mask id="mask-4" fill="white">
                        <use xlink:href="#path-3"></use>
                    </mask>
                    <g id="Clip-7"></g>
                    <path d="M44.1071546,413.659184 L377.782758,413.659184 L377.782758,387.933673 L44.1071546,387.933673 L44.1071546,413.659184 Z M34.7222415,423.054082 L387.165633,423.054082 L387.165633,378.539796 L34.7222415,378.539796 L34.7222415,423.054082 Z" id="Fill-6" fill="#273044" mask="url(#mask-4)"></path>
                    <path d="M9.38389372,378.535714 L412.505,378.535714 L412.505,285.231633 L9.38389372,285.231633 L9.38389372,378.535714 Z M0,387.930612 L421.888894,387.930612 L421.888894,275.837755 L0,275.837755 L0,387.930612 Z" id="Fill-8" fill="#273044" mask="url(#mask-4)"></path>
                    <path d="M44.1071546,275.853061 L377.782758,275.853061 L377.782758,250.131633 L44.1071546,250.131633 L44.1071546,275.853061 Z M34.7222415,285.246939 L387.165633,285.246939 L387.165633,240.737755 L34.7222415,240.737755 L34.7222415,285.246939 Z" id="Fill-9" fill="#273044" mask="url(#mask-4)"></path>
                    <path d="M48.0102469,9.39346939 C26.7114787,9.39346939 9.38399565,26.7404082 9.38399565,48.0618367 L9.38399565,102.697551 L412.504083,102.697551 L412.504083,48.0618367 C412.504083,26.7404082 395.178638,9.39346939 373.881909,9.39346939 L48.0102469,9.39346939 Z M0.000101932367,112.092449 L0.000101932367,48.0618367 C0.000101932367,21.5597959 21.5373918,-0.000408163265 48.0102469,-0.000408163265 L373.881909,-0.000408163265 C400.352725,-0.000408163265 421.888996,21.5597959 421.888996,48.0618367 L421.888996,112.092449 L0.000101932367,112.092449 Z" id="Fill-10" fill="#273044" mask="url(#mask-4)"></path>
                    <polygon id="Fill-11" fill="#273044" mask="url(#mask-4)" points="49.6757198 550 59.0596135 550 59.0596135 525.086735 49.6757198 525.086735"></polygon>
                    <polygon id="Fill-12" fill="#273044" mask="url(#mask-4)" points="361.021 550 370.404894 550 370.404894 525.086735 361.021 525.086735"></polygon>
                    <polygon id="Fill-13" fill="#B1B3B6" mask="url(#mask-4)" points="19 230.05102 401.88957 230.05102 401.88957 157 19 157"></polygon>
                    <path d="M44.3719855,506.05102 C30.3817681,506.05102 19,494.657143 19,480.652041 L19,433 L401.88957,433 L401.88957,480.647959 C401.88957,494.656122 390.506783,506.05102 376.514527,506.05102 L44.3719855,506.05102 Z" id="Fill-14" fill="#273044" mask="url(#mask-4)"></path>
                    <polygon id="Fill-15" fill="#6D6E71" mask="url(#mask-4)" points="19 368.05102 401.88957 368.05102 401.88957 295 19 295"></polygon>
                    <path d="M19,93.055102 L19,45.4020408 C19,31.3959184 30.3827874,20 44.3760628,20 L376.518604,20 C390.507802,20 401.88957,31.3938776 401.88957,45.3989796 L401.88957,93.055102 L19,93.055102 Z" id="Fill-16" fill="#EA7924" mask="url(#mask-4)"></path>
                </g>
                <text id="Proactive-Management" font-family="Karla-Bold, Karla" font-size="21" font-weight="bold" line-spacing="28" letter-spacing="0.5" fill="#FFFFFF">
                    <tspan x="90.252" y="61">Proactive Management</tspan>
                </text>
                <text id="Proactive-Support" font-family="Karla-Bold, Karla" font-size="21" font-weight="bold" line-spacing="28" letter-spacing="0.5" fill="#FFFFFF">
                    <tspan x="116.328" y="198">Proactive Support</tspan>
                </text>
                <text id="Prescriptive-Managem" font-family="Karla-Bold, Karla" font-size="21" font-weight="bold" line-spacing="28" letter-spacing="0.5" fill="#FFFFFF">
                    <tspan x="76.2615" y="336">Prescriptive Management</tspan>
                </text>
                <text id="Reporting" font-family="Karla-Bold, Karla" font-size="21" font-weight="bold" line-spacing="28" letter-spacing="0.5" fill="#FFFFFF">
                    <tspan x="158.963" y="474">Reporting</tspan>
                </text>
            </g>
        </g>
    </g>
</svg>