<svg width="218" height="196" xmlns="http://www.w3.org/2000/svg" xmlns:xlink="http://www.w3.org/1999/xlink"><defs><path id="a" d="M218 72.3895276V.0019715H0V144.777084h218V72.3895276z"/></defs><g fill="none" fill-rule="evenodd"><path fill="#DDD" d="M76.9408675 190.416577h64.1182655v-27.65731H76.9408675"/><path fill="#CFCFCF" d="M61.5495422 195.998543h94.8982888v-7.544541H61.5495422"/><g transform="translate(0 .673)"><mask id="b" fill="#fff"><use xlink:href="#a"/></mask><path d="M0 144.777084V7.54368035c0-1.93119658.74855422-3.85981822 2.25091566-5.33267747C3.7559036.74071855 5.72578313-.00086092 7.69303614-.00086092H210.304337c1.967253 0 3.939759.74157947 5.442121 2.2118638C217.246193 3.68386213 218 5.61248378 218 7.54368035V144.777084H0z" fill="#3F4A5A" mask="url(#b)"/></g><path fill="#FFF" d="M7.6660499 135.595068H210.336577V10.52766947H7.6660499"/><path d="M218 163.054872c0 1.928621-.753807 3.862393-2.253542 5.332677-1.502362 1.470284-3.474868 2.211864-5.442121 2.211864H7.69303614c-1.967253 0-3.93713253-.74158-5.44212048-2.211864C.74855422 166.917265 0 164.983493 0 163.054872v-17.604788h218v17.604788z" fill="#CFCFCF"/><path fill="#3F4A5A" d="M113.114422 27.2876327h-8.234097l-2.400626 11.7622746h13.045855m-30.1076383-6.6476936l-7.1546024 4.0323385 3.9213734 11.386335 11.293976-6.4244473m-29.4651952 9.038l-4.1131085 6.9780569 9.1743856 7.9307806 6.529494-11.0773435m-20.934829 22.2646365l.0078796 8.0698267 11.9978795 2.3560599V74.159061m-6.7758603 29.539068l4.1131085 6.983207 11.5907711-3.826345-6.529494-11.0721932m9.1906699 28.8919882l7.1546024 4.029763 8.060747-9.00195-11.2966025-6.396124m22.6977402 20.51626h8.234096l2.411133-11.762274h-13.045856m30.119983 6.645118l7.144097-4.029763-3.918747-11.368311-11.304482 6.396123m29.475964-9.02255l4.107855-6.983207-9.179639-7.9153307-6.521614 11.0721937m20.927212-22.2548518v-8.0698268l-11.98212-2.3715094v12.797396m6.757212-29.5437027l-4.107856-6.9780569-11.596024 3.831494 6.524241 11.0773435m-9.18279-28.9074377l-7.162482-4.0194638-8.060747 8.9813515 11.304482 6.4244472"/><path d="M108.992383 92.1889697c-6.524241 0-11.845542-5.2219555-11.845542-11.6335282 0-6.4064227 5.321301-11.6335281 11.845542-11.6335281 6.561012 0 11.869181 5.2271054 11.869181 11.6335281 0 6.4115727-5.308169 11.6335282-11.869181 11.6335282m0-53.6125918c-23.6438071 0-42.8330601 18.7866803-42.8330601 41.9790636 0 23.1975335 19.189253 41.9867885 42.8330601 41.9867885 23.675325 0 42.851446-18.789255 42.851446-41.9867885 0-23.1923833-19.176121-41.9790636-42.851446-41.9790636" fill="#3F4A5A"/><path d="M108.992383 90.6272754c-5.662747 0-10.2538794-4.5061253-10.2538794-10.0705464 0-5.5566963 4.5911324-10.0679715 10.2538794-10.0679715 5.670627 0 10.288024 4.5112752 10.288024 10.0679715 0 5.5644211-4.617397 10.0705464-10.288024 10.0705464m0-30.219364c-11.3465059 0-20.5471565 9.0174006-20.5471565 20.1488176 0 11.1442917 9.2006506 20.159117 20.5471565 20.159117 11.372771 0 20.568169-9.0148253 20.568169-20.159117 0-11.131417-9.195398-20.1488176-20.568169-20.1488176m60.143048-33.7614359h-3.666602l-1.074241 5.2374051h5.815084m-13.41698-2.9593656l-3.185952 1.7895754 1.741373 5.0777596 5.037639-2.855596m-13.129379 4.0199787l-1.830674 3.1079391 4.086843 3.5353772 2.910169-4.9309886m-9.32935 9.9175956l.002627 3.5894507 5.347566 1.0582957v-5.7034672m-3.018643 13.158401l1.830675 3.1130888 5.166337-1.7046028-2.907542-4.9361384m4.092621 12.8743863l3.185952 1.7998752 3.59306-4.0091641-5.037638-2.855596m10.11914 9.1433146h3.666602l1.076868-5.2477049h-5.815085m13.421709 2.9696654l3.180698-1.7998752-1.744-5.0648849-5.035012 2.8530211m13.132268-4.0222963l1.828048-3.1130888-4.08947-3.5276524-2.904915 4.9361384m9.324096-9.923003v-3.5894507l-5.339687-1.0557208v5.7034673m3.010764-13.1684432l-1.828048-3.1079391-5.166338 1.7123277 2.90229 4.9309886m-4.089996-12.8846861l-3.191204-1.7818507-3.587808 4.0014393 5.035012 2.8581709" fill="#FD5C22"/><path d="M167.301342 55.5639555c-2.912795 0-5.28453-2.3303106-5.28453-5.1833316 0-2.8530211 2.371735-5.1807567 5.28453-5.1807567 2.915422 0 5.28453 2.3277356 5.28453 5.1807567 0 2.853021-2.369108 5.1833316-5.28453 5.1833316m0-23.8850393c-10.537542 0-19.089446 8.3685185-19.089446 18.7017077 0 10.3331891 8.551904 18.7042825 19.089446 18.7042825 10.542795 0 19.092072-8.3710934 19.092072-18.7042825 0-10.3331892-8.549277-18.7017077-19.092072-18.7017077" fill="#FD5C22"/><path d="M167.301342 54.8651198c-2.529325 0-4.572747-2.0032946-4.572747-4.482951 0-2.4770815 2.043422-4.4881008 4.572747-4.4881008 2.521446 0 4.580627 2.0110193 4.580627 4.4881008 0 2.4796564-2.059181 4.482951-4.580627 4.482951m0-13.4643025c-5.061277 0-9.156 4.0220387-9.156 8.9813515 0 4.9644627 4.094723 8.9813515 9.156 8.9813515 5.063904 0 9.161253-4.0168888 9.161253-8.9813515 0-4.9593128-4.097349-8.9813515-9.161253-8.9813515" fill="#F2F2F2"/></g></svg>