<svg width="48" height="48" xmlns="http://www.w3.org/2000/svg"><g fill="none"><path d="M19.8304705 2.87175027c-4.0097366 0-7.27174746 3.3133725-7.27174746 7.38936142 0 3.1203877 1.91518708 5.7876805 4.61066954 6.8705399v-2.423498c-1.47618492-.9159788-2.46749492-2.5638082-2.46749492-4.44750807 0-2.8733298 2.3000594-5.21245518 5.12857284-5.21245518 2.8285134 0 5.1290315 2.3391254 5.1290315 5.21245518 0 1.86971545-.9770894 3.50728965-2.4367602 4.42746375v2.4314224c2.6803445-1.0907838 4.5790174-3.7524829 4.5790174-6.85888616.0004587-4.07552277-3.2620109-7.38889528-7.2712887-7.38889528z" fill="#FF4F00"/><path d="M35.4194052 22.7748265c-.560565 0-1.0931475.1291227-1.5688479.3580009-.2637683-1.7941996-1.7894957-3.1749269-3.6266991-3.1749269-.5683633 0-1.1073681.1323857-1.5890319.3677899-.3110172-1.7373296-1.8096798-3.0569916-3.6069739-3.0569916-.5458856 0-1.0624128.1225966-1.5266449.3388888v-7.36092646c0-2.0561742-1.647749-3.73010788-3.670737-3.73010788-2.02344678 0-3.66981957 1.6739337-3.66981957 3.73010788V23.5458336l-.09403913-.2246829c-.5683633-1.4035684-1.89959034-2.3111565-3.39458308-2.3111565-.47891145 0-.9477309.0950939-1.39361397.2810866-1.8720667.78033-2.7679614 2.9646946-1.99775802 4.8651757l5.31435743 13.1322918.02752365.0615314c2.17849666 4.5398051 6.6176021 7.3613926 11.5847029 7.3613926 7.1020182 0 12.8801491-5.8711208 12.8801491-13.0903386V26.503536c.0009175-2.0557081-1.6449966-3.7287095-3.6679846-3.7287095zm1.5252687 10.8458411c0 6.0179571-4.8148032 10.9125-10.7365158 10.9125-4.1308406 0-7.82222034-2.3391254-9.64382702-6.106525l-5.30288925-13.0959324c-.15504987-.3850373-.15321496-.8069003.0032111-1.189607.15642605-.3817743.4513878-.6801084.8289205-.8371999.18624333-.0778465.3812025-.1184013.57937275-.1184013.62249314 0 1.17617716.3785113 1.41700907.9742471L18.304743 34.2667472V10.24666114c0-.8567781.6848801-1.5527355 1.5266449-1.5527355.8417649 0 1.5271037.6959574 1.5271037 1.5527355V26.5659996c0 .6003973.4793702 1.0870547 1.0711286 1.0870547.5922171 0 1.0725047-.4866574 1.0725047-1.0870547v-5.5676591c0-.8563119.6835039-1.551337 1.526645-1.551337.8403886 0 1.5266449.6945589 1.5266449 1.551337v7.4872523c0 .6022618.477994 1.0889192 1.0702111 1.0889192s1.0702111-.4866574 1.0702111-1.0889192v-4.7989829c0-.8549135.686715-1.551337 1.5289386-1.551337.8403887 0 1.5252688.6959574 1.5252688 1.551337v6.718576h.0022936c0 .0018646-.0013762.0060599-.0013762.0088568 0 .6003973.4789115 1.0875208 1.0720461 1.0875208.5908409 0 1.0702111-.4871235 1.0702111-1.0875208V26.503536c0-.8558458.6853388-1.5518032 1.5271036-1.5518032.8431411 0 1.5252688.6959574 1.5252688 1.5518032v7.1171316h-.0009175z" fill="#2A3240"/></g></svg>