<?xml version="1.0" encoding="UTF-8"?>
<svg width="43px" height="43px" viewBox="0 0 43 43" version="1.1" xmlns="http://www.w3.org/2000/svg" xmlns:xlink="http://www.w3.org/1999/xlink">
    <!-- Generator: Sketch 46.2 (44496) - http://www.bohemiancoding.com/sketch -->
    <title>Group</title>
    <desc>Created with Sketch.</desc>
    <defs>
        <polygon id="path-1" points="0 42.1882353 0 0.0864470588 42.9037929 0.0864470588 42.9037929 42.1882353"></polygon>
    </defs>
    <g id="Strata" stroke="none" stroke-width="1" fill="none" fill-rule="evenodd">
        <g id="Strata-Landing" transform="translate(-603.000000, -697.000000)">
            <g id="Group" transform="translate(603.000000, 697.000000)">
                <g id="Page-1">
                    <g id="Group-3" transform="translate(0.000000, 0.431744)">
                        <mask id="mask-2" fill="white">
                            <use xlink:href="#path-1"></use>
                        </mask>
                        <g id="Clip-2"></g>
                        <path d="M16.6136364,30.8859035 C24.7690859,30.8859035 31.3813131,24.3961624 31.3813131,16.3917859 C31.3813131,8.38740941 24.7690859,1.89766824 16.6136364,1.89766824 C8.45818687,1.89766824 1.8459596,8.38740941 1.8459596,16.3917859 C1.8459596,24.3961624 8.45818687,30.8859035 16.6136364,30.8859035 M30.6798485,25.0719506 L42.3610808,36.5386094 C43.082851,37.2470094 43.0902348,38.3902329 42.351851,39.1149388 L39.7656616,41.6532212 C39.0383535,42.3670565 37.8532475,42.3634329 37.1407071,41.66228 L25.4576288,30.1974329 C22.8972828,31.7809153 19.8643712,32.6976682 16.6136364,32.6976682 C7.43737121,32.6976682 0,25.3980682 0,16.3917859 C0,7.38550353 7.43737121,0.0859035294 16.6136364,0.0859035294 C25.7899015,0.0859035294 33.2272727,7.38550353 33.2272727,16.3917859 C33.2272727,19.5823035 32.2932172,22.5590329 30.6798485,25.0719506" id="Fill-1" fill="#2A3240" mask="url(#mask-2)"></path>
                    </g>
                    <path d="M16.6136364,18.6352941 C19.6723914,18.6352941 22.1515152,16.2020941 22.1515152,13.2 C22.1515152,10.1979059 19.6723914,7.76470588 16.6136364,7.76470588 C13.5548813,7.76470588 11.0757576,10.1979059 11.0757576,13.2 C11.0757576,16.2020941 13.5548813,18.6352941 16.6136364,18.6352941 M16.6136364,27.6941176 C20.7338182,27.6941176 24.3260556,25.4873882 26.2347778,22.2117176 C25.2231919,21.1282824 23.7704217,20.4470588 22.157053,20.4470588 L11.0702197,20.4470588 C9.45500505,20.4470588 8.00223485,21.1264706 6.99064899,22.2099059 C8.89937121,25.4855765 12.4934545,27.6941176 16.6136364,27.6941176 M16.6136364,29.5058824 C9.47715657,29.5058824 3.69191919,23.8278118 3.69191919,16.8235294 C3.69191919,9.81924706 9.47715657,4.14117647 16.6136364,4.14117647 C23.7501162,4.14117647 29.5353535,9.81924706 29.5353535,16.8235294 C29.5353535,23.8278118 23.7501162,29.5058824 16.6136364,29.5058824" id="Fill-4" fill="#FF4F00"></path>
                </g>
            </g>
        </g>
    </g>
</svg>