<svg viewBox="0 0 48 48" xmlns="http://www.w3.org/2000/svg"><g stroke-width=".5" fill="none" fill-rule="evenodd"><path d="M15.2282167 12.14105244c-.2049556-.19624963-.5284889-.18638523-.7227111.02128633L4.13915 23.3143016c-.18553333.2004031-.18553333.5124296 0 .7133518l10.3663556 11.158193c.1006888.1079892.2361333.162503.3720888.162503.1257334 0 .2519778-.0472453.3511334-.1412166.2049555-.1967689.2146666-.5259283.0209555-.734119L5.21401667 23.6709775 15.2491722 12.8751714c.1937111-.2087099.1845111-.53683098-.0209555-.73411896zM44.0896389 23.3205318L33.7227722 12.16233877c-.1942222-.20767156-.5172444-.21753596-.7227111-.02128633-.2049555.1967688-.2146667.52592823-.0209555.73411897l10.0361777 10.8020363-10.0361777 10.7958061c-.1937112.2081907-.184.536831.0209555.734119.0986445.0944905.2248889.1412166.3511333.1412166.1359556 0 .2708889-.0545138.3720889-.162503L44.09015 24.0338836c.1850222-.2009223.1850222-.5129488-.0005111-.7133518z" stroke="#2A3240" fill="#2A3240" fill-rule="nonzero"/><path d="M28.4583278 12.17999086c-.2642445-.10175907-.5596667.03115073-.6603556.29852787L19.4786167 34.4974152c-.1012.2678963.0306666.5679817.2938889.6707791.0603111.0233631.1221555.0342658.1829777.0342658.2049556 0 .3991778-.1266796.4773778-.3333128l8.3193556-22.01889648c.1012-.26737713-.0301556-.56746254-.2938889-.67025996z" stroke="#FF4F00" fill="#FF4F00"/></g></svg>