<svg id="Layer_1" data-name="Layer 1" xmlns="http://www.w3.org/2000/svg" viewBox="0 0 735.14 178.57"><defs><style>.cls-1{fill:#f58320;}.cls-2{fill:#232323;}</style></defs><path class="cls-2" d="M328.62 2.96h48.88v172.65h-48.88V2.96zm-243.48.41q-4.82-.39-9.94-.4H0v172.64h48.63v-49.33H72.7c33.43 0 59.94-12.6 70.5-36.81zm10.07 63.4c0 12.69-9.64 21-25.47 21H48.63V45.08h20.88c16.06 0 25.7 7.38 25.7 21.22v.46zm380.43 1.3c-24.32-5.43-30.33-8.88-30.33-16.77v-.49c0-6.17 5.77-11.1 17.55-11.1a87.63 87.63 0 0 1 46.91 14.1c.22.14 1-.88 1-.88L475.37.37q-5.47-.39-11.26-.4c-42.11 0-67.94 23.18-67.94 55.25v.49c0 35.52 28.83 45.88 66.18 54.26 23.82 5.43 29.58 9.37 29.58 16.52v.49c0 7.4-7 11.84-20.06 11.84-20.3 0-39.61-7.15-56.91-20.72l-27.07 31.82c21.56 19 51.14 28.61 82.23 28.61 42.62 0 70.94-21 70.94-56.23v-.49c.01-32.28-25.06-45.11-65.42-53.74zm-199.29 47.36c21.81-9.13 36.1-26.64 36.1-53v-.49c0-17-5.26-30.34-15.54-40.2-11.79-11.88-30.34-18.78-57.16-18.78h-83v106.3l44.73 66.35h3.9v-52.29h21.31l35.35 52.29h56.15zm-19.78-49.06c0 13.16-8.35 21.42-22.84 21.42h-28.16V44.37h27.89c14.28 0 23.06 7.22 23.06 21.42v.58zM683.73 2.96l-41.88 66.87-41.89-66.87h-51.41V110l44.28 65.69h3.37V76.98l44.64 67.12h1.01l44.89-67.61v99.2h48.4V2.96h-51.41z"/></svg>