<svg viewBox="0 0 48 48" xmlns="http://www.w3.org/2000/svg"><g fill="none" fill-rule="evenodd"><path d="M13.1076087 25.8651685c.4597826 0 .8684783-.4044943.8684783-.8595505s-.4086957-.8595506-.8684783-.8595506H8.8673913C8.45869565 22.4269663 6.875 21.1123596 4.9847826 21.1123596 2.7880435 21.1123596 1 22.8820225 1 25.0561798S2.78804348 29 4.9847826 29c1.94130436 0 3.525-1.3651685 3.93369566-3.1348315h4.18913044" fill="#FF4F00"/><path d="M4.9847826 27.2808989c-1.22608695 0-2.24782608-1.011236-2.24782608-2.2247191 0-1.2134832 1.02173913-2.2247191 2.2478261-2.2247191 1.22608695 0 2.24782608 1.0112359 2.24782608 2.2247191 0 1.2640449-1.02173913 2.2247191-2.2478261 2.2247191" fill="#FFF"/><path d="M10.65543478 15.5c.71521742 0 1.43043482-.2022472 2.04347822-.5561798l3.0141305 2.9831461c.1532608.1516854.4086956.252809.6130435.252809.2043478 0 .4597826-.1011236.6130434-.252809.3576087-.3539326.3576087-.8595506 0-1.2134832l-2.9630434-2.9325842c.4597826-.6573034.6641304-1.4157304.6641304-2.17415733 0-1.06179775-.4086957-2.0730337-1.175-2.78089887-.7663044-.75842697-1.7369565-1.16292135-2.80978262-1.16292135-1.07282608 0-2.0945652.40449438-2.8097826 1.16292135-.76630435.75842696-1.175 1.71910112-1.175 2.78089887 0 1.06179773.40869565 2.07303373 1.175 2.78089883C8.56086958 15.0955056 9.5826087 15.5 10.65543478 15.5" fill="#FF4F00"/><path d="M9.02065217 9.98876404c.40869566-.40449438.97065218-.65730337 1.58369566-.65730337.61304347 0 1.17499997.252809 1.58369567.65730337.4086956.4044944.6641304.96067416.6641304 1.56741574 0 .60674152-.2554348 1.16292132-.6641304 1.56741572-.4086957.4044944-.9706522.6573034-1.58369567.6573034-.61304348 0-1.175-.252809-1.58369566-.6573034-.40869565-.4044944-.66413043-.9606742-.66413043-1.56741572 0-.60674158.25543478-1.16292135.66413043-1.56741574" fill="#FFF"/><path d="M23.273913 9.78651685v4.50000005c0 .4550561.4086957.8595505.8684783.8595505.4597826 0 .8684783-.4044944.8684783-.8595505V9.83707865c1.8391304-.35393258 3.2184782-1.9719101 3.2184782-3.89325843C28.2293478 3.76966292 26.4413043 2 24.2445652 2c-2.1967391 0-3.9847826 1.76966292-3.9847826 3.94382022.051087 1.87078652 1.3282609 3.43820225 3.0141304 3.84269663" fill="#FF4F00"/><path d="M24.2956522 3.71910112c1.2260869 0 2.2478261 1.01123596 2.2478261 2.2247191 0 1.21348315-1.0217392 2.2247191-2.2478261 2.2247191-1.226087 0-2.2478261-1.01123595-2.2478261-2.2247191 0-1.21348314 1.0217391-2.2247191 2.2478261-2.2247191" fill="#FFF"/><path d="M37.6804348 42.4494382v3.488764c0 .4550562-.4086957.8595506-.8684783.8595506-.4597826 0-.8684782-.4044944-.8684782-.8595506v-3.488764c0-.505618-.2043479-.9606742-.6130435-1.2640449-3.1163044-2.5280899-6.4880435-4.2471911-7.1521739-4.5505618-.3576087-.2022472-.6130435-.5561798-.6130435-.9606742v-4.9044944c0-.3033708.1532609-.5561798.4086956-.7078651.4086957-.252809.6641305-.7078652.6641305-1.2134832V23.741573c0-2.0730337-1.6858696-3.741573-3.7804348-3.741573h-1.123913c-2.0945653 0-3.7804348 1.6685393-3.7804348 3.741573v5.1067416c0 .4550562.2554348.9101124.6641304 1.2134832.2554348.1516853.4086957.4044943.4086957.7078651v4.9044944c0 .4044944-.2554348.8089888-.6130435.9606742-.6641305.3033707-4.0358696 2.0224719-7.1521739 4.5505618-.3576087.3033707-.6130435.7584269-.6130435 1.2640449v3.488764c0 .4550562-.4086957.8595506-.8684783.8595506-.4597826 0-.86847823-.4044944-.86847823-.8595506v-3.488764c0-1.011236.45978263-1.9213483 1.22608693-2.5786517 2.8608696-2.3258427 5.9771739-3.994382 7.1521739-4.6011236v-4.0955056c-.6641304-.6067416-1.0217391-1.4157303-1.0217391-2.3258427V23.741573c0-2.983146 2.4521739-5.4606741 5.5173913-5.4606741h1.0728261c3.0141304 0 5.5173913 2.4269663 5.5173913 5.4606741v5.1067416c0 .9101124-.3576087 1.7191011-1.0217391 2.3258427v4.0955056c1.175.6067416 4.2402174 2.2247191 7.1521739 4.6011236.7152174.6067416 1.175 1.5674157 1.175 2.5786517" fill="#2A3240"/><path d="M32.3673913 18.1797753c.2043478 0 .4597826-.1011236.6130435-.252809l3.0141304-2.9831461c.6130435.3539326 1.3282609.5561798 2.0434783.5561798 1.0728261 0 2.0945652-.4044944 2.8097826-1.1629213 1.5326087-1.516854 1.5326087-4.04494387 0-5.6123596-.7663044-.75842697-1.7369565-1.16292135-2.8097826-1.16292135-1.0728261 0-2.0945652.40449438-2.8097826 1.16292135-.7663044.75842697-1.175 1.71910112-1.175 2.78089888 0 .80898872.2554348 1.56741572.6641304 2.17415732l-2.9630435 2.9325843c-.3576087.3539325-.3576087.8595505 0 1.2134831.1532609.252809.4086957.3539326.6130435.3539326" fill="#FF4F00"/><path d="M36.4543478 9.98876404c.4086957-.40449438.9706522-.65730337 1.5836957-.65730337.6130435 0 1.175.252809 1.5836956.65730337.8684783.85955057.8684783 2.27528086 0 3.13483146-.4086956.4550562-.9706521.6573034-1.5836956.6573034s-1.175-.252809-1.5836957-.6573034c-.4086956-.4044944-.6641304-.9606742-.6641304-1.56741572 0-.60674158.2554348-1.16292135.6641304-1.56741574" fill="#FFF"/><path d="M43.7086957 21.1123596c-1.8902174 0-3.4739131 1.3146067-3.8826087 3.0337078h-4.3423913c-.4597827 0-.8684783.4044944-.8684783.8595506 0 .4550562.4086956.8595505.8684783.8595505H39.775C40.1326087 27.6348315 41.7673913 29 43.7086957 29c2.1967391 0 3.9847826-1.7696629 3.9847826-3.9438202s-1.7880435-3.9438202-3.9847826-3.9438202" fill="#FF4F00"/><path d="M43.7086957 27.2808989c-1.226087 0-2.2478261-1.011236-2.2478261-2.2247191 0-1.2134832 1.0217391-2.2247191 2.2478261-2.2247191 1.2260869 0 2.247826 1.0112359 2.247826 2.2247191 0 1.2640449-1.0217391 2.2247191-2.247826 2.2247191" fill="#FFF"/></g></svg>