<svg viewBox="0 0 48 48" xmlns="http://www.w3.org/2000/svg" xmlns:xlink="http://www.w3.org/1999/xlink"><defs><path id="a" d="M0 42.1882353V.08644706h42.9037929V42.1882353z"/></defs><g fill="none" fill-rule="evenodd"><g transform="translate(3 3.432)"><mask id="b" fill="#fff"><use xlink:href="#a"/></mask><path d="M16.6136364 30.8859035c8.1554495 0 14.7676767-6.4897411 14.7676767-14.4941176S24.7690859 1.89766824 16.6136364 1.89766824c-8.15544953 0-14.7676768 6.48974117-14.7676768 14.49411766 0 8.0043765 6.61222727 14.4941176 14.7676768 14.4941176m14.0662121-5.8139529l11.6812323 11.4666588c.7217702.7084.729154 1.8516235-.0092298 2.5763294l-2.5861894 2.5382824c-.7273081.7138353-1.9124141.7102117-2.6249545.0090588L25.4576288 30.1974329c-2.560346 1.5834824-5.5932576 2.5002353-8.8439924 2.5002353C7.4373712 32.6976682 0 25.3980682 0 16.3917859 0 7.38550353 7.4373712.08590353 16.6136364.08590353c9.1762651 0 16.6136363 7.2996 16.6136363 16.30588237 0 3.1905176-.9340555 6.167247-2.5474242 8.6801647" fill="#2A3240" mask="url(#b)"/></g><path d="M19.6136364 21.6352941c3.058755 0 5.5378788-2.4332 5.5378788-5.4352941 0-3.0020941-2.4791238-5.43529412-5.5378788-5.43529412-3.0587551 0-5.5378788 2.43320002-5.5378788 5.43529412s2.4791237 5.4352941 5.5378788 5.4352941m0 9.0588235c4.1201818 0 7.7124192-2.2067294 9.6211414-5.4824-1.0115859-1.0834352-2.4643561-1.7646588-4.0777248-1.7646588H14.0702197c-1.61521465 0-3.06798485.6794118-4.0795707 1.7628471 1.9087222 3.2756706 5.5028055 5.4842117 9.6229874 5.4842117m0 1.8117648c-7.13647983 0-12.9217172-5.6780706-12.9217172-12.682353 0-7.00428234 5.78523737-12.68235293 12.9217172-12.68235293 7.1364798 0 12.9217171 5.6780706 12.9217171 12.68235293 0 7.0042824-5.7852373 12.682353-12.9217171 12.682353" fill="#FF4F00"/></g></svg>