<svg viewBox="0 0 48 48" xmlns="http://www.w3.org/2000/svg"><g fill="none" fill-rule="evenodd"><path fill="#FF4F00" d="M5.28125 17.9375h11.25V5.28125h-11.25"/><path fill="#2A3240" d="M18.875 7.625h12.65625V5.28125H18.875m0 5.625h16.40625V8.5625H18.875M5.28125 25.4375H17.9375v-2.34375H5.28125M18.875 17.9375h24.84375V17H18.875m0-.9375h22.96875v-.9375H18.875M5.28125 29.1875H25.4375V28.25H5.28125m0-.9375H23.5625v-.9375H5.28125M18.875 14.1875h25.3125V13.25H18.875"/><path fill="#FF4F00" d="M32.46875 36.6875h4.6875V32h-4.6875"/><path fill="#2A3240" d="M38.5625 36.6875h3.75V35.75h-3.75m0-.9375h4.21875v-.9375H38.5625m0-.9375h1.875V32h-1.875"/><path fill="#FF4F00" d="M18.875 36.6875h4.6875V32H18.875"/><path fill="#2A3240" d="M24.96875 36.6875h4.6875V35.75h-4.6875m0-.9375h2.8125v-.9375h-2.8125m0-.9375h3.75V32h-3.75"/><path fill="#FF4F00" d="M32.46875 43.71875h4.6875v-4.6875h-4.6875"/><path fill="#2A3240" d="M38.5625 43.71875H43.25v-.9375h-4.6875m0-.9375h3.75v-.9375h-3.75m0-.9375h2.34375v-.9375H38.5625"/><path fill="#FF4F00" d="M18.875 43.71875h4.6875v-4.6875H18.875"/><path fill="#2A3240" d="M24.96875 43.71875h4.6875v-.9375h-4.6875m0-.9375h4.6875v-.9375h-4.6875m0-.9375h1.875v-.9375h-1.875"/><path d="M2 47h45V2H2v45zm.9375-.9375h43.125V2.9375H2.9375v43.125z" fill="#2A3240"/><path fill="#FF4F00" d="M5.28125 36.6875h4.6875V32h-4.6875"/><path fill="#2A3240" d="M11.375 36.6875h4.6875V35.75H11.375m0-.9375h2.8125v-.9375H11.375m0-.9375h3.75V32h-3.75"/><path fill="#FF4F00" d="M5.28125 43.71875h4.6875v-4.6875h-4.6875"/><path fill="#2A3240" d="M11.375 43.71875h4.6875v-.9375H11.375m0-.9375h4.6875v-.9375H11.375m0-.9375h1.875v-.9375h-1.875"/></g></svg>