<svg viewBox="0 0 48 48" xmlns="http://www.w3.org/2000/svg"><g fill="none" fill-rule="evenodd"><path d="M28.6 35.4333333H5.36666667v-5.4666666H43.6333333v5.4666666H28.6zm-7.5166667 8.2h6.8333334V36.8h-6.8333334v6.8333333zM27.22855 15.59275c-.0027333-.0731167-.0123-.1462333-.0382667-.2159333l-2.05-5.4666667c-.10045-.2665-.3553333-.44348333-.6402833-.44348333s-.5398333.17698333-.6402833.44348333l-2.05 5.4666667c-.0259667.0703833-.0362167.1428166-.0382667.2159333 0 .0082-.0047833.0157167-.0047833.0239167V28.6H8.1V8.1h32.8v20.5H27.2333333V15.6166667c0-.0082-.0047833-.0157167-.0047833-.0239167zM25.1833333 28.6h.6833334V16.3h-.6833334v12.3zm-2.05 0h.6833334V16.3h-.6833334v12.3zm.3027167-13.6666667L24.5 12.09613333l1.06395 2.83719997h-2.1279zm20.1972833-9.56666663V28.6h-1.3666666V7.41666667c0-.3772-.3061334-.68333334-.6833334-.68333334H7.41666667c-.3772 0-.68333334.30613334-.68333334.68333334V28.6H5.36666667V5.36666667H43.6333333zM4.68333333 4C4.30613333 4 4 4.30613333 4 4.68333333V36.1166667c0 .3772.30613333.6833333.68333333.6833333H19.7166667v6.8333333h-2.05V45h13.6666666v-1.3666667h-2.05V36.8h15.0333334c.3772 0 .6833333-.3061333.6833333-.6833333V4.68333333C45 4.30613333 44.6938667 4 44.3166667 4H4.68333333z" fill="#2A3240"/><path d="M40 23.3888889c0 .3986667-.3306667.7222222-.7380952.7222222h-8.8571429v-1.4444444h8.1190476v-4.33333337h-2.2142857V20.5h-1.4761905v-2.16666667h-2.9523809V20.5h-1.4761905v-3.6111111h8.8571429c.4074285 0 .7380952.32355554.7380952.7222222v5.7777778zM9 17.6111111v5.7777778c0 .3986667.33066667.7222222.73809524.7222222h8.85714286v-1.4444444h-8.11904762v-4.33333337h2.2142857V20.5h1.4761905v-2.16666667h2.95238094V20.5h1.47619048v-3.6111111H9.73809524C9.33066667 16.8888889 9 17.21244443 9 17.6111111M14.16666667 27h1.47619047v-1.4444444h-1.47619047M17.11904762 27h1.47619048v-1.4444444h-1.47619048M30.4047619 27h1.4761905v-1.4444444h-1.4761905M33.3571429 27h1.4761904v-1.4444444h-1.4761904m-2.952381-10.11111116h1.4761905V14h-1.4761905m2.952381 1.44444444h1.4761904V14h-1.4761904m-19.19047623 1.44444444h1.47619047V14h-1.47619047m2.95238095 1.44444444h1.47619048V14h-1.47619048" fill="#FF4F00"/></g></svg>